<svg width="512" height="512" viewBox="0 0 512 512" fill="none" xmlns="http://www.w3.org/2000/svg">
<rect width="512" height="512" fill="#00458C"/>
<path d="M107.693 183.234H135.924V279.914C135.924 290.742 133.926 299.572 129.93 306.404C125.998 313.172 120.552 318.135 113.591 321.293C106.63 324.387 98.6699 325.934 89.7109 325.934C80.6875 325.934 72.6631 324.387 65.6377 321.293C58.6123 318.135 53.1338 313.172 49.2021 306.404C45.335 299.572 43.4014 290.742 43.4014 279.914V183.234H71.6318V279.914C71.6318 286.037 72.3086 290.742 73.6621 294.029C75.0801 297.316 77.1104 299.572 79.7529 300.797C82.46 301.957 85.7793 302.537 89.7109 302.537C93.707 302.537 96.9941 301.957 99.5723 300.797C102.215 299.572 104.213 297.316 105.566 294.029C106.984 290.742 107.693 286.037 107.693 279.914V183.234ZM224.676 277.11H252.81C252.423 287.681 250.296 296.607 246.429 303.891C242.562 311.109 237.051 316.588 229.896 320.326C222.807 324.064 214.234 325.934 204.18 325.934C196.381 325.934 189.452 324.645 183.394 322.066C177.335 319.424 172.179 315.557 167.925 310.465C163.671 305.373 160.448 299.089 158.257 291.612C156.13 284.071 155.066 275.402 155.066 265.605V241.726C155.066 231.929 156.194 223.26 158.45 215.719C160.771 208.178 164.058 201.861 168.312 196.77C172.63 191.613 177.818 187.746 183.877 185.168C190 182.525 196.896 181.204 204.566 181.204C214.814 181.204 223.387 183.138 230.283 187.005C237.18 190.872 242.497 196.512 246.235 203.924C250.038 211.271 252.326 220.263 253.1 230.897H224.869C224.676 224.194 223.902 218.941 222.549 215.139C221.26 211.271 219.197 208.564 216.361 207.018C213.525 205.406 209.594 204.601 204.566 204.601C200.828 204.601 197.605 205.277 194.898 206.631C192.191 207.92 189.968 210.015 188.228 212.915C186.487 215.815 185.198 219.618 184.36 224.323C183.587 229.028 183.2 234.765 183.2 241.532V265.605C183.2 272.244 183.555 277.916 184.264 282.621C184.973 287.262 186.101 291.064 187.647 294.029C189.194 296.994 191.289 299.153 193.932 300.507C196.639 301.86 200.055 302.537 204.18 302.537C208.949 302.537 212.784 301.828 215.685 300.41C218.649 298.992 220.841 296.446 222.259 292.772C223.677 289.099 224.482 283.878 224.676 277.11ZM330.057 286.972C330.057 284.458 329.831 282.17 329.38 280.107C328.929 278.045 327.962 276.144 326.479 274.403C325.062 272.663 322.967 270.923 320.195 269.183C317.488 267.442 313.943 265.638 309.561 263.769C304.34 261.577 299.28 259.257 294.382 256.808C289.483 254.294 285.068 251.394 281.137 248.106C277.205 244.819 274.079 240.952 271.759 236.505C269.503 231.993 268.375 226.708 268.375 220.649C268.375 214.72 269.438 209.338 271.565 204.504C273.757 199.67 276.851 195.545 280.847 192.129C284.843 188.648 289.516 185.974 294.865 184.104C300.279 182.235 306.306 181.301 312.944 181.301C321.968 181.301 329.767 183.17 336.341 186.908C342.979 190.646 348.104 195.771 351.713 202.28C355.387 208.79 357.224 216.267 357.224 224.71H328.993C328.993 220.714 328.413 217.201 327.253 214.172C326.157 211.078 324.385 208.661 321.936 206.921C319.486 205.181 316.328 204.311 312.461 204.311C308.852 204.311 305.854 205.052 303.47 206.534C301.149 207.952 299.409 209.918 298.249 212.432C297.153 214.881 296.605 217.652 296.605 220.746C296.605 223.066 297.153 225.161 298.249 227.03C299.409 228.835 300.988 230.479 302.986 231.961C304.984 233.379 307.337 234.765 310.044 236.118C312.815 237.472 315.845 238.793 319.132 240.082C325.513 242.596 331.152 245.367 336.051 248.396C340.949 251.361 345.042 254.713 348.329 258.451C351.616 262.125 354.098 266.282 355.773 270.923C357.449 275.563 358.287 280.849 358.287 286.778C358.287 292.644 357.256 297.993 355.193 302.827C353.195 307.597 350.263 311.722 346.396 315.202C342.528 318.618 337.855 321.261 332.377 323.13C326.963 324.999 320.904 325.934 314.201 325.934C307.691 325.934 301.536 325.031 295.735 323.227C289.935 321.357 284.811 318.554 280.363 314.815C275.98 311.013 272.532 306.211 270.019 300.41C267.505 294.545 266.248 287.616 266.248 279.624H294.575C294.575 283.878 294.994 287.52 295.832 290.549C296.67 293.514 297.959 295.898 299.699 297.703C301.439 299.443 303.566 300.765 306.08 301.667C308.658 302.505 311.591 302.924 314.878 302.924C318.616 302.924 321.581 302.215 323.772 300.797C326.028 299.379 327.64 297.478 328.606 295.093C329.573 292.708 330.057 290.001 330.057 286.972ZM444.525 277.11H472.659C472.272 287.681 470.146 296.607 466.278 303.891C462.411 311.109 456.9 316.588 449.746 320.326C442.656 324.064 434.084 325.934 424.029 325.934C416.23 325.934 409.302 324.645 403.243 322.066C397.185 319.424 392.028 315.557 387.774 310.465C383.521 305.373 380.298 299.089 378.106 291.612C375.979 284.071 374.916 275.402 374.916 265.605V241.726C374.916 231.929 376.044 223.26 378.3 215.719C380.62 208.178 383.907 201.861 388.161 196.77C392.479 191.613 397.668 187.746 403.727 185.168C409.85 182.525 416.746 181.204 424.416 181.204C434.664 181.204 443.236 183.138 450.133 187.005C457.029 190.872 462.347 196.512 466.085 203.924C469.888 211.271 472.176 220.263 472.949 230.897H444.719C444.525 224.194 443.752 218.941 442.398 215.139C441.109 211.271 439.047 208.564 436.211 207.018C433.375 205.406 429.443 204.601 424.416 204.601C420.678 204.601 417.455 205.277 414.748 206.631C412.041 207.92 409.817 210.015 408.077 212.915C406.337 215.815 405.048 219.618 404.21 224.323C403.437 229.028 403.05 234.765 403.05 241.532V265.605C403.05 272.244 403.404 277.916 404.113 282.621C404.822 287.262 405.95 291.064 407.497 294.029C409.044 296.994 411.139 299.153 413.781 300.507C416.488 301.86 419.904 302.537 424.029 302.537C428.799 302.537 432.634 301.828 435.534 300.41C438.499 298.992 440.69 296.446 442.108 292.772C443.526 289.099 444.332 283.878 444.525 277.11Z" fill="white"/>
</svg>
