<svg id="uc_santa_cruz" xmlns="http://www.w3.org/2000/svg" viewBox="0 0 524 125"><defs><style>path{fill:#ffffff;}</style></defs><title>UC Santa Cruz</title><path d="M9.79,114.92c0,3.15,2.24,5.88,6.72,5.88,4.3,0,6.54-2.87,6.54-6V1.31h7.74V112.05c0,6.6-3.44,11.9-14.28,11.9S2.05,118.36,2.05,111.62V1.31H9.79Z"/><path d="M75.55,83.93v27.69c0,6.74-3.44,12.33-14.29,12.33s-14.8-5.3-14.8-11.9V15.37c0-7.46,1-14.78,14.8-14.78,13.43,0,14.29,7.32,14.29,14.63v23H67.8V11.35c0-3.59-.34-7.75-6.54-7.89-6,0-7.06,4.16-7.06,7.89V114.77c0,3.16,2.76,6,7.06,6,4.48-.14,6.54-2.73,6.54-5.88v-31Z"/><path d="M129.08,124c-13.77,0-14.81-7.31-14.81-14.77V83.93h7.58v29.12c0,3.87,1.2,8,7.06,8,6.36-.15,6.71-4.45,6.71-8V86.51c0-4-.86-6.31-1.89-10.18-1.55-5.88-3.45-9-6.37-14.49l-7.58-14.49a39,39,0,0,1-4.47-12.91,57.11,57.11,0,0,1-1-13.34V15.22c0-7.31,1-14.63,14.46-14.63,13.77,0,14.64,7.46,14.64,14.78V37.89h-7.75V11.35c0-3.73-.86-7.89-6.71-7.89-6.37.14-7.06,4.3-7.06,7.89v7.89A63,63,0,0,0,123.05,33a42.37,42.37,0,0,0,4.48,12.19L134.76,59c1.55,3.3,4.3,7.89,5.85,13.06,1.72,5.44,2.76,7.89,2.76,14.2v23.09C143.37,116.64,142.5,123.81,129.08,124Z"/><path d="M188.29,123.09h-7.57V60.55h-13.6v62.54h-7.75V15.37c0-7.46,1-14.78,14.81-14.78,13.42,0,14.11,7.32,14.11,14.63Zm-7.57-67.42V11.35c0-3.59-.35-7.75-6.72-7.89-5.85,0-6.88,4.16-6.88,7.89V55.67Z"/><path d="M226.33,74.9V1.16h7.58V123.09h-7.58V99.85L212.56,34.44v88.65H205V1.16h6.88Z"/><path d="M276.94,5.75H265.58V123.09h-7.75V5.75h-11V1.31h30.13Z"/><path d="M318.94,123.09h-7.58V60.55h-13.6v62.54H290V15.37c0-7.46,1-14.78,14.8-14.78,13.43,0,14.12,7.32,14.12,14.63Zm-7.58-67.42V11.35c0-3.59-.34-7.75-6.71-7.89-5.85,0-6.89,4.16-6.89,7.89V55.67Z"/><path d="M388,83.93v27.69c0,6.74-3.45,12.33-14.29,12.33s-14.8-5.3-14.8-11.9V15.37c0-7.46,1-14.78,14.8-14.78C387.1.59,388,7.91,388,15.22v23h-7.75V11.35c0-3.59-.34-7.75-6.54-7.89-6,0-7.06,4.16-7.06,7.89V114.77c0,3.16,2.76,6,7.06,6,4.48-.14,6.54-2.73,6.54-5.88v-31Z"/><path d="M426.34,123.09V71.46c0-3.59-.51-7.32-2.93-8.9a10.43,10.43,0,0,0-7.05-2.15h-3.45v62.68h-7.74V1.45h13.77c2.06,0,7.75.29,11.36,3,3.79,2.73,3.79,6.46,3.79,10.76V47.78a8.44,8.44,0,0,1-1.89,5.89c-1.73,2.29-6,4.44-6.37,4.58a20.4,20.4,0,0,1,5.33,3.88c2.76,2.87,2.93,5.74,2.93,9v51.92ZM423.24,5.9a15.11,15.11,0,0,0-5.68-1.15h-4.65V57h3.62c3.27,0,6.54-1.44,7.92-3.16,1.2-1.29,1.89-5.16,1.89-8.46V12.78C426.34,9.34,425.83,7.05,423.24,5.9Z"/><path d="M457.5,114.92c0,3.15,2.23,5.88,6.71,5.88,4.31,0,6.54-2.87,6.54-6V1.31h7.75V112.05c0,6.6-3.44,11.9-14.29,11.9s-14.46-5.59-14.46-12.33V1.31h7.75Z"/><path d="M512.24,5.75h-16.7V1.16h26.17L503.63,118.07h19.11v5H494.16Z"/></svg>