<svg id="seal" data-name="University of California" xmlns="http://www.w3.org/2000/svg" viewBox="0 0 214 214.14"><defs><style>.cls-1,.cls-2{fill:#fff;}.cls-2{isolation:isolate;}</style></defs><title>uc-seal</title><path class="cls-1" d="M179.22,109.9c-.08-.09-1.65-1.78-4.64-5,.24-1.34.38-2.89.55-5l.26-3.33L174,97.3a26.31,26.31,0,0,0-3.31,3.49q-5-5.37-13-13.71c0-5.86,0-10.58,0-14.29l18.45,13.57c.53.38,1.11-.47.48-1-3.6-2.74-10.61-7.92-18.92-14V63.25c0-1,.06-3.17-1-2.49-1.92,1.27-10.65-.33-10.86-.28-.8.23-1.52.37-2.26.54-7.75-5.69-15.65-11.5-22.45-16.53-1.63-1.22-2.23-.43-.65.82,1.2.95,10.77,8,21.65,16a34.74,34.74,0,0,1-8.72.56c-4-4.09-8.15-8.41-12.62-13-1.33-1.33-2.3-.54-1,.86.21.23,4.78,5.06,11.31,11.9-2.1-.24-4.08-.58-6.16-.8-1.22-1.73-2.4-3.36-3.52-4.88-2.06-2.78-2.33-.94-1.09.85.65.94,1.55,2.28,2.62,3.88a30.9,30.9,0,0,0-4.07,0c-.2-.58-.4-1.14-.58-1.65-.78-2.21-2.29-2.91-1.26.64.13.43.26.89.39,1.31a30.15,30.15,0,0,0-3.17,1.1c-.41-2.23-.82-4.46-1.22-6.66s-1.56-2.16-1.18.26.73,4.67,1.1,7A9.63,9.63,0,0,0,109.19,66c0-4-.1-7.76-.17-11.34s-1.06-2.24-1.09,0c0,2.66-.05,6.25-.08,10.44A10.6,10.6,0,0,0,103.44,62l1-6.15c.38-2.42-.76-2.58-1.18-.26-.37,1.95-.72,3.93-1.08,5.92A13.75,13.75,0,0,0,99,60.82c.08-.3.18-.62.26-.91,1-3.6-.46-2.9-1.22-.65-.17.48-.35,1-.54,1.57l-4.2.1c1.09-1.63,2-3,2.67-4,1.24-1.8,1-3.64-1.09-.86-1.11,1.51-2.29,3.14-3.51,4.87-2.12.06-4,.13-5.59.2C92,54.67,96.27,50.11,96.47,49.9c1.28-1.4.31-2.18-1-.86-4.2,4.31-8.16,8.38-11.92,12.26-6,.29-8.1.58-10.07.64,11.15-8.22,21.08-15.56,22.3-16.53,1.59-1.25,1-2-.66-.83C88,49.86,79.64,56,71.55,61.93l-.84,0c-.52,0-.82,0-1.68.08-2,0-6.77.09-8.1,0-.46,0-1.31-.39-1.57-.41-1,0-1.17.59-1.19,1.6,0,.36,0,3.6,0,8.64-8.15,6-15,11.06-18.54,13.75-.63.48,0,1.34.49,1L58.2,73.18c0,4,0,8.94,0,14.4C44.48,102,37.28,109.81,37.11,110c-1,1-.12,1.57.66.83C40.79,108,48.94,99.6,58.24,90c0,6.89,0,14.48.07,22-7.5,12.1-12.86,21-13,21.17-1.23,1.75-1,2.78.29,1.27.29-.35,5.59-8.56,12.68-19.56,0,4.64,0,9.19.07,13.48-1.84.18-4.33.71-5.19,1.78-1,1.25-.72,2.46-.87,4.3a18,18,0,0,1-.65,3.69,10,10,0,0,1-2.63,3.35,10.92,10.92,0,0,0-1.79,3.26c-.87,2.06.41,4.89,1.65,7.17a5.7,5.7,0,0,0,3.29,2.71c4.86.83,5.54-2.63,6.26-4.49l.12-.31c.05,3.22.1,5.18.16,5.29a49,49,0,0,0,6.26-.11l-1.47,4.25c-.89,3.05.61,2,1,.89.6-1.71,1.23-3.44,1.85-5.19L78,154.33c.91,1.29,2.6,3.31,3.31,4.64l.81,1.48.53,1c.6,1.08,1.18,2.08,1.77,3-.46,2.73-.75,4.39-.83,4.74-1,4.28-.13,4.6,1,.61,0-.18.33-1.58.79-3.95.5.73,1,1.48,1.62,2.25,1.36,1.75,4.18,3.55,10.75,6.49a28.47,28.47,0,0,0,10,2c.14,3.28,1,2.42,1.08,0a49,49,0,0,0,16.42-2.53l0,0,0,0a20.9,20.9,0,0,0,6.42-4.53,2,2,0,0,0,0,.21c1.09,4,2,3.67,1-.6,0-.1-.07-.34-.12-.65a11,11,0,0,0,1.22-1.87c.34-.7,3.22-6.94-.27-11.5l-.19-.16,0,0c-.08-.07-.17-.12-.25-.2s-.43-.35-.64-.53c6.58.28,13.61.61,18.49.8.49,1.34,1,2.71,1.47,4,.4,1.1,1.94,2.12,1-.9,0-.05-.41-1.17-1.09-3.08a35.07,35.07,0,0,0,4.8,0q0-3.43.06-6.7c4.07-.74,5.45-1.74,8.12-4.17,3.09-2.82,5.08-6.58,4.94-10.43.19.3.31.47.35.52,1.26,1.51,1.53.47.29-1.28l-1.1-1.81a12.14,12.14,0,0,0-3.34-5.5c-1.51-2.49-3.36-5.5-5.46-8.9a23.15,23.15,0,0,0,6.22-1.71,13,13,0,0,0,6.31-6.71l.25-.65a12.62,12.62,0,0,0,.4-1.23c1.85,1.86,3.35,3.37,4.3,4.25C179.33,111.45,180.21,110.85,179.22,109.9Zm-9.48-8c-1.11,1.3-2.26,2.67-3.22,3.81-.38-1.37-.69-4-1-5.75a13,13,0,0,0-1.16-3.58ZM157.69,89.45l4.19,4.35.07.63a28,28,0,0,1-1.18,11.27c-.72,2.39-1.29,3.23-2.45,3.82l-.74.31Q157.65,98.18,157.69,89.45Zm-3.87-25.37c.14-1,1.81-1.37,2.08.41.25.93.22,23.6.06,45.83a7.1,7.1,0,0,1-2,.16l-.09,0C153.85,88,153.79,64.54,153.82,64.08ZM150.69,64c0-.71,1.6-1,1.5.48.11.39-.08,23.23-.32,45.32l-.75-.33-.09-.68c-.05-2.35,1-2.63.06-3.75a2.63,2.63,0,0,0-1.09-.62C150.27,83.43,150.53,64.38,150.69,64Zm-4-1c.41-1.39,1.67-.37,1.64.14s-.13,20.59-.25,41.19c-.52.09-1.17.21-1.75.33C146.37,92.74,146.48,78.69,146.67,63Zm-.37,42.48.26-.07s2.17-.71,2.75-.24c.8.63.53,3.48.56,4.48a3.14,3.14,0,0,0,0,1v0h0a2.6,2.6,0,0,0,.21.61c.39.81,1.1,1.16,1.16,1.45-.47-.17-.91-.25-1.35-.37l-.05,0h0A18.41,18.41,0,0,0,148,112h0a13.78,13.78,0,0,0-1.75-.17h0a14,14,0,0,0-1.45,0v0a9.65,9.65,0,0,0-3.36.79l-.08,0a5.39,5.39,0,0,0-1,.6l-.17.12a3.93,3.93,0,0,0-.76.77,9.27,9.27,0,0,0-1.14,2.24c-.17-.83-1.09-1.83-1.09-2.49a7,7,0,0,1,2.81-5.45,13.14,13.14,0,0,1,1.22-.87,3.85,3.85,0,0,1,.38-.23c.29-.17.56-.33.83-.46l.38-.19.8-.36.27-.11C145,105.82,145.83,105.61,146.3,105.47Zm5.19,8.72a3.7,3.7,0,0,0,.33.21c0,2,0,4-.07,5.88a7.56,7.56,0,0,0-2,.35c0-2.33.06-4.69.09-7.06.36.13.72.25,1.1.41ZM148,113c0,2.87,0,5.69,0,8.42l-.35.19a10.36,10.36,0,0,1-1.37.55c0-2.92,0-6,0-9.41A10.27,10.27,0,0,1,148,113Zm-3.19-.18c0,3.41,0,6.71,0,9.79l-.61.14c-2.54.17-3.92-.81-4.24-1.44a10.14,10.14,0,0,1-.6-1.15,5.35,5.35,0,0,1-.26-1.48c0-1.28.69-2.14,1.91-3.7A5.57,5.57,0,0,1,144.82,112.85Zm-35.17-45c.44-4.67,12.79-6.29,15-5.72,2,.43,5.41,1.12,7,1.39,0,0,7,1.65,13.24-.65,0,1.1,0,22,0,42a13.47,13.47,0,0,0-5.6,2.53c-2,1.7-3.29,3.62-3.29,6.29,0,1.82.6,3.43,1.55,5.81.53,1.31.9,2.73.94,2.77,1.1,1.89.85,3.45,1.16,5.06.54,2.7,2.19,3.14,2.84,3.3.8.21,1.56.41,2.31.57,0,1.13,0,2.17,0,3.16l-.55-.05a18.3,18.3,0,0,1-8-2.13l-2.81-1.64c-4.89-2.27-11.48-2.11-14.84-.71-1.77.74-2.82,1.25-3.75,2.55l-.26.35.13.41A23.29,23.29,0,0,0,116,136a8.12,8.12,0,0,1,.19,2.85,5.46,5.46,0,0,1-1.48,3l.12-.08c-1.15.67-1.61,2.18-1.78,4.06a17.89,17.89,0,0,0-3.28,1.88S109.22,68,109.65,67.89Zm12.77,80.74a5.11,5.11,0,0,0,.93,1.34,8.74,8.74,0,0,0,1.41,1.2,16.42,16.42,0,0,0,1.77,1.09l.8.45c.44.24.89.49,1.33.75-.42,0-.85.06-1.32.11l-2,.17c-.44,0-.82,0-1.18.09h0a12.09,12.09,0,0,1-3.71-.1h0c-.48-.08-1-.2-1.62-.36a5.51,5.51,0,0,1-2.33-1.28h0a5.82,5.82,0,0,1-1.58-2.39,7.58,7.58,0,0,1-.34-1.28h0a7.44,7.44,0,0,1-.12-1.24v-.06a8.37,8.37,0,0,1,.22-1.88h0a3.69,3.69,0,0,1,.43-1.12A.67.67,0,0,1,115,144a2.16,2.16,0,0,1,.71-.73A1,1,0,0,0,116,143a7.64,7.64,0,0,1,1.4-.18c.3,0,.63,0,1,0s.38,0,.59,0c.49,0,1,.12,1.51.2a.34.34,0,0,0,.14,0c.69.13,1.41.27,2.15.46a7.09,7.09,0,0,0-.28.81c-.13.4-.26.78-.34,1.14a6.52,6.52,0,0,0-.16,1.18A4.43,4.43,0,0,0,122.42,148.63Zm.72-2.21a7.81,7.81,0,0,1,.61-2.27l.81-.1c1.64.49,3.32,1.06,5,1.67C127.37,145.9,125.2,146.13,123.14,146.42Zm12.49,1.25a47.36,47.36,0,0,0,7,1.35c-5.36.18-12.08.53-17.62.85a4.82,4.82,0,0,1-1.37-1.37C127.6,148.13,131.78,147.86,135.63,147.67Zm-10.37,7.82a2.16,2.16,0,0,1-.75,1.94c-3.66,3-6.56,3.64-13.44,2.72-.7-.1-1.35-.22-2-.37,0-1.34,0-2.69,0-4a10.12,10.12,0,0,0,5.74-1.9,7.21,7.21,0,0,1,1.6-.14,10.13,10.13,0,0,0,2.46,1C122.34,155.6,122.85,155.62,125.26,155.49ZM113.11,149l-.15.06-1.36-.75c.53-.22,1-.46,1.41-.68v0A7.35,7.35,0,0,0,113.11,149Zm-4.25.14c3.28.12,5.1,3.36,4.85,3.62-2.39,2.6-7.24,2.73-9.35.1C104,152.35,106.12,149.26,108.86,149.14ZM104,150.51c.66.16-.62.61-.62.61a76.9,76.9,0,0,0-8-.77c0-.13-.11-.24-.16-.37s-.13-.39-.19-.59A63.82,63.82,0,0,1,104,150.51Zm-9.54-3a7.73,7.73,0,0,0-.91-1.85c4.23.63,11,1.77,12.49,2.94-.81.4.14-.21-1.09.88C103.68,148.67,99.54,148,94.47,147.51Zm6.87,4.36c.51.07,1.57.07,1.16.95a42.89,42.89,0,0,0-5.89-.18,11.1,11.1,0,0,1-.58-1C98.61,151.73,100.53,151.79,101.34,151.87ZM102.7,154c1.9.6,3,1.39,4.84,1.66,0,1.21,0,2.44,0,3.66a23.94,23.94,0,0,1-3.94-1.78s-1.61-.83-3.79-1.85a7.2,7.2,0,0,1-2.45-2A27,27,0,0,1,102.7,154ZM71.26,63.81c.06-.59-.07-.84.92-.82,13.33.23,33.77-4.75,35.66,4.78,0,.38.45,61.18.2,79.87-4.44-1.75-7.87-2.44-15.51-3.4l-1.31-1.82c-1.46-2.15-1.85-3-2.9-3.77L85.49,136c-1.5-1.23-3.26-3-3.63-3.23a31.49,31.49,0,0,0-10.77-4.83C71.47,90,70.94,68.24,71.26,63.81ZM68.86,65c0-2,1.09-1.9,1-.49.12,2.06,0,23.12-.51,63.07-.49-.07-1-.14-1.45-.16C68.2,104.32,68.8,68,68.86,65ZM65,64.49c-.2-1,1-1.42,1.09-.13.14.51-.35,38.58-.42,63.1-.52,0-1,.08-1.48.15C64.3,102.8,64.84,64.92,65,64.49ZM60.72,64c.11-1.34,2-.71,2,.75-.22,26.58-.52,48.26-.6,63.29l-.46.11h-1C60.7,101.66,60.68,64.56,60.72,64Zm-5.36,88.22a3.72,3.72,0,0,1-3.36,1c-.9,0-2.46-1.92-3.36-4A8.55,8.55,0,0,1,48.4,146a3.53,3.53,0,0,1,.19-1.12,5.14,5.14,0,0,1,.87-1.34,7,7,0,0,0,2.39,1.83l1.94,1.21a8.86,8.86,0,0,0,4,1.51A8.6,8.6,0,0,1,55.36,152.23Zm2.36-5.73a7.42,7.42,0,0,1-3.68-.78l-1.77-1c-1-1.26-1.42-1.93-1.42-2.23,0-.05,0-.12.14-.23,1-.87,4.87-.86,7.49-.58,0,1.68,0,3.23.05,4.64A3.86,3.86,0,0,0,57.72,146.5Zm3.11,6a49.94,49.94,0,0,1-.24-5.51c0-1.56,0-3.36,0-5.3a13.81,13.81,0,0,1,1.51.1c.06,6,.23,9.36.59,9.55s6.44.2,13.78.22l.08.12s.35.54.42.63l.2.44C68.51,152.79,60.91,152.79,60.83,152.49Zm13.31-4.26c.24.29.55.73.89,1.2-5.85-.24-10.31-.46-10.54-.71a49,49,0,0,1-.25-6.55c.49.11,1,.24,1.5.4a30.25,30.25,0,0,0,.25,5.21C66.2,147.88,69.52,148,74.14,148.23Zm-6.49-4.95c.53.23,1.06.52,1.58.81,0,.08.06.1.1.06a15.89,15.89,0,0,1,3,2.12c-2.88,0-4.71,0-4.65.13C67.62,146.17,67.63,145,67.65,143.28ZM134.21,160a9.9,9.9,0,0,1-.15,1.47c0,.12-.05.23-.07.36a15.72,15.72,0,0,1-.4,1.57v0c-.17.54-.36,1.06-.56,1.56,0,.1-.07.19-.11.29-.2.5-.41,1-.62,1.41h0a8.69,8.69,0,0,1-.8,1.34c-1.37,1.75-3.2,3-7.75,5.13-1.29.45-2.58.82-3.84,1.14l-.71.15c-1.06.25-2.1.47-3.12.63l-.45.07c-1.12.17-2.22.29-3.28.38h-.14c-1.15.07-2.27.1-3.36.08h0a28.8,28.8,0,0,1-3.16-.23l-.57-.07c-.56-.08-1.1-.16-1.63-.27l-1-.24c-.37-.1-.76-.18-1.12-.3a18.41,18.41,0,0,1-2-.74C93.18,171,89,169,87.19,166.54c-.57-.78-1-1.56-1.53-2.34-.32-.49-.65-1-.94-1.5-.54-.93-1.07-1.86-1.62-2.87l-.55-1-.79-1.45c-.56-1.05-1.16-2.12-1.78-3.14-.22-.36-.43-.73-.66-1.08-.08-.16-.79-1.7-.79-1.7l-.06-.12L78,150.7c-.28-.43-.56-.83-.82-1.22s-.55-.8-.8-1.14A13.13,13.13,0,0,0,75,146.62l0,0c-.11-.12-.31-.26-.45-.4a9.31,9.31,0,0,0-1.2-1l-.06,0a21.88,21.88,0,0,0-1.9-1.19h0c-.72-.4-1.48-.8-2.29-1.19-.48-.21-.94-.43-1.43-.63-.65-.29-1.3-.55-2-.79-.5-.17-1-.31-1.48-.46-.75-.23-1.46-.42-2.16-.57-.5-.1-1-.21-1.46-.26a11.35,11.35,0,0,0-1.7-.11l-.44,0h0a35.67,35.67,0,0,1-4.64-.17h0l-.44,0h-.16l-.78.11a8.81,8.81,0,0,0,.55-1.19c.39-1.05.17-2.51.27-3.77a8.42,8.42,0,0,1,1.42-4.19,2.13,2.13,0,0,1,.86-.55l.32-.08c.26-.06.53-.11.82-.15l.37,0c.37,0,.74,0,1.11,0h1.21l1.31-.13.33,0,1.1-.25h0c1.15-.26,2.31-.54,3.54-.71h0a16.71,16.71,0,0,1,2.15-.17h0a14.12,14.12,0,0,1,3.21.33h0a14.38,14.38,0,0,1,1.94.56l.3.1q1,.38,2,.9l.38.2A25.47,25.47,0,0,1,77.93,132a3.39,3.39,0,0,1,.34.23c.81.54,1.65,1.15,2.53,1.87l.06,0,.11.06c.24.13,1.32,1,2.27,1.8L87,139a28.93,28.93,0,0,1,3.61,4.76l1,1.49a20.44,20.44,0,0,1,2,4.37c.07.2.16.4.24.62.19.46.39.93.62,1.41l.51,1c.21.38.42.75.66,1.1s.46.66.71,1l0,0c.24.29.48.55.73.8a.69.69,0,0,1,.11.13,8.81,8.81,0,0,0,.75.62l.17.14a5.51,5.51,0,0,0,1,.59l2.13,1.18c.9.49,1.82,1,2.79,1.43l.24.11a19,19,0,0,0,3.24,1.15,12.23,12.23,0,0,0,1.51.31,2.88,2.88,0,0,0,.4.09c7.53,1,13.79,0,16.31-2.68a4.27,4.27,0,0,0,1.21-3.28l.51,0c2.44-.23,3.37-.31,4.7.86h0C133.22,157.49,134.21,158.51,134.21,160Zm21.08-6.71c-.64-.23-14.47-.63-25.56-.89-.74-.38-1.51-.76-2.35-1.16,10.85.11,22.58.19,26.13,0a20.56,20.56,0,0,0,.12-2.31l1.78-.26h.06C155.41,151,155.35,152.6,155.29,153.24Zm11.18-25.19a10.64,10.64,0,0,1,2,4.72c.59,3.67.42,6.68-2.54,9.46-.38.37-.75.71-1.09,1l-.64.57c-.12.1-.25.21-.36.32l-.66.52-.3.23-.68.45-.29.18c-.23.14-.48.27-.73.39l-.29.14c-.27.11-.54.23-.84.32a1.51,1.51,0,0,1-.3.1c-.31.1-.63.2-1,.29l-.28.07c-.39.09-.79.18-1.23.26h0c-.48.08-1,.17-1.52.25l-2.08.29h0c-.78.1-1.54.17-2.31.24h0c-1,.09-2,.15-3,.17h-.15c-.95,0-1.88,0-2.8,0h-.22c-.91-.05-1.79-.1-2.67-.19l-.16,0a39.13,39.13,0,0,1-11.95-3.07c-.77-.35-1.55-.69-2.33-1s-1.29-.53-1.94-.76h0a34,34,0,0,0-4.7-1.46,2.3,2.3,0,0,1-.28-.06c-.59-.12-1.17-.21-1.73-.28l-.51-.06a11.84,11.84,0,0,0-1.87,0,9.44,9.44,0,0,0,.72-3.22,3.32,3.32,0,0,0-.05-.64,11,11,0,0,0-.87-2.28c-.27-.59-.55-1.23-.8-1.91a5.36,5.36,0,0,1,2.35-2,18.45,18.45,0,0,1,13.08.49l3.41,1.44a21.9,21.9,0,0,0,8.93,2.7c.86.08,1.63.12,2.42.18l1.55.09c.62,0,1.2,0,1.76,0s1.34,0,2,0c.81,0,1.57,0,2.28-.1s1.29-.09,1.87-.17,1.17-.13,1.69-.23c.79-.14,1.48-.3,2.1-.47l.33-.09a14.22,14.22,0,0,0,1.57-.54C165.79,132.52,166.47,129.66,166.47,128.05Zm-20.25,3.52a9.35,9.35,0,0,0,1.67,0c0,1.06,0,2.08,0,3.07l-1.64-.13C146.23,133.61,146.23,132.62,146.22,131.57Zm3.37,3.22c0-1.18,0-2.37,0-3.58a.47.47,0,0,1,.16,0,12.17,12.17,0,0,0,1.83-1c0,1.63,0,3.18-.07,4.67C151,134.86,150.31,134.83,149.59,134.79Zm4.2.08q0-2.94,0-6.23c.64-.51,1.29-1.07,2-1.72,0,2.71-.06,5.31-.09,7.77A14.08,14.08,0,0,1,153.79,134.87Zm10.89-7.4c.17,1,.44,4.34-3.75,5.77-1.41.47-2.5.84-3.53,1.11,0-3,0-6,.06-8.79,1.52-1,3.38-1.07,7.07,1.45A4.15,4.15,0,0,1,164.68,127.47Zm-.72-2.89c-.73-.14-1.38-.22-2-.29l-.31,0c-.5,0-1-.07-1.42-.06h-.18c-.47,0-.91.06-1.31.12l-.06,0a7.5,7.5,0,0,0-1.22.3,7.35,7.35,0,0,0-1.65.78,12.59,12.59,0,0,0-1.76,1.42l-.24.2h0a10,10,0,0,1-2.18,1.53h0a11,11,0,0,1-1.73.68,1.27,1.27,0,0,1-.23.08l-.52.19a12.51,12.51,0,0,1-1.25.45h0a6.72,6.72,0,0,1-3.14.26,4.38,4.38,0,0,1-1.09-.28,5,5,0,0,1-2.88-3.12c-.23-1.2.24-1.4-.2-3.22a9.35,9.35,0,0,0,1.89.35,17.56,17.56,0,0,0,2.31,0,3.84,3.84,0,0,0,.48,0,3.11,3.11,0,0,0,1-.26,11.12,11.12,0,0,0,1.54-.73l.17-.09a12.2,12.2,0,0,1,2.54-1.11,7.76,7.76,0,0,1,1.24-.28,8.11,8.11,0,0,1,1.77,0h1.79a17.77,17.77,0,0,1,3.46.08l.58.1.43.1c.24.06.48.15.73.23l.28.1a6.89,6.89,0,0,1,1,.49c.09,0,.18.12.27.18a8.66,8.66,0,0,1,.74.54c.09.09.19.16.28.24A9.71,9.71,0,0,1,164,124.58Zm-10.13-4.2c0-1.6,0-3.22,0-4.87a18.61,18.61,0,0,0,2.07.83c0,1.44,0,2.87,0,4.3Zm9.18,2.09c-2.72-2-3.9-2-5.5-1.89,0-1.29,0-2.57,0-3.82a9,9,0,0,0,1.89.14Zm10.66-21a28.21,28.21,0,0,1-1.07,4.5c-.13.4-.26.78-.38,1.09l-.25.64c-1.32,3.34-2.88,5.93-8,7.63a8.06,8.06,0,0,1-1.89.39,8.84,8.84,0,0,1-1.63,0h-.07a18.38,18.38,0,0,1-2-.32h0l-.79-.18-.08,0-1.06-.24c-.2,0-.37-.12-.55-.17h0a7,7,0,0,1-4.33-3s-.05,0-.07-.08l-.17-.54s0-.09,0-.22a13.36,13.36,0,0,0,2.52.37,11,11,0,0,0,2.1-.13,9.17,9.17,0,0,0,1.63-.39l.08,0,.28-.09a6.14,6.14,0,0,0,4.52-4.48c.47-1.56.6-6.33.84-8.9,1.48,3.23,2.26,9.11,2.37,9.72l.33,1.83a12.67,12.67,0,0,0,1.2-1.43c1.49-2.06,2.53-3.5,3.4-4.64v0c.32-.42.62-.79.9-1.12h0c.39-.46.76-.87,1.14-1.24l.09-.08a14,14,0,0,1,1.2-1.07C173.88,100,173.79,100.75,173.67,101.46ZM75,146.6l0,0,0,0Z"/><path class="cls-1" d="M56.61,58.9c-.89.45-1.33-.33-.42-.87,2-1.17,33.41-15.25,35.87-16.4,1.48-.7,2.37.27.87,1.08C92.93,42.71,58.58,57.9,56.61,58.9Z"/><path class="cls-1" d="M92.36,39.21s.46.54-.1.69c-.8.2-10.79.66-11.33.66-.37,0-2.88.2-3.67.2-1.8-.22-.53-.61.3-.73C80.75,39.56,91.46,38.74,92.36,39.21Z"/><path class="cls-1" d="M158.94,58.8c.88.44,1.32-.33.41-.87-2-1.17-33.41-15.25-35.87-16.4-1.49-.7-2.36.28-.87,1.07C122.61,42.6,157,57.81,158.94,58.8Z"/><path class="cls-1" d="M124.3,39.1s-.45.48.12.62c.76.2,10.54.61,11.07.62.36,0,2.82.18,3.59.18,1.76-.2.52-.56-.29-.68C137.77,39.7,125.62,38.45,124.3,39.1Z"/><path class="cls-1" d="M91.24,187.18l-.08.3a.5.5,0,0,0-.68.42l-2.59,9.65a.51.51,0,0,0,.39.71l-.09.3-3.82-1,.09-.31c.42.12.67,0,.78-.39l2-7.27c-.39,0-1.23-.08-1.42.41l-.37-.1.73-2.73.37.1c-.07.26.22.38.53.47a.74.74,0,0,0,.93-.61.44.44,0,0,0-.3-.57l.08-.29Z"/><path class="cls-1" d="M96.6,193.52a2.8,2.8,0,0,1-1.76-2.58c.15-1.66,2.11-3,5.42-2.68,3.58.32,5.3,1.89,5.15,3.49a2.81,2.81,0,0,1-2.27,2.38,3,3,0,0,1,2.17,3.15c-.17,2.06-2.3,3.33-5.91,3s-5.63-2.2-5.47-4A3.19,3.19,0,0,1,96.6,193.52Zm2.88,4.89c1.57.13,3-.37,3.12-1.59s-1.23-2-2.8-2.12-3,.38-3.11,1.6S97.92,198.27,99.48,198.41Zm.5-5.4c1.75.15,2.6-.39,2.68-1.29s-.66-1.6-2.41-1.75-2.6.38-2.68,1.3S98.23,192.86,100,193Z"/><path class="cls-1" d="M115.59,191.58l-.34-.15c0-.63-1.11-1.26-2.62-1.18-2.19.12-3.31,1.93-3.17,4a5.3,5.3,0,0,1,3.49-1.64c2.68-.13,4.73,1,4.88,3.87.09,1.91-1.69,4-5,4.13-4,.2-5.82-2.39-6-5.23-.19-3.54,1.57-6.62,5.83-6.84a16.62,16.62,0,0,1,3.93.6A.54.54,0,0,0,117,189l.23.11Zm-.41,4.91a2.68,2.68,0,1,0-2.51,2.33A2.41,2.41,0,0,0,115.18,196.49Z"/><path class="cls-1" d="M121.44,193a2.8,2.8,0,0,1-2.57-1.78c-.46-1.59.9-3.51,4.1-4.43,3.46-1,5.62-.15,6.06,1.4a2.86,2.86,0,0,1-1.27,3.05,3,3,0,0,1,3.16,2.15c.57,2-1,3.93-4.44,4.93s-6-.05-6.54-1.76A3.21,3.21,0,0,1,121.44,193Zm3-1.69c1.69-.48,2.29-1.29,2-2.17s-1.19-1.24-2.88-.77-2.29,1.3-2,2.18S122.72,191.75,124.41,191.26Zm1.47,5.22c1.5-.43,2.68-1.42,2.34-2.61s-1.86-1.39-3.37-1-2.68,1.41-2.34,2.6S124.37,196.92,125.88,196.48Z"/><path class="cls-1" d="M67,137.19l3.21,1.17c.1,0,.16,0,.31-.34l.12,0-.92,2.52-.12,0c.09-.31.07-.39,0-.42l-4.86-1.78,0-.18c.25.06.31,0,.37-.16l2.43-6.71c0-.13.06-.24-.16-.35l.06-.17,1.92.69-.06.18c-.25-.05-.31,0-.36.16Z"/><path class="cls-1" d="M76.12,140.42l-.09,0c.07-.19.09-.36-.08-.46l-1.58-1-.74,1.24,2.74,1.63c.09.05.16,0,.38-.3l.11.06-1.38,2.28-.1-.06c.11-.23.12-.31,0-.38l-4.24-2.55.1-.16c.22.1.3,0,.37-.09l3.68-6.11c.07-.12.1-.24-.09-.38l.09-.17,4.24,2.55c.09.06.17,0,.38-.27l.1.06-1.38,2.29-.1-.07c.16-.32.17-.4.07-.45l-2.73-1.64-.65,1.08,1.57,1c.18.11.32,0,.45-.14l.1.06Z"/><path class="cls-1" d="M77.85,145.51l.12-.14c.2.14.3.09.39,0l4-4.13-1.22-1.18c-.08-.07-.16-.05-.42.18l-.09-.08,1.89-2,.08.08c-.22.28-.24.36-.16.43l3.52,3.41c.08.07.16,0,.43-.19l.08.08-1.89,2-.09-.08c.23-.28.25-.36.17-.44l-1.22-1.18-4,4.12c-.1.1-.15.2,0,.39l-.13.13Z"/><path class="cls-1" d="M83.48,153.35l.16-.07c.13.21.24.19.37.13l5.2-2.38-.71-1.56c0-.09-.13-.1-.46,0l-.05-.12,2.48-1.13,0,.11c-.31.17-.37.24-.32.34l2,4.46c0,.1.13.1.46,0l.05.11-2.48,1.15,0-.11c.31-.18.36-.26.32-.35l-.71-1.55-5.21,2.39c-.13.06-.21.13-.14.37l-.16.07Z"/><path class="cls-1" d="M89.4,163.91c-.11.07-.18.17-.06.39l-.15.11L88,162.76l.15-.11c.17.18.28.14.39.07L90.82,161,89.3,159,87,160.62c-.11.08-.18.17-.06.39l-.15.11-1.2-1.65.15-.12c.17.18.28.15.39.07l5.77-4.19c.11-.09.18-.17.06-.39l.15-.11,1.2,1.65-.14.11c-.18-.18-.28-.14-.4-.06l-2,1.43L92.33,160l2-1.44c.11-.07.18-.16.06-.38l.15-.11,1.2,1.66-.15.1c-.17-.18-.27-.15-.38-.07Z"/><path class="cls-1" d="M96.41,166.31l-.09-.07c.09-.17.12-.34,0-.46l-1.49-1.09L94,165.85l2.57,1.87c.09.06.17,0,.43-.26l.08.06-1.56,2.16-.09-.07c.13-.23.14-.31.05-.38l-4-2.91.11-.14c.22.11.31,0,.39-.06l4.2-5.78c.07-.11.11-.22-.07-.39l.11-.14,4,2.91c.09.06.17,0,.4-.24l.1.06-1.57,2.15-.1-.05c.19-.32.2-.4.11-.46l-2.58-1.88-.74,1,1.49,1.08c.16.11.31,0,.45-.11l.1.07Z"/><path class="cls-1" d="M99.89,170.74c0,.13,0,.23.18.34l-.06.18-1.94-.63.06-.18c.25.05.3,0,.35-.18l2.2-6.78c0-.14,0-.24-.18-.35l.06-.18,3.45,1.13c1.4.45,1.75,1.4,1.21,3.06a2.44,2.44,0,0,1-2.13,1.95l.33,2.77c0,.23.08.33.19.36l-.06.18-2-.64.06-.17c.13,0,.23,0,.29-.21s-.31-2.46-.32-2.8l-.94-.3Zm1.3-4,1.58.52a.73.73,0,0,0,1-.56c.14-.44.09-.87-.46-1l-1.59-.52Z"/><path class="cls-1" d="M110.52,170.26l-.12,0c0-.21-.07-.37-.27-.38l-1.83-.12-.11,1.42,3.18.21c.11,0,.16-.06.21-.43h.12l-.19,2.66h-.11c0-.26-.05-.34-.16-.34l-4.94-.35,0-.19c.24,0,.28-.12.29-.25l.5-7.12c0-.13,0-.25-.26-.29v-.19l4.94.35c.11,0,.15-.08.21-.42h.12l-.18,2.66-.13,0c0-.35,0-.43-.14-.43l-3.18-.22-.09,1.26,1.84.13c.2,0,.28-.13.32-.33h.12Z"/><path class="cls-1" d="M115.9,165.05c0-.12-.1-.21-.34-.18l-.06-.18,3.62-1.1c1-.3,1.95,0,2.39,1.5a1.58,1.58,0,0,1-.42,1.87v0a1.85,1.85,0,0,1,1.67,1.54,2,2,0,0,1-1.25,2.76l-3.66,1.12-.06-.18c.23-.11.23-.22.19-.35Zm2.18,2,1.29-.41c.82-.24,1-.39.82-1s-.42-.6-1.23-.35l-1.29.39Zm1,3.24,1.62-.49c.66-.2.86-.52.65-1.16s-.53-.8-1.19-.6l-1.61.5Z"/><path class="cls-1" d="M128,165.31l-.11.05c-.11-.15-.24-.26-.42-.18l-1.64.84.64,1.28,2.84-1.45c.1,0,.1-.14-.05-.49l.1-.07,1.21,2.38-.1.06c-.15-.22-.22-.26-.31-.22l-4.41,2.25-.09-.17c.21-.14.19-.24.13-.37l-3.25-6.36c-.06-.12-.13-.19-.37-.12l-.08-.15,4.41-2.25c.09-.06.09-.14,0-.47l.1-.05,1.21,2.37-.11.06c-.18-.31-.25-.35-.35-.31l-2.84,1.45.58,1.13,1.64-.83c.18-.1.17-.26.11-.45l.11-.06Z"/><path class="cls-1" d="M125.29,138.8l3.31.83c.11,0,.17,0,.28-.38l.12,0-.65,2.61-.12,0c.05-.33,0-.4-.08-.43l-5-1.25,0-.18c.25,0,.31-.08.34-.2l1.73-6.93c0-.14,0-.24-.21-.34l0-.18,2,.5,0,.18c-.24,0-.3.06-.33.2Z"/><path class="cls-1" d="M129.81,142.23l.07-.17c.24.06.31,0,.36-.15l2.67-6.62c.05-.13.07-.24-.15-.36l.07-.17,1.89.77-.07.16c-.24-.06-.31,0-.36.16l-2.67,6.62c-.06.13-.06.23.15.35l-.06.17Z"/><path class="cls-1" d="M139.76,142.44l-1.23-.33c-.11,0-.17.08-.23.25l-.11,0,.56-2.07.11,0c0,.19,0,.28.07.3l2.83.76,0,.18c-.12,0-.18,0-.22.21l-.66,2.45c0,.14-.05.26,0,.28h.05l-.05.19a4.87,4.87,0,0,1-3.39.28c-1.6-.43-2.76-2.14-2-4.82s2.58-3.57,4.18-3.14a3.54,3.54,0,0,1,1.47.77c.28.22.51.55.6.58a.22.22,0,0,0,.16-.09l.1.09-1.15,1.78-.08-.12a.76.76,0,0,0,.05-.16c.08-.28-.75-1-1.54-1.18s-2,.28-2.38,1.88.39,2.57,1.22,2.79a3,3,0,0,0,1.42.07Z"/><path class="cls-1" d="M149.43,146.08c0,.13,0,.24.26.29v.18l-2-.15v-.16c.26,0,.29-.13.3-.27l.2-2.82-2.57-.19-.2,2.83c0,.13,0,.25.25.29v.18l-2-.13V146c.25,0,.28-.13.29-.26l.5-7.13c0-.13,0-.24-.26-.29l0-.18,2,.14,0,.18c-.24,0-.28.12-.29.26l-.17,2.43,2.57.18.17-2.42c0-.15,0-.26-.26-.3l0-.18,2,.13v.18c-.25,0-.29.13-.29.26Z"/><path class="cls-1" d="M154.48,146l0-.18c.25-.08.26-.18.24-.32l-.9-5.66-1.68.28c-.11,0-.14.08-.11.43l-.12,0-.43-2.69.12,0c.08.35.14.41.24.4l4.84-.77c.11,0,.14-.09.11-.46h.11l.43,2.68-.11,0c-.09-.35-.14-.42-.25-.4l-1.68.27.9,5.66c0,.14.06.23.31.23l0,.18Z"/><path class="cls-1" d="M54.43,165.62l-.21.23c-.35-.25-.54-.25-.81,0l-6.26,6.48,2.37,2.29c.45.44.66.54,1,.28l.28.26-1.95,2-.28-.27c.18-.3.07-.5-.39-.94l-6.71-6.49c-.46-.43-.66-.53-1-.36l-.28-.26,1.95-2,.27.28c-.25.37-.14.57.32,1l2.37,2.28L51.44,164c.27-.27.26-.46-.07-.88l.22-.22Z"/><path class="cls-1" d="M40.19,158.22l3.71-2.6c.31-.21.34-.41.06-.91l.26-.18,2.4,3.42-.27.18c-.38-.44-.57-.47-.88-.25l-8.18,5.73c-.31.22-.34.4-.06.91l-.26.18-2.39-3.42.25-.18c.38.44.58.48.89.26l3.08-2.16-3.41-4.86-3.08,2.16c-.31.22-.34.41-.06.92l-.26.18-2.39-3.42.25-.18c.39.43.58.47.89.26l8.18-5.74c.31-.22.34-.41.06-.92l.26-.18,2.39,3.41-.25.19c-.38-.43-.58-.46-.89-.25l-3.7,2.6Z"/><path class="cls-1" d="M34.27,141.93l-2.57-5.77c-.26-.58-.41-.75-.75-.68l-.16-.36,2.46-1.1.16.35c-.28.21-.25.44,0,1l4,9.09-.28.13c-.37-.65-.54-.72-.89-.57l-9.13,4.07c-.35.15-.41.34-.15,1.1l-.29.12-3.91-8.78c-.26-.58-.41-.76-.75-.69l-.16-.36,2.42-1.07.16.35c-.24.2-.21.43.05,1l2.41,5.42L29.6,144l-1.43-3.21c-.25-.58-.41-.75-.75-.69l-.16-.35,2.42-1.08.16.35c-.24.19-.21.43.05,1l1.43,3.22Z"/><path class="cls-1" d="M16.39,112h.31c.08.51.22.65.6.63l6.64-.23c1.52-.06,2.47-1.16,2.4-3.16s-1.1-3-2.62-3l-6.63.24c-.38,0-.51.15-.56.67h-.32l-.13-3.89h.31c.09.57.23.7.61.69l6.59-.23c2.69-.09,4.49,1.46,4.63,5.55s-1.54,5.77-4.23,5.87l-6.59.22c-.38,0-.51.15-.56.79h-.31Z"/><path class="cls-1" d="M28.07,99.29l-.31,0c0-.5-.1-.65-.47-.72L17.42,97c-.38,0-.53,0-.66.43l-.31-.05.71-4.47.31,0c0,.38,0,.5.12.52.38.07,7.06-3.69,8.11-3.8v-.06l-6.95-1.1c-.38-.06-.54.06-.67.51l-.31,0,.58-3.69.31,0c0,.47.11.63.48.69L29,87.55c.43.07.52,0,.64-.4l.31,0-.62,4-.31-.06c0-.27,0-.53-.23-.56-.38-.06-6.64,3.68-8.78,4.22l0,.06L27.68,96c.37.06.53-.05.66-.47l.31,0Z"/><path class="cls-1" d="M31.35,83.38l-.31-.1c.19-.77.1-.94-.26-1.06l-9.5-3.08c-.36-.12-.53,0-.85.71l-.29-.1,1.42-4.39.3.1c-.18.78-.09,1,.27,1.07l9.5,3.08c.36.12.53,0,.84-.71l.3.1Z"/><path class="cls-1" d="M35.46,72.39l-.28-.13c.17-.35.12-.68,0-.75s-7.73-.32-10.72-.61c-.48-.05-.91,0-1.11.23L23,71l1.69-3.48.29.14c-.13.42-.09.59.09.68.4.2,5.91.34,8.63.64l0,0c-2-2.16-5.65-6.21-6-6.36-.12-.05-.24,0-.54.45L27,62.87l1.62-3.33.29.14c-.09.47.09.66.48,1.09,2.62,2.92,6.68,7.52,7.22,7.79.18.08.4-.06.57-.4l.28.14Z"/><path class="cls-1" d="M41.51,58.42l3.8-5c.38-.51.46-.72.24-1l.23-.31,2.15,1.62L47.7,54c-.32-.13-.5,0-.89.51l-6,7.94-.25-.19c.4-.64.37-.83.07-1.05l-8-6c-.31-.23-.5-.2-1,.4l-.24-.2,5.78-7.67c.38-.51.46-.73.24-1l.23-.3L39.75,48l-.24.31c-.28-.11-.46,0-.84.52L35.1,53.6l2.33,1.76,2.11-2.82c.38-.5.46-.72.24-1l.23-.3,2.12,1.58-.24.31c-.28-.11-.46,0-.85.54l-2.11,2.8Z"/><path class="cls-1" d="M50.22,50.65,50,50.42c.3-.37.31-.56.06-.84l-6.7-7.42c-.25-.28-.45-.29-.88,0l-.21-.23,5.1-4.59c2.24-2,4.43-2.31,5.78-.81,1.14,1.26,1.23,2.88-.07,4.55L57,42.18c1.13.35,1.48.54,1.94.23l.21.23-3,2.72-.21-.24c.21-.21.35-.43.21-.58s-.17-.15-.71-.29l-4.09-1.14-1.86,1.67,2.67,3c.26.29.45.29.89,0l.21.24Zm-2-7.27,2.34-2.11c1.24-1.12,1.38-2,.72-2.77s-1.58-.68-2.82.44l-2.35,2.11Z"/><path class="cls-1" d="M61.6,36.8l.4-.09a1.44,1.44,0,0,0,.07.22c.41.67,2.63,0,4-.81,2.17-1.3,2.53-2.33,2-3.23-1.27-2.11-7.88,3.76-10,.17-.91-1.52-.39-3.74,2.69-5.59a10.63,10.63,0,0,1,3.08-1.29,8.7,8.7,0,0,0,1.51-.36.81.81,0,0,0,.4-.56l.23,0-.31,3.42-.4.08c0-.06-.1-.22-.17-.34-.26-.44-1.72-.51-3.67.66-1.34.81-1.56,1.67-1.17,2.32,1.23,2,7.76-3.92,10.14,0,1,1.57.22,4.2-3.45,6.4a11.46,11.46,0,0,1-3,1.25,7.66,7.66,0,0,0-1.69.44c-.14.08-.17.26-.24.51l-.3,0Z"/><path class="cls-1" d="M75.38,33.29,75.26,33c.71-.36.78-.54.64-.89l-3.74-9.27c-.14-.35-.32-.42-1.08-.2L71,22.36l4.27-1.73.12.3c-.71.35-.79.53-.64.89l3.74,9.26c.14.35.31.43,1.08.2l.12.28Z"/><path class="cls-1" d="M86.64,29.21l-.07-.31c.39-.17.49-.32.39-.7l-2.18-8.74-3.19.8c-.62.16-.81.28-.78.73l-.38.09-.68-2.72.38-.09c.16.31.39.32,1,.17l9.06-2.27c.62-.15.81-.26.81-.61l.37-.09.68,2.71-.37.09c-.19-.41-.42-.42-1-.27l-3.2.8,2.18,8.74c.09.36.26.47.78.4l.08.31Z"/><path class="cls-1" d="M105,26.36l-4.06.29,0-.31c.52-.11.65-.25.62-.63l-.28-4-4.68-5.8a1.09,1.09,0,0,0-.71-.43l0-.31,4.27-.29,0,.31c-.42,0-.6.15-.59.35s2,2.48,3.11,3.85c.67-1.39,2.46-3.81,2.43-4.21,0-.22-.15-.28-.68-.29l0-.31,4.06-.28,0,.31a1.16,1.16,0,0,0-.68.56L104,21.54l.28,4c0,.38.17.5.69.53Z"/><path class="cls-1" d="M137.52,19.28c4,1.37,5.37,4.67,4.27,7.85s-4.22,4.92-8.2,3.54-5.37-4.66-4.27-7.84S133.54,17.92,137.52,19.28Zm-3.31,9.62c2.31.79,4.11-.15,5-2.67s0-4.37-2.29-5.16-4.12.13-5,2.66S131.89,28.1,134.21,28.9Z"/><path class="cls-1" d="M142.42,34.06l.15-.27c.69.3.87.25,1.06-.08L148.47,25c.19-.32.13-.51-.53-1l.15-.27,8.43,4.67c.47.26.7.31.94.06l.33.19L156.49,31l-.34-.19c.09-.33-.07-.5-.55-.77l-5.21-2.88L149,29.72l3.27,1.8c.55.31.77.36,1,.06l.34.19-1.32,2.36L152,34c.08-.31-.08-.48-.63-.79l-3.26-1.81L146,35c-.18.33-.13.52.56,1l-.15.27Z"/><path class="cls-1" d="M181.58,52.86l-3.23.34-.09-.25a.5.5,0,0,0,.19-.13c.62-.52.32-2-.6-3.08-1.7-2-3.65-2.47-6-.51a3.9,3.9,0,0,0-.44,5.76c1,1.17,2.49,1.71,3,1.23a2,2,0,0,0,.3-.38l.27.19-.38,3.34-.3,0a.76.76,0,0,0-.12-.51c-.41-.49-2.16-.12-4.44-2.85-2.69-3.19-2.15-6.81.29-8.86,3.19-2.67,6.9-1.33,9.16,1.37A6.81,6.81,0,0,1,180.65,51a7.17,7.17,0,0,0,.38,1.33,1.43,1.43,0,0,0,.54.33Z"/><path class="cls-1" d="M174.53,61.77l.27-.16a.72.72,0,0,0,.75.25l10.33-1.14a2.47,2.47,0,0,0,.78-.15c.12-.07.14-.21,0-.66l.27-.15,2.22,4-.28.15c-.21-.35-.41-.43-.61-.32a4.56,4.56,0,0,0-.64.73l-6.24,8c-.28.35-.3.48-.19.77l-.27.15L179.05,70l.28-.16c.21.29.31.39.45.31a.68.68,0,0,0,.28-.28l1.38-1.77-2.39-4.32-2,.22a.92.92,0,0,0-.41.11c-.18.09-.29.31-.08.73l-.27.15Zm8,5,3.23-3.87,0,0-5,.72Z"/><path class="cls-1" d="M192.32,72.63c.36-.12.44-.3.28-1l.3-.11,1.47,4.26-.3.1c-.32-.73-.5-.82-.85-.69l-8.52,2.93,2,5.72c.2.59.33.78.81.71l.12.36-2.66.91-.13-.36c.29-.19.28-.42.08-1l-3.12-9,.3-.09c.27.57.44.66.8.53Z"/><path class="cls-1" d="M185.83,88.34l.31-.07c.22.78.37.89.75.82l9.81-1.92c.36-.07.47-.23.38-1l.32-.07.88,4.53-.31.07c-.22-.78-.38-.88-.75-.81l-9.81,1.91c-.37.07-.47.23-.39,1l-.31.06Z"/><path class="cls-1" d="M187.33,96.19l.32,0c.12.73.26.86.64.84l10-.7c.38,0,.51-.16.52-1l.31,0,.67,9.61c.05.55.12.77.47.83l0,.38-2.68.19,0-.38c.32-.11.38-.33.34-.88l-.42-5.95-2.9.21.26,3.72c.05.63.13.85.51.9l0,.39-2.7.18,0-.38c.3-.11.35-.33.31-1l-.26-3.72-4.2.29c-.38,0-.5.18-.51,1h-.32Z"/><path class="cls-1" d="M199.1,117.48c-.52,4.17-3.46,6.21-6.79,5.81s-5.69-3.1-5.18-7.28,3.46-6.22,6.8-5.81S199.61,113.31,199.1,117.48ZM189,116.24c-.3,2.43,1,4,3.65,4.32s4.28-.88,4.58-3.31-1-4-3.64-4.32S189.3,113.82,189,116.24Z"/><path class="cls-1" d="M185.6,126.17l.3.1c-.09.47,0,.63.35.76l9.44,3.25c.36.13.53,0,.76-.43l.3.1-2.23,6.49c-1,2.86-2.77,4.17-4.67,3.52-1.62-.56-2.47-1.93-2.15-4l-3.91.92c-1.15.25-1.56.25-1.8.75l-.29-.11,1.32-3.84.3.1c-.08.29-.1.55.09.62s.22,0,.76-.1l4.14-1,.81-2.37-3.77-1.3c-.36-.13-.53,0-.76.44l-.3-.11Zm5.3,5.37-1,3c-.55,1.6-.23,2.46.7,2.78s1.72-.16,2.26-1.75l1-3Z"/><path class="cls-1" d="M180.13,141.16l.28.16c-.2.47-.15.65.18.85l8.65,5A.52.52,0,0,0,190,147l.28.15L188,151.07l-.27-.15c.17-.35.18-.47.06-.54-.32-.18-7.92.93-8.93.66l0,0,6.1,3.52c.32.18.51.14.8-.24l.28.16-1.87,3.23-.28-.15c.18-.44.13-.63-.2-.81l-8.65-5c-.39-.22-.52-.14-.75.14l-.27-.17,2-3.46.28.15c-.1.26-.19.5,0,.61s7.51-1.06,9.71-.79l0-.06-6.71-3.87c-.33-.19-.51-.14-.79.21l-.27-.15Z"/><path class="cls-1" d="M171.4,154.88l.24.2c-.45.67-.43.86-.14,1.1l7.77,6.28c.3.24.49.22,1-.36l.25.2-2.91,3.59-.24-.2c.44-.66.42-.85.13-1.09l-7.77-6.29c-.3-.23-.48-.21-1,.36l-.24-.2Z"/><path class="cls-1" d="M166.79,160.66l.21.23a.72.72,0,0,0-.06.78l3.61,9.76a2.53,2.53,0,0,0,.34.72c.1.11.23.09.63-.21l.21.23-3.36,3.12-.21-.23c.29-.29.32-.5.16-.68a5.06,5.06,0,0,0-.87-.44l-9.23-4.14c-.4-.18-.54-.17-.79,0l-.21-.23L160,167l.21.24c-.23.27-.3.4-.19.52a1.12,1.12,0,0,0,.34.2l2.05.9,3.62-3.37-.7-1.88a1.1,1.1,0,0,0-.2-.37c-.14-.15-.38-.2-.73.1l-.22-.24Zm-2.9,8.94,4.54,2.21,0,0-1.9-4.66Z"/><path class="cls-1" d="M24.48,122.74a1.85,1.85,0,1,0,1.85,1.85A1.86,1.86,0,0,0,24.48,122.74Z"/><path class="cls-1" d="M58.47,175.67a1.85,1.85,0,1,0,1.84,1.84A1.85,1.85,0,0,0,58.47,175.67Z"/><path class="cls-1" d="M80.69,188.26a1.85,1.85,0,1,0,1.85,1.85A1.85,1.85,0,0,0,80.69,188.26Z"/><path class="cls-1" d="M134.55,187.5a1.85,1.85,0,1,0,1.84,1.84A1.84,1.84,0,0,0,134.55,187.5Z"/><path class="cls-1" d="M153.65,176.53a1.84,1.84,0,1,0,1.84,1.83A1.84,1.84,0,0,0,153.65,176.53Z"/><path class="cls-2" d="M163.22,38.51a1.85,1.85,0,1,0,1.85,1.85A1.85,1.85,0,0,0,163.22,38.51Z"/><path class="cls-1" d="M120,19.47a1.85,1.85,0,1,0,1.83,1.85A1.85,1.85,0,0,0,120,19.47Z"/><path class="cls-1" d="M84.41,134c.35,0,2.13,0,2.45,0a17.46,17.46,0,0,1,3,.31c.36.07.6,1.07.13,1-2.69-.24-1.7,0-4.23-.31S84.41,134,84.41,134Z"/><path class="cls-1" d="M94,134.4c.71-.13,8,.92,8.52,1.41,0,0,.32.16.13.64-.47.75-1.82-.59-7-.81-1-.15-2.57.12-2.47-.67C93.26,134.67,93.68,134.46,94,134.4Z"/><path class="cls-1" d="M78.9,76c-.33.26-.36,1.33-.49,1.65s-1,0-.92-.15c0,0,.27-1.9.43-2.43-.19-.11,2.14.13,2.06-.08a7.37,7.37,0,0,0-.55-2.37,8.4,8.4,0,0,0-.62,2.45l-.89,0s.68-4.24,1.4-4.28c.14,0,.58-.16.76.11a52.71,52.71,0,0,1,1.84,6.51c-.27.23-1.19.44-1.22.07A3.23,3.23,0,0,0,80.3,76,2.65,2.65,0,0,0,78.9,76Z"/><path class="cls-1" d="M84.48,91.85c-.24.72-1.84.34-2.93.35-2.73,0-5.8.32-5.8-.39-.2-1.18,3.31-.73,4.62-.72C82.32,91.18,84.84,90.76,84.48,91.85Z"/><path class="cls-1" d="M88.64,91.73c-.3.52-1.09.48-2.19.39-.36,0-.52-.06-.64-.32,0-.72,1.07-.68,2.39-.66C88.56,91.18,88.81,91.44,88.64,91.73Z"/><path class="cls-1" d="M93.91,92.05c-.3.18-3.22.42-3.43-.21s1.2-.74,2.52-.73S94.31,91.83,93.91,92.05Z"/><path class="cls-1" d="M104,94c-.37.39-3.55-1.28-5.14-1.68-1.08-.25-1.94,0-2.85-.1-.64-.12-.33-.77.26-1C98.21,90.72,104.63,93.33,104,94Z"/><path class="cls-1" d="M82.64,97c-.25.69-1.83.33-2.92.35-2.7,0-3.93.07-4-.9,0-.72,1.52-.2,2.81-.19C80.49,96.34,83,95.93,82.64,97Z"/><path class="cls-1" d="M89.8,97c-.23.71-1.85.34-3,.35-2.67,0-2.72,0-2.8-.4s.3-.71,1.62-.7C87.62,96.36,90.17,95.94,89.8,97Z"/><path class="cls-1" d="M94.5,97.17c-.32.52-1.19.21-2.34.21-.38,0-.55-.06-.67-.32,0-.74,1.12-.69,2.51-.68C94.37,96.42,94.67,96.87,94.5,97.17Z"/><path class="cls-1" d="M104.15,99.33c-.18.89-1.72-.7-3.22-1.07-1.07-.25-3.53-.41-4.44-.55-.64-.1-.6-.78,0-.88C99.64,96.32,104.35,98.45,104.15,99.33Z"/><path class="cls-1" d="M104.48,104.56c0,1.18-2.36-.28-3.77-.48a19.75,19.75,0,0,0-4.83-.15c-.65.08-.58-1,0-1.05C97.32,102.63,104.48,103.7,104.48,104.56Z"/><path class="cls-1" d="M93.47,103.2c-.31.49-1.45.37-2.55.28a.83.83,0,0,1-.73-.44c0-.7.65-.74,2-.72S93.63,102.92,93.47,103.2Z"/><path class="cls-1" d="M83.54,102.91c-.29.47-2.11.26-3.13.08-2.68-.48-4.88.78-4.93-.32,0-.82,2.64-.62,3.94-.6C81.38,102.16,84.19,101.83,83.54,102.91Z"/><path class="cls-1" d="M88.41,103c-.3.58-1.08.54-2.17.43-.34,0-.58-.06-.7-.34,0-.82,1.13-.79,2.43-.76C88.33,102.36,88.58,102.66,88.41,103Z"/><path class="cls-1" d="M91,69.21c.09.74-1.87.37-3.23.55-2.72.34-3,.59-2.77,0C85.44,68.47,90.88,68.21,91,69.21Z"/><path class="cls-1" d="M92.49,69.7c-.15-.1-.39-.38,0-.73a2.86,2.86,0,0,1,3.12.18c.36.43-.14.82-.47.82A11.81,11.81,0,0,1,92.49,69.7Z"/><path class="cls-1" d="M103.68,72.39c-.29.29-2.3-1.06-3.34-1.43-1.63-.58-3.36-.5-3.33-1.35C97.08,68,105.18,71,103.68,72.39Z"/><path class="cls-1" d="M90.3,80.87c-.16.34-1.56.06-2.78.12s-2.14.37-2.23-.42,1.35-.52,2.68-.5S90.82,79.86,90.3,80.87Z"/><path class="cls-1" d="M91.71,81.05c-.42-.09-.4-.48,0-.8a10.85,10.85,0,0,1,3.3,0c.57.14.35.89-.13.9C92.16,81.07,92.45,81.13,91.71,81.05Z"/><path class="cls-1" d="M103.68,83.51c-.31.24-1.61-.59-2.87-.88a6.29,6.29,0,0,1-1.92-.58c-.57-.2-.23-.83,0-.94S105,82.5,103.68,83.51Z"/><path class="cls-1" d="M98,81c-.13.9-1,.56-1.42.43a.48.48,0,0,1-.17-.73C96.69,80.35,97.93,80.74,98,81Z"/><path class="cls-1" d="M87.06,75.38c.37.82-1.09.91-1.48.79a.5.5,0,0,1-.17-.74C85.73,75,86.81,75.15,87.06,75.38Z"/><path class="cls-1" d="M89.19,75.88a.51.51,0,0,1,.07-.8,11.12,11.12,0,0,1,4.66,0c.87.48.37,1,.06,1C91.86,75.79,89.62,76.14,89.19,75.88Z"/><path class="cls-1" d="M101,77.16c-.29.29-2.55-.53-3.66-.63s-1.91-.3-2-.63c0-.8,1.85-.66,3.44-.32S101.76,76.45,101,77.16Z"/><path class="cls-1" d="M103.86,77.84c-.14.91-1,.43-1.35.3a.66.66,0,0,1-.24-.87C102.6,76.88,104,77.57,103.86,77.84Z"/><path class="cls-1" d="M76.27,85.21c1.65-.38,2.74,1.65.39,1.28-.83-.13-.91-.33-.92-.61S75.72,85.33,76.27,85.21Z"/><path class="cls-1" d="M88.34,85.92c-.25.71-3.74.47-4.85.48-2.74,0-3.75.07-4-.41,0-.73,1.54-.69,2.86-.68S88.71,84.86,88.34,85.92Z"/><path class="cls-1" d="M94,86.36c-.2.26-.49.13-1.61.18s-2,.06-2.08-.43c0-.71,1.21-.73,2.53-.72S94.34,85.92,94,86.36Z"/><path class="cls-1" d="M100.87,87.57c-.82.65-1.26-.41-2.67-.59-1.1-.14-2.22-.11-3.12-.27-.58-.31-.37-.94.23-1.09C98.7,85.4,101.69,86.91,100.87,87.57Z"/><path class="cls-1" d="M103.46,88.71c-.09.73-.7.78-1.28.31-.24-.09-.49-.64-.27-.89S103.29,88.1,103.46,88.71Z"/><path class="cls-1" d="M103.38,109.86c-.35.77-2.87-.46-4.64-.53-1.24,0-1.92.08-2.09,0a.52.52,0,0,1,0-1C98.67,108,103.8,108.92,103.38,109.86Z"/><path class="cls-1" d="M91.49,108.71c-.31.51-1,.26-2.15.16-.36,0-1.8.42-2.25-.07-.15-.85,1.84-.94,2.58-.89C91,107.89,91.66,108.43,91.49,108.71Z"/><path class="cls-1" d="M84.18,108.69c-.32.58-4-.06-5.06-.1-2-.08-3.37.67-3.38-.46.33-.7,3.77-.33,4.54-.31C82.22,107.89,84.69,107.79,84.18,108.69Z"/><path class="cls-1" d="M95.07,108.22c.37.8-1.09.91-1.48.78a.49.49,0,0,1-.17-.74A1.56,1.56,0,0,1,95.07,108.22Z"/><path class="cls-1" d="M116.28,69.44c1.56,0,1.77.39,1.59.91-.2.36-2.12.21-2.68.23-1.9,0-2.79,1.21-3.49,1s-.37-.9.52-1.27A10.66,10.66,0,0,1,116.28,69.44Z"/><path class="cls-1" d="M120.38,69.28a12.15,12.15,0,0,1,2.71.38c.64.39.51.83.25,1a17.94,17.94,0,0,1-3.35-.25.57.57,0,0,1-.38-.51C119.58,69.51,119.73,69.31,120.38,69.28Z"/><path class="cls-1" d="M140.15,69.65c.67.11.9,1.19.27,1.28-2.36.33-2.81.21-2.84-.13C136.91,69.41,140,69.63,140.15,69.65Z"/><path class="cls-1" d="M131.82,70.14a27.47,27.47,0,0,1,3.25.19.63.63,0,0,1,.25,1c-.25.32-3.67.41-3.95-.75C131.37,70.58,131.26,70.17,131.82,70.14Z"/><path class="cls-1" d="M125.94,69.92s2.37.17,2.94.31c.25.08.89.42.55.88s-3.66.41-4-.75C125.48,70.36,125.38,70,125.94,69.92Z"/><path class="cls-1" d="M119.94,75.58c.26-.73,2.28-.57,2.82-.15a.57.57,0,0,1-.13.59C121.35,76.59,119.77,76.05,119.94,75.58Z"/><path class="cls-1" d="M125.68,75.88c.6-.45,3,0,2.33.91a4.64,4.64,0,0,1-2.5,0C125.38,76.76,125.07,76.34,125.68,75.88Z"/><path class="cls-1" d="M134,76.28c.9,1.07-2.12,1.06-2.46,1s-1.05-.15-1.16-.51C130.26,75.76,133.33,75.55,134,76.28Z"/><path class="cls-1" d="M140.43,75.75c.43,1.43-2,1.23-2.36,1.23s-1.06-.06-1.2-.41C136.7,75.56,140.14,74.84,140.43,75.75Z"/><path class="cls-1" d="M116.33,74.51c.58,0,1.9,0,2,.7-.47.87-3,.67-3.57.77-2.24.36-2.79,1.22-3.5,1s-.37-.9.53-1.26A15.66,15.66,0,0,1,116.33,74.51Z"/><path class="cls-1" d="M127.27,81.22a.68.68,0,0,1-.22.7c-.22.31-2.46.2-2.87-.58-.07-.13-.05-.8.71-.64S127.17,80.17,127.27,81.22Z"/><path class="cls-1" d="M129.68,80.79c.22-.05,4.12,0,3.1,1.14a1.17,1.17,0,0,1-.77.39,9.19,9.19,0,0,1-3-.39c-.16-.14-.15-.41,0-.76A.82.82,0,0,1,129.68,80.79Z"/><path class="cls-1" d="M135.15,80.83c2.92.58,5-.35,5.34.33s0,.76,0,.76c-.39.32-6,.47-6.18-.43C134.22,81.05,134.86,80.78,135.15,80.83Z"/><path class="cls-1" d="M122.12,80.7c.64,1-1.43.85-1.67.82s-.79-.16-.87-.48C119.52,80.08,121.63,79.91,122.12,80.7Z"/><path class="cls-1" d="M115.46,79.94c.59,0,1.55-.28,1.91.55-.53,1.06-1.74.48-3.57.77-2.25.37-2.27,1-2.85.52s0-.84.91-1.2A11.06,11.06,0,0,1,115.46,79.94Z"/><path class="cls-1" d="M118.71,85.75a3,3,0,0,1,1.4.42.48.48,0,0,1,0,.77c-2.81.37-2.7-.26-2.7-.26C117.2,85.7,118.3,85.66,118.71,85.75Z"/><path class="cls-1" d="M140.44,86.21c1.3.64-.84,1.36-2.23,1a.94.94,0,0,1-.51-.39C137.47,86,139.88,85.93,140.44,86.21Z"/><path class="cls-1" d="M124.52,85.74a.64.64,0,0,1,0,1.27c-.25.07-2.87.49-3-.38C121.59,85.16,124.28,85.68,124.52,85.74Z"/><path class="cls-1" d="M136.63,86.53c.22.88-.58.77-1.35.71-1-.08-3.78.25-3.64-.44.11-.54,1.22-.25,1.57-.4C134.11,86,136.5,86,136.63,86.53Z"/><path class="cls-1" d="M129.7,87.09c-.3.61-3.11.29-2.71-.64C127.12,86.14,130,85.7,129.7,87.09Z"/><path class="cls-1" d="M114,85.32c.58,0,1.79-.07,2,.82-.85.72-1.78.19-3.6.58-1.66.36-2,.71-2-.2C110.45,85.9,112.38,85.32,114,85.32Z"/><path class="cls-1" d="M118.09,91.26a8,8,0,0,1,3,.11.64.64,0,0,1,.3.95c-.21.34-3.57.44-3.56-.52A.42.42,0,0,1,118.09,91.26Z"/><path class="cls-1" d="M123.78,91.7c.75-.28,3.46.4,2.26,1.35a4.33,4.33,0,0,1-2.68-.49C123.23,92.46,123,92,123.78,91.7Z"/><path class="cls-1" d="M128.77,91.86c.64-.23,2.93.33,1.91,1.1a2.93,2.93,0,0,1-2.12-.11A.6.6,0,0,1,128.77,91.86Z"/><path class="cls-1" d="M135.28,92.3c-.86.11-1.93.38-2,.78.09.48.63.39,2.38.32.88,0,3.29.34,3.94.19s.7-.75.45-.77C138.63,92.69,137.36,92,135.28,92.3Z"/><path class="cls-1" d="M114.29,91.23c.58,0,1.8-.31,1.76.66-.58.87-1.65.53-3.47.9-1.66.37-2.06.62-2-.28C110.6,91.89,112.63,91.23,114.29,91.23Z"/><path class="cls-1" d="M118.75,98h1.38c.69,0,.41.86.32,1a3.91,3.91,0,0,1-1.9.24c-.38,0-1.08-.25-1.13-.8C117.56,97.85,118.25,98,118.75,98Z"/><path class="cls-1" d="M123.27,98c.21,0,3.78,0,2.85,1a1.2,1.2,0,0,1-.72.31,9.77,9.77,0,0,1-2.72-.31c-.15-.12-.14-.35,0-.64A.76.76,0,0,1,123.27,98Z"/><path class="cls-1" d="M128.8,98.21c.7-.31,3,.66,2.07,1.39a4.53,4.53,0,0,1-2.45-.5C128.31,99,128.11,98.5,128.8,98.21Z"/><path class="cls-1" d="M133.75,98.66c.22,0,4.12,0,3.1,1.15a1.13,1.13,0,0,1-.78.37,9.28,9.28,0,0,1-3-.37c-.16-.15-.16-.43,0-.77A.81.81,0,0,1,133.75,98.66Z"/><path class="cls-1" d="M114,97.66c.81-.06,2-.39,2,.59-.58.87-1.23.49-3.06.88-1.66.36-2.06.62-2-.3C111,98.22,112.38,97.78,114,97.66Z"/><path class="cls-1" d="M138.75,99c.64-.24,2.92.33,1.91,1.11a3,3,0,0,1-2.13-.11C138.43,99.88,138.1,99.2,138.75,99Z"/><path class="cls-1" d="M125.61,104.24c.2,0,3.79,0,2.85,1a1.12,1.12,0,0,1-.71.32,9.91,9.91,0,0,1-2.74-.32c-.13-.12-.13-.34,0-.63A.77.77,0,0,1,125.61,104.24Z"/><path class="cls-1" d="M131.47,104.8c1.12-.14,3.21.19,2.95,1.14-.11.65-.75.12-1.18.14-.79,0-3.24.38-3-.71C130.3,104.92,131.21,104.84,131.47,104.8Z"/><path class="cls-1" d="M135.88,106c0,.67,2.74,1.47,2.74.46C138.62,106.12,136.16,104.61,135.88,106Z"/><path class="cls-1" d="M122.63,104.1a7.85,7.85,0,0,0-2.74-.27.65.65,0,0,0-.32.9c.16.32,3.25.73,3.27-.14A.41.41,0,0,0,122.63,104.1Z"/><path class="cls-1" d="M115.2,103.7c.59,0,3.1,0,3.07,1-.34.81-2.32,0-4.8.34-1.68.22-2.06.63-2-.29C111.49,104.15,113.55,103.71,115.2,103.7Z"/><path class="cls-1" d="M121.19,109.56c.75-.28,3.66.3,2.46,1.25a4.81,4.81,0,0,1-2.89-.39C120.63,110.32,120.41,109.86,121.19,109.56Z"/><path class="cls-1" d="M126.79,110.3c.64-.24,2.92.32,1.91,1.1a3.78,3.78,0,0,1-2.26-.41C126.33,110.92,126.14,110.53,126.79,110.3Z"/><path class="cls-1" d="M133.84,111.41c.6,1.14-1.82.87-2.08.81s-.83-.24-.88-.61C130.92,110.6,133.42,110.63,133.84,111.41Z"/><path class="cls-1" d="M135.41,112.18c0,.67,1.6,1.11,1.6.09C137,111.93,135.68,110.77,135.41,112.18Z"/><path class="cls-1" d="M112,109.86c.21-.07,6.63-1,6.35.24,0,.21.26.47-3.26.6-.89,0-3.47.55-3.73.32S110.88,110.3,112,109.86Z"/><path class="cls-1" d="M119.16,120.4a8,8,0,0,1,2.94.27.63.63,0,0,1,.25,1c-.23.32-3.59.25-3.52-.71A.41.41,0,0,1,119.16,120.4Z"/><path class="cls-1" d="M125.5,121.18c.2,0,3.78.22,2.79,1.09a1.16,1.16,0,0,1-.73.29,9.24,9.24,0,0,1-2.71-.46c-.13-.13-.12-.36,0-.65A.85.85,0,0,1,125.5,121.18Z"/><path class="cls-1" d="M132.05,123.09c-.94-.19-2.54-.59-2.22-1.21s1.26.12,1.64.09C133.53,121.77,133.81,123.45,132.05,123.09Z"/><path class="cls-1" d="M137.21,123.62c-1,0-2.61-.34-2.44-1s1-.09,1.35-.21C138.67,121.56,139,123.58,137.21,123.62Z"/><path class="cls-1" d="M116.38,120.76c.13.69-.81.54-2.52.51s-2.88,1.37-3.29.4c-.14-.33.22-.65,1.11-1S116.23,120.06,116.38,120.76Z"/><path class="cls-1" d="M120.25,114.92c.15,0,2.79,0,2.1.93a.74.74,0,0,1-.53.31,5.18,5.18,0,0,1-2-.31.61.61,0,0,1,0-.62A.5.5,0,0,1,120.25,114.92Z"/><path class="cls-1" d="M124.47,115.27c.69-.3,4.46.3,3.27,1.55-.19.05-3.13-.19-3.66-.65C124,116.06,123.77,115.57,124.47,115.27Z"/><path class="cls-1" d="M132.66,116.32c.62,0,3.42.45,3.25,1.38,0,.21-1,.17-1.43.07a14.52,14.52,0,0,0-3.51-.57c-.5,0-.48-.48-.32-.83S132.36,116.34,132.66,116.32Z"/><path class="cls-1" d="M117.49,115.51c.1,1-1.39.57-3.1.53s-2.86,1.18-3.27.22c-.14-.35.22-.67,1.1-1S117.42,114.79,117.49,115.51Z"/><path class="cls-1" d="M135.2,126.85c.23,0,4.11.25,3,1.31a1.18,1.18,0,0,1-.79.34,9.23,9.23,0,0,1-2.94-.53c-.15-.16-.13-.43.05-.77A.77.77,0,0,1,135.2,126.85Z"/><path class="cls-1" d="M132.55,127.61c-.32.6-3.12.13-2.67-.78C130,126.52,132.92,126.23,132.55,127.61Z"/><path class="cls-1" d="M125.43,126c.2,0,3.77.21,2.78,1.1a1.21,1.21,0,0,1-.72.29,9.45,9.45,0,0,1-2.71-.47c-.14-.12-.12-.35,0-.64A.81.81,0,0,1,125.43,126Z"/><path class="cls-1" d="M121.9,125.75c.6,1.08-1.46.77-1.71.73s-.78-.19-.83-.52C119.35,125,121.46,124.94,121.9,125.75Z"/><path class="cls-1" d="M114.44,125.3c.58,0,1.9-.4,1.85.58-.57.87-1.64.52-3.47.92-1.65.34-2,.6-2-.31C110.85,125.88,112.78,125.3,114.44,125.3Z"/><path class="cls-1" d="M111.66,131a7.63,7.63,0,0,1,3-.35c.25.06.52.28.25.79a9,9,0,0,0-3.3.58S111.29,131.23,111.66,131Z"/><path class="cls-1" d="M88,113.61c1-.23,3.45,1,.8,1.21A5,5,0,0,1,87,114.7C86,113.74,87.69,113.67,88,113.61Z"/><path class="cls-1" d="M85,114.25c0,.57-2.82.54-5,.4-2.65-.18-4.27.09-4.25-.67.14-1,2.66-.33,4-.32C81.66,113.77,85.05,113,85,114.25Z"/><path class="cls-1" d="M100.09,115.18c-.18,1-4-.29-5.76-.36-1.23,0-2.31-.1-2.48-.13a.52.52,0,0,1,0-1C93.19,113.42,100.22,114.45,100.09,115.18Z"/><path class="cls-1" d="M103.57,117.2c-.32.49-.8,0-1.72-.26-.35-.09-.79-.29-.63-.86.46-.64,1.27-.1,1.58.12C103.6,116.61,103.73,116.92,103.57,117.2Z"/><path class="cls-1" d="M96.79,126.24c0,.9-4.07-.41-5.83-.48-1.24,0-3.33,0-3.5,0a.56.56,0,0,1,0-1.1C89.4,124.34,96.85,125,96.79,126.24Z"/><path class="cls-1" d="M85.14,125.28c0,.5-2.56.34-5,.2-4.12,0-4.42-.2-4.26-.75.27-.92,2.61-.61,3.93-.71C81.79,124.12,85.25,124,85.14,125.28Z"/><path class="cls-1" d="M103.78,128.35c-.33.49-1.71-.55-2.82-.64-.36,0-1.6-.14-1.54-.71,0-.72,1-.67,2.35-.28S104.18,127.77,103.78,128.35Z"/><path class="cls-1" d="M100,121.06c-.25,1.37-1.78-.2-5.75-.37-1.24,0-2.32-.09-2.49-.12a.53.53,0,0,1,0-1C93.79,119.15,100.2,120.05,100,121.06Z"/><path class="cls-1" d="M88.29,119.06c1-.19,3.47,1,.78,1.2a6.61,6.61,0,0,1-1.83-.11C86.32,119.34,88,119.12,88.29,119.06Z"/><path class="cls-1" d="M85,119.55c0,.92-4.44.37-5.47.29-2.65-.16-3.7.3-3.75-.8.14-1,2.66-.32,4-.31C81.66,118.83,85,118.29,85,119.55Z"/><path class="cls-1" d="M102.52,121.6c1,.32,2.58,2.53.12,1.42a7,7,0,0,1-1.55-.94C100.65,120.92,102.25,121.53,102.52,121.6Z"/><path class="cls-1" d="M103.24,141.16c.14.07.65.06.3.73s-7.3-.67-7.66-.73c-.7-.12-.66-.26-.64-.78.19-.41.73-.29.82-.3C96.32,140,103.11,141.09,103.24,141.16Z"/><path class="cls-1" d="M92.93,140.35c-.25.34-3.29.42-3.19-.3s.79-.41,2.09-.39C93.28,139.66,93.2,140,92.93,140.35Z"/><path class="cls-1" d="M115,140.19c.59-.06,1.16-.42,1.12.56-.19.59-1,.39-2.84.78-1.65.34-2.07.75-1.89-.14C111.45,141,113.33,140.37,115,140.19Z"/><path class="cls-1" d="M114.94,135.18c.58,0,1.4-.29,1.35.68-.32.42-1.37.22-3.19.61-1.65.36-1.92.9-1.88,0C111.26,135.83,113.29,135.18,114.94,135.18Z"/><path class="cls-1" d="M76.18,70c-.09,0-.12.5-.12,1.26s0,1.77.06,2.87l0,4.94h.14c-.13-.24-.14-4.95-.14-4.95,0-1.08-.06-2.13-.06-2.9s0-1.2.1-1.22h0c1.46-.32,5.58-.85,6.59-.37.28.13.38,1.48.38,3.11a44.26,44.26,0,0,1-.35,6c-.09.24-1.54.39-3.06.47,1.53-.07,3-.23,3.07-.47a43.16,43.16,0,0,0,.37-6c0-1.63-.1-3-.4-3.13C81.76,69.13,77.64,69.67,76.18,70Zm0,0Zm.1,9.14a21.85,21.85,0,0,0,3.46.05,18.75,18.75,0,0,1-3.46-.11Z"/><path class="cls-1" d="M76.06,69.46c-.57.12-.6.37-.48,4.38h0v2.7l0,2.59c.1.86,1.06.75,2,.64L79,79.65l1.47,0c2.71,0,3.21-.07,3.41-.58l0-1.62-.17-3.34c.11-4.59-.35-4.81-.69-5C81.7,68.51,77.16,69.23,76.06,69.46Zm6.48.65v.07c0,.23.08,1,.08,2.55q0,.58,0,1.32l.18,3.47s0,.57.06.9l-2.36.11-1.5,0-1.5.13-.94.06a7.24,7.24,0,0,0,.13-1.89c0-.18,0-3.06,0-3.06h0s0-2.89,0-3.33C78.4,70.13,81.79,69.76,82.54,70.11Z"/><path class="cls-1" d="M205.92,101.3a92.59,92.59,0,0,1-1.1-13.37c-.09-3.72-.16-6.41-1.06-8.05l.06.13L196,60.65l0,.08c-1.61-5.73-15.4-21.8-16.09-22.64-1.59-2.52-11-9.54-13.57-10.88l-10.27-7.1c-4.19-3-11-5.69-16.65-7.48l-6.57-2.31c-8.16-2.82-21-3.16-22.69-3-.68,0-3.89,0-4.57,0-1.7-.13-14.53.21-22.2,3.13l-4.8,1.69c-6.17,1.7-11.77,3.43-16,6.45l-12,8.36C48,28.28,36,36.93,34.61,39.35l.09-.12C34.09,40,21.63,54.78,20,60.52l0-.08L12,80l.06-.13c-.9,1.64-.72,4.89-.82,8.63A86.43,86.43,0,0,1,9.86,101.3c-.71,4.19-.15,7.88.38,12.37s.73,9.8,1.56,13.75c.69,3.34,1.62,6.21,1.82,8.33,1.12,5.33,3.79,12.3,5.15,14.24,1,1.42,2.84,4,2.84,4,1.63,2.21,3.54,4.83,4.71,6.71s1.58,3.07,2.52,4.71c1.3,2.29,2.47,4.36,3.78,6.21a24.44,24.44,0,0,0,4.71,5.08c.5.4,4.78,3.28,6.84,4.64A35.84,35.84,0,0,1,47.91,184l1.5,1.51c4.19,4.22,7.31,7.49,10,9A15.05,15.05,0,0,0,64,195.81a4.28,4.28,0,0,0,2.28-.55,4.9,4.9,0,0,0,2.28-3.51c.06-.22.61-1.49,1.18-2.83.91.19,2,1.32,2.9,2.1l-.57,2a5.2,5.2,0,0,0,.94,4.79c4.48,5.82,21.13,8,35.65,7.6,15,.46,33.72-4,36.21-9.69a2.69,2.69,0,0,0-.63-3.11,10,10,0,0,1-.68-.89,1.12,1.12,0,0,1,.5-.45,4.87,4.87,0,0,1,1.91-.13h0c.62,1.1,1.27,2.29,2,3.61a1.84,1.84,0,0,0,1.41,1c4.35.73,18.35-11.6,18.48-11.73a55.45,55.45,0,0,1,5.52-4.31c2.06-1.36,3.83-2.55,4.34-3A37.14,37.14,0,0,0,187,165.44,106.71,106.71,0,0,1,194.18,154l.28-.37c3-4.09,7.09-12.11,7.72-17.88a83.11,83.11,0,0,1,1.48-8.34C205.31,119.53,207.35,109.7,205.92,101.3ZM73.24,189.09a6.67,6.67,0,0,0-2.85-1.61c3-7,4.3-10.38,4.57-12a1.32,1.32,0,0,0,0-.28,1.77,1.77,0,0,0,0-.3h0a1.23,1.23,0,0,0,0-.36l-.54-1.19c-.32-.64-1.3-1.92-1.3-2.94,0-1.45.51-1.19,1.11-1.16a20.23,20.23,0,0,1,5.42,1.59,9.53,9.53,0,0,1,3.15,2.87.91.91,0,0,1-.2,1.2,3.86,3.86,0,0,1-1.45.79,13.48,13.48,0,0,0-2.56,1.7c-1.77.72-2.92,3.55-4.54,8.9,0,.12-.07.23-.11.36-.17.54-.35,1.13-.52,1.73ZM71.64,172a22.29,22.29,0,0,1-3.33-2c-2-1.47-7-5.41-9.17-6.71-1.47-.88-1.61-1.73-3.39-3.59a41.34,41.34,0,0,0-4.52-4.32c-1.84-1.39-5-6.29-6.1-8.07-3.69-6-9.58-17.63-10.91-29.13-.17-1.48-.19-5.3-.23-8.67,0-2.9-.06-5.4-.15-6.52.17-2.35.75-8.64,1.37-10.3.44-1.17.79-3.63,1.24-5.61.39-1.73.84-4.31,1.17-5.17a57.81,57.81,0,0,1,2.79-6.85l5.25-9.93c0-.1,2.73-5.71,4.73-7.81l2-2.16a58,58,0,0,1,6.51-6.39,82.43,82.43,0,0,1,13.38-8.41l6.37-3.15a30,30,0,0,1,5.39-2.37c.12,0,12.9-4.09,21.4-4.59-.74,1.84-1.35,3.53-1.56,4.31a32,32,0,0,1-4.68.5c-1.46,0-5.87.82-5.87.82a56.36,56.36,0,0,0,7,8.86s-1.54,9-1.5,10c.16,0,4.89-2.46,6.43-3.33a12.56,12.56,0,0,1,3.6-1.41c.09,0,4.45,1.84,5.51,2.48A36.41,36.41,0,0,0,119.08,55V54.9s-2.28-9.55-2.24-10c0-.06,1.18-1.19,2-2.15,1.27-1.6,2.63-2.7,3.48-3.68s2.43-2.79,2.48-2.88-10.32-1.26-11-1.53c0,0-1-2.23-1.82-4.24a57.3,57.3,0,0,1,5.78.7l.11,0c6.19,1,13.12,3.66,16.07,4.77L136.72,37c.12.07,4.4,1.82,4.4,1.82a62.76,62.76,0,0,1,6.58,3.94l1.56,1.1c3.17,2.22,10,6.81,11.15,8.62l1.75,2.35a16.43,16.43,0,0,1,2.15,4.32c1,2.4,3.25,5.18,5.45,7.86a47.93,47.93,0,0,1,3.86,5.11s2.82,4,3.39,7.63c.71,4.57,1.88,11.61,2.49,13.66,3.31,11.13,2.36,17,1.06,22.87-.4,1.8-1.28,4.31-1.49,6a20.86,20.86,0,0,1-1.8,7,46.34,46.34,0,0,0-1.86,4.58,20,20,0,0,1-2.52,5.87c-.47.65-1.35,2-2.57,4a174.85,174.85,0,0,1-11,16.11,64.33,64.33,0,0,1-7,6.17c-1.62,1.3-3,2.44-3.71,3.11a54.07,54.07,0,0,1-5,3.93,2.77,2.77,0,0,0,.1-.5,2.71,2.71,0,0,0-.12-.79,2.56,2.56,0,0,0-1.9-1.68c-1.4-.39-2.72.23-4.57,1a14.79,14.79,0,0,0-4.91,3.11c-.82.73-2,1.94-1.61,2.9a4.09,4.09,0,0,0,1.86,1.87c-4.43,1.36-8.77,2.66-10.32,3-1,.2-4.65,1.28-7,1.67a63.06,63.06,0,0,1-6.59.91c-5.42.13-13.25-1.82-14.85-2.71l-.06,0-.07,0c-3.72-1.4-8.71-3.24-11.89-4.05l.2-.1a3.58,3.58,0,0,0,2.39-2.23,2.78,2.78,0,0,0-.76-2.52,12.18,12.18,0,0,0-4-3,22.89,22.89,0,0,0-5.3-1.55,4,4,0,0,0-2.17.19l-.08,0a1.71,1.71,0,0,0-.84,1.6A5.73,5.73,0,0,0,71.64,172ZM108.4,40.24c-1.13-.88-3.53-5.07-3.53-5.07.14-.55,3.53-8,3.53-8a33.88,33.88,0,0,1,.14,6.59C108.45,36.4,108.31,39,108.4,40.24ZM95.6,37.35c1.1.26,4.48,1.31,4.48,1.31a74.61,74.61,0,0,0,7.25,2.51c-.37.78-1.18,2.24-1.18,2.24s-5.58,8.67-6,9.29c0,0,1.67-8.88,1.6-9C101.39,43.18,98,40.23,95.6,37.35ZM118.82,40a22.82,22.82,0,0,1-2.11,2.77A63.22,63.22,0,0,1,109.37,41s2.54-4.76,3.51-5.24l9.1.92c-.73.25-3.35,1-5.71,1.76-2.71,1.07-5.29,2-5.29,2S118,40.09,118.82,40Zm-2.11,12.8c-.71-.19-6.86-3.57-6.86-3.57a46.46,46.46,0,0,1-1.06-7.91ZM143.1,194.9c-1.56,3.55-17.09,9.53-32.7,9-16.37.46-32.36-2-35.76-6.45a6.44,6.44,0,0,1-.8-3,3.32,3.32,0,0,1,.15-1l.79-2.72h0l.1-.34,0-.11c1.48-5.08,3.14-10.83,4.48-11.18,1.22-.08,1.17-.72,7.47,1.64,2.34,1.22,14.45,4.75,17.07,4.93a79.58,79.58,0,0,0,11.49-.52c2.27-.39,4-1,5-1.11,2.19-.14,13.76-3.67,15.79-4.3h0a.36.36,0,0,1,.19.13h0a9.61,9.61,0,0,1,1.26,3c.11.36.21.71.3,1,.21.73.45,1.5.7,2.3.07.21.15.42.22.62.2.6.42,1.19.66,1.79.13.31.27.59.4.88.24.53.51,1,.8,1.55.17.29.34.57.53.86s.23.4.37.59l1.48,2A1.29,1.29,0,0,1,143.1,194.9Zm.42-5.15h0a5.33,5.33,0,0,0-.91.54A19.66,19.66,0,0,1,141.1,187c-.07-.16-.13-.32-.19-.49-.17-.46-.33-.93-.47-1.37s-.22-.72-.32-1.07-.15-.45-.21-.68c-.79-2.73-1.45-4.94-3-5.47a.47.47,0,0,0-.1-.05,2.42,2.42,0,0,0-.47,0,1.27,1.27,0,0,0-.28,0h0c-1.78.09-3.73-.7-4-1.37a1.73,1.73,0,0,1,.39-1c1.8-1.65,2.68-2.7,3.84-3.17a7.66,7.66,0,0,1,4.85-.77c.47.12.53.77.55.83a.83.83,0,0,1,0,.22,5.93,5.93,0,0,1-1.38,2.79,3.63,3.63,0,0,0-1.47,2.73c0,1.61,1.19,3.47,2.9,6.17.86,1.36,1.92,3,3.09,5.05A6.7,6.7,0,0,0,143.52,189.75ZM201.74,127a83.15,83.15,0,0,0-1.52,8.55c-.89,8.15-3.74,12-7.35,16.9l-.27.37a105.94,105.94,0,0,0-7.36,11.62c-2.5,4.41-4.48,7.88-8,10.72-.43.34-2.35,1.62-4.2,2.86-3.56,2.37-5.94,4-6.5,4.51-3.51,3.37-14.94,11.89-16.81,11.21-2.49-4.83-4.61-8.19-6.16-10.63-1.82-2.87-2.58-4.2-2.58-5.06,0-.55.31-.92.85-1.38s5.16-3.95,7.18-5.93c.61-.61,3-2,4.54-3.26a83.13,83.13,0,0,0,8.76-9.14,110.44,110.44,0,0,0,8.9-12.91c1.15-1.82,3.07-5,3.49-5.54a16.17,16.17,0,0,0,2.61-5.48,29.17,29.17,0,0,1,1.65-3.56,27.85,27.85,0,0,0,2.08-8.34,30.62,30.62,0,0,1,.5-4.05c.7-3.2,1.94-7.79,1.94-12.35,0-3.72-.64-6.7-2.2-11.93-.59-2-1.89-9.17-2.58-13.67-.62-4-3.24-9.14-3.35-9.36-1-1.66-2.82-3.32-4.4-5.24a32.38,32.38,0,0,1-4.8-7.52,20.09,20.09,0,0,0-3-4.61l-1.63-2.18c-1.24-2-6-5.39-10.75-8.72l-1.52-1.08a78.78,78.78,0,0,0-7.5-4.33l-4.12-2.27-.06,0L134.65,34a111.4,111.4,0,0,0-13.53-4.12H121a79.89,79.89,0,0,0-9.7-1.17c-.2-.52-.37-1-.46-1.24-.29-.86-1.38-2.83-1.8-4-.73.52-1.89,2.83-2.94,5.24-8.71.58-20.81,3.92-21.42,4.09a30.3,30.3,0,0,0-5.75,2.51l-9.21,4.53a51.33,51.33,0,0,0-11,7,43.21,43.21,0,0,0-6.21,5.42l-2,2.14c-2.21,2.33-6.2,10.14-6.31,10.38,0,0-3.56,6.07-3.56,6.07C39.48,73,35.9,82.2,35.81,82.45c-.35,1-.74,2.72-1.16,4.58s-1.21,3.85-1.29,5c-.52,7.33-1,10.57-1,11.46v.15c.09,1-.39,3.72-.31,5.91.14,3.57.1,7.28.25,8.84.69,6.8,4.56,18.09,8.42,24.39a67.25,67.25,0,0,0,9.82,14.33c1,1.21,3.68,3.49,5.16,5,1.87,2,2.48,2.93,4.17,3.95,2.11,1.28,4.18,2.75,6.18,4.2,2.23,1.6,4.54,3.25,6.94,4.65l.08,0a.08.08,0,0,0,0,.06v0a4,4,0,0,1-.13.66l-.06.21c-.08.3-.2.65-.34,1,0,.13-.08.24-.12.36-.14.4-.3.82-.47,1.27q0,.1-.09.24c-.19.47-.38,1-.58,1.48-.07.15-.12.3-.19.45-.19.5-.4,1-.6,1.49l-.36.86-.41,1c-.11.25-.21.5-.31.75s-.2.45-.29.68c-.34.79-.65,1.52-.9,2.09l-.1.22L68,188h0a31.6,31.6,0,0,0-1.33,3.26,3.23,3.23,0,0,1-1.32,2.23,3.45,3.45,0,0,1-3.3.21C59.82,193,58,191,55.74,188.92c-1.87-1.73-3.69-3.58-4.92-4.82L48.3,182a50.09,50.09,0,0,0-5.55-4c-.85-.57-1.67-.94-2.39-1.43a36.21,36.21,0,0,1-3-2.81c-3.55-2.83-4.31-4.92-6.81-9.33-1.88-3.34-4.62-8.19-5.49-9.26l-2.14-2.73c-3.61-4.89-6.46-8.75-7.34-16.92-.2-2.21-1-4.17-1.75-7.55-.32-1.57-.44-4.17-.76-5.86-1.29-6.67-2.35-14.1-1.26-20.53a75.38,75.38,0,0,0,.86-12.53c.08-3.32.15-5.94.82-7.14l.3-1.16,6.93-18.23v0c.75-2.67,6.32-11.64,8.47-14.65s7.75-9,7.82-9.14l0-.06,0-.07c1-1.78,10.45-8.26,13.28-9.67l.07,0,12-8.44c4-2.83,11.56-5.23,17.11-7l3.94-1.28c7.75-2.69,19.26-3.63,20.84-3.51.77.06,4.09.06,4.87,0,1.57-.12,15.21.82,23,3.51l5,1.08c5.55,1.76,12.13,4.35,16.09,7.18L166.17,29l.07,0c-1.66-.83,10.81,6.15,13.36,10.55l0,.08.05,0c.15.19,13.87,17.44,15.38,22.79v0l6.8,17.19,0,.06c.66,1.2.86,4.86.94,8.18a108.8,108.8,0,0,0,1.66,14C205.88,110,203.34,119.29,201.74,127Z"/><path class="cls-1" d="M103.06,131.6c-.18.87-4-.72-5.74-.78-1.24,0-4.48-.17-4.65-.19-.64-.1-.92-.84-.31-.94C94.34,129.37,103.25,130.63,103.06,131.6Z"/><path class="cls-1" d="M84.77,130c0,.76,0,0-3.92.07-4.12-.06-4.42,0-4.26-.54.26-.93,2.68-.37,4-.47C82.55,129.1,84.82,128.69,84.77,130Z"/><path class="cls-1" d="M87.25,129.76c.26-.34,2.73-.47,2.64.26s-.38.42-1.67.41C86.77,130.43,87,130.13,87.25,129.76Z"/><path class="cls-1" d="M108.06,3.71a2,2,0,0,1-1.94-2,2,2,0,0,1,3.95.07A2,2,0,0,1,108.06,3.71Z"/><path class="cls-1" d="M101.05,3.9A2,2,0,0,1,99,2.05,2,2,0,0,1,100.82,0a2,2,0,1,1,.23,4Z"/><path class="cls-1" d="M94,4.57a1.94,1.94,0,0,1-2.2-1.7A1.94,1.94,0,0,1,93.45.66,2,2,0,1,1,94,4.57Z"/><path class="cls-1" d="M87,5.72a2,2,0,0,1-2.32-1.54A2,2,0,1,1,87,5.72Z"/><path class="cls-1" d="M80,7.36A1.93,1.93,0,0,1,77.6,6,2,2,0,1,1,80,7.36Z"/><path class="cls-1" d="M73.2,9.49A2,2,0,1,1,74.42,7,2,2,0,0,1,73.2,9.49Z"/><path class="cls-1" d="M66.6,12.06A1.93,1.93,0,0,1,64,11a2,2,0,1,1,2.58,1Z"/><path class="cls-1" d="M60.16,15.11a2,2,0,0,1-1.81-3.51,2,2,0,1,1,1.81,3.51Z"/><path class="cls-1" d="M54,18.57a2,2,0,0,1-2-3.38,2,2,0,0,1,2.72.67A2,2,0,0,1,54,18.57Z"/><path class="cls-1" d="M48,22.48A1.93,1.93,0,0,1,45.24,22a2,2,0,1,1,2.74.47Z"/><path class="cls-1" d="M42.3,26.79A2,2,0,1,1,42.59,24,1.95,1.95,0,0,1,42.3,26.79Z"/><path class="cls-1" d="M36.92,31.47a2,2,0,0,1-2.7-2.88,2,2,0,1,1,2.7,2.88Z"/><path class="cls-1" d="M31.89,36.5a2,2,0,1,1-.09-2.78A1.95,1.95,0,0,1,31.89,36.5Z"/><path class="cls-1" d="M27.2,41.88a2,2,0,0,1-3.06-2.5,2,2,0,0,1,2.79-.28A2,2,0,0,1,27.2,41.88Z"/><path class="cls-1" d="M22.94,47.5a2,2,0,0,1-3.23-2.27,2,2,0,0,1,2.77-.47A2,2,0,0,1,22.94,47.5Z"/><path class="cls-1" d="M19,53.49a1.94,1.94,0,0,1-2.7.66,2,2,0,1,1,2.7-.66Z"/><path class="cls-1" d="M15.55,59.68a1.93,1.93,0,0,1-2.65.84A2,2,0,0,1,12,57.87a2,2,0,1,1,3.51,1.81Z"/><path class="cls-1" d="M12.51,66.12a2,2,0,0,1-3.63-1.57,2,2,0,1,1,3.63,1.57Z"/><path class="cls-1" d="M9.93,72.72a2,2,0,1,1-1.2-2.52A1.95,1.95,0,0,1,9.93,72.72Z"/><path class="cls-1" d="M7.8,79.53A1.93,1.93,0,0,1,5.38,80.9a2,2,0,1,1,1-3.8A2,2,0,0,1,7.8,79.53Z"/><path class="cls-1" d="M6.15,86.46A1.94,1.94,0,0,1,3.83,88a2,2,0,0,1-1.55-2.32,2,2,0,1,1,3.87.78Z"/><path class="cls-1" d="M5,93.47a1.93,1.93,0,0,1-2.2,1.7,2,2,0,1,1,.51-3.91A2,2,0,0,1,5,93.47Z"/><path class="cls-1" d="M4.32,100.56a2,2,0,0,1-2.09,1.85,2,2,0,1,1,.24-3.94A2,2,0,0,1,4.32,100.56Z"/><path class="cls-1" d="M4.12,107.65a1.94,1.94,0,0,1-1.94,2,2,2,0,1,1-.06-4A2,2,0,0,1,4.12,107.65Z"/><path class="cls-1" d="M4.41,114.82a2,2,0,0,1-1.81,2.11A2,2,0,1,1,2.3,113,2,2,0,0,1,4.41,114.82Z"/><path class="cls-1" d="M5.19,121.88A2,2,0,1,1,3,120.21,2,2,0,0,1,5.19,121.88Z"/><path class="cls-1" d="M6.45,128.86a2,2,0,1,1-2.34-1.51A1.94,1.94,0,0,1,6.45,128.86Z"/><path class="cls-1" d="M8.19,135.75a2,2,0,1,1-2.44-1.36A2,2,0,0,1,8.19,135.75Z"/><path class="cls-1" d="M10.41,142.53a2,2,0,0,1-3.71,1.36,2,2,0,1,1,3.71-1.36Z"/><path class="cls-1" d="M13.07,149.09a1.94,1.94,0,0,1-1,2.59,2,2,0,0,1-2.62-1,2,2,0,1,1,3.6-1.61Z"/><path class="cls-1" d="M16.2,155.47a1.93,1.93,0,0,1-.81,2.66,2,2,0,0,1-2.67-.8,2,2,0,0,1,.81-2.68A2,2,0,0,1,16.2,155.47Z"/><path class="cls-1" d="M19.8,161.67a2,2,0,1,1-2.72-.63A2,2,0,0,1,19.8,161.67Z"/><path class="cls-1" d="M23.75,167.54a2,2,0,0,1-3.19,2.31,2,2,0,1,1,3.19-2.31Z"/><path class="cls-1" d="M28.14,173.15a2,2,0,0,1-3,2.54,2,2,0,1,1,3-2.54Z"/><path class="cls-1" d="M32.89,178.46a2,2,0,0,1-2.84,2.73,2,2,0,1,1,2.84-2.73Z"/><path class="cls-1" d="M38,183.43a1.94,1.94,0,0,1,.14,2.78,2,2,0,1,1-.14-2.78Z"/><path class="cls-1" d="M43.45,188a2,2,0,1,1-2.78.32A2,2,0,0,1,43.45,188Z"/><path class="cls-1" d="M49.19,192.26a2,2,0,1,1-2.75.51A2,2,0,0,1,49.19,192.26Z"/><path class="cls-1" d="M55.16,196.06a1.94,1.94,0,0,1,.71,2.69,2,2,0,1,1-.71-2.69Z"/><path class="cls-1" d="M61.41,199.43a2,2,0,1,1-2.65.89A2,2,0,0,1,61.41,199.43Z"/><path class="cls-1" d="M67.9,202.39A2,2,0,0,1,66.39,206a2,2,0,1,1,1.51-3.65Z"/><path class="cls-1" d="M74.55,204.88a1.93,1.93,0,0,1,1.24,2.48,2,2,0,0,1-2.49,1.26,2,2,0,0,1-1.25-2.51A1.94,1.94,0,0,1,74.55,204.88Z"/><path class="cls-1" d="M81.4,206.9A2,2,0,1,1,79,208.31,2,2,0,0,1,81.4,206.9Z"/><path class="cls-1" d="M88.37,208.46a1.93,1.93,0,0,1,1.57,2.29,2,2,0,0,1-2.3,1.59A2,2,0,0,1,86.05,210,2,2,0,0,1,88.37,208.46Z"/><path class="cls-1" d="M95.34,209.51a2,2,0,0,1-.46,3.92,2,2,0,1,1,.46-3.92Z"/><path class="cls-1" d="M102.46,210.09a1.94,1.94,0,0,1,1.87,2,2,2,0,1,1-1.87-2Z"/><path class="cls-1" d="M109.62,210.18a1.93,1.93,0,0,1,2,1.92,2,2,0,1,1-2-1.92Z"/><path class="cls-1" d="M116.71,209.78a2,2,0,0,1,.35,3.94,2,2,0,1,1-.35-3.94Z"/><path class="cls-1" d="M123.74,208.91a1.94,1.94,0,0,1,2.25,1.63,2,2,0,1,1-2.25-1.63Z"/><path class="cls-1" d="M130.76,207.54a2,2,0,1,1,.89,3.84,2,2,0,0,1-2.37-1.48A2,2,0,0,1,130.76,207.54Z"/><path class="cls-1" d="M137.62,205.69a2,2,0,0,1,1.15,3.79,2,2,0,0,1-2.48-1.32A2,2,0,0,1,137.62,205.69Z"/><path class="cls-1" d="M144.34,203.38a2,2,0,1,1-1.14,2.55A2,2,0,0,1,144.34,203.38Z"/><path class="cls-1" d="M150.85,200.63a1.94,1.94,0,0,1,2.61.94,2,2,0,1,1-3.58,1.66A1.94,1.94,0,0,1,150.85,200.63Z"/><path class="cls-1" d="M157.26,197.37a1.93,1.93,0,0,1,2.67.77,2,2,0,0,1-.76,2.69,2,2,0,0,1-2.7-.78A2,2,0,0,1,157.26,197.37Z"/><path class="cls-1" d="M163.34,193.72a1.94,1.94,0,0,1,2.72.59,2,2,0,1,1-2.72-.59Z"/><path class="cls-1" d="M169.2,189.64a2,2,0,0,1,2.37,3.17,2,2,0,0,1-2.78-.4A2,2,0,0,1,169.2,189.64Z"/><path class="cls-1" d="M174.7,185.23a1.94,1.94,0,0,1,2.77.2,2,2,0,1,1-3,2.58A1.94,1.94,0,0,1,174.7,185.23Z"/><path class="cls-1" d="M179.93,180.39a2,2,0,1,1,0,2.79A2,2,0,0,1,179.93,180.39Z"/><path class="cls-1" d="M184.82,175.22a2,2,0,0,1,2.78-.18,2,2,0,1,1-2.78.18Z"/><path class="cls-1" d="M189.35,169.72a2,2,0,0,1,3.14,2.39,2,2,0,1,1-3.14-2.39Z"/><path class="cls-1" d="M193.51,163.9a1.93,1.93,0,0,1,2.72-.55,2,2,0,0,1,.57,2.73,2,2,0,1,1-3.29-2.18Z"/><path class="cls-1" d="M197.21,157.87a2,2,0,1,1,3.43,2,2,2,0,0,1-2.7.74A2,2,0,0,1,197.21,157.87Z"/><path class="cls-1" d="M200.5,151.57a2,2,0,1,1,.92,2.65A2,2,0,0,1,200.5,151.57Z"/><path class="cls-1" d="M203.36,145a2,2,0,0,1,3.68,1.46,2,2,0,0,1-2.58,1.11A2,2,0,0,1,203.36,145Z"/><path class="cls-1" d="M205.76,138.34a2,2,0,0,1,3.77,1.19,2,2,0,1,1-3.77-1.19Z"/><path class="cls-1" d="M207.69,131.44a2,2,0,0,1,3.84.94,2,2,0,1,1-3.84-.94Z"/><path class="cls-1" d="M209.13,124.52a1.93,1.93,0,0,1,2.26-1.61,2,2,0,1,1-2.26,1.61Z"/><path class="cls-1" d="M210.09,117.43a2,2,0,0,1,3.93.4,2,2,0,1,1-3.93-.4Z"/><path class="cls-1" d="M210.55,110.37a2,2,0,0,1,3.95.13,2,2,0,1,1-3.95-.13Z"/><path class="cls-1" d="M210.55,103.2a1.92,1.92,0,0,1,1.89-2,2,2,0,0,1,2.06,1.89,2,2,0,0,1-1.92,2.06A2,2,0,0,1,210.55,103.2Z"/><path class="cls-1" d="M210.06,96.15a2,2,0,0,1,3.92-.41,2,2,0,1,1-3.92.41Z"/><path class="cls-1" d="M209.07,89.07a2,2,0,0,1,3.9-.68,2,2,0,0,1-1.62,2.3A2,2,0,0,1,209.07,89.07Z"/><path class="cls-1" d="M207.62,82.15a1.94,1.94,0,0,1,1.43-2.38,2,2,0,1,1,.95,3.84A2,2,0,0,1,207.62,82.15Z"/><path class="cls-1" d="M205.66,75.27a2,2,0,1,1,2.48,1.28A1.95,1.95,0,0,1,205.66,75.27Z"/><path class="cls-1" d="M203.25,68.59a2,2,0,0,1,3.66-1.47,2,2,0,1,1-3.66,1.47Z"/><path class="cls-1" d="M200.36,62.05A2,2,0,1,1,203,63,2,2,0,0,1,200.36,62.05Z"/><path class="cls-1" d="M197.05,55.77a2,2,0,1,1,2.7.74A2,2,0,0,1,197.05,55.77Z"/><path class="cls-1" d="M193.33,49.75a1.94,1.94,0,0,1,.55-2.73,2,2,0,1,1-.55,2.73Z"/><path class="cls-1" d="M189.16,44a2,2,0,0,1,.35-2.76,2,2,0,1,1-.35,2.76Z"/><path class="cls-1" d="M184.62,38.46a2,2,0,1,1,2.78.17A1.95,1.95,0,0,1,184.62,38.46Z"/><path class="cls-1" d="M179.72,33.29a1.94,1.94,0,0,1,0-2.78,2,2,0,0,1,2.79,0,2,2,0,0,1,0,2.81A2,2,0,0,1,179.72,33.29Z"/><path class="cls-1" d="M174.46,28.47a2,2,0,1,1,2.79-.2A2,2,0,0,1,174.46,28.47Z"/><path class="cls-1" d="M168.88,24a2,2,0,0,1,2.36-3.17A2,2,0,1,1,168.88,24Z"/><path class="cls-1" d="M163.08,20a2,2,0,0,1-.6-2.72,2,2,0,1,1,.6,2.72Z"/><path class="cls-1" d="M156.92,16.35a2,2,0,0,1,1.9-3.46,2,2,0,1,1-1.9,3.46Z"/><path class="cls-1" d="M150.56,13.15a2,2,0,1,1,2.63-1A2,2,0,0,1,150.56,13.15Z"/><path class="cls-1" d="M144.05,10.41a1.94,1.94,0,0,1-1.15-2.54,2,2,0,0,1,2.55-1.15,2,2,0,0,1,1.15,2.56A2,2,0,0,1,144.05,10.41Z"/><path class="cls-1" d="M137.31,8.11A1.94,1.94,0,0,1,136,5.66a2,2,0,0,1,2.46-1.33,2,2,0,0,1,1.32,2.48A2,2,0,0,1,137.31,8.11Z"/><path class="cls-1" d="M130.45,6.3A1.94,1.94,0,0,1,129,3.94a2,2,0,1,1,3.84.88A2,2,0,0,1,130.45,6.3Z"/><path class="cls-1" d="M123.42,5a2,2,0,1,1,2.26-1.65A2,2,0,0,1,123.42,5Z"/><path class="cls-1" d="M116.38,4.1A2,2,0,0,1,114.59,2a2,2,0,1,1,3.93.34A2,2,0,0,1,116.38,4.1Z"/></svg>