<svg xmlns="http://www.w3.org/2000/svg" viewBox="0 0 524 108" aria-labelledby="title" role="img"><title>UC Santa Cruz</title><desc>The UC Santa Cruz word mark</desc><g fill="#00458c"><path d="M22.51 98.78a4 4 0 01-1.62 3.15 7.31 7.31 0 01-4.77 1.39 8 8 0 01-5-1.34 3.82 3.82 0 01-1.63-3.08V.86H0V96.2a10.91 10.91 0 00.85 4.23A8.62 8.62 0 003.69 104a15 15 0 005 2.32 28.29 28.29 0 007.42.84 30.91 30.91 0 007.54-.78 13 13 0 004.91-2.27 8.59 8.59 0 002.65-3.49 11.16 11.16 0 00.79-4.18V.86h-9.49zM68.45 98.9a3.77 3.77 0 01-1.47 3c-1 .84-2.72 1.31-5 1.39a7.78 7.78 0 01-4.88-1.41 3.88 3.88 0 01-1.75-3.14V10a12.29 12.29 0 01.23-2.34 4.47 4.47 0 01.92-1.94 4.57 4.57 0 012-1.35 10.49 10.49 0 013.59-.52 9.44 9.44 0 013.8.62 4.88 4.88 0 011.91 1.4 4.24 4.24 0 01.75 1.88 14.82 14.82 0 01.14 2.25v23.6h9.5V13.29a29.72 29.72 0 00-.38-4.71 8.58 8.58 0 00-2.1-4.38 11.75 11.75 0 00-4.89-3.07A26.6 26.6 0 0062.18 0a29.21 29.21 0 00-8.86 1.08 10.87 10.87 0 00-5 3 9.27 9.27 0 00-2.1 4.42 26.75 26.75 0 00-.43 4.79v83a9.54 9.54 0 003.8 7.69c2.51 2 6.66 3.07 12.69 3.15a28.24 28.24 0 007.42-.84 15 15 0 005-2.32 8.66 8.66 0 002.84-3.55 10.76 10.76 0 00.85-4.23V71.71h-10zM148.71 67.62c-.25-.92-.55-1.85-.88-2.76s-.76-2-1.25-3.1a38.78 38.78 0 00-3.27-6.31c-1.23-1.92-2.31-3.59-3.21-5l-7.79-11.93a50.77 50.77 0 01-2.94-5 24.45 24.45 0 01-1.81-5.17 25.64 25.64 0 01-1-6.06c0-1.71-.06-3.74-.06-6.2V10a14.88 14.88 0 01.18-2.24 3.87 3.87 0 01.8-1.85 5.42 5.42 0 012-1.43 9.62 9.62 0 013.84-.62 10.14 10.14 0 013.56.51 4.34 4.34 0 011.89 1.33 4.81 4.81 0 01.88 2 11.52 11.52 0 01.24 2.33v23.32h9.49V13.42a31.93 31.93 0 00-.38-4.77 8.64 8.64 0 00-2.12-4.45 11.75 11.75 0 00-5-3.07A27.86 27.86 0 00133 0a27.73 27.73 0 00-8.65 1.08 11.43 11.43 0 00-4.92 3 8.52 8.52 0 00-2.11 4.38 29.44 29.44 0 00-.38 4.71v5c0 2.21 0 4.15.12 5.75a30.72 30.72 0 001 5.85 49.35 49.35 0 001.8 5.73 28.65 28.65 0 003 5.52L131 53.49c.82 1.24 1.55 2.33 2.21 3.27s1.25 1.86 1.81 2.8a23.78 23.78 0 011.5 2.88c.43 1 .86 2.12 1.26 3.31.48 1.63.94 3.09 1.34 4.32a13.49 13.49 0 01.59 4.23v22.76a14.88 14.88 0 01-.18 2.24 4.22 4.22 0 01-2.6 3.4 8.58 8.58 0 01-3.61.62 9.46 9.46 0 01-3.62-.56 5.83 5.83 0 01-2.06-1.44 4 4 0 01-1-1.93 11.45 11.45 0 01-.24-2.33V71.33l-9.49.14v22.27a25.59 25.59 0 00.44 4.72 9.73 9.73 0 002.1 4.42 11 11 0 005 3.14 28.54 28.54 0 008.93 1.13 26.61 26.61 0 008.7-1.14 11.55 11.55 0 004.88-3.07 8.82 8.82 0 002-4.3 28.55 28.55 0 00.37-4.66v-19.8a29.78 29.78 0 00-.19-3.58 21 21 0 00-.43-2.98zM192.44 4.16a11.27 11.27 0 00-4.81-3 26.62 26.62 0 00-8.7-1.16A29.67 29.67 0 00170 1.08a11 11 0 00-5 3 9.14 9.14 0 00-2.11 4.43 26.7 26.7 0 00-.44 4.8v93.09h9.49V52.91h13.39v53.51h9.49V13.2a29.75 29.75 0 00-.38-4.72 8.64 8.64 0 00-2-4.32zm-7.12 43.32h-13.39V10a12.29 12.29 0 01.23-2.34 4.45 4.45 0 01.92-1.95 4.57 4.57 0 012-1.35 10.49 10.49 0 013.59-.52 9.41 9.41 0 013.8.62 4.87 4.87 0 011.91 1.41 4.24 4.24 0 01.75 1.88 15.11 15.11 0 01.18 2.25zM231.75 59.21L217.61.61h-8.49v105.81h9.49V34.66l13.02 51.28v20.48h9.61V.61h-9.49v58.6zM248.09 5.8h11.81v100.62h9.49V5.8h12.3V.74h-33.6V5.8zM319.45 4.16a11.38 11.38 0 00-4.82-3 26.58 26.58 0 00-8.7-1.16A29.56 29.56 0 00297 1.08a11 11 0 00-5 3 9.32 9.32 0 00-2.11 4.43 26.7 26.7 0 00-.44 4.8v93.09h9.49V52.91h13.39v53.51h9.49V13.2a29.75 29.75 0 00-.38-4.72 8.71 8.71 0 00-1.99-4.32zm-7.13 43.32h-13.39V10a11.54 11.54 0 01.24-2.34 4.43 4.43 0 01.91-1.95 4.63 4.63 0 012-1.35 10.59 10.59 0 013.6-.52 9.36 9.36 0 013.79.62 4.84 4.84 0 011.92 1.41 4.23 4.23 0 01.74 1.88 15.11 15.11 0 01.18 2.25zM381.38 98.9a3.77 3.77 0 01-1.47 3c-1 .84-2.72 1.31-5.05 1.39a7.76 7.76 0 01-4.87-1.41 3.89 3.89 0 01-1.76-3.14V10a11.62 11.62 0 01.24-2.34 4.21 4.21 0 01.92-1.94 4.57 4.57 0 012-1.35 10.49 10.49 0 013.61-.54 9.44 9.44 0 013.8.62 5 5 0 011.91 1.4 4.11 4.11 0 01.74 1.88 15 15 0 01.18 2.24V33.6h9.49V13.29a29.71 29.71 0 00-.37-4.71 8.62 8.62 0 00-2.1-4.38 11.72 11.72 0 00-4.9-3.07A26.54 26.54 0 00375.11 0a29.21 29.21 0 00-8.86 1.08 10.91 10.91 0 00-5 3 9.3 9.3 0 00-2.09 4.42 26.76 26.76 0 00-.44 4.79v83a9.57 9.57 0 003.8 7.69c2.51 2 6.66 3.07 12.7 3.15a28.29 28.29 0 007.42-.84 15.13 15.13 0 005-2.32 8.66 8.66 0 002.84-3.55 10.94 10.94 0 00.85-4.23V71.71h-10zM435.51 58a11.36 11.36 0 00-2.66-4.89 7.43 7.43 0 00-1.75-1.48 19.56 19.56 0 00-2-1.08l-.87-.38 1.44-.69a22.9 22.9 0 002.21-1.26 7.75 7.75 0 001.76-1.49 7.35 7.35 0 001.91-2.73 9 9 0 00.4-2.77V14.34a42.19 42.19 0 00-.37-5.72c-.28-1.9-1.57-3.57-3.86-5A14.25 14.25 0 00427.49 2a34.53 34.53 0 00-4.3-.69c-1.36-.12-2.56-.18-3.55-.18h-15.81v105.41h9.49V52.66h3a17.74 17.74 0 013.77.36 14.88 14.88 0 013.48 1.28 4.39 4.39 0 012.2 2.87 16.83 16.83 0 01.53 4.22v45.15h9.74L436 63.11a26.88 26.88 0 00-.49-5.11zm-9.05-18.75a17.55 17.55 0 01-.48 4 5.78 5.78 0 01-1.16 2.63 9.88 9.88 0 01-3.41 1.77 15 15 0 01-4.78.77h-3.31V4.94h4.41a17.73 17.73 0 016.09 1 3 3 0 012.12 1.76 11.16 11.16 0 01.52 3.67zM471.39 98.78a4 4 0 01-1.62 3.15 7.35 7.35 0 01-4.77 1.39 8 8 0 01-5-1.34 3.79 3.79 0 01-1.61-3.08V.86h-9.49V96.2a10.69 10.69 0 00.85 4.23 8.55 8.55 0 002.84 3.56 15 15 0 005 2.32 28.19 28.19 0 007.42.84 30.91 30.91 0 007.54-.78 13 13 0 004.91-2.27 8.59 8.59 0 002.64-3.49 11.17 11.17 0 00.79-4.17V.86h-9.49zM502.35 100.98L521.78.37h-29.42V5.8h17.7l-19.31 100.62h32.01v-5.44h-20.41z" /></g></svg>