<svg height='100px' width='100px'  fill="#000000" xmlns="http://www.w3.org/2000/svg" xmlns:xlink="http://www.w3.org/1999/xlink" version="1.1" x="0px" y="0px" viewBox="0 0 100 100" style="enable-background:new 0 0 100 100;" xml:space="preserve"><path fill="#003c6c" d="M63,15C49.5,1.5,27.4,1.7,14.2,15.6C2.5,28.1,1.9,48.1,13.1,61.1c11.5,13.3,30.6,15.4,44.4,6.3c0,0,0.1,0.1,0.1,0.1  l25.7,25.7c2.3,2.3,6.1,2.3,8.4,0l1.4-1.4c2.3-2.3,2.3-6.1,0-8.4L67.5,57.7c0,0-0.1-0.1-0.1-0.1C76,44.4,74.6,26.5,63,15z   M58.7,51.2c-9.3,14.6-30.3,14.6-39.6,0c-4.7-7.4-4.7-17.1,0-24.5c9.3-14.6,30.3-14.6,39.6,0C63.4,34.1,63.4,43.9,58.7,51.2z"></path></svg>