<?xml version="1.0" encoding="UTF-8"?><svg id="banana-slug" xmlns="http://www.w3.org/2000/svg" viewBox="0 0 92.51 46.55"><g><path d="M21.37,17.7c.99,2.71,1.09,5.83,2.86,8.11,1.24,1.59,3.12,2.53,4.98,3.31,6.26,2.62,13.04,3.99,19.83,4.01,3.76,.01,7.51-.38,11.26-.36,11.51,.07,22.89,3.96,31.83,11.21,.2,.17,.42,.39,.39,.65-.04,.33-.42,.49-.75,.56-3.69,.85-8,.81-11.79,.94-4.37,.14-8.75,.08-13.12,.05-9.37-.06-18.73,.49-28.1,.34-4.66-.07-9.3-.79-13.93-.87-3.74-.06-7.17,.25-10.72-1.48-2.71-1.32-5-3.93-5.02-6.94,0-.94,.2-1.87,.33-2.81,.41-2.93,.07-6.35-.92-9.15-1.06-2.99-2.04-2.43-5.08-3.44-4.81-1.59-4.05-7.76-.65-10.29,6.24-4.64,16.04-.9,18.61,6.15Z" style="fill:#fdc700;"/><path d="M18.45,2.67c1.15-.98,2.33-1.99,3.76-2.48,.44-.15,.91-.25,1.36-.15s.87,.45,.93,.91c.1,.76-.75,1.31-1.51,1.39s-1.56-.08-2.27,.2c-.36,.14-.67,.39-.98,.64-2.8,2.28-5.52,4.52-6.73,8.07-.06,.18-.13,.38-.29,.49-.5,.33-2.59-.71-2.4-1.46,.21-.85,1.92-2.05,2.54-2.64,1.8-1.73,3.69-3.35,5.58-4.97Z" style="fill:#fdc700;"/><path d="M7.14,9.9c.18-1.88,1.07-3.65,2.58-4.81,.62-.48,1.33-.84,1.92-1.36s1.06-1.25,1.01-2.03c-1.51-.1-2.97,.75-3.97,1.89s-1.62,2.56-2.22,3.95l-2.06,4.73c-.65,1.49-1.31,3.02-1.41,4.64,0,.1,0,.21,.05,.29,.11,.15,.34,.12,.52,.07,1.37-.4,2.76-.89,3.01-2.35,.27-1.6,.41-3.39,.57-5.02Z" style="fill:#fdc700;"/><path d="M.48,17.82c2.21,2.6,6.52,3.14,9.3,1.17" style="fill:none; stroke:#231f20; stroke-linecap:round; stroke-linejoin:round; stroke-width:.5px;"/><g><ellipse cx="7.78" cy="13.93" rx="1.36" ry="1.7" style="fill:#fff;"/><ellipse cx="3.07" cy="13.93" rx="1.36" ry="1.7" style="fill:#fff;"/><circle cx="7.59" cy="14.27" r="1.1" style="fill:#231f20;"/><circle cx="3.1" cy="14.46" r="1.1" style="fill:#231f20;"/></g></g></svg>
