<svg viewBox="0 0 975 936" xmlns="http://www.w3.org/2000/svg" xml:space="preserve" style="fill-rule:evenodd;clip-rule:evenodd;stroke-linejoin:round;stroke-miterlimit:2">
  <path style="fill:none" d="M0 0h974.599v935.742H0z"/>
  <path d="M245.77 3.915c19 5.1 35.9 22.9 40.6 42.6 4.5 19.2-1.4 39-15.9 53.3-11.5 11.4-23.6 16.5-39.1 16.5-10.1-.1-15.1-1.2-24.4-5.7-9.2-4.4-20.1-14.9-24.9-24-4-7.6-7.2-19.7-7.2-27.3 0-7.5 3.2-19.7 7.2-27.3 4.1-7.9 15.4-19.2 23.4-23.4 3.3-1.8 8.7-3.9 11.9-4.8 7.3-1.9 21.2-1.8 28.4.1Zm-23.8 31.6c-4.7 1.5-11.1 7.5-13.4 12.8-2.7 6.1-2.7 16 0 22 4.1 9.1 12.4 14.2 22.8 14.2 10.1 0 18.1-4.8 22.8-13.7 2.8-5.3 3-17.4.3-22.5-6.4-12.4-18.4-17.1-32.5-12.8Zm-115.2-31.6c17.4 4.7 31.8 18.4 38.9 37.2 2.2 5.8 2.6 8.3 2.6 18.2 0 9.9-.4 12.4-2.6 18.2-3.8 10.1-8.6 17.4-15.5 23.8-11.3 10.3-23.1 15-37.8 15-15.6 0-27.6-5.1-39-16.5-14.7-14.6-20.5-34.1-16-53.4 4.7-19.7 21.9-37.6 41-42.6 7.3-1.9 21.2-1.8 28.4.1Zm-24.6 32c-8 2.9-15.3 14.1-15.3 23.4 0 5.2 3.1 13.1 6.8 17.2 4.9 5.5 10.9 8 18.7 8 7.7 0 13.8-2.5 18.6-7.9 4.4-4.9 6.3-10 6.3-17.3 0-7.3-1.9-12.4-6.2-17.2-7.4-8.2-17.3-10.3-28.9-6.2Z" style="fill:#0a2846;fill-rule:nonzero"/>
  <path d="M236.37 36.415c11.9 2.8 20.4 16.1 17.6 27.5-5.6 22.2-32.9 25.3-43.4 4.9-8.2-16.1 8-36.5 25.8-32.4Zm-140.4-.4c5.5.8 13.1 6.5 16.2 12.2 9.3 16.6-5 37.3-23.6 34-10.4-1.8-19.2-12.3-19.2-22.9.1-10.6 8.1-20.5 18.6-22.9 2.4-.6 4.6-1 4.9-.9.3 0 1.7.3 3.1.5Z" style="fill:#fff1e8;fill-rule:nonzero"/>
  <path d="M243.87 117.815v124.3l6.3 5.1c16.1 12.7 33.8 35 42.6 53.4 5.5 11.5 10.6 26.8 13.3 39.4 2.2 10.7 2.2 11.6 2.8 118.3.6 116.4.3 109.5 5.9 123.9 6.8 17.2 21.2 30.3 40.6 36.9l8 2.7 163.5.6c177.1.6 168.2.3 196.5 6 61.7 12.4 118.8 44.3 162.7 90.8 9 9.6 25.8 30.1 25.8 31.5 0 .3-147.3.5-327.3.4l-327.2-.3-7.5-2.3c-27.1-8.3-47.9-26.5-60.1-52.6-7.4-15.9-7.9-19.6-7.9-58 0-18.8-.5-38.2-1.1-43.1-2.7-22-11.9-40.6-27.5-55.6-12.4-11.8-26.1-19.3-42-23-8.1-1.8-11.5-2.1-24.2-1.7-13.3.4-15.6.8-24.6 3.8-27.6 9.3-48.5 30.1-58 58l-2.6 7.5.3-117.5c.3-115.3.4-117.7 2.4-127 4.8-21.7 12.5-40 24-57.4 8.8-13.4 30.2-34.8 42.5-42.6l8.7-5.5.1-58v-58h25v51.7c0 28.5.3 51.8.7 51.8.5 0 6-1.3 12.3-2.9 34.4-8.7 66.7-5.9 99.7 8.6 1 .4 1.3-10.8 1.3-54.3v-54.9h25Z" style="fill:#ffd200;fill-rule:nonzero"/>
  <path d="M99.37 516.415c31.9 3.3 61 25.1 73.1 55 6.4 15.7 6.6 17.7 7.4 63.9.7 48 .6 47.4 9.5 65 12.5 24.9 31.9 41.5 58.2 49.7l8.8 2.8 329.5.3 329.6.2 6.4 10.3c21.7 34.8 37.9 79.9 45.4 126.7 2.3 14.3 4.6 34.7 4.6 41.2v2.8h-339.3c-370 0-349.2.3-378.7-5.6-84.3-16.8-155.2-62.4-198.9-127.8-34.4-51.4-52.3-114.6-52.5-185.1-.1-21.8.1-24.7 2.1-32 11.9-43.3 52-71.9 94.8-67.4Z" style="fill:#eb902a;fill-rule:nonzero"/>
</svg>
