<svg xmlns="http://www.w3.org/2000/svg" xml:space="preserve" fill-rule="evenodd" stroke-linejoin="round" stroke-miterlimit="2" clip-rule="evenodd" viewBox="0 0 69 48">
  <path fill="none" d="M0 0h68.084v47.919H0z"/>
  <path fill-rule="nonzero" d="M8.606 47.415.398 38.343c3.072-1.056 5.832-2.112 8.28-3.168 2.448-1.056 4.512-2.352 6.192-3.888 1.68-1.536 2.952-3.456 3.816-5.76.864-2.304 1.296-5.28 1.296-8.928l3.312.288c-1.248.96-2.544 1.584-3.888 1.872-1.344.288-2.688.432-4.032.432-3.168 0-5.688-.744-7.56-2.232-1.872-1.488-2.808-3.768-2.808-6.84 0-2.976 1.008-5.352 3.024-7.128C10.046 1.215 12.974.327 16.814.327c4.224 0 7.416 1.152 9.576 3.456 2.16 2.304 3.24 6.096 3.24 11.376 0 4.704-.48 8.76-1.44 12.168-.96 3.408-2.376 6.336-4.248 8.784-1.872 2.448-4.08 4.584-6.624 6.408-2.544 1.824-5.448 3.456-8.712 4.896Zm37.44 0-8.208-9.072c3.072-1.056 5.832-2.112 8.28-3.168 2.448-1.056 4.512-2.352 6.192-3.888 1.68-1.536 2.952-3.456 3.816-5.76.864-2.304 1.296-5.28 1.296-8.928l3.312.288c-1.248.96-2.544 1.584-3.888 1.872-1.344.288-2.688.432-4.032.432-3.168 0-5.688-.744-7.56-2.232-1.872-1.488-2.808-3.768-2.808-6.84 0-2.976 1.008-5.352 3.024-7.128C47.486 1.215 50.414.327 54.254.327c4.224 0 7.416 1.152 9.576 3.456 2.16 2.304 3.24 6.096 3.24 11.376 0 4.704-.48 8.76-1.44 12.168-.96 3.408-2.376 6.336-4.248 8.784-1.872 2.448-4.08 4.584-6.624 6.408-2.544 1.824-5.448 3.456-8.712 4.896Z"/>
</svg>
