<svg xmlns="http://www.w3.org/2000/svg" xml:space="preserve" fill-rule="evenodd" stroke-linejoin="round" stroke-miterlimit="2" clip-rule="evenodd" viewBox="0 0 68 48">
  <path fill="none" d="M0 0h67.602v47.887H0z"/>
  <path fill-rule="nonzero" d="m58.837.425 8.266 9.042c-3.111.98-5.876 2.012-8.295 3.096-2.418 1.085-4.477 2.385-6.177 3.902-1.699 1.516-2.981 3.446-3.845 5.789-.864 2.343-1.296 5.3-1.296 8.87l-3.312-.171c1.287-.98 2.607-1.623 3.961-1.931 1.354-.307 2.683-.461 3.988-.461 3.207 0 5.742.749 7.604 2.246 1.862 1.498 2.793 3.783 2.793 6.855 0 2.937-1.003 5.303-3.009 7.099-2.006 1.795-4.929 2.693-8.769 2.693-4.263 0-7.48-1.162-9.65-3.485-2.169-2.324-3.254-6.096-3.254-11.318 0-4.723.49-8.794 1.469-12.212.98-3.417 2.4-6.355 4.263-8.813 1.862-2.458 4.084-4.584 6.666-6.379 2.583-1.794 5.448-3.402 8.597-4.822Zm-37.411 0 8.266 9.042c-3.111.98-5.876 2.012-8.294 3.096-2.419 1.085-4.478 2.385-6.178 3.902-1.699 1.516-2.981 3.446-3.845 5.789-.864 2.343-1.296 5.3-1.296 8.87l-3.312-.171c1.287-.98 2.607-1.623 3.96-1.931 1.353-.307 2.683-.461 3.989-.461 3.206 0 5.74.749 7.603 2.246 1.863 1.498 2.795 3.783 2.795 6.855 0 2.937-1.004 5.303-3.011 7.099-2.007 1.795-4.93 2.693-8.77 2.693-4.262 0-7.478-1.162-9.647-3.485C1.516 41.645.431 37.873.431 32.651c0-4.723.49-8.794 1.469-12.212.98-3.417 2.401-6.355 4.263-8.813s4.084-4.584 6.667-6.379c2.582-1.794 5.447-3.402 8.596-4.822Z"/>
</svg>
