<svg xmlns="http://www.w3.org/2000/svg" xml:space="preserve" viewBox="0 0 200 150"><style>.st0{fill:#ffcd00}.st1{fill:#fab217}.st2{fill:#fff}</style><path d="M44.9 25.8c9.3-8.3 32.4-12.6 32.4-12.6 6.5 2.4 10.8 5 10.8 5-.8 9.6-9.3-.7-9.3-.7-7.3-2.7-24.4 11.9-24.4 11.9" class="st0"/><path d="M79.9 15.6s5.4 3.6 7.9 2.9c-1.1 8.3-8.9-1.4-8.9-1.4C71.6 14.4 54.5 29 54.5 29l-4-1.5c4.2-3 20.6-14.5 29.4-11.9z" class="st1"/><path d="M83.2 77.4C80 62.1 90.6 46.8 65.7 31.9l-1.1-3.7-.6-3.1-7 1.9-1.8.3s-7.4-1.2-9.5-1c-8.1.8-17.6 11.9-30.4 19.3-1.9 1.1-.2 4.9 3.2 7.5 9.4 6.9 25.6 5.2 25.6 5.2 1 2.1 6.7 3.2 6.7 3.2s2.7 5.4 2 10.6" class="st0"/><path d="M57.1 27c12.9-5 38.2-2.8 38.2-2.8 6.3 4.3 9.4 9.1 9.4 9.1-5 10.9-9.1-4.5-9.1-4.5-7.1-4.8-30.6 3-30.6 3" class="st0"/><path d="M97.4 27.4s3.1 7.2 6.1 7.4c-3.7 7.2-7.7-6.7-7.7-6.7-7.1-4.8-30.6 3-30.6 3L62.1 29c5.5-1.5 26.6-6.8 35.3-1.6z" class="st1"/><path d="M54.1 51.8c1.9 1.7 4.9 2.6 7.5 2 .6-.1.4-1-.3-.9h-.4s.1 0 0 0h-.1c-.5.1-1.1.1-1.6 0-1.6-.1-3.2-.8-4.4-1.8-.4-.4-1.1.3-.7.7z"/><ellipse cx="42.5" cy="34.2" class="st2" rx="8.8" ry="6.2" transform="rotate(-81.668 42.475 34.193)"/><path d="M48.2 34.9c-.4 2.7-1.8 6.1-4.8 7.3-2.9 1.1-5.2-1.2-6-3.5-1.1-3-.7-6.5.9-9.3 1.2-2.1 3.8-4.3 6.5-3.1 3.1 1.4 3.7 5.7 3.4 8.6-.1.6.9.6 1 0 .4-3.2-.3-7.2-3.4-9.1-2.8-1.7-5.9-.2-7.7 2-2.3 2.9-3 7.2-1.9 10.6.8 2.7 3.2 5.4 6.5 4.9 4-.7 6-5.1 6.5-8.4 0-.6-1-.6-1 0z"/><ellipse cx="29.7" cy="31.9" class="st2" rx="8.4" ry="4.2" transform="rotate(-78.281 29.73 31.865)"/><path d="M33.4 32.5c-.5 2.3-1.4 5.4-3.7 6.8-2.2 1.4-3.4-1.2-3.7-2.9-.6-2.9 0-6.2 1.3-8.8.6-1.3 2.5-4.5 4.5-3.3 1.1.6 1.5 2 1.7 3.1.3 1.6.2 3.4-.1 5.1-.1.6.8.8 1 .3.5-2.7.9-6.7-1.4-8.8-2-1.9-4.4 0-5.6 1.6-2 2.9-2.9 6.9-2.5 10.3.2 1.9 1.3 5.2 4.1 4.8 1.4-.2 2.4-1.4 3.2-2.4 1.2-1.6 1.8-3.6 2.2-5.5.1-.7-.9-.9-1-.3zM43.5 37.2c-1.6 5.4-3.3 1.6-2.6-2 .2-1.1 2.1-3.6 3.4-3 .9 1.1-1.6 3-1.7 4 0 .1.9.9.9 1z"/><path d="M30.5 34.9c-1.6 5.3-3.2 1.5-2.5-2 .2-1.1 2-3.5 3.4-2.9.9 1-1.5 2.9-1.7 3.9 0 .2.9.9.8 1z"/><path d="M57.4 53.6c-3.9 2.8-8.5 4.2-13.2 4.7" class="st0"/><path d="M57 53.3c-3.7 2.7-8.2 4.1-12.8 4.5-.6.1-.6 1 0 .9 4.9-.5 9.6-2 13.5-4.8.5-.3-.2-1-.7-.6z"/><path d="M52.8 72c-6.9 63.7 10.4 76.7 50.3 76.7l66.9.4s15.6-.3 10.9-13c0 0 16.7-3.1 13.2-8.3 0 0-2.1-4-14-3.7 0 0-10.5.5-10.8 9.9-2.6-6.6-6.8-11.5-14.8-11.5-4.7 0-6.2 1.6-9.1 4.3-14.3-2.4-49.3 20.4-62.3-49.3" class="st0"/><path d="M169.6 134.1c-3.3-5.1-5.1-11.6-16.9-11.2-.9 0 .9-.2 0 0 5.8.5 6.4 4.3 9.1 8.5 1.3 2.1 4.5 5.3 7.8 2.7zM73.4 79.4c12.6 62.8 46.6 51.1 70.5 50.2.7-1.2 1.1-1.9 1.9-2.8-12.7-2.8-49.7 21.5-62.7-49.6-3-15.9 7.3-32-20.1-48.2 12.3 28.6 10.9 28.7 10.4 50.4zM193.6 127.8s-2.6-3.4-12.9-3.4c0 0-.5 0-1.3.2 7.4.7 9.1 3.2 9.1 3.2 3.2 4.7-7.1 7.5-7.1 7.5s15.5-2.8 12.2-7.5z" class="st1"/></svg>
