<?xml version="1.0" encoding="UTF-8"?><svg xmlns="http://www.w3.org/2000/svg" viewBox="0 0 100 20"><g><path fill="rgba(255,255,255,0.15)" d="M50,12c-10.63,0-16.86,1.4-26.66,5.06-.17,.06-1.41,.53-1.77,.66-2.47,.92-4.66,1.67-6.72,2.28h6.33c.36-.13,.72-.26,1.09-.4,.36-.14,1.6-.6,1.77-.66,9.6-3.59,15.61-4.94,25.96-4.94s15.36,1.22,24.63,4.93c.96,.38,1.87,.74,2.75,1.07h6.23c-2.51-.73-5.14-1.69-8.23-2.93-9.48-3.79-14.81-5.07-25.37-5.07Z"/><path fill="rgba(255,255,255,0.15)" d="M100,2c-6.84,0-11.39-.54-16.4-2h-6.23c7.86,2.97,13.12,4,22.62,4V2Z"/><path fill="rgba(255,255,255,0.15)" d="M14.85,0C9.95,1.43,5.74,2,0,2v2c8.08,0,13.26-1.11,21.18-4h-6.33Z"/><path fill="rgba(255,255,255,0.15)" d="M17.27,9.6c.36-.14,1.6-.6,1.77-.66,9.6-3.59,15.61-4.94,25.96-4.94s15.36,1.22,24.63,4.93c9.48,3.79,19.81,5.07,30.38,5.07v-2c-10.27,0-20.37-1.22-29.63-4.93-9.48-3.79-14.81-5.07-25.37-5.07s-16.86,1.4-26.66,5.06c-.17,.06-1.41,.53-1.77,.66C10.04,10.16,5.6,11.4,.03,11.82v2.01c5.84-.43,10.48-1.71,17.24-4.23Z"/></g><path fill="rgba(255,255,255,0.15)" d="M74.53,12.05c-9.48-3.79-14.81-5.07-25.37-5.07s-16.86,1.4-26.66,5.06c-.17,.06-1.41,.53-1.77,.66C12.65,15.71,7.73,16.89,.03,16.97v2c7.98-.08,13.12-1.31,21.4-4.39,.36-.14,1.6-.6,1.77-.66,9.6-3.59,15.61-4.94,25.96-4.94s15.36,1.22,24.63,4.93c8.24,3.3,17.12,4.69,26.23,5v-2c-8.83-.31-17.47-1.65-25.49-4.86Z"/></svg>
