<svg xmlns="http://www.w3.org/2000/svg" xml:space="preserve" fill-rule="evenodd" stroke-linejoin="round" stroke-miterlimit="2" clip-rule="evenodd" viewBox="0 0 7500 1200">
  <path fill="none" d="M0 0h7500v1200H0z"/>
  <clipPath id="a">
    <path d="M0 0h7500v1200H0z"/>
  </clipPath>
  <g fill="#003c6c" fill-rule="nonzero" clip-path="url(#a)">
    <path d="M9263.57 912.098c-222.63 42.244-457.552 70.363-700.769 83.803-308.925 17.073-619.84 9.837-924.1-21.509-313.334-32.277-609.499-89.177-880.272-169.117-285.776-84.371-555.603-194.631-816.547-301.262-470.108-192.101-956.226-390.745-1535.65-433.469-312.737-23.058-606.558 3.424-865.956 52.644-368.551 69.932-667.763 185.734-854.055 270.665-281.698 128.424-528.646 279.492-767.463 425.589-157.744 96.499-320.857 196.282-492.704 288.788-142.706 76.821-274.263 132.091-402.189 168.965-78.918 22.748-157.905 38.781-234.759 47.65-85.233 9.837-170.651 11.2-253.886 4.053-156.258-13.418-302.804-56.425-435.569-127.828-111.311-59.862-210.223-138.882-286.048-228.517-49.12-58.069-90.615-118.917-130.746-177.761-72.417-106.188-147.3-215.991-269.179-312.108-262.34-206.891-739.887-331.884-1188.32-311.033-382.403 17.781-733.105 143.561-893.449 320.438-160.344 176.876-129.822 404.287 77.757 579.358l-8.284 2.466c-103.276-87.103-165.212-187.873-179.107-291.417-13.898-103.542 20.925-204.788 100.7-292.79 79.776-88 206.344-164.785 366.022-222.054 159.681-57.269 344.644-92.216 534.903-101.062 111.86-5.203 227.283-1.425 343.061 11.228 112.492 12.294 223.342 32.728 329.474 60.733 105.501 27.839 203.971 62.531 292.678 103.112 90.325 41.321 168.606 87.89 232.67 138.414 122.582 96.671 197.678 206.79 270.306 313.284 40.066 58.753 81.498 119.505 130.465 177.392 80.044 94.622 309.82 318.451 713.695 353.131 367.316 31.54 679.59-110.044 882.532-219.289 171.649-92.402 334.668-192.128 492.321-288.571C2150.13 669.802 2397.291 518.6 2679.483 389.95c121.116-55.216 248.023-104.83 377.196-147.463 138.299-45.643 280.011-83.529 421.205-112.605 315.247-64.928 627.878-86.582 929.149-64.368 140.022 10.324 277.039 29.428 418.886 58.405 126.403 25.821 253.835 58.966 389.574 101.327 252.102 78.676 496.157 178.405 732.176 274.851 260.635 106.504 530.14 216.633 815.225 300.799 1093.9 322.955 2561.85 241.827 3414.57-188.706l7.071 3.742c-211.076 106.569-461.151 193.657-743.286 258.844-58.275 13.464-117.529 25.909-177.679 37.322"/>
    <path d="M9195.45 898.597c-213.604 40.532-437.631 68.847-668.576 84.44-302.464 20.421-606.545 18.315-903.799-6.259-305.883-25.288-595.592-73.709-861.075-143.922-222.647-58.834-431.325-130.911-676.155-221.032-41.416-15.256-83.426-30.848-124.049-45.926-363.777-135.017-739.937-274.63-1159.15-347.61-120.989-21.07-242.502-36.056-361.161-44.54-604.763-43.241-1135.76 84.192-1474.72 198.71-77.416 26.123-154.374 54.786-228.735 85.196-281.351 115.144-529.697 251.433-769.869 383.234-108.462 59.521-220.614 121.068-334.87 180.194-55.124 28.525-106.414 54.287-156.804 78.761-146.706 71.259-274.415 120.008-401.906 153.419-78.579 20.594-156.991 34.951-233.049 42.673-84.496 8.578-169.015 9.278-251.213 2.081-154.045-13.49-300.059-54.656-433.983-122.354C45 1119.383-56.495 1044.858-137.178 960.147c-51.613-54.176-96.174-110.734-139.27-165.43-78.397-99.5-159.462-202.389-284.44-291.642-80.793-57.705-180.851-108.832-297.395-151.96-262.954-97.352-582.652-142.862-877.115-124.86-379.033 23.201-714.022 147.29-874.236 323.844-165.189 181.893-137.465 415.976 70.631 596.353l-7.957 2.296c-103.816-89.989-165.297-193.798-177.79-300.204-12.47-106.205 24.393-210.191 106.604-300.718 78.87-86.912 202.969-163.338 358.882-221.01 155.566-57.546 336.148-93.982 522.221-105.371 296.793-18.144 618.96 27.704 883.892 125.788 117.439 43.46 218.282 94.99 299.724 153.157 125.692 89.763 206.99 192.948 285.614 292.733 43.027 54.614 87.522 111.085 138.978 165.094 84.967 89.212 325.229 300.439 720.172 335.025 359.134 31.45 673.393-97.382 878.536-197.024 50.324-24.44 101.551-50.172 156.612-78.663 114.166-59.08 226.275-120.603 334.693-180.102 240.38-131.915 488.945-268.323 770.787-383.668 74.564-30.493 151.734-59.236 229.365-85.433 227.884-76.99 463.395-133.591 700.022-168.232 264.94-38.787 527.658-49.275 780.858-31.17 119.257 8.527 241.362 23.585 362.926 44.756 188.758 32.86 384.908 81.935 599.656 150.026 191.431 60.696 379.888 130.643 562.14 198.286 40.619 15.076 82.622 30.665 124.018 45.915 244.463 89.988 452.789 161.946 674.89 220.636 745.973 197.285 1651.44 212.698 2425.66 65.792 345.457-65.549 664.709-163.38 932.152-291.816l6.581 3.642c-212.794 102.19-461.745 186.762-739.94 251.369-63.863 14.832-128.881 28.523-194.849 41.041"/>
    <path d="M9123.88 885.845c-203.403 38.596-415.425 66.865-632.944 84.327-296.061 23.769-593.31 26.793-883.499 8.987-298.475-18.315-581.72-58.26-841.868-118.725-218.874-50.781-423.656-113.876-663.797-192.99-40.573-13.388-81.76-27.08-121.588-40.321-358.879-119.305-729.975-242.671-1145.85-308.998-122.252-19.512-239.222-32.981-357.601-41.176-598.678-41.437-1124.28 69.423-1459.79 169.719-76.632 22.849-153.042 48.008-227.113 74.782-282.276 102.202-533.118 224.164-775.696 342.113-106.692 51.874-217.016 105.516-329.536 157.312-55.561 25.57-107.142 48.655-157.688 70.574-148.957 64.605-276.572 108.417-401.607 137.875-78.255 18.438-156.087 31.121-231.339 37.698-83.769 7.322-167.389 7.359-248.544.11-151.818-13.558-297.3-52.884-432.401-116.883-111.241-52.698-215.316-122.727-300.971-202.514-53.812-50.098-101.185-102.181-146.999-152.551-84.6-93.007-172.077-189.183-300.495-271.721-82.696-53.162-183.211-99.782-298.752-138.566-261.88-87.985-576.055-125.906-861.974-104.039-369.759 28.333-697.382 153.728-855.013 327.25-172.667 189.81-148.333 424.832 63.504 613.346l-7.62 2.134c-104.36-92.872-165.382-199.719-176.475-308.992-11.054-108.862 27.85-215.592 112.503-308.65 77.967-85.829 199.599-161.892 351.744-219.967 151.469-57.814 327.665-95.741 509.545-109.677 146.631-11.214 298.424-7.272 451.162 11.717 147.629 18.353 287.974 49.662 417.141 93.06 116.403 39.073 217.682 86.051 301.026 139.629 129.143 83.002 216.871 179.452 301.71 272.723 45.744 50.296 93.047 102.303 146.705 152.256 111.756 104.1 354.763 283.696 726.655 316.909 346.638 30.961 649.459-77.125 874.549-174.747 50.485-21.894 102.006-44.953 157.506-70.497 112.437-51.756 222.721-105.377 329.374-157.233 242.787-118.049 493.845-240.118 776.607-342.495 74.265-26.844 150.875-52.071 227.71-74.98 225.596-67.44 458.817-116.681 693.173-146.36 262.023-33.18 521.775-41.221 772.049-23.898 118.888 8.23 236.344 21.754 359.091 41.346 417.104 66.523 788.76 190.075 1148.18 309.559 39.823 13.24 81.003 26.928 121.557 40.312 239.785 78.996 444.224 141.99 662.572 192.648 717.897 166.856 1597.74 166.859 2359.41 22.333 347.296-65.898 669.952-161.811 941.637-285.679l6.098 3.535c-214.559 97.824-462.384 179.883-736.593 243.896-70.605 16.482-142.488 31.662-215.465 45.509"/>
    <path d="M9047.74 874.092c-191.667 36.369-390.14 64.251-592.747 83.215-289.728 27.12-580.148 35.271-863.198 24.227-291.115-11.359-567.895-42.828-822.649-93.532-227.917-45.22-447.787-105.998-651.437-164.942-40.501-11.756-81.65-23.789-121.44-35.426-353.283-103.307-718.594-210.134-1130.24-269.676-121.997-17.665-237.801-30.031-354.038-37.807-592.808-39.643-1112.92 54.644-1444.86 140.722-75.828 19.578-151.693 41.235-225.49 64.367-285.102 89.607-528.742 192.935-786.687 302.331-103.273 43.798-210.058 89.087-319.045 133.088-56.123 22.654-107.989 43.062-158.563 62.391-95.346 36.445-240.676 88.78-401.304 122.331-11.69 2.442-23.353 4.768-34.94 6.966-153.342 29.099-297.799 36.909-440.563 23.904-149.571-13.625-294.521-51.112-430.825-111.422-112.585-49.815-216.348-113.576-308.412-189.51-55.59-45.811-105.393-93.211-153.556-139.051-95.334-90.736-185.382-176.44-317.726-252.423-84.629-48.605-185.603-90.719-300.119-125.173-260.763-78.568-569.423-108.898-846.834-83.212-360.478 33.45-680.729 160.153-835.784 330.656-177.627 194.951-156.027 436.482 56.37 630.336l-7.274 1.978c-104.902-95.744-165.474-205.632-175.167-317.779-9.641-111.516 31.305-220.99 118.403-316.586 77.069-84.748 196.235-160.45 344.615-218.923 147.376-58.078 319.193-97.492 496.874-113.981 142.781-13.22 291.224-12.159 441.206 3.153 144.45 14.747 282.898 41.871 411.495 80.617 115.338 34.702 217.054 77.129 302.324 126.1 133.069 76.401 223.366 162.344 318.969 253.333 48.096 45.775 97.831 93.11 153.266 138.796 118.098 97.407 370.38 265.747 733.147 298.793 337.632 30.756 642.602-65.328 870.569-152.47 50.519-19.309 102.335-39.696 158.402-62.327 108.912-43.972 215.663-89.245 318.899-133.028 258.162-109.488 502.009-212.903 787.577-302.657 73.986-23.191 150.037-44.9 226.048-64.527 223.256-57.895 454.169-99.782 686.319-124.493 259.073-27.577 515.866-33.172 763.248-16.628 116.653 7.801 232.859 20.211 355.264 37.936 412.693 59.692 778.487 166.659 1132.24 270.106 39.785 11.634 80.928 23.666 121.411 35.415 203.348 58.858 422.872 119.543 650.263 164.658 695.744 138.475 1532.47 126.411 2274.31-14.351 353.339-67.046 685.07-163.249 969.97-286.32l5.628 3.419c-216.398 93.48-463.101 173.027-733.256 236.429-78.847 18.505-159.138 35.509-240.657 50.977"/>
    <path d="M8965.3 863.714c-177.803 33.739-360.584 60.766-546.25 80.727-283.491 30.48-567.084 43.757-842.901 39.463-283.827-4.418-554.14-27.411-803.427-68.341-224.297-36.648-439.697-87.453-639.058-136.897-41.694-10.384-84.084-21.028-125.083-31.318-346.554-87.006-704.909-176.974-1110.87-229.559-122.048-15.834-236.683-27.098-350.462-34.436-587.247-37.864-1101.73 39.851-1429.93 111.715-75.03 16.324-150.352 34.475-223.879 53.953-290.934 77.377-541.12 168.07-805.994 264.089-97.191 35.231-197.691 71.664-300.232 107.327-56.925 19.79-109.078 37.52-159.44 54.205-117.706 39.005-246.788 77.493-385.23 103.766-151.841 28.815-314.952 42.936-486.888 26.96-338.383-31.439-591.959-170.963-745.094-282.473-56.752-41.278-108.426-83.763-158.397-124.851-102.718-84.455-199.74-164.226-336.67-233.825-86.596-44.032-188.035-81.639-301.5-111.78-263.42-70.117-558.791-92.271-831.703-62.379-351.17 38.558-664.055 166.565-816.543 334.066-182.603 200.111-163.739 448.15 49.231 647.322l-6.919 1.828c-105.448-98.615-165.567-211.541-173.863-326.568-8.231-114.165 34.752-226.382 124.307-324.523 76.169-83.67 192.875-159.014 337.488-217.882 143.298-58.334 310.732-99.235 484.205-118.281 138.945-15.22 284.04-17.039 431.252-5.408 141.271 11.162 277.816 34.099 405.845 68.178 114.235 30.346 216.384 68.22 303.607 112.571 137.656 69.966 234.939 149.953 337.933 234.635C-91.257 837.034-39.65 879.465 16.96 920.641c152.206 110.831 404.079 249.489 739.641 280.666 326.036 30.295 621.032-48.806 866.598-130.18 50.316-16.669 102.424-34.385 159.304-54.158 102.482-35.644 202.954-72.065 300.116-107.286 265.085-96.095 515.471-186.861 806.856-264.357 73.698-19.523 149.19-37.716 224.381-54.074 220.828-48.356 449.432-82.884 679.453-102.628 256.074-21.982 509.908-25.132 754.454-9.364 114.111 7.358 229.071 18.654 351.442 34.53 406.798 52.694 765.554 142.761 1112.5 229.864 40.991 10.292 83.378 20.933 125.048 31.311 199.075 49.373 414.151 100.102 637.953 136.67 1006.72 165.291 2287.68 29.459 3187.51-338.003l5.162 3.299c-218.333 89.159-463.912 166.194-729.921 228.963-89.151 21.037-180.002 40.334-272.155 57.82"/>
    <path d="M8873.9 855.291c-160.849 30.522-324.988 56.045-490.815 76.283-277.386 33.857-554.152 52.259-822.607 54.696-276.636 2.513-540.476-12.008-784.195-43.157-220.94-28.024-431.766-68.879-626.683-108.851-45.153-9.318-91.118-18.892-135.57-28.151-337.795-70.358-687.09-143.11-1084.65-188.494-122.626-14.027-236.092-24.188-346.885-31.062-582.179-36.107-1090.82 25.044-1415 82.699-74.245 13.082-149.018 27.73-222.269 43.538-301.883 65.518-563.083 144.292-839.619 227.689-86.525 26.095-175.999 53.079-267.11 79.722-58.023 16.962-110.461 32.015-160.309 46.02-114.662 32.224-251.925 68.267-400.658 91.254-165.288 25.548-317.969 31.112-466.765 17.009-144.973-13.739-288.869-47.557-427.688-100.513-111.434-42.51-220.196-97.522-323.262-163.509-57.02-36.46-109.734-73.768-160.713-109.846-110.911-78.499-215.67-152.644-358.14-216.034-88.594-39.438-190.498-72.539-302.886-98.386-262.174-60.459-552.174-75.212-816.582-41.538-347.025 44.306-645.081 170.468-797.29 337.476-187.6 205.29-171.473 459.835 42.087 664.302l-6.556 1.687c-214.704-205.565-230.935-461.458-42.355-667.818 75.281-82.599 189.518-157.584 330.367-216.845 139.23-58.581 302.283-100.968 471.545-122.58 135.133-17.21 276.878-21.907 421.301-13.962 138.095 7.597 272.736 26.351 400.184 55.742 113.105 26.011 215.682 59.333 304.877 99.041C-311.16 645.41-206.129 719.747-94.93 798.448c50.918 36.038 103.571 73.303 160.467 109.683 233.35 149.396 484.386 237.725 746.146 262.532 314.638 29.821 600.537-34.228 862.624-107.882 49.816-13.995 102.22-29.039 160.208-45.99 91.068-26.633 180.522-53.61 267.029-79.698 276.739-83.459 538.129-162.288 840.438-227.901 73.406-15.841 148.337-30.518 222.709-43.622 218.287-38.824 444.577-66 672.579-80.77 253.002-16.393 503.887-17.1 745.672-2.104 111.046 6.889 224.758 17.07 347.63 31.128 398.198 45.456 747.801 118.274 1085.89 188.693 44.449 9.258 90.41 18.831 135.54 28.143 194.648 39.918 405.17 80.715 625.654 108.682 635.184 81.181 1395.31 44.175 2098.26-89.207 368.608-69.944 721.384-166.336 1032.47-286.132l4.708 3.169c-220.406 84.877-464.867 159.4-726.592 221.502-102.446 24.31-206.819 46.546-312.598 66.617"/>
    <path d="M8769.25 849.772c-139.318 26.435-280.382 49.48-422.131 68.936-555.126 76.197-1097.08 94.161-1567.27 51.945-217.939-19.326-424.039-50.26-614.296-80.808-53.405-8.652-107.879-17.592-160.559-26.236-324.744-53.293-660.548-108.4-1043.95-146.166-124.303-12.279-236.598-21.335-343.298-27.688-577.957-34.389-1080.36 10.208-1400.06 53.676-73.443 9.85-147.682 20.992-220.669 33.117-322.668 54.054-603.694 121.981-901.215 193.895-66.869 16.163-136.017 32.876-206.012 49.516-61.745 14.666-112.958 26.688-161.179 37.834-123.987 28.672-258.3 57.69-400.319 75.723-164.855 20.933-316.11 24.233-462.41 10.087-142.598-13.788-285.969-45.772-426.131-95.068-110.358-38.814-221.611-89.454-330.67-150.515C53.08 866.714.552 834.878-50.245 804.09c-120.319-72.925-233.963-141.805-383.314-199.152-90.618-34.819-192.996-63.414-304.286-84.991-260.834-50.754-545.463-58.1-801.461-20.69-337.538 49.463-628.396 176.894-778.027 340.887-192.613 210.488-179.224 471.54 34.941 681.283l-6.188 1.551c-106.539-104.342-165.76-223.347-171.26-344.149-5.439-119.448 41.626-237.158 136.107-340.403 150.417-164.856 442.8-292.965 782.14-342.683 257.415-37.619 543.609-30.231 805.868 20.797 111.948 21.705 214.951 50.475 306.139 85.515 150.047 57.617 263.97 126.663 384.582 199.763 50.747 30.758 103.221 62.563 159.121 93.813 245.854 137.649 499.082 219.873 752.651 244.387 317.915 30.74 609.918-28.052 858.655-85.571 48.199-11.14 99.395-23.158 161.116-37.82 69.978-16.635 139.114-33.345 205.973-49.505 297.713-71.961 578.911-139.934 901.988-194.051 73.112-12.148 147.473-23.309 221.028-33.173 215.54-29.306 439.516-49.131 665.698-58.919 249.803-10.812 497.732-9.078 736.909 5.154 106.876 6.362 219.34 15.432 343.82 27.727 383.827 37.808 719.843 92.951 1044.79 146.277 52.671 8.643 107.135 17.583 160.521 26.231 190.01 30.51 395.831 61.401 613.362 80.692 601.744 54.026 1311.8 7.363 1987.49-120.846 381.661-72.42 752.296-170.828 1086.44-291.837l4.267 3.03c-222.708 80.653-466.052 152.668-723.27 214.049-120.196 28.682-242.56 54.836-366.303 78.316"/>
    <path d="M8644.92 848.622c-110.625 20.99-222.043 40.104-333.774 57.22-265.811 40.72-528.928 69.368-782.037 85.148-262.705 16.378-513.602 18.798-745.717 7.192-215.951-10.533-425.452-32.585-601.903-52.769-74.724-8.664-151.273-17.752-225.299-26.539-299.939-35.608-610.089-72.428-963.493-101.609-130.619-10.825-238.56-18.547-339.696-24.308-575.395-32.752-1070.82-4.68-1385.11 24.638-72.701 6.636-146.4 14.273-219.067 22.696-365.85 42.948-672.757 99.403-1028.13 164.774-26.331 4.842-52.854 9.721-79.607 14.633l-25.727 4.718c-44.341 8.135-90.195 16.545-136.316 24.935-130.742 23.791-259.713 46.299-399.977 60.198-164.555 16.308-314.39 17.346-458.065 3.172-140.142-13.822-282.992-43.979-424.586-89.631-110.26-35.548-220.842-80.535-338.068-137.526-53.08-25.764-103.591-51.799-152.439-76.975-131.559-67.812-255.821-131.86-413.989-183.313-92.676-30.171-195.527-54.257-305.7-71.59-259.37-41.003-538.629-40.943-786.338.171-328.037 54.578-611.674 183.293-758.75 344.295-197.641 215.704-186.994 483.26 27.79 698.261l-5.809 1.42c-107.09-107.2-165.864-229.244-169.966-352.939-4.049-122.085 45.055-242.542 142.002-348.348 73.508-80.469 182.828-154.734 316.139-214.769 131.138-59.056 285.449-104.419 446.245-131.172 248.952-41.32 529.601-41.38 790.256-.175 110.76 17.425 214.182 41.647 307.389 71.99 158.843 51.673 283.38 115.864 415.234 183.825 48.806 25.159 99.279 51.174 152.287 76.9 262.796 127.765 511.117 201.764 759.156 226.229 328.848 32.44 632.767-22.864 854.678-63.247 46.115-8.387 91.963-16.798 136.305-24.931l25.723-4.72c26.751-4.909 53.275-9.788 79.603-14.631 340.764-62.683 662.627-121.89 1028.85-164.881 72.771-8.435 146.566-16.082 219.346-22.727 212.411-19.813 434.071-32.286 658.814-37.075 246.335-5.248 491.324-1.073 728.157 12.408 101.251 5.766 209.294 13.497 340.025 24.33 353.626 29.2 663.89 66.033 963.937 101.654 74.021 8.787 150.562 17.872 225.255 26.535 176.243 20.159 385.487 42.185 601.079 52.699 560.876 28.046 1215.69-26.808 1858.33-148.745 399.416-75.788 794.05-177.457 1158.78-301.289l3.836 2.885c-357.259 121.296-752.869 223.798-1159.64 300.983"/>
    <path d="M8484.61 855.303c-69.927 13.269-139.74 25.828-209.459 37.672-260.582 44.272-516.876 78.041-761.767 100.37-256.116 23.352-500.539 34.237-726.485 32.353-213.988-1.501-418.081-13.345-589.506-24.731-161.057-10.969-322.25-22.876-492.907-35.48-214.282-15.826-435.862-32.192-680.156-48.402-118.433-7.895-225.467-14.919-336.093-20.926-450.024-24.424-936.619-25.992-1370.14-4.413-71.907 3.429-145.07 7.556-217.469 12.271-376.643 25.101-703.288 62.768-1108.24 115.405-57.281 7.433-114.496 15.025-162.906 21.47l-13.384 1.786c-118.733 15.831-253.312 33.773-394.041 43.441-161.334 11.084-307.201 9.684-445.94-4.28-139.502-14.039-277.885-41.582-423.051-84.2-109.193-32.056-218.965-71.632-345.456-124.546-47.349-19.77-93.069-39.633-137.283-58.843-145.599-63.261-283.126-123.013-452.942-168.652-94.754-25.489-198.082-45.065-307.119-58.184-257.752-31.216-531.638-23.745-771.215 21.04-323.19 60.579-592.764 187.31-739.462 347.707-202.687 220.936-194.777 494.997 20.639 715.236l-5.428 1.293c-107.642-110.053-165.968-235.137-168.673-361.73-2.662-124.716 48.482-247.921 147.903-356.294 72.628-79.412 179.491-153.321 309.031-213.735 125.87-58.702 274.127-105.209 429.007-134.597 1.537-.292 3.064-.58 4.602-.868 123.864-23.154 255.565-36.478 391.456-39.602 128.679-2.956 257.602 3.256 383.187 18.466 109.555 13.181 213.396 32.855 308.63 58.473 170.461 45.814 308.261 105.683 454.15 169.07 44.19 19.199 89.886 39.053 137.183 58.801 191.998 80.315 452.533 176.544 765.659 208.055 309.918 31.194 590.105-6.164 837.309-39.124l13.384-1.785c48.42-6.447 105.646-14.039 162.939-21.475 405.162-52.664 731.994-90.352 1108.93-115.471 72.472-4.721 145.699-8.854 217.661-12.283 208.411-10.375 427.755-15.503 651.934-15.242 242.202.281 484.251 6.894 719.419 19.658 110.696 6.011 217.769 13.038 336.24 20.935 244.335 16.212 465.936 32.58 680.241 48.409 170.64 12.603 331.817 24.507 492.834 35.474 171.234 11.375 375.111 23.205 588.799 24.705 868.686 7.243 1975.32-174.961 2960.25-487.394l3.422 2.73c-399.455 126.713-833.133 235.358-1265.68 317.437"/>
    <path d="M8267.97 874.676c-9.624 1.826-19.214 3.634-28.817 5.434-531.814 99.674-1019.25 157.911-1448.76 173.095-212.798 7.816-411.145 6.055-577.105 3.301-391.581-7.186-759.328-19.77-1157.33-39.604-60.625-3.039-123.345-6.409-184.002-9.67-48.441-2.604-98.532-5.295-148.475-7.873-454.128-23.412-935.399-35.3-1355.16-33.473-80.56.351-151.169.954-215.861 1.841-385.59 5.886-717.185 21.259-1108.76 51.4-50.717 3.894-104.286 8.242-163.768 13.294-18.162 1.543-36.552 3.135-55.168 4.745-236.044 20.423-503.583 43.57-793.537 13.792-296.258-30.422-557.704-113.297-774.379-190.353-37.354-13.258-74.001-26.536-109.442-39.377-163.997-59.421-318.902-115.546-504.581-155.325-96.831-20.769-200.64-35.832-308.545-44.772-259.639-21.717-521.099-7.22-756.084 41.923-313.518 65.719-576.006 193.697-720.156 351.117-207.747 226.182-202.581 506.746 13.482 732.207l-5.041 1.173c-108.197-112.903-166.074-241.027-167.38-370.524-1.285-127.343 51.897-253.296 153.8-364.24 144.699-158.022 408.19-286.488 722.909-352.459 120.181-25.133 248.545-41.331 381.518-48.14 125.618-6.431 252.635-4.396 377.52 6.052 108.354 8.976 212.61 24.106 309.869 44.965 186.293 39.911 341.462 96.132 505.741 155.655 35.431 12.837 72.065 26.111 109.398 39.361 216.168 76.876 476.95 159.55 772.148 189.864 288.929 29.674 555.932 6.572 791.505-13.81 18.62-1.611 37.016-3.202 55.182-4.746 59.511-5.054 113.108-9.406 163.85-13.302 391.802-30.157 723.59-45.539 1109.42-51.428 64.734-.889 135.376-1.491 215.973-1.844 419.954-1.827 901.442 10.065 1355.77 33.49 49.954 2.577 100.051 5.269 148.5 7.872 60.646 3.26 123.356 6.63 183.962 9.67 397.878 19.827 765.515 32.407 1156.97 39.591 165.802 2.751 363.971 4.511 576.52-3.297 812.77-28.73 1871-219.997 2903.36-524.757l3.022 2.567c-469.563 138.618-962.678 258.275-1428.08 346.585"/>
    <path d="M7954.97 916.365c-428.571 81.323-818.176 136.489-1161.12 164.337-166.927 13.789-341.089 23.451-564.707 31.327-331.19 11.077-698.702 19.309-1141.57 4.688-112.678-3.754-228.828-9.276-328.847-14.157l-113.278-5.527c-445.114-21.731-865.543-42.256-1226.86-57.019l-17.717-.724c-68.27-2.79-132.751-5.426-196.539-7.867-389.974-14.335-727.858-21.964-1109.28-12.607-51.998 1.267-107.388 2.989-164.635 5.118-34.108 1.272-68.315 2.708-104.531 4.227-221.744 9.3-473.071 19.842-739.541-8.086-288.166-30.197-543.466-101.516-780.263-171.977-20.837-6.186-41.413-12.329-61.787-18.41-189.314-56.515-368.128-109.894-576.047-143.499-98.888-16.007-203.179-26.554-309.972-31.348-257.528-11.769-513.74 9.952-740.939 62.813-303.758 70.827-559.206 200.046-700.837 354.526-216.046 234.951-213.68 515.016 6.323 749.177l-4.648 1.056c-108.751-115.748-166.184-246.914-166.093-379.315.088-129.969 55.312-258.67 159.698-372.19 71.905-78.429 171.103-149.645 294.836-211.672 120.844-60.58 258.234-109.044 408.359-144.048 227.974-53.041 485.05-74.836 743.444-63.028 107.174 4.812 211.845 15.398 311.103 31.464 208.501 33.7 387.573 87.157 577.161 143.753 20.372 6.08 40.943 12.223 61.777 18.407 236.404 70.345 491.254 141.542 778.619 171.655 265.738 27.851 516.679 17.326 738.079 8.039 36.227-1.519 70.447-2.955 104.579-4.227 57.288-2.132 112.72-3.855 164.757-5.123 381.674-9.363 719.73-1.729 1109.9 12.61 63.808 2.444 128.298 5.079 196.57 7.869l17.721.725c361.353 14.764 781.799 35.29 1226.93 57.021l113.278 5.53c99.985 4.878 216.084 10.397 328.692 14.149 442.57 14.612 809.888 6.381 1140.89-4.688 223.45-7.869 397.475-17.523 564.25-31.301 342.201-27.788 728.849-82.587 1157.14-163.854 506.2-96.05 1070.62-229.068 1689.29-398.274l2.639 2.396c-517.722 141.6-1001.76 258.999-1438.66 348.933-84.067 17.306-166.851 33.691-248.172 49.121"/>
    <path d="M7490.77 995.667c-253.057 48.017-482.763 85.254-693.508 112.524-165.684 21.67-341.19 40.529-552.314 59.349-313.251 27.377-684.409 55.998-1125.78 48.991-95.563-1.544-198.898-4.966-325.209-10.768-492.203-22.598-966.682-60.839-1325.06-91.629-68.533-6.029-138.09-12.252-212.652-19.028-21.072-1.884-42.01-3.762-62.826-5.627-364.777-32.7-679.81-60.94-1046.97-70.988-52.958-1.457-108.64-2.485-165.503-3.054-53.464-.532-107.77-.541-165.268-.55-203.745-.033-434.673-.072-674.209-25.693-279.119-29.852-530.302-91.167-751.914-145.263-11.52-2.811-22.941-5.599-34.261-8.357-216.979-52.735-421.927-102.545-661.653-129.117-100.892-11.204-205.661-17.233-311.396-17.918-255.097-1.844-506.063 27.104-725.778 83.715-298.274 77.007-540.305 204.123-681.506 357.933-221.21 240.308-221.523 526.717-.836 766.145l-4.252.946c-109.306-118.59-166.298-252.797-164.808-388.111 1.461-132.587 58.721-264.038 165.597-380.139 71.037-77.382 167.849-148.254 287.744-210.644 116.835-60.797 249.984-110.704 395.75-148.338 220.354-56.777 472.044-85.808 727.869-83.957 106.045.686 211.135 6.733 312.342 17.972 240.278 26.632 445.477 76.504 662.724 129.305 11.325 2.759 22.747 5.547 34.265 8.358 221.363 54.036 472.261 115.281 750.8 145.07 239.053 25.569 469.723 25.607 673.24 25.641 57.517.01 111.848.019 165.355.55 56.917.57 112.656 1.599 165.664 3.058 367.445 10.055 682.611 38.307 1047.54 71.02 20.814 1.867 41.751 3.743 62.828 5.627 74.562 6.777 144.109 13 212.621 19.027 358.285 30.781 832.648 69.014 1324.69 91.603 126.214 5.797 229.468 9.217 324.936 10.76 440.937 7.002 811.825-21.599 1124.85-48.957 211.003-18.809 386.395-37.656 551.973-59.313 845.851-109.448 1808.88-352.263 2740.19-587.085l49.247-12.416 2.276 2.217-49.247 12.417c-457.816 115.432-931.219 234.796-1396.28 339.072-233.339 52.32-449.721 97.406-651.275 135.652"/>
    <path d="M6912.74 1114.93c-37.566 7.128-74.904 14.04-112.111 20.742-165.984 30.116-342.596 58.695-539.929 87.367-326.058 46.836-680.336 92.62-1109.94 93.299-97.879.128-203.064-2.286-321.563-7.381-394.157-16.938-834.889-57.552-1309.95-120.715-68.667-9.259-137.693-18.898-211.028-29.466-70.082-10.005-139.407-20.146-206.45-29.952-300.88-44.01-585.071-85.579-903.874-110.673-53.593-4.227-109.574-8.005-166.38-11.227-78.242-4.435-158.77-7.597-244.025-10.945-188.766-7.414-383.957-15.079-590.891-37.671-240.561-26.261-468.466-71.385-669.545-111.196-42.521-8.42-82.681-16.372-122.573-24.083-254.195-49.027-457.533-82.242-685.482-96.325-102.812-6.369-208.056-7.876-312.814-4.478-252.272 8.009-497.991 44.188-710.6 104.626-288.266 82.09-523.426 210.416-662.157 361.339-226.386 245.679-229.377 538.431-7.997 783.11l-3.852.839c-55.675-61.535-97.838-127.067-125.323-194.772-26.773-65.961-39.625-133.967-38.2-202.132 2.825-135.204 62.124-269.405 171.493-388.092 139.081-151.305 374.825-279.952 663.809-362.246 213.122-60.585 459.436-96.851 712.309-104.879 105.011-3.408 210.517-1.898 313.585 4.489 228.385 14.109 432.002 47.366 686.509 96.453 39.907 7.715 80.077 15.669 122.606 24.089 200.923 39.782 428.653 84.871 668.871 111.093 206.65 22.563 401.696 30.222 590.32 37.63 85.292 3.349 165.855 6.514 244.169 10.952 56.867 3.225 112.906 7.008 166.561 11.239 319.072 25.116 603.392 66.702 904.408 110.732 67.038 9.807 136.357 19.946 206.431 29.951 73.316 10.564 142.317 20.2 210.955 29.456 474.815 63.129 915.302 103.723 1309.22 120.648 118.377 5.091 223.438 7.503 321.193 7.374 429.085-.678 783.056-46.423 1108.84-93.22 197.242-28.659 373.773-57.224 539.679-87.328 545.061-98.16 1128.7-243.484 1746.61-397.33 323.452-80.533 657.916-163.808 985.794-239.544l1.932 2.03c-327.827 75.723-662.265 158.992-985.69 239.519-575.845 143.374-1121.98 279.348-1634.91 376.678"/>
    <path d="M6105.81 1312.14c-275.088 52.198-574.432 97.255-923.475 104.016-99.242 1.898-203.225.593-317.898-3.992-397.607-15.884-833.24-66.286-1294.79-149.804-67.917-12.402-136.411-25.455-209.398-39.904-93.018-18.305-184.614-37.088-273.194-55.251-278.412-57.089-541.384-111.013-837.659-149.389-54.084-7.013-110.36-13.54-167.265-19.4-112.394-11.568-229.742-20.279-353.976-29.501-153.427-11.388-312.081-23.166-476.427-41.481-193.429-21.555-376.954-50.821-554.437-79.124-84.971-13.55-165.228-26.348-243.659-37.832-283.963-41.468-496.094-60.465-709.322-63.526-104.583-1.516-210.302 1.502-314.22 8.969-248.993 17.743-489.454 61.154-695.404 125.545-278.192 87.104-506.474 216.639-642.793 364.742-231.578 251.061-237.245 550.155-15.162 800.073l-3.446.734c-55.993-63.012-98.198-130.051-125.447-199.256-26.529-67.38-38.907-136.837-36.793-206.442 4.184-137.818 65.526-274.768 177.391-396.044 69.335-75.331 161.382-145.512 273.579-208.596 108.912-61.235 233.587-114.029 370.56-156.918 206.361-64.519 447.3-108.016 696.772-125.792 104.12-7.484 210.048-10.508 314.841-8.986 213.563 3.063 425.98 22.085 710.273 63.601 78.475 11.491 158.755 24.292 243.748 37.846 177.404 28.288 360.844 57.541 554.107 79.077 164.213 18.301 322.793 30.073 476.156 41.457 124.289 9.226 241.684 17.94 354.184 29.521 56.968 5.864 113.308 12.399 167.455 19.42 296.53 38.41 559.619 92.357 838.16 149.473 88.566 18.16 180.148 36.939 273.143 55.241 72.96 14.443 141.422 27.489 209.3 39.885 461.224 83.459 896.522 133.824 1293.79 149.695 114.527 4.578 218.367 5.882 317.461 3.987 421.876-8.172 771.217-72.395 1092.87-137.481 184.13-37.533 356.641-75.263 527.385-115.347 342.347-79.949 697.578-175.294 1073.66-276.238 518.324-139.121 1054.3-282.979 1601.65-398.005l1.611 1.835c-547.195 114.994-1083.09 258.831-1601.35 397.933-376.132 100.956-731.402 196.313-1073.83 276.282-170.796 40.096-343.36 77.839-527.552 115.384-55.943 11.319-112.742 22.615-170.597 33.593"/>
    <path d="M5806.77 1447.44c-182.334 34.6-377.831 60.463-592.881 68.528-99.667 3.717-202.448 3.52-314.224-.602-211.248-7.784-436.042-29.042-668.139-63.185-199.321-29.321-405.043-68.251-611.444-115.708-67.037-15.503-134.993-31.97-207.762-50.342-104.895-26.381-208.199-53.73-308.096-80.176-266.654-70.595-518.519-137.274-803.284-188.482-54.501-9.806-111.077-19.082-168.157-27.571-164.765-24.5-339.757-42.414-525.023-61.379-97.738-10.006-198.804-20.352-300.911-31.969-126.817-14.427-251.991-30.689-373.042-46.416-150.854-19.597-293.343-38.109-431.073-52.226C228.085 769.84-4.883 760.077-230.44 767.186c-106.163 3.334-212.352 10.878-315.618 22.422-248.668 27.676-477.512 76.955-680.18 146.468-271.918 93.373-487.493 220.673-623.413 368.141-236.782 256.46-245.128 561.893-22.33 817.035l-3.037.635c-56.312-64.486-98.561-133.034-125.574-203.741-26.286-68.8-38.192-139.707-35.389-210.752 5.544-140.428 68.923-280.128 183.291-403.999 68.507-74.328 158.174-144.166 266.508-207.573 105.007-61.462 225.449-115.701 357.979-161.209 102.86-35.28 214.553-65.821 331.97-90.773 111.802-23.76 229.32-42.576 349.285-55.928 103.423-11.563 209.778-19.119 316.104-22.457 225.85-7.117 459.095 2.654 734.034 30.756 137.819 14.127 280.346 32.643 431.246 52.247 121.028 15.723 246.176 31.981 372.942 46.403 102.07 11.613 203.12 21.958 300.838 31.96 185.341 18.974 360.404 36.896 525.31 61.415 57.142 8.499 113.778 17.786 168.339 27.604 284.997 51.247 536.971 117.955 803.738 188.58 99.885 26.443 203.169 53.787 308.033 80.161 72.734 18.361 140.656 34.82 207.651 50.315 452.399 104.015 882.521 164.153 1278.42 178.74 111.615 4.116 214.239 4.314 313.744.601 416.963-15.634 760.652-98.354 1076.94-181.742 167.874-44.472 336.359-91.366 515.078-143.367 194.486-56.385 390.269-115.947 597.55-179.007 315.135-95.87 640.996-195.006 977.845-287.221 380.609-104.193 721.266-184.378 1041.32-245.107.489-.093.952-.18 1.441-.273l1.315 1.632c-.483.092-1.02.194-1.501.285-715.572 135.778-1377.95 337.294-2018.59 532.193-207.297 63.065-403.095 122.63-597.607 179.023-178.752 52.01-347.272 98.914-515.184 143.396-153.538 40.478-313.574 80.81-485.28 113.391"/>
    <path d="M5665.04 1564.02c-131.533 24.959-270.628 43.413-419.614 51.753-98.197 5.484-202.675 6.422-310.529 2.791-208.736-7.026-430.663-30.726-659.614-70.443-197.803-34.313-401.26-80.587-604.715-137.534-66.18-18.591-133.598-38.471-206.117-60.779-111.098-34.098-220.734-69.721-326.763-104.169-260.305-84.575-506.176-164.46-785.151-228.511-54.86-12.599-111.738-24.626-169.051-35.747-260.545-50.545-545.722-83.673-821.506-115.71l-21.551-2.504c-276.278-32.103-537.232-62.425-788.63-77.838-271.981-16.621-519.609-15.941-757.031 2.08-107.524 8.153-214.179 20.225-317.004 35.88-244.169 37.089-467.89 93.407-664.94 167.397-261.508 98.272-470.374 226.749-604.015 371.537-241.994 261.868-253.019 573.642-29.497 833.996l-2.627.538c-56.631-65.961-98.922-136.018-125.702-208.226-26.041-70.22-37.474-142.578-33.978-215.063 6.893-143.033 72.314-285.486 189.185-411.955 133.83-144.995 342.985-273.649 604.85-372.056 197.298-74.083 421.295-130.472 665.759-167.605 102.95-15.672 209.733-27.759 317.384-35.922 237.673-18.04 485.547-18.723 757.782-2.086 251.55 15.424 512.58 45.754 788.933 77.865l21.549 2.503c275.887 32.049 561.165 65.19 821.907 115.773 57.369 11.132 114.302 23.171 169.218 35.782 279.178 64.097 525.139 144.012 785.544 228.619 106.011 34.444 215.63 70.059 326.696 104.149 72.486 22.297 139.87 42.167 206.01 60.747 439.094 122.904 875.863 194.756 1263.09 207.79 107.693 3.628 212.002 2.689 310.037-2.785 413.352-23.141 750.818-124.34 1061.05-226.01 149.018-48.978 308.775-103.438 502.765-171.387 88.727-31.009 180.17-63.316 268.604-94.56 349.341-123.423 710.575-251.048 1090.81-365.951 430.504-130.095 823.516-224.442 1201.53-288.451l1.041 1.423c-844.733 143.025-1580.31 402.908-2291.66 654.23-88.438 31.246-179.882 63.553-268.612 94.563-194.012 67.957-353.789 122.423-502.83 171.408-198.743 65.135-408.688 130.081-642.602 174.468"/>
    <path d="M5579.04 1675.6c-101.31 19.224-201.438 32.447-302.083 39.978-97.865 7.315-201.095 9.394-306.83 6.182-206.067-6.261-425.118-32.402-651.062-77.699-195.962-39.286-397.15-92.902-597.966-159.358-65.216-21.617-132.098-44.91-204.466-71.211-114.013-41.394-226.874-84.889-336.021-126.95-245.762-94.709-499.889-192.643-776.421-269.755-55.184-15.391-112.363-30.17-169.949-43.922-230.327-55.011-497.611-100.178-817.126-138.081-305.528-36.241-572.537-56.537-816.289-62.045-275.767-6.205-531.199 5.207-780.891 34.891-108.662 12.913-215.778 29.518-318.381 49.34-239.017 46.139-457.601 109.501-649.677 188.328-250.971 103.039-453.125 232.687-584.605 374.927-247.218 267.288-260.922 585.403-36.663 850.957l-2.216.443c-224.54-265.889-210.828-584.393 36.68-851.996 66.919-72.396 151.832-141.551 252.381-205.541 97.357-61.961 209.344-119.086 332.848-169.793 192.262-78.9 411.049-142.323 650.286-188.505 102.693-19.846 209.91-36.46 318.67-49.384 249.902-29.709 505.542-41.132 781.528-34.922 243.903 5.513 511.057 25.817 816.734 62.078 319.686 37.923 587.134 83.118 817.625 138.167 57.633 13.766 114.862 28.556 170.094 43.959 276.7 77.16 530.908 175.125 776.744 269.862 109.13 42.056 221.978 85.544 335.962 126.927 72.337 26.291 139.187 49.574 204.371 71.18 301.967 99.93 763.574 222.137 1247.81 236.849 105.573 3.208 208.642 1.131 306.346-6.171 410.523-30.72 741.436-150.368 1045.18-270.287 164.173-64.904 325.668-131.361 490.439-199.409l54.159-22.351c366.58-151.305 745.643-307.761 1148.83-443.293 217.702-73.184 422.367-133.665 625.68-184.899 229.19-57.754 449.986-102.163 675.017-135.761l.8 1.209c-89.261 13.327-177.115 28.283-263.431 44.661-820.226 155.636-1513.07 441.615-2185.32 719.085l-54.161 22.35c-164.779 68.053-326.284 134.512-490.475 199.422-148.379 58.58-309.858 119.619-485.217 169.173-87.807 24.812-173.791 45.208-258.94 61.365"/>
    <path d="M5524.92 1784.7c-72.238 13.709-144.163 23.89-216.458 30.687-575.33 54.103-1153.27-109.652-1536.8-256.552-187.543-71.835-367.796-152.238-542.115-229.994-244.547-109.083-497.42-221.88-773.667-312.385C1576.833 728.466 426.53 679.088-474.7 890.66c-540.202 126.819-966.221 335.49-1199.57 587.575-252.456 272.717-268.841 597.172-43.837 867.912l-1.795.354c-57.27-68.91-99.649-141.986-125.959-217.196-25.56-73.058-36.047-148.316-31.17-223.685 9.589-148.238 79.088-296.193 200.98-427.869 118.83-128.368 286.645-245.306 498.786-347.562 203.248-97.969 439.323-178.871 701.669-240.46 444.749-104.411 954.661-147.807 1474.58-125.488 519.921 22.319 1024.04 109.239 1457.87 251.367 276.381 90.546 529.315 203.371 773.922 312.479 174.286 77.743 354.508 158.133 541.989 229.943 383.197 146.775 960.606 310.393 1535.24 256.357 408.193-38.388 745.36-182.503 1029.34-314.574 135.03-62.799 271.719-128.395 403.911-191.832 372.04-178.539 756.75-363.156 1167.7-516.576 221.463-82.677 431.798-149.592 643.022-204.566 237.443-61.8 469.638-106.968 709.859-138.088l.583.987c-999.637 129.502-1772.43 500.36-2519.78 859.008-132.197 63.439-268.894 129.039-403.932 191.841-144.625 67.26-302.394 137.478-476.049 195.35-114.791 38.253-226.616 67.678-337.733 88.763"/>
    <path d="m-2742.65 1315.43-1.876-.361 448.75-728.109c31.528-51.158 71.835-110.009 131.736-158.638 66.445-53.942 145.456-86.271 241.549-98.834 152.761-19.974 285.961 18.88 370.801 54.99 104.829 44.621 196.722 110.914 252.117 181.884 33.568 43.008 60.558 88.513 86.659 132.519 55.508 93.582 112.903 190.351 236.448 266.859 252.503 156.369 707.182 174.327 1025.82 111.241 346.606-68.62 608.094-216.645 825.984-350.003 22.68-13.883 45.705-28.086 67.971-41.821 207.047-127.725 421.144-259.8 700.938-345.864 57.647-17.73 127.126-36.431 205.387-40.687 95.93-5.212 196.607 11.922 291.142 49.565 80.637 32.107 156.16 78.957 212.661 131.92 36.337 34.064 67.894 70.289 98.414 105.321 57.486 65.991 116.931 134.229 210.291 189.902 254.325 151.66 683.541 166.212 973.826 132.594 248.815-28.818 477.989-89.688 699.619-148.553 77.537-20.594 157.712-41.888 237.551-61.496 179.201-44.01 338.658-73.214 487.472-89.279 186.398-20.122 354.587-19.929 514.182.587 144.27 18.547 287.763 54.793 438.679 110.813 134.651 49.982 263.108 110.916 387.332 169.843 127.789 60.617 259.928 123.298 400.271 174.914 322.259 118.521 709.596 179.784 1091.2 182.152 340.857 2.117 677.123-42.717 958.712-135.672l1.125.865c-146.147 48.245-309.716 84.269-486.163 107.071-171.945 22.221-351.909 31.388-534.927 27.234-183.01-4.148-363.816-21.492-537.406-51.548-178.138-30.842-344.21-74.34-493.609-129.286-140.45-51.656-272.638-114.36-400.475-175-247.85-117.569-504.143-239.142-825.098-280.4-286.38-36.816-604.258-8.653-1000.37 88.631-79.812 19.6-159.978 40.892-237.5 61.483-221.733 58.891-451.013 119.788-700.06 148.633-174.211 20.177-360.821 20.503-525.453.923-184.579-21.955-340.314-68.246-450.359-133.869-93.565-55.796-153.073-124.108-210.624-190.17-30.501-35.013-62.041-71.219-98.337-105.244-96.845-90.783-286.375-192.64-501.777-180.922-77.899 4.236-147.157 22.88-204.631 40.558-279.531 85.983-493.529 217.996-700.48 345.662-22.266 13.736-45.291 27.94-67.975 41.822-218.033 133.448-479.709 281.575-826.718 350.275-172.154 34.081-367.233 43.414-549.312 26.277-197.632-18.602-363.19-66.269-478.776-137.848-123.82-76.678-181.277-173.553-236.846-267.239-26.088-43.985-53.065-89.466-86.6-132.431-55.266-70.806-146.932-136.94-251.494-181.446-84.469-35.954-217.063-74.642-369.024-54.774-204.271 26.709-299.506 139.229-371.995 256.846l-448.749 728.11Z"/>
    <path d="m-2707.99 1246.51-2.394-.445c165.216-280.756 307.495-505.54 447.761-707.411 31.396-45.184 75.927-103.117 142.183-150.434 69.903-49.921 151.066-79.309 248.127-89.847 153.327-16.684 287.053 23.067 372.243 59.352 105.159 44.791 198.835 110.996 257.005 181.641 36.195 43.939 65.685 90.474 94.205 135.475 58.53 92.359 119.054 187.866 240.34 264.626 256.909 161.816 698.318 179.581 999.715 127.606 342.543-59.067 604.16-195.318 822.489-318.39 32.71-18.337 65.95-37.257 98.095-55.558 203.945-116.107 414.835-236.167 682.111-318.11 47.296-14.501 84.706-24.018 121.296-30.859 28.758-5.375 55.91-8.844 83.007-10.606 49.643-3.228 100.465-.79 151.046 7.248 46.337 7.363 92.696 19.443 137.786 35.907 79.57 29.052 155.262 72.154 213.14 121.367 36.969 31.441 69.355 64.896 100.676 97.25 58.887 60.83 119.779 123.731 212.91 174.654 107.733 58.996 258.17 99.97 435.05 118.489 164.511 17.162 351.569 14.504 526.702-7.482 238.075-29.894 459.59-87.896 673.815-143.987 85.086-22.281 173.068-45.317 260.824-66.259 87.593-20.895 168.516-37.849 247.399-51.832 281.96-49.982 528.582-59.866 753.973-30.214 144.399 18.987 288.437 55.416 440.346 111.367 135.514 49.912 265.049 110.562 390.316 169.214 116.087 54.352 236.126 110.555 361.566 158.613 11.83 4.531 23.701 8.988 35.288 13.245 610.162 224.257 1450.97 249.372 2044.68 61.068l1.396 1.115c-146.997 46.622-310.927 80.941-487.234 102.006-171.49 20.489-350.933 28.027-533.335 22.406-181.858-5.605-361.829-24.138-534.907-55.083-176.992-31.646-342.514-75.542-491.964-130.473-11.602-4.262-23.491-8.724-35.331-13.26-125.549-48.099-245.639-104.326-361.774-158.703-249.948-117.026-508.403-238.037-829.525-280.262-224.904-29.589-471.068-19.713-752.565 30.19-78.805 13.968-159.659 30.906-247.175 51.783-87.717 20.932-175.682 43.966-260.748 66.24-214.343 56.123-435.984 114.157-674.324 144.084-175.474 22.03-362.914 24.688-527.78 7.492-85.82-8.986-165.643-23.191-237.244-42.218-76.312-20.28-143.337-46.079-199.216-76.68-93.406-51.074-154.39-114.07-213.367-174.991-31.297-32.329-63.659-65.758-100.568-97.148-103.696-88.172-289.346-177.52-499.402-163.862-26.92 1.75-53.901 5.198-82.493 10.544-36.446 6.812-73.734 16.299-120.901 30.761-266.977 81.852-477.751 201.845-681.586 317.889-32.147 18.3-65.387 37.224-98.102 55.562-218.521 123.182-480.391 259.555-823.458 318.713-169.01 29.144-359.085 34.264-535.218 14.413-192.114-21.65-353.706-70.914-467.307-142.465-121.605-76.965-182.209-172.594-240.815-265.074-28.502-44.975-57.974-91.48-94.123-135.365-58.008-70.445-151.403-136.458-256.234-181.108-84.74-36.094-217.738-75.64-370.074-59.064-211.759 22.987-315.274 133.978-388.604 239.516-140.251 201.852-282.518 426.616-447.725 707.354"/>
    <path d="m-2673.33 1177.58-2.918-.52c153.632-274.626 295.601-492.838 446.782-686.724 48.457-62.148 96.979-107.355 152.705-142.273 73.233-45.89 156.528-72.322 254.646-80.809 121.803-10.594 251.01 11.437 373.662 63.712 105.498 44.966 200.954 111.081 261.891 181.394 39.002 44.977 71.096 92.685 102.131 138.821 61.266 91.077 124.62 185.254 243.852 262.007 248.792 160.154 679.11 186.897 973.64 143.97 336.287-49.014 599.074-173.733 818.989-286.785 41.939-21.561 84.689-44.072 126.031-65.842 201.228-105.962 409.309-215.53 665.45-293.8 47.377-14.48 84.655-24.048 120.869-31.03 28.578-5.509 55.511-9.175 82.342-11.21 94.904-7.202 191.296 5.157 286.505 36.734 78.441 26.018 154.31 65.372 213.626 110.811 37.582 28.799 70.784 59.463 102.892 89.118 60.297 55.69 122.651 113.277 215.572 159.47 107.611 53.662 256.291 89.821 429.966 104.573 164.581 13.856 344.304 8.621 519.729-15.142 226.925-30.746 440.186-85.869 646.424-139.177 93.14-24.076 189.452-48.971 285.693-71.273 87.528-20.264 168.643-36.638 247.991-50.055 280.696-47.477 527.036-55.765 753.098-25.339 144.57 19.439 289.204 56.062 442.161 111.963 136.421 49.856 267.081 110.238 393.436 168.629 115.095 53.188 234.11 108.186 357.915 155.51 11.777 4.503 23.631 8.947 35.233 13.207 338.739 124.417 747.853 189.391 1145.69 191.86 319.152 1.981 631.006-36.225 893.78-116.208l1.652 1.368c-147.84 44.998-312.128 77.613-488.311 96.939-171.017 18.761-349.923 24.676-531.738 17.576-180.692-7.053-359.822-26.774-532.408-58.616-175.822-32.438-340.79-76.735-490.32-131.655-11.617-4.268-23.489-8.719-35.284-13.227-123.928-47.37-243-102.396-358.152-155.611-252.136-116.517-512.857-237.001-834.25-280.215-225.478-30.348-471.266-22.069-751.406 25.316-79.248 13.4-160.277 29.754-247.709 49.999-96.188 22.289-192.473 47.178-285.589 71.246-206.367 53.341-419.762 108.501-646.978 139.284-175.819 23.815-355.964 29.064-520.971 15.171-84.436-7.172-163.167-19.329-234.014-36.136-75.347-17.876-141.856-41.052-197.674-68.885-93.273-46.37-155.746-104.068-216.162-159.867-32.075-29.626-65.243-60.258-102.748-88.999-105.96-81.167-292.181-162.363-497.035-146.814-26.624 2.019-53.366 5.66-81.75 11.132-36.05 6.949-73.191 16.485-120.419 30.918-255.826 78.175-463.778 187.676-664.881 293.572-41.346 21.771-84.103 44.285-126.055 65.852-220.163 113.18-483.268 238.043-820.209 287.152-165.986 24.191-351.146 25.131-521.372 2.644-186.782-24.674-344.315-75.572-455.567-147.189-119.589-76.983-183.036-171.3-244.393-262.51-31.014-46.104-63.084-93.776-102.03-138.687-119.789-138.22-375.388-266.454-632.121-244.126-220.454 19.066-332.349 128.76-405.203 222.195-151.144 193.838-293.081 412.004-446.686 686.581"/>
    <path d="M8088.68 1194.61c-52.05-.322-104.456-1.729-157.11-4.22-179.505-8.494-357.789-29.406-529.904-62.152-174.63-33.225-339.042-77.918-488.668-132.837-11.551-4.241-23.406-8.678-35.238-13.19-122.201-46.606-240.141-100.398-354.197-152.416-254.434-116.046-517.532-236.044-839.314-280.274-226.13-31.126-471.537-24.44-750.252 20.445-79.66 12.822-160.865 28.594-248.239 48.215-105.279 23.67-210.452 50.547-312.164 76.54-197.757 50.536-402.245 102.795-617.883 134.192-173.635 25.277-351.42 33.177-514.148 22.854-83.047-5.362-160.69-15.473-230.774-30.052-74.386-15.474-140.374-36.027-196.135-61.085-93.184-41.676-157.17-94.103-219.049-144.803-32.829-26.9-66.776-54.713-104.839-80.782-52.556-35.97-243.555-151.628-494.685-129.785-26.33 2.287-52.83 6.122-81.014 11.722-45.677 9.076-88.092 21.374-119.942 31.076-240.775 73.333-442.416 171.413-637.417 266.266-56.609 27.535-110.075 53.544-164.786 79.139-107.936 50.496-237.666 108.615-381.485 156.812-146.969 49.251-289.416 81.56-435.487 98.772-162.836 19.186-343.023 15.922-507.373-9.193-181.301-27.706-334.816-80.214-443.954-151.847-117.233-76.946-183.38-169.802-247.347-259.599-33.726-47.344-68.6-96.3-110.549-142.349-63.453-69.715-160.308-135.486-265.727-180.449-122.303-52.161-251.026-75.554-372.238-67.638-230.959 14.91-351.336 124.071-421.788 204.881-159.815 183.31-305.584 401.094-445.635 665.797l-3.448-.586c140.101-264.791 285.928-482.659 445.814-666.052 50.191-57.574 103.614-101.454 163.315-134.152 75.355-41.272 163.199-65.403 261.088-71.723 122.237-7.979 251.931 15.562 375.061 68.076 105.848 45.144 203.082 111.169 266.77 181.141 42.019 46.127 76.922 95.125 110.678 142.508 63.865 89.653 129.904 182.359 246.757 259.056 242.682 159.286 650.792 195.297 947.588 160.324 299.55-35.294 542.641-127.538 815.479-255.182 54.687-25.586 108.146-51.59 164.74-79.118 195.133-94.915 396.907-193.063 638.001-266.493 31.958-9.734 74.529-22.078 120.434-31.198 28.397-5.642 55.112-9.506 81.669-11.815 93.683-8.146 189.287 2.05 284.163 30.308 98.999 29.488 171.082 70.788 214.12 100.243 38.159 26.137 72.151 53.987 105.024 80.921 61.727 50.576 125.553 102.874 218.305 144.355 107.494 48.311 254.419 79.664 424.893 90.67 162.252 10.294 339.569 2.411 512.763-22.801 215.34-31.354 419.69-83.576 617.308-134.079 101.748-26.001 206.959-52.889 312.311-76.575 87.492-19.647 168.802-35.439 248.583-48.281 130.076-20.948 255.473-33.719 372.707-37.958 132.624-4.799 260.312 1.089 379.506 17.497 144.79 19.902 290.072 56.734 444.139 112.603 137.391 49.82 269.226 109.95 396.726 168.102 113.991 51.991 231.864 105.75 353.93 152.305 11.811 4.506 23.651 8.935 35.182 13.168 620.777 227.855 1438.29 264.118 2034.26 90.236l1.89 1.623c-148.661 43.374-313.315 74.284-489.383 91.872-120.991 12.085-245.929 17.754-373.033 16.965"/>
    <path d="M8154.75 1177.63c-62.739-.388-126.022-2.356-189.688-5.9-178.29-9.93-355.731-32.03-527.391-65.689-173.408-34-337.26-79.09-487.009-134.018-11.518-4.224-23.36-8.649-35.2-13.153-120.356-45.8-237.029-98.317-349.856-149.105-256.856-115.619-522.461-235.176-844.763-280.451-226.86-31.923-471.89-26.83-749.102 15.577-80.07 12.239-161.445 27.427-248.768 46.43-115.058 25.078-229.746 54.105-340.654 82.178-188.446 47.697-383.307 97.017-586.859 128.756-171.475 26.729-346.904 37.287-507.31 30.536-168.113-7.319-314.076-34.028-422.117-77.24-93.146-36.995-158.674-84.169-222.045-129.792-33.549-24.154-68.242-49.129-106.828-72.509-53.731-32.527-248.031-136.79-492.355-112.773-26.031 2.556-52.291 6.584-80.283 12.312-45.129 9.239-87.554 21.546-119.472 31.235-223.525 67.853-416.308 154.575-602.746 238.443-72.505 32.615-140.993 63.425-210.748 92.953-101.641 43.024-237.165 97.97-384.199 141.331-145.543 42.92-286.048 69.963-429.543 82.678-159.629 14.138-334.835 6.667-493.349-21.044-175.776-30.73-325.276-84.845-432.334-156.495-114.685-76.756-183.293-168.002-249.641-256.247-36.643-48.732-74.529-99.124-119.723-146.446-67.125-70.365-163.183-134.334-270.481-180.126-122.691-52.362-251.786-77.231-373.353-71.927-179.76 7.687-323.149 69.044-438.364 187.581-168.17 173.02-317.746 390.028-444.571 644.997l-3.977-.645c59.487-119.594 124.287-231.563 192.602-332.798 77.723-115.178 162.595-220.35 252.258-312.599 115.855-119.196 260.263-180.906 441.467-188.655 122.677-5.355 252.845 19.693 376.433 72.439 107.777 45.996 204.248 110.235 271.646 180.885 45.279 47.412 83.201 97.85 119.876 146.628 66.236 88.093 134.727 179.185 249.018 255.677 235.464 157.588 632.518 202.281 921.567 176.678 315.387-27.941 576.628-123.974 811.958-223.591 69.711-29.508 138.178-60.308 210.664-92.915 186.564-83.925 379.483-170.707 603.309-238.652 32.037-9.725 74.626-22.08 119.999-31.367 28.223-5.777 54.713-9.839 80.989-12.419 92.442-9.085 187.25-1.055 281.799 23.872 97.354 25.668 170.441 62.928 214.606 89.665 38.707 23.455 73.455 48.471 107.062 72.662 63.179 45.486 128.512 92.52 221.137 129.309 107.377 42.945 252.55 69.494 419.831 76.777 159.905 6.728 334.821-3.802 505.82-30.456 203.252-31.693 397.97-80.977 586.278-128.639 110.96-28.084 225.695-57.125 340.852-82.225 87.456-19.031 168.963-34.242 249.171-46.504 129.739-19.845 255.144-31.642 372.726-35.06 132.094-3.84 259.469 2.712 378.604 19.477 145.069 20.378 291.057 57.438 446.307 113.296 138.419 49.803 271.494 109.705 400.192 167.635 112.762 50.758 229.36 103.243 349.569 148.986 11.82 4.497 23.64 8.914 35.134 13.128 621.676 228.034 1437.09 270.156 2029.06 104.818l2.114 1.885c-149.479 41.75-314.491 70.954-490.458 86.802-110.122 9.918-223.541 14.528-338.861 13.814"/>
    <path d="M8221.9 1160.97c-73.524-.457-148.053-3.085-223.353-7.914-177.053-11.354-353.648-34.644-524.877-69.223-172.148-34.764-335.445-80.252-485.349-135.201-11.462-4.201-23.288-8.614-35.148-13.116-118.383-44.944-233.64-96.143-345.099-145.659-259.419-115.243-527.668-234.408-850.638-280.76-227.663-32.742-472.321-29.238-747.954 10.709-80.505 11.657-162.049 26.26-249.296 44.645-125.598 26.517-250.476 57.886-371.24 88.219-178.369 44.805-362.811 91.136-553.727 122.915-169.335 28.174-342.392 41.394-500.455 38.219-164.453-3.591-308.754-25.49-417.305-63.33-93.036-32.432-160.191-74.335-225.133-114.86-34.252-21.374-69.671-43.476-108.725-64.151-70.441-37.247-259.204-121.147-490.058-95.779-25.732 2.822-51.756 7.043-79.557 12.904-44.54 9.385-86.995 21.706-119.007 31.391-204.123 61.759-385.293 137.305-560.496 210.366-91.098 37.989-177.149 73.871-264.316 107.026-234.314 89.128-494.68 174.125-810.524 192.426-156.348 9.058-326.565-2.625-479.3-32.905-170.208-33.741-315.685-89.461-420.707-161.134-111.92-76.379-182.705-165.851-251.162-252.377-39.793-50.293-80.938-102.298-129.658-151.053-131.439-131.689-383.375-261.924-649.734-256.023-183.883 3.879-336.941 61.173-454.928 170.292-178.729 165.297-327.943 375.302-443.491 624.181l-4.516-.693c115.642-249.08 264.999-459.279 443.924-624.756 54.293-50.212 116.487-89.916 184.853-118.008 81.099-33.324 173.18-51.297 273.687-53.417 123.094-2.723 253.749 23.831 377.786 76.8 108.159 46.189 206.361 110.337 276.514 180.624 48.821 48.855 90.01 100.915 129.842 151.26 68.335 86.371 138.999 175.684 250.521 251.794 244.161 166.629 635.045 208.125 895.582 193.028 314.814-18.242 574.59-103.063 808.422-192.005 87.09-33.127 173.103-68.995 264.166-106.967 175.325-73.11 356.619-148.711 561.019-210.551 32.134-9.723 74.764-22.095 119.556-31.534 28.044-5.912 54.312-10.171 80.303-13.022 91.18-10.016 185.184-4.151 279.409 17.429 95.568 21.888 169.717 55.084 215.09 79.076 39.2 20.753 74.685 42.897 109.003 64.311 64.716 40.382 131.632 82.139 224.062 114.359 107.797 37.576 251.228 59.327 414.785 62.897 157.533 3.165 330.05-10.018 498.892-38.11 190.623-31.73 374.924-78.025 553.16-122.796 120.827-30.351 245.765-61.734 371.493-88.279 87.403-18.419 169.103-33.049 249.768-44.73 129.383-18.751 254.791-29.571 372.743-32.161 131.538-2.89 258.605 4.33 377.695 21.458 145.409 20.868 292.175 58.174 448.686 114.049 139.514 49.808 273.9 109.507 403.861 167.24 111.39 49.483 226.571 100.651 344.798 145.535 11.836 4.494 23.64 8.899 35.08 13.092 622.886 228.319 1436.21 276.301 2023.87 119.396l2.322 2.149c-236.188 63.064-507.672 94.504-795.137 92.724"/>
    <path d="M8288.12 1144.58c-84.123-.522-169.644-3.905-256.085-10.186-175.789-12.77-351.539-37.249-522.36-72.758-170.858-35.517-333.591-81.401-483.681-136.38-11.572-4.239-23.383-8.64-35.104-13.078-116.258-44.037-229.933-93.874-339.87-142.07-262.132-114.92-533.187-233.752-856.983-281.217-225.38-33.111-476.648-31.145-746.817 5.841-79.783 10.913-163.833 25.335-249.82 42.864-136.998 27.99-272.821 61.926-404.169 94.748-167.445 41.837-340.586 85.101-518.235 116.579-167.235 29.617-337.915 45.491-493.586 45.902-161.202.113-303.826-16.989-412.465-49.406-93.162-27.797-161.978-64.488-228.53-99.97-34.848-18.582-70.883-37.796-110.311-55.743-89.555-40.699-272.006-105.057-487.803-78.809-25.445 3.093-51.234 7.506-78.839 13.496-43.908 9.524-86.415 21.866-118.545 31.556-182.675 55.082-349.316 119.741-510.47 182.271-112.474 43.642-218.71 84.863-325.687 121.124-147.823 50.108-271.621 85.179-389.596 110.373-142.24 30.376-278.881 46.881-417.726 50.46-19.9.514-39.913.706-59.964.582-136.311-.844-275.226-16.334-405.254-45.36-164.59-36.739-306.044-94.059-409.07-165.761-108.897-75.788-181.532-163.281-251.775-247.894-43.22-52.062-87.912-105.895-140.497-156.268-134.109-128.64-386.585-258.349-650.034-259.985-1.878-.012-3.747-.016-5.626-.016-190.817-.083-349.445 51.399-471.488 153.015-235.737 196.282-370.692 436.442-442.393 603.35l-5.055-.731c71.784-167.098 206.91-407.55 443.007-604.13 56.788-47.285 122.668-84.285 195.807-109.972 83.655-29.381 177.796-44.256 279.808-44.211 123.502-.102 254.651 27.973 379.116 81.159 108.564 46.392 208.493 110.444 281.379 180.359 52.702 50.486 97.444 104.379 140.712 156.499 70.117 84.459 142.622 171.796 251.126 247.31 236.793 164.8 604.503 216.215 869.636 209.379 316.247-8.154 584.336-85.672 804.874-160.427 106.849-36.218 213.028-77.416 325.441-121.035 161.261-62.572 328.014-127.274 510.929-182.428 32.254-9.727 74.941-22.12 119.105-31.7 27.86-6.044 53.899-10.501 79.613-13.625 89.891-10.936 183.084-7.241 276.99 10.98 93.602 18.163 168.886 47.26 215.559 68.472 39.599 18.025 75.716 37.281 110.641 55.904 69.33 36.965 134.815 71.881 227.296 99.474 107.809 32.169 249.472 49.091 409.762 49.03 155.118-.413 325.245-16.237 491.976-45.767 177.374-31.428 350.385-74.657 517.699-116.463 131.427-32.841 267.332-66.798 404.499-94.823 86.164-17.566 170.398-32.017 250.364-42.954 129.007-17.664 254.422-27.508 372.762-29.262 130.947-1.945 257.713 5.944 376.783 23.437 145.814 21.375 293.434 58.95 451.298 114.87 140.69 49.838 276.461 109.359 407.761 166.922 109.858 48.162 223.456 97.965 339.553 141.941 11.696 4.429 23.485 8.821 35.034 13.051 634.161 232.299 1426.54 284.887 2018.68 133.974l2.506 2.419c-227.618 58.012-487.272 86.792-761.883 85.088"/>
    <path d="M8354.56 1128.49c-94.763-.588-191.343-4.829-289.052-12.766-174.5-14.179-349.396-39.848-519.839-76.297-169.524-36.252-331.695-82.533-482.01-137.556-11.493-4.209-23.288-8.597-35.055-13.044-113.966-43.066-225.875-91.484-334.097-138.306-265.02-114.661-539.064-233.224-863.879-281.844-226.343-33.963-477.226-33.635-745.679.976-80.193 10.327-164.421 24.147-250.343 41.078-149.349 29.501-296.939 66.282-439.666 101.852-155.586 38.774-316.471 78.869-480.164 109.667-166.267 31.266-334.566 49.797-486.701 53.587-157.255 3.913-298.201-8.348-407.595-35.472-93.437-23.169-164.02-54.669-232.279-85.132-35.33-15.77-71.863-32.073-111.536-47.276-112.059-42.853-287.267-88.372-485.601-61.855-25.14 3.357-50.695 7.965-78.125 14.088-42.988 9.594-83.82 21.417-118.09 31.717-159.341 47.886-308.481 102.016-452.71 154.364-136.622 49.588-265.669 96.425-394.823 135.042-146.922 43.93-271.574 74.084-392.285 94.896-138.942 23.958-272.368 35.203-407.728 34.365-1.376-.008-2.741-.018-4.119-.031-151.662-1.213-307.65-20.807-451.104-56.658-76.88-19.216-148.848-42.862-213.904-70.286-69.447-29.275-131.192-62.952-183.522-100.094-105.57-74.931-179.654-160.207-251.3-242.675-46.981-54.077-95.562-109.995-152.414-162.213-128.451-118.141-378.798-258.165-661.615-263.981-195.218-4.269-363.988 42.676-488.041 135.749-194.122 145.642-350.837 352.512-441.273 582.501l-5.6-.756c42.97-109.274 100.675-213.42 171.515-309.544 77.612-105.317 168.654-197.495 270.594-273.978 59.394-44.562 129.005-78.86 206.9-101.945 85.968-25.477 182.107-37.251 285.799-34.982 123.992 2.55 255.542 32.121 380.419 85.518 108.986 46.6 210.639 110.556 286.239 180.087 56.989 52.342 105.627 108.327 152.663 162.468 71.516 82.32 145.468 167.442 250.66 242.106 230.051 163.286 586.686 223.666 843.729 225.727 1.421.012 2.865.021 4.284.031 251.241 1.56 489.9-37.059 797.03-128.888 128.953-38.557 257.908-85.361 394.434-134.914 144.318-52.381 293.551-106.544 453.087-154.489 34.405-10.34 75.41-22.213 118.653-31.864 27.687-6.18 53.5-10.834 78.914-14.227 88.576-11.842 180.948-10.32 274.543 4.526 73.382 11.641 146.056 31.107 216.004 57.855 39.862 15.273 76.484 31.618 111.9 47.425 71.078 31.723 138.216 61.685 230.91 84.671 108.51 26.903 248.479 39.065 404.772 35.171 151.589-3.777 319.326-22.251 485.085-53.421 163.444-30.75 324.203-70.814 479.669-109.558 142.829-35.597 290.521-72.404 440.081-101.946 86.128-16.97 170.563-30.824 250.966-41.178 128.618-16.582 254.039-25.453 372.779-26.363 130.349-.996 256.803 7.555 375.868 25.421 146.301 21.901 294.867 59.766 454.18 115.764 141.96 49.897 279.2 109.274 411.922 166.696 108.148 46.789 219.977 95.171 333.776 138.176 11.741 4.437 23.511 8.816 34.98 13.015 636.046 232.83 1426.4 291.142 2013.52 148.548l2.674 2.693c-218.818 53.142-466.642 79.384-728.398 77.759"/>
    <path d="M8422.34 1112.79c-105.954-.658-214.108-5.91-323.372-15.736-173.179-15.573-347.23-42.431-517.318-79.832-168.142-36.974-329.748-83.65-480.331-138.735-11.435-4.183-23.215-8.56-35.007-13.005-111.472-42.027-221.392-88.96-327.693-134.346-268.115-114.475-545.356-232.847-871.41-282.673-227.381-34.836-477.886-36.143-744.547-3.888-80.572 9.734-164.975 22.955-250.863 39.295-162.791 31.056-323.069 71.015-478.068 109.66-142.684 35.575-290.227 72.361-439.173 102.047-164.452 32.765-330.361 53.951-479.792 61.271-153.864 7.536-293.104.092-402.688-21.53-93.939-18.535-163.223-43.693-236.573-70.328-35.638-12.94-72.487-26.321-112.21-38.765-167.165-52.239-329.828-67.352-483.462-44.917-24.849 3.624-50.176 8.426-77.42 14.681-42.249 9.697-83.174 21.557-117.641 31.881-134.326 40.233-263.02 84.225-387.479 126.769-163.442 55.871-317.82 108.644-471.46 148.651-143.972 37.49-273.168 63.47-394.968 79.423-138.325 18.12-271.123 24.072-405.988 18.195-147.994-6.449-299.089-30.152-436.953-68.551-74.238-20.677-143.856-45.444-206.922-73.615-67.277-30.052-127.453-64.159-178.853-101.369-101.881-73.756-176.933-156.52-249.515-236.562-51.141-56.395-104.022-114.711-165.631-169.043-131.635-116.253-385.459-256.188-667.595-267.972-202.551-8.736-377.034 32.239-504.599 118.497-201.306 136.121-361.727 340.829-440.133 561.636l-6.145-.767c37.052-104.353 94.147-208.698 165.114-301.755 77.798-102.019 170.698-189.891 276.119-261.176 128.824-87.109 305.105-128.487 509.78-119.658 124.442 5.197 256.437 36.274 381.709 89.872 109.43 46.82 212.807 110.679 291.09 179.814 61.764 54.468 114.714 112.857 165.918 169.325 72.453 79.899 147.373 162.518 248.897 236.015 190.004 137.551 495.75 228.049 817.869 242.087 251.228 10.939 497.266-19.063 797.737-97.303 153.334-39.928 307.576-92.653 470.877-148.475 124.525-42.57 253.292-86.586 387.766-126.862 34.596-10.363 75.694-22.273 118.192-32.027 27.503-6.315 53.086-11.165 78.211-14.829 87.229-12.737 178.762-13.386 272.058-1.93 71.375 8.763 144.188 24.653 216.419 47.223 39.92 12.506 76.864 25.922 112.592 38.895 72.999 26.507 141.95 51.544 235.113 69.926 108.659 21.44 246.908 28.813 399.818 21.324 148.89-7.293 314.251-28.413 478.206-61.078 148.722-29.643 296.158-66.401 438.739-101.95 155.121-38.675 315.527-78.667 478.582-109.774 86.116-16.383 170.755-29.64 251.562-39.402 128.216-15.511 253.643-23.403 372.8-23.459 129.718-.071 255.861 9.157 374.946 27.4 146.886 22.447 296.496 60.635 457.387 116.75 143.33 49.992 282.144 109.259 416.387 166.575 106.225 45.353 216.061 92.252 327.368 134.217 11.766 4.436 23.517 8.802 34.929 12.976 648.099 237.083 1417.66 299.587 2008.35 163.124l2.824 2.968c-152.619 35.258-319.087 57.634-494.772 66.506-65.173 3.292-131.54 4.726-198.782 4.309"/>
    <path d="M8489.67 1097.4c-116.69-.724-236.272-7.078-357.248-19.016-342.887-33.835-686.41-111.043-993.432-223.278-11.485-4.198-23.25-8.56-34.964-12.967-108.755-40.908-216.439-86.281-320.574-130.161-271.44-114.375-552.121-232.643-879.652-283.725-228.528-35.737-478.653-38.682-743.424-8.752-80.955 9.139-165.534 21.759-251.383 37.51-177.465 32.662-351.449 76.208-519.705 118.32-128.627 32.195-261.631 65.485-394.928 93.575-162.743 34.28-326.259 58.122-472.874 68.949-150.437 11.112-287.973 8.49-397.737-7.581-94.776-13.882-166.147-34.108-241.711-55.526-35.669-10.107-72.55-20.562-112.016-30.245-174.137-42.59-331.604-51.745-481.4-27.991-24.534 3.887-49.631 8.882-76.722 15.276-41.393 9.767-82.47 21.68-117.196 32.047-107.827 32.185-213.257 66.414-315.218 99.516-192.751 62.579-374.813 121.687-555.163 161.922-143.11 31.927-273.182 52.847-397.65 63.954-136.172 12.156-267.059 12.821-400.146 2.035C282.37 979.58 136.183 951.764 3.763 910.817c-149.468-46.22-275.338-106.638-374.114-179.576-97.753-72.184-173.188-152.083-246.136-229.351-55.784-59.088-113.469-120.186-180.435-176.967-141.184-119.882-392.281-254.282-673.603-271.969-210.023-13.498-390.234 21.513-521.157 101.258-208.139 126.781-372.239 328.933-438.966 540.755l-6.694-.766c31.814-100.997 86.806-202.632 159.035-293.918 78.101-98.708 172.761-182.294 281.348-248.436 132.366-80.624 314.544-116.025 526.861-102.378 124.896 7.852 257.327 40.434 382.969 94.224 111.496 47.732 213.83 109.814 295.939 179.535 67.144 56.931 124.905 118.109 180.762 177.275 72.825 77.137 148.132 156.901 245.554 228.84 185.041 136.64 481.135 233.255 792.054 258.45 253.34 20.531 498.266.25 794.15-65.76 179.906-40.136 361.769-99.179 554.31-161.688 102.007-33.118 207.491-67.364 315.418-99.578 34.852-10.405 76.096-22.365 117.726-32.191 27.349-6.453 52.7-11.5 77.501-15.426 151.462-24.025 310.542-14.801 486.331 28.195 39.66 9.731 76.635 20.211 112.396 30.346 75.196 21.313 146.219 41.443 240.214 55.206 108.843 15.939 245.402 18.525 394.91 7.481 146.095-10.79 309.088-34.559 471.348-68.736 133.109-28.052 266.024-61.318 394.562-93.49 168.409-42.151 342.55-85.736 520.343-118.458 86.107-15.798 170.946-28.459 252.168-37.627 265.901-30.055 517.171-27.086 746.837 8.828 147.572 23.016 298.352 61.56 460.946 117.834 144.826 50.125 285.324 109.325 421.196 166.578 104.063 43.847 211.665 89.188 320.256 130.034 11.689 4.396 23.424 8.749 34.882 12.937 650.739 237.885 1418.32 305.973 2003.2 177.695l2.957 3.248c-153.379 33.639-320.208 54.307-495.857 61.429-53.673 2.177-108.171 3.092-163.303 2.75"/>
    <path d="M8556.97 1082.35c-127.31-.79-258.333-8.362-391.098-22.636-338.478-36.39-680.542-115.228-989.215-227.989-11.43-4.176-23.178-8.526-34.915-12.93-105.776-39.693-210.931-83.423-312.626-125.711-275.033-114.373-559.426-232.637-888.734-285.043-229.758-36.662-479.502-41.243-742.299-13.614-81.338 8.539-166.09 20.559-251.901 35.728-193.555 34.323-382.381 81.956-564.991 128.022-113.274 28.573-230.4 58.119-347.022 84.055-161.162 35.822-322.279 62.319-465.932 76.626-147.03 14.641-282.838 16.84-392.744 6.363-96.167-9.167-170.049-24.463-248.271-40.658-35.241-7.295-71.679-14.84-110.378-21.783-114.368-20.428-288.503-43.801-479.425-11.064-24.234 4.149-49.1 9.34-76.026 15.869-40.3 9.774-79.932 21.259-116.758 32.215-80.025 23.807-159.599 48.582-236.554 72.545-224.266 69.827-436.096 135.783-645.303 174.91-188.547 35.263-361.693 52.15-529.723 51.11-89.235-.553-177.005-6.162-264.923-16.761-140.12-16.892-281.389-48.824-408.537-92.343-143.484-49.114-265.428-111.071-362.447-184.153-93.08-70.118-168.162-146.7-240.772-220.76-61.032-62.25-124.141-126.62-197.216-186.266-144.315-117.962-398.639-252.407-679.637-275.973-217.581-18.565-403.519 10.495-537.719 84.033-217.877 119.387-381.531 313.725-437.772 519.857l-7.248-.75c26.652-97.685 79.653-196.588 153.272-286.015 77.414-94.041 176.413-175.572 286.288-235.781 68.131-37.333 149.247-63.505 241.098-77.788 91.287-14.195 193.176-16.649 302.834-7.295 65.154 5.464 132.059 17.134 198.845 34.682 62.179 16.338 124.548 37.834 185.372 63.889 112.003 47.978 216.011 109.963 300.779 179.253 73.278 59.811 136.474 124.268 197.588 186.604 72.495 73.941 147.456 150.401 240.239 220.293C-113.652 841.13 165.646 941.3 469.383 977.916c252.015 30.382 503.219 19.505 790.548-34.233 208.581-39.01 420.134-104.88 644.106-174.619 76.984-23.968 156.589-48.754 236.674-72.579 36.952-10.993 76.732-22.521 117.255-32.348 27.175-6.59 52.29-11.832 76.784-16.026 192.981-33.091 368.713-9.516 484.106 11.096 38.877 6.974 75.4 14.536 110.725 21.85 77.855 16.118 151.392 31.343 246.816 40.44 109.014 10.39 243.891 8.191 390.044-6.361 143.172-14.259 303.795-40.677 464.505-76.401 116.47-25.902 233.525-55.428 346.725-83.984 182.799-46.112 371.82-93.794 565.777-128.188 86.095-15.221 171.141-27.283 252.77-35.851 263.998-27.756 514.966-23.143 745.927 13.713 148.389 23.615 300.469 62.553 464.932 119.039 146.455 50.304 288.775 109.487 426.41 166.722 101.619 42.257 206.696 85.954 312.313 125.588 11.709 4.394 23.426 8.733 34.831 12.898 653.763 238.828 1419.37 312.5 1998.06 192.267l3.07 3.53c-154.123 32.021-321.315 50.981-496.938 56.351-42.128 1.288-84.784 1.797-127.848 1.53"/>
    <path d="M8624.12 1067.64c-137.752-.853-280.232-9.765-424.818-26.6-333.855-38.87-674.457-119.336-984.985-232.697-11.542-4.213-23.273-8.551-34.866-12.892-102.488-38.371-204.778-80.353-303.701-120.953-278.943-114.484-567.379-232.866-898.795-286.672-231.093-37.618-480.461-43.831-741.182-18.474-81.701 7.932-166.629 19.352-252.416 33.944-211.289 36.06-416.252 88.404-614.468 139.025-96.444 24.63-196.172 50.098-294.911 73.231-159.801 37.422-318.513 66.571-458.979 84.299-143.623 18.127-277.691 25.152-387.705 20.306-98.491-4.335-175.622-14.655-257.282-25.58-34.024-4.552-69.208-9.259-106.269-13.532-136.03-15.576-299.144-27.062-477.524 5.866-23.931 4.414-48.573 9.801-75.34 16.469-41.074 10.234-81.578 22.082-116.321 32.383-51.035 15.131-102.425 30.646-152.124 45.651-257.674 77.801-501.06 151.285-741.251 187.824-284.574 43.291-536.079 44.145-791.498 2.689-135.842-22.047-272.179-58.094-394.274-104.243-137.39-51.93-255.408-115.422-350.776-188.715-87.721-67.417-161.53-140.108-232.91-210.404-67.032-66.015-136.344-134.277-216.486-197.321-190.831-150.329-447.165-254.996-685.697-279.987-228.34-24.256-414.832-1.774-554.291 66.819-224.153 110.253-391.429 301.436-436.553 498.943l-7.798-.715c21.574-94.431 72.683-190.572 147.803-278.032 77.945-90.745 178.555-167.935 290.963-223.222 71.421-35.128 156.478-58.564 252.81-69.653 92.508-10.65 196.198-10.019 308.184 1.876C-1241.701.646-1112.014 35.272-983.893 90.188c112.545 48.238 218.224 110.124 305.614 178.966 80.371 63.225 149.782 131.584 216.908 197.692 71.275 70.192 144.975 142.775 232.437 209.994 179.282 137.783 449.202 243.926 740.551 291.213 253.846 41.199 503.901 40.336 786.943-2.723 239.328-36.407 482.341-109.779 739.622-187.46 49.709-15.009 101.111-30.53 152.171-45.666 34.851-10.335 75.493-22.22 116.782-32.508 27.004-6.728 51.882-12.165 76.06-16.624 180.198-33.264 344.676-21.697 481.804-5.995 37.202 4.289 72.451 9.006 106.542 13.567 81.323 10.88 158.133 21.157 255.948 25.461 109.193 4.81 242.399-2.183 385.224-20.208 140.024-17.672 298.287-46.741 457.677-84.066 98.63-23.108 198.301-48.562 294.692-73.178 198.442-50.68 403.64-103.084 615.422-139.226 86.103-14.646 171.35-26.109 253.376-34.073 261.991-25.482 512.651-19.225 745.009 18.6 332.898 54.044 621.958 172.683 901.508 287.416 98.849 40.571 201.064 82.522 303.399 120.836 11.567 4.33 23.273 8.657 34.784 12.86 456.834 166.772 950.278 255.614 1402.39 258.421 208.144 1.292 407.45-15.635 590.528-51.584l3.164 3.814c-154.858 30.407-322.413 47.657-498.02 51.271-30.58.628-61.432.846-92.524.652"/>
    <path d="M1009.94 1010.46c-25.459-.158-50.784-.716-76.075-1.672-129.471-4.895-254.639-20.125-382.655-46.558-133.154-27.494-261.001-66.569-379.978-116.14C40.073 791.446-74.02 726.422-167.87 652.826c-81.477-63.893-152.827-131.937-221.828-197.742-73.996-70.57-150.515-143.543-238.97-210.677C-823.24 96.531-1081.848-9.641-1320.441-39.602c-235.908-29.959-427.971-13.265-570.879 49.619-230.08 101.245-400.945 288.876-435.3 478.012l-8.351-.663c16.572-91.243 65.884-184.592 142.602-269.954 78.578-87.429 180.725-160.314 295.398-210.774 144.951-63.784 339.438-80.76 578.048-50.457 128.143 16.092 258.235 52.177 386.654 107.252 113.126 48.517 220.477 110.303 310.443 178.678 88.712 67.329 165.343 140.409 239.447 211.083 68.91 65.716 140.165 133.67 221.426 197.394C17.664 790.657 271.54 899.906 553.905 958.209c255.128 52.679 504.038 61.821 783.333 28.771 272.184-32.212 548.101-113.976 840.218-200.542 20.822-6.17 41.674-12.349 62.553-18.517 37.128-10.972 76.693-22.53 116.302-32.665 26.853-6.871 51.494-12.504 75.331-17.22 192.193-38.062 372.005-28.676 479.436-23.068 33.866 1.793 66.283 3.856 97.631 5.851 86.313 5.493 167.831 10.68 269.827 9.913 109.321-.826 240.874-12.605 380.437-34.067 138.521-21.301 290.212-52.165 450.864-91.738 79.394-19.565 159.981-40.508 237.915-60.762 215.476-55.998 438.292-113.903 669.824-151.875 86.111-14.074 171.564-24.94 253.987-32.295 259.892-23.239 510.24-15.337 744.086 23.485 335.45 55.546 628.964 174.451 912.811 289.44 95.695 38.766 194.647 78.852 293.342 115.715 11.661 4.354 23.346 8.668 34.74 12.823 671.048 244.805 1414.15 327.575 1987.8 221.405l3.237 4.101c-155.582 28.796-323.506 44.336-499.105 46.188-165.411 1.749-338.94-8.612-515.737-30.788-328.991-41.267-668.126-123.359-980.742-237.405-11.418-4.165-23.134-8.49-34.82-12.855-98.84-36.916-197.863-77.031-293.626-115.825-283.222-114.735-576.084-233.375-910.008-288.669-232.52-38.602-481.509-46.452-740.07-23.334-82.07 7.325-167.167 18.145-252.929 32.162-230.935 37.873-453.467 95.705-668.67 151.633-77.972 20.263-158.594 41.216-238.063 60.799-161.017 39.663-313.094 70.604-452.007 91.965-140.262 21.568-272.576 33.407-382.636 34.239-102.554.77-184.367-4.432-270.978-9.945-31.307-1.992-63.681-4.052-97.454-5.84-106.702-5.571-285.286-14.893-475.689 22.817-23.605 4.67-48.026 10.252-74.657 17.066-39.42 10.087-78.867 21.613-115.894 32.554-20.876 6.167-41.723 12.345-62.543 18.515-292.638 86.718-569.046 168.63-842.38 200.975-114.477 13.546-223.041 19.905-329.626 19.244"/>
    <path d="M1143.02 1022.81c-58.392-.362-116.009-2.866-173.503-7.511-127.372-10.289-250.63-30.829-376.821-62.793-269.763-68.332-515.903-184.048-693.077-325.829-74.056-59.264-141.383-121.647-206.496-181.977-82.231-76.194-167.264-154.982-265.691-227.132-201.092-147.594-455.458-252.58-697.88-288.04-246.68-36.424-438.843-25.816-587.479 32.43-235.669 92.354-410.086 276.034-434.017 457.065l-8.905-.59c11.653-88.135 59.246-178.654 137.635-261.767 79.312-84.092 182.923-152.716 299.636-198.452 78.638-30.817 171.722-48.697 276.665-53.146 94.264-3.994 201.395 2.741 318.417 20.02 128.671 18.822 259.167 56.364 387.846 111.584 113.759 48.816 222.777 110.501 315.268 178.386 98.723 72.364 183.88 151.27 266.234 227.576 65.035 60.261 132.29 122.573 206.174 181.7C83.255 765.359 328.017 880.441 596.222 948.378c252.154 63.872 507.202 83.578 779.726 60.248 306.645-26.253 629.161-121.215 913.713-204.995 33.593-9.893 75.403-22.205 115.818-32.82 26.69-7.013 51.092-12.84 74.598-17.814 177.825-37.665 338.039-38.978 466.773-40.033l10.244-.085c26.973-.208 53.157-.294 78.482-.378 94.635-.311 184.022-.605 293.958-7.129 109.356-6.488 239.264-23.064 375.673-47.935 134.449-24.515 283.856-57.964 444.065-99.417 58.476-15.136 118.001-30.972 175.572-46.285 234.123-62.28 476.214-126.679 729.81-166.589 86.11-13.505 171.764-23.772 254.594-30.518 257.685-21.026 507.722-11.479 743.163 28.375 338.473 57.151 636.886 176.488 925.474 291.896 92.081 36.823 187.296 74.902 281.923 110.159 11.649 4.34 23.319 8.642 34.686 12.785 685.49 249.898 1408.15 335.909 1982.69 235.975l3.29 4.389c-156.294 27.186-324.584 41.016-500.191 41.104-164.753.076-337.743-11.905-514.125-35.631-323.856-43.565-661.524-127.287-976.497-242.11-11.397-4.155-23.094-8.467-34.77-12.816-94.759-35.309-190.041-73.412-282.184-110.261-287.942-115.149-585.684-234.218-922.593-291.105-234.059-39.621-482.677-49.105-738.963-28.194-82.44 6.714-167.709 16.935-253.438 30.381-252.87 39.795-494.624 104.104-728.417 166.297-57.589 15.319-117.141 31.159-175.656 46.307-160.517 41.533-310.243 75.052-445.021 99.626-137.005 24.979-267.555 41.632-377.543 48.158-110.403 6.552-200.024 6.846-294.904 7.159-25.305.083-51.472.17-78.399.377l-10.246.085c-128.002 1.05-287.308 2.354-463.654 39.705-23.292 4.929-47.491 10.71-73.98 17.669-37.277 9.791-72.846 20.171-115.47 32.724-163.898 48.258-311.784 91.137-461.892 127.216-171.182 41.145-319.889 66.753-454.615 78.288-80.523 6.893-158.367 10.099-234.892 9.624"/>
    <path d="M1269.44 1038.71c-218.557-1.357-427.647-33.022-635.291-95.943-122.84-37.222-241.038-84.298-351.306-139.921C164.778 743.29 58.542 675.222-32.906 600.531c-65.023-53.108-126.22-108.418-185.4-161.906-92.168-83.304-187.475-169.444-298.171-247.886C-720.972 45.656-977.57-60.803-1220.479-101.34c-253.816-42.691-451.414-37.702-604.099 15.253-240.933 83.561-418.866 262.891-432.702 436.1l-9.452-.496c6.703-83.897 53.883-173.913 132.845-253.464 78.993-79.579 186.857-145.728 303.726-186.26 82.56-28.635 179.72-43.686 288.779-44.734 96.266-.923 202.01 8.546 323.318 28.949 244.898 40.87 503.361 148.03 709.11 294.001 111.029 78.679 206.48 164.948 298.788 248.378 59.124 53.438 120.261 108.695 185.163 161.702 224.306 183.2 484.652 286.278 663.556 340.49 251.769 76.289 505.644 106.287 776.124 91.707 309.61-16.691 639.612-107.309 924.626-190.937l5.708-1.675c35.856-10.525 72.932-21.407 109.618-31.298 26.62-7.178 50.778-13.198 73.859-18.405 163.384-36.907 315.036-46.753 436.888-54.664 12.865-.836 25.432-1.653 37.692-2.478 10.781-.719 21.414-1.424 31.939-2.123 116.881-7.75 217.822-14.445 345.483-28.661 110.769-12.334 235.569-33.135 370.923-61.822 129.301-27.405 276.421-63.437 437.276-107.099 35.534-9.648 71.748-19.576 106.77-29.177 254.592-69.792 517.852-141.96 796.266-183.938 86.134-12.942 172-22.611 255.205-28.738 255.369-18.848 505.087-7.656 742.234 33.263 342.063 58.885 645.931 178.861 939.79 294.888 87.911 34.709 178.815 70.602 268.846 104.067 11.566 4.299 23.217 8.588 34.641 12.75 690.382 251.506 1411.19 342.823 1977.58 250.539l3.325 4.681c-305.602 49.793-646.687 48.293-1013.79-4.457-164.48-23.636-333.407-57.634-502.089-101.051-158.348-40.757-316.527-89.799-470.15-145.762-11.449-4.172-23.127-8.472-34.718-12.779-90.153-33.511-181.116-69.426-269.085-104.16-293.196-115.762-596.372-235.468-936.841-294.077-235.705-40.672-483.953-51.793-737.86-33.053-82.783 6.097-168.225 15.72-253.951 28.6-277.536 41.844-540.389 113.902-794.587 183.584-35.031 9.604-71.256 19.535-106.805 29.187-161.099 43.73-308.473 79.824-438.03 107.281-135.84 28.791-261.145 49.673-372.434 62.064-128.038 14.259-229.158 20.964-346.243 28.729-10.523.698-21.154 1.403-31.927 2.121-12.269.828-24.85 1.645-37.729 2.48-121.275 7.874-272.203 17.675-434.406 54.314-22.893 5.164-46.874 11.141-73.311 18.27-36.549 9.854-73.556 20.716-109.343 31.22l-5.71 1.676c-139.608 40.964-304.104 87.676-465.619 123.541-172.234 38.245-323.519 60.478-462.502 67.969-49.447 2.666-98.343 3.854-146.773 3.554"/>
    <path d="M1385.77 1057.71c-246.21-1.528-479.208-42.502-710.178-124.704-240.693-85.662-462.353-209.671-641.015-358.625-53.687-44.757-105.792-90.931-156.181-135.584-104.475-92.58-212.507-188.314-338.765-274.884C-668.022 21.38-926.861-86.555-1170.515-132.214c-264.145-49.824-461.389-50.431-620.745-1.916-245.887 74.858-427.297 249.441-431.349 415.12l-9.993-.375c1.98-81.012 47.503-168.036 128.183-245.042 79.881-76.246 189.164-138.113 307.717-174.206 87.906-26.762 186.348-38.593 300.987-36.19 96.878 2.036 204.2 14.386 328.102 37.756 129.84 24.331 261.123 64.785 390.193 120.233 115.197 49.489 227.545 110.969 324.898 177.792C-325.88 247.79-217.683 343.67-113.049 436.392c50.351 44.62 102.419 90.76 156.029 135.455 177.876 148.295 398.467 271.727 637.931 356.952 250.377 89.109 503.076 129.388 772.537 123.153 316.348-7.327 650.43-93.528 935.508-176.885 6.378-1.865 12.751-3.733 19.125-5.602 31.361-9.19 63.786-18.694 95.703-27.524 26.53-7.34 50.449-13.553 73.115-18.996 148.797-35.754 284.696-51.827 404.599-66.009 23.586-2.79 45.862-5.424 67.538-8.128 133.035-16.519 243.404-31.325 382.403-54.067 110.248-18.038 233.446-43.514 366.172-75.721 123.238-29.905 264.055-67.454 430.495-114.789l30.331-8.634c277.158-78.913 563.754-160.511 870.373-204.725 86.149-12.382 172.219-21.451 255.82-26.961 252.938-16.703 502.345-3.866 741.299 38.155 346.35 60.773 656.334 181.639 956.109 298.528 83.068 32.389 168.963 65.881 253.765 97.325 11.585 4.298 23.225 8.574 34.592 12.712 328.071 119.433 908.041 292.661 1518.89 296.453 150.46.933 302.676-8.397 453.598-31.347l3.338 4.974c-305.861 46.508-646.777 41.665-1013.26-14.391-162.875-24.911-330.943-60.099-499.541-104.584-156.32-41.248-313.922-90.683-468.431-146.931-11.394-4.147-23.061-8.433-34.673-12.739-84.904-31.485-170.853-64.998-253.973-97.407-299.096-116.622-608.371-237.214-953.103-297.703-237.466-41.761-485.342-54.516-736.757-37.91-83.143 5.479-168.757 14.502-254.459 26.818-305.562 44.062-591.675 125.524-868.372 204.303l-30.33 8.634c-166.617 47.387-307.605 84.98-431.027 114.929-133.099 32.298-256.684 57.852-367.326 75.956-139.265 22.784-249.815 37.614-383.047 54.157-21.725 2.711-44.028 5.348-67.643 8.141-119.447 14.129-254.83 30.14-402.73 65.68-22.505 5.404-46.269 11.577-72.644 18.875-31.817 8.801-64.195 18.291-95.507 27.468-6.377 1.868-12.755 3.737-19.132 5.603-188.327 55.067-333.085 92.039-469.366 119.881-173.627 35.47-327.498 54.321-470.402 57.631-23.023.533-45.933.729-68.722.588"/>
    <path d="M1509.16 1079.26c-5.51-.034-10.997-.092-16.502-.177-143.419-2.207-283.535-17.421-416.457-45.217-122.291-25.574-243.136-62.797-359.173-110.633-110.82-45.687-219.343-100.759-322.556-163.688C291.19 696.574 192.81 625.481 102.059 548.239c-38.866-33.083-77.566-66.946-114.989-99.695-120.21-105.192-244.511-213.966-391.322-311.447-213.62-141.979-468.009-248.585-716.311-300.184-270.405-56.493-472.945-62.556-637.411-19.078-250.563 66.239-435.411 235.677-429.966 394.128l-10.528-.231c-2.688-78.218 41.206-162.207 123.594-236.499 80.831-72.887 191.52-130.522 311.675-162.285 92.263-24.393 194.733-33.387 313.256-27.504 97.588 4.843 206.445 20.029 332.797 46.427 130.5 27.119 262.171 69.024 391.348 124.548 117.687 50.587 228.615 110.303 329.703 177.49 147.262 97.78 271.752 206.72 392.147 312.072 37.406 32.734 76.085 66.582 114.916 99.633 180.363 153.517 392.098 282.647 612.31 373.433 242.035 99.781 493.597 150.345 769.061 154.585 324.304 5.014 660.307-79.517 946.274-162.841 12.116-3.531 24.219-7.083 36.307-10.631 25.596-7.512 52.067-15.279 78.019-22.646 26.517-7.526 50.187-13.931 72.364-19.583 133.026-33.926 257.598-54.94 367.501-73.482 35.867-6.05 69.743-11.765 102.21-17.629 125.516-22.608 237.743-45.019 387.368-77.354 108.888-23.529 230.485-53.687 361.414-89.632 138.503-38.025 285.502-81.343 423.723-122.487 137.718-41.01 284.872-84.224 436.597-122.181 166.622-41.682 317.673-71.588 461.791-91.425 86.17-11.824 172.445-20.295 256.435-25.181 250.38-14.599 499.473-.117 740.357 43.044 351.512 62.857 668.439 184.932 974.932 302.986 77.387 29.807 157.407 60.628 236.173 89.765 11.692 4.325 23.316 8.59 34.547 12.675 503.69 183.239 1253.89 380.501 1967.4 279.673l3.334 5.267c-134.991 19.075-276.761 28.145-424.425 27.23-187.141-1.161-383.775-18.358-588.316-51.556-310.782-50.441-635.015-136.643-963.697-256.214-11.254-4.094-22.902-8.368-34.616-12.701-78.859-29.171-158.925-60.011-236.352-89.834-305.801-117.788-622.012-239.585-971.882-302.149-239.342-42.886-486.857-57.276-735.664-42.768-83.495 4.857-169.277 13.281-254.964 25.038-309.757 42.637-600.58 125.13-896 213.098-138.298 41.168-285.381 84.51-424.017 122.57-131.193 36.019-253.063 66.243-362.225 89.833-149.824 32.377-262.214 54.82-387.928 77.463-32.559 5.882-66.486 11.604-102.4 17.665-109.592 18.487-233.803 39.44-366.199 73.206-22.05 5.62-45.595 11.992-71.985 19.482-25.892 7.347-52.329 15.107-77.898 22.611-12.096 3.55-24.207 7.104-36.332 10.637-282.324 82.264-613.431 165.673-935.028 163.679"/>
    <path d="M1588.12 1102.21c-19.212-.119-38.242-.516-57.15-1.19-143.283-5.103-284.321-25.187-419.194-59.699-119.569-30.594-238.444-73.626-353.317-127.897-104.12-49.19-207.804-108.26-308.17-175.567-94.362-63.28-188.822-135.879-280.755-215.78-18.405-15.997-36.746-32.018-55.084-48.04-141.158-123.328-287.118-250.853-462.588-363.77-216.174-139.229-472.755-247.28-722.486-304.248-188.379-43.158-432.957-86.278-654.107-36.235-254.994 57.699-443.236 221.592-428.551 373.12l-11.053-.058c-7.317-75.519 34.948-156.432 119.012-227.836 81.833-69.507 193.936-122.956 315.658-150.499 96.769-21.897 203.261-28.002 325.553-18.661 98.51 7.523 208.888 25.497 337.44 54.949 251.444 57.36 509.633 166.049 726.992 306.043 176.006 113.263 322.191 240.983 463.564 364.497 18.332 16.017 36.665 32.035 55.067 48.028 191.264 166.23 383.172 293.778 586.694 389.931 244.532 115.529 494.903 176.371 765.423 186.008 270.245 9.631 574.399-37.659 957.194-148.809 19.863-5.767 39.955-11.698 59.387-17.431 17.87-5.275 36.348-10.727 54.434-15.993 26.711-7.773 50.134-14.371 71.61-20.167 114.305-30.878 224.054-54.605 320.881-75.541 51.6-11.156 100.337-21.694 146.425-32.528 130.955-30.724 245.211-61.092 392.328-100.641 102.168-27.466 218.829-61.339 356.644-103.557 76.727-23.709 155.038-48.247 237.942-74.226 58.425-18.307 118.835-37.235 179.006-55.963 125.616-39.108 275.417-84.442 434.014-124.137 164.512-41.174 315.654-70.522 462.066-89.72 86.196-11.268 172.678-19.143 257.053-23.402 247.712-12.534 496.483 3.595 739.411 47.935 357.776 65.189 682.69 188.871 996.909 308.482 70.648 26.892 143.702 54.7 215.432 81.169 11.42 4.215 23.027 8.467 34.497 12.638 739.37 268.785 1399.59 367.778 1962.33 294.238l3.304 5.56c-125.159 16.357-256.093 24.103-392.071 23.26-196.731-1.218-404.065-20.415-620.139-57.524-304-52.209-626.794-139.992-959.413-260.911-11.495-4.178-23.126-8.438-34.569-12.662-71.801-26.497-144.889-54.318-215.569-81.224-313.517-119.342-637.707-242.747-993.821-307.633-241.353-44.052-488.501-60.076-734.575-47.625-83.844 4.233-169.795 12.058-255.468 23.259-298.674 39.163-573.111 113.575-893.282 213.255-60.159 18.723-120.565 37.651-178.981 55.955-82.921 25.983-161.242 50.524-238.014 74.248-137.996 42.273-254.819 76.193-357.154 103.705-147.261 39.588-261.636 69.986-392.82 100.763-46.23 10.868-95.037 21.422-146.711 32.594-96.639 20.892-206.171 44.575-320.085 75.348-21.385 5.77-44.714 12.34-71.328 20.088-18.061 5.255-36.525 10.706-54.385 15.976-19.444 5.74-39.552 11.674-59.446 17.451-175.914 51.079-331.92 87.91-476.933 112.602-154.824 26.36-295.833 38.899-429.054 38.072"/>
    <path d="M1678.9 1126.75c-37.259-.23-73.802-1.492-109.717-3.781-144.67-9.219-286.617-34.504-421.896-75.149-118.732-35.677-235.611-84.192-347.387-144.203-181.284-97.326-354.886-223.062-562.889-407.687C72.428 349.844-91.877 208.371-292.008 83.459c-218.286-136.338-477.067-245.835-728.68-308.321-191.716-47.771-441.217-97.008-670.833-53.387-259.204 49.241-450.801 207.192-427.104 352.097l-11.56.148c-11.924-72.916 28.695-150.714 114.377-219.065 81.664-65.145 198.198-115.749 319.724-138.835 101.391-19.261 211.898-22.421 337.837-9.658 101.162 10.252 209.856 30.37 342.062 63.314 132.07 32.799 264.508 77.601 393.628 133.161 119.683 51.502 233.839 111.013 339.296 176.88C-82.516 205.087 82.085 346.811 246.945 493.141 454.419 677.298 627.461 802.65 808.014 899.584c236.822 127.145 493.164 200.298 761.9 217.423 276.924 17.645 593.561-26.441 968.007-134.783 31.009-8.972 62.155-18.282 92.273-27.285l21.036-6.287c27.715-8.27 50.228-14.863 70.854-20.751 88.727-25.339 172.558-47.138 253.628-68.218 74.805-19.45 145.463-37.824 211.305-56.793 127.658-36.73 246.218-75.076 371.739-115.671l25.527-8.256c110.713-35.465 229.609-75.81 351.853-117.487 129.711-44.528 269.187-92.059 410.182-137.899 253.25-82.358 557.489-172.202 893.794-214.114 86.232-10.718 172.924-17.992 257.669-21.62 244.91-10.511 493.359 7.263 738.459 52.827 365.462 67.836 699.699 193.648 1022.93 315.316 62.557 23.548 127.245 47.897 190.631 71.23 11.636 4.283 23.23 8.523 34.456 12.601 746.692 271.258 1405.21 375.153 1957.27 308.804l3.258 5.855c-159.73 19.198-329.857 24.464-505.633 15.657-161.24-8.081-331.497-28.221-506.046-59.861-157.695-28.586-323.181-67.34-491.862-115.187-148.965-42.257-304.827-92.865-463.257-150.419-11.249-4.085-22.861-8.334-34.52-12.624-63.44-23.353-128.155-47.713-190.742-71.271-322.517-121.4-656.018-246.935-1019.81-314.461-243.481-45.262-490.264-62.918-733.491-52.481-84.177 3.604-170.296 10.831-255.969 21.479-334.771 41.72-638.042 131.292-890.552 213.409-140.897 45.811-280.309 93.317-409.976 137.831-122.328 41.705-241.292 82.074-352.105 117.57l-25.504 8.248c-125.642 40.635-244.316 79.016-372.21 115.817-66.038 19.024-136.79 37.423-211.704 56.902-80.979 21.056-164.715 42.83-253.262 68.118-20.565 5.87-43.023 12.448-70.677 20.7l-21.027 6.283c-30.153 9.012-61.329 18.333-92.404 27.325-328.163 94.95-612.537 140.804-865.135 139.239"/>
    <path d="M1767.34 1152.46c-54.858-.34-108.224-2.861-159.964-7.572-274.598-24.998-532.327-109.482-766.03-251.109-193.298-117.138-350.907-255.417-536.858-424.015C171.751 349.417-9.623 193.7-235.877 56.634-458.9-78.545-713.018-186.571-970.762-255.767c-194.509-52.347-448.438-107.67-687.592-70.538-234.523 36.414-461.516 178.133-425.63 331.063l-12.045.386c-16.522-70.404 22.414-145.053 109.632-210.196 82.698-61.766 200.764-108.158 323.927-127.282 243.296-37.777 500.172 18.113 696.78 71.025 259.23 69.597 514.718 178.187 738.838 314.03C.121 190.221 181.915 346.293 314.939 466.9c185.604 168.282 342.885 306.282 535.432 422.965 231.667 140.394 486.831 224.114 758.403 248.836 282.391 25.704 611.708-14.928 978.804-120.768 39.259-11.32 77.411-22.894 112.791-33.717l.362-.109c22.895-7.003 46.57-14.246 69.729-21.222 44.497-13.414 88.214-26.399 130.491-38.955 118.44-35.178 230.311-68.405 332.102-102.993 118.581-40.257 228.569-81.741 345.01-125.662 18.882-7.121 37.924-14.304 57.198-21.553 62.72-23.447 126.292-47.63 193.597-73.232 49.825-18.952 101.345-38.549 153.431-58.184 148.25-56.176 280.213-103.809 403.418-145.618 156.099-52.978 296.384-94.867 428.875-128.059 160.888-40.308 312.222-68.541 462.642-86.313 86.267-10.17 173.168-16.845 258.292-19.84 241.966-8.53 490.091 10.889 737.505 57.718 375.029 70.905 720.343 199.541 1054.29 323.941 52.693 19.628 107.177 39.924 160.495 59.503 11.431 4.198 22.901 8.386 34.408 12.563 765.277 277.812 1403.86 383.588 1952.22 323.369l3.194 6.151c-160.395 17.616-330.878 21.169-506.725 10.561-160.486-9.678-330.197-31.45-504.424-64.707-292.685-55.871-603.701-144.288-950.819-270.299-11.528-4.183-23.017-8.381-34.468-12.586-53.356-19.592-107.858-39.895-160.568-59.53-333.226-124.131-677.796-252.489-1051.15-323.078-245.75-46.516-492.171-65.81-732.41-57.336-84.512 2.973-170.802 9.601-256.473 19.701-274.32 32.41-548.129 98.274-887.809 213.56-123.044 41.753-254.85 89.331-402.956 145.451-52.08 19.632-103.59 39.226-153.402 58.176-67.328 25.608-130.92 49.798-193.664 73.252-19.251 7.244-38.291 14.424-57.167 21.546-116.562 43.963-226.657 85.488-345.46 125.822-102.072 34.683-214.085 67.951-332.672 103.174-42.261 12.552-85.962 25.531-130.432 38.936-23.128 6.968-46.785 14.204-69.666 21.203l-.36.11c-35.447 10.841-73.671 22.439-113.041 33.79-169.807 48.96-332.858 84.41-484.62 105.365-118.848 16.411-233.319 24.301-341.998 23.628"/>
    <path d="M1854.97 1179.35c-72.186-.449-142.113-4.627-209.418-12.54-147.938-17.39-291.701-53.069-427.298-106.041-117.749-46-230.613-105.493-335.455-176.827C726.75 777.773 600.623 658.782 467.09 532.807c-30.925-29.172-62.901-59.34-95.136-89.199C194.397 279.133 13.934 143.784-179.745 29.825c-223.839-131.752-480.109-241.192-741.104-316.491-196.713-56.843-454.541-118.181-704.374-87.688-237.183 28.946-469.699 163.385-424.132 310.016l-12.509.66c-21.124-67.98 16.067-139.45 104.729-201.246 83.73-58.361 203.396-100.577 328.31-115.822 110.831-13.525 229.309-10.639 362.201 8.823 105.218 15.409 216.889 40.694 351.43 79.571 262.345 75.688 519.873 185.656 744.741 318.013C23.879 140.002 204.893 275.755 382.93 440.674c32.259 29.883 64.248 60.062 95.185 89.249 133.282 125.736 259.171 244.5 414.597 350.249 225.766 153.606 479.763 247.894 754.931 280.245 290.994 34.211 623.938-1.712 989.587-106.764 34.309-9.858 71.034-20.932 112.27-33.859 23.464-7.355 47.113-14.858 69.326-21.912 200.277-63.622 337.934-111.138 460.285-158.878 118.11-46.059 227.886-93.333 344.106-143.384 20.867-8.987 41.858-18.027 63.032-27.117 22.99-9.831 46.144-19.758 69.474-29.76 88.028-37.736 179.048-76.76 272.71-115.586 140.587-58.482 270.337-108.641 396.657-153.342 150.985-53.437 290.433-95.968 426.309-130.027 159.319-39.933 310.749-67.609 462.94-84.609 86.306-9.624 173.414-15.699 258.913-18.057 122.398-3.379 247.899.466 373.011 11.431 119.218 10.45 241.529 27.67 363.535 51.18 387.202 74.554 745.977 206.973 1092.94 335.033 40.404 14.913 82.187 30.334 123.059 45.305 11.417 4.182 22.874 8.36 34.365 12.528 426.431 154.693 1035.9 347.286 1654.26 351.124 97.673.607 195.476-3.49 292.916-13.191l3.106 6.447c-161.051 16.032-331.906 17.873-507.814 5.462-159.713-11.264-328.879-34.666-502.798-69.556-156.052-31.304-315.263-71.294-486.725-122.253-144.279-42.879-294.677-92.839-459.787-152.733-11.507-4.176-22.979-8.359-34.415-12.547-40.895-14.979-82.683-30.404-123.101-45.321-346.236-127.792-704.263-259.934-1089.79-334.164-248.163-47.821-494.22-68.748-731.335-62.193-84.843 2.339-171.3 8.37-256.969 17.923-280.342 31.313-561.576 99.22-885.054 213.706-126.069 44.612-255.583 94.681-395.945 153.067-93.593 38.799-184.578 77.806-272.568 115.528-23.332 10.005-46.492 19.931-69.472 29.76-21.166 9.086-42.153 18.123-63.017 27.109-116.328 50.097-226.21 97.417-344.539 143.563-122.663 47.862-260.594 95.473-461.204 159.201-22.227 7.06-45.896 14.567-69.386 21.932-41.362 12.966-78.21 24.078-112.651 33.973-168.636 48.448-332.996 82.685-488.513 101.757-103.555 12.699-203.987 18.755-300.394 18.157"/>
    <path d="M1940.6 1207.3c-88.954-.551-174.782-6.748-256.884-18.585-149.719-21.342-294.408-62.182-430.025-121.39-117.38-51.245-228.211-116.26-329.417-193.237-124.095-94.387-223.056-194.827-327.827-301.163-50.31-51.059-102.33-103.858-157.013-155.482C276.816 263.089 87.386 123.655-123.599 3.009-347.238-124.9-605.663-235.756-870.933-317.578c-198.305-61.215-459.487-128.45-721.184-104.841-244.368 22.046-477.022 150.306-422.617 288.959l-12.938.97c-25.755-65.637 9.623-133.907 99.618-192.231 84.756-54.931 206.1-92.995 332.919-104.437 115.567-10.425 237.971-4.449 374.197 18.276 108.126 18.036 221.329 45.835 356.255 87.483 135.66 41.845 269.227 90.981 396.987 146.044C-343.795-123.954-224.812-64.759-114.049-1.41 97.696 119.671 287.784 259.586 450.934 414.444c54.78 51.714 106.849 104.561 157.207 155.671 104.56 106.122 203.323 206.361 326.91 300.362 216.504 164.673 476.357 272.442 751.468 311.653 371.763 53.603 749.203-20.86 1000.38-92.765 35.917-10.283 73.512-21.722 111.74-33.999 22.047-7.081 44.473-14.437 68.556-22.488 162.807-54.43 312.628-111.938 458.014-175.81 123.16-54.094 237.854-109.558 359.281-168.28 17.541-8.483 35.13-16.987 52.782-25.508l2.514-1.208c108.037-52.045 219.753-105.86 334.803-158.063 135.67-61.669 263.204-114.355 389.889-161.071 310.318-114.443 600.459-184.739 886.999-214.902 86.347-9.083 173.667-14.559 259.534-16.276 121.858-2.441 247.364 2.385 373.027 14.345 117.962 11.226 239.944 29.111 362.552 53.158 403.032 79.016 778.57 216.577 1141.75 349.611 25.23 9.241 50.387 18.456 75.474 27.622 11.405 4.167 22.845 8.332 34.321 12.491 499.966 181.24 1079.41 359.777 1672.12 363.457 89.812.557 179.819-2.893 270.017-10.959l3 6.741c-161.704 14.46-332.924 14.583-508.906.368-158.929-12.84-327.548-37.875-501.171-74.408-364.658-76.731-712.372-196.363-942.193-279.675-11.488-4.165-22.943-8.334-34.361-12.506-25.093-9.168-50.256-18.385-75.491-27.629-362.443-132.765-737.228-270.051-1138.57-348.736-254.245-49.864-493.118-71.797-730.268-67.046-85.168 1.703-171.794 7.135-257.465 16.146-284.793 29.981-573.393 99.931-882.285 213.847-126.344 46.592-253.566 99.15-388.93 160.68-114.918 52.143-226.566 105.926-334.538 157.938l-2.51 1.209c-17.647 8.517-35.23 17.019-52.77 25.501-121.533 58.774-236.33 114.288-359.71 168.478-145.793 64.049-296.024 121.717-459.28 176.296-24.148 8.071-46.634 15.447-68.74 22.549-38.401 12.332-76.173 23.825-112.271 34.159-167.93 48.074-333.623 81.131-492.478 98.251-89.312 9.625-176.426 14.175-260.726 13.652"/>
    <path d="M2023.37 1235.88c-104.626-.649-205.38-9.073-301.489-25.263-358.336-60.358-608.974-221.68-756.132-346.383-104.878-88.872-190.836-184.468-273.963-276.915-58.306-64.844-118.598-131.895-184.898-196.043-310.92-300.83-770.107-556.636-1327.92-739.764-183.738-60.323-460.142-138.599-738.02-121.998-143.751 8.588-282.786 52.037-362.843 113.394-62.429 47.842-83.116 102.709-58.251 154.496l-13.328 1.32c-13.38-27.864-14.397-56.239-3.027-84.333 10.656-26.328 31.876-51.797 63.072-75.705 82.067-62.896 224.609-107.437 371.999-116.242 282.271-16.862 561.656 62.193 747.25 123.123 276.946 90.92 532.282 201.036 758.919 327.292C171.376 99.115 364.56 238.862 518.925 388.218c66.492 64.336 126.871 131.484 185.263 196.422 82.956 92.257 168.735 187.653 273.175 276.156 145.845 123.59 394.015 283.432 748.05 343.067 448.368 75.526 895.641-38.33 1122.34-112.918 345.224-113.585 634.562-268.769 914.371-418.842 116.078-62.257 236.111-126.635 358.594-187.227 241.312-119.38 469.34-209.014 697.115-274.026 133.041-37.973 267.368-67.627 399.245-88.134 143.496-22.314 288.734-34.53 431.674-36.31 166.526-2.073 340.536 9.706 517.195 35.013 158.464 22.701 320.409 55.974 495.088 101.722 322.71 84.518 630.381 196.658 927.922 305.107l12.835 4.678c627.256 228.609 1300.21 432.813 1971.4 379.519l2.871 7.035c-79.123 6.284-159.557 9.183-241.546 8.675-245.495-1.521-505.165-33.6-787.157-96.929-345.033-77.486-675.375-191.375-953.013-292.562l-12.838-4.68c-562.163-204.899-1197.43-436.428-1875.6-440.638-18.667-.116-37.266-.06-56.005.174-495.351 6.167-992.348 135.91-1519.39 396.64-122.299 60.502-242.242 124.831-358.233 187.041-280.321 150.347-570.187 305.815-916.675 419.816-180.98 59.546-364.04 100.62-544.092 122.084-98.712 11.767-194.966 17.357-288.146 16.779"/>
  </g>
</svg>
