
<svg viewBox="0 0 5000 700" xmlns="http://www.w3.org/2000/svg" xml:space="preserve" style="fill-rule:evenodd;clip-rule:evenodd;stroke-linejoin:round;stroke-miterlimit:2">
  <path style="fill:none" d="M0 0h5000v700H0z"/>

  <g>
    <path d="M6347.85 1268.4c-171.963 31.595-352.008 48.544-537.062 50.485-235.05 2.466-469.516-19.37-696.877-64.905-234.142-46.89-453.188-117.494-651.054-209.849-208.829-97.474-403.374-219.98-591.515-338.454-338.947-213.438-689.438-434.145-1123.88-503.96-234.483-37.68-458.922-25.132-659.286 11.681-284.676 52.303-520.865 153.553-669.022 229.37-224.031 114.644-423.733 253.475-616.86 387.737-127.565 88.681-259.472 180.381-397.357 264.424-114.504 69.791-218.725 118.645-318.62 149.348-61.626 18.943-122.727 31.193-181.599 36.41-65.292 5.786-129.994 3.123-192.316-7.911-116.995-20.716-224.105-70.443-318.355-147.802-79.019-64.855-147.018-148.207-196.648-241.043-32.15-60.144-58.297-122.696-83.583-183.188-45.631-109.161-92.816-222.04-176.71-323.499-180.581-218.391-530.92-365.345-871.775-365.68-290.668-.286-566.647 108.478-703.085 277.086-136.438 168.609-132.902 396.527 9.008 580.651l-6.476 2.066c-70.603-91.607-108.774-194.88-110.383-298.654-1.611-103.773 33.419-202.967 101.301-286.856 67.881-83.886 170.18-154.402 295.835-203.924 125.659-49.52 268.515-75.62 413.133-75.478 85.026.082 171.974 9.276 258.428 27.326 84 17.537 166.059 43.103 243.901 75.988 77.378 32.689 148.852 71.874 212.437 116.463 64.746 45.402 119.933 95.465 164.031 148.797 84.38 102.045 131.698 215.247 177.462 324.723 25.246 60.399 51.352 122.853 83.402 182.807 52.392 98.002 206.895 331.729 509.29 385.272 275.023 48.695 523.304-77.616 686.139-176.865 137.727-83.947 269.557-175.594 397.048-264.225C990.1 692.364 1189.975 553.41 1414.399 438.565c96.322-49.291 196.542-92.732 297.875-129.112 108.492-38.948 218.898-70.011 328.156-92.325 243.942-49.828 482.187-56.682 708.073-20.383 104.985 16.871 206.944 42.344 311.707 77.878 93.357 31.663 186.861 70.669 285.856 119.245 183.857 90.217 359.82 201.023 529.989 308.181 187.919 118.333 382.232 240.695 590.555 337.931 799.363 373.111 1916.27 361.39 2598.02-27.259l5.025 4.059c-168.755 96.202-365.324 171.166-584.252 222.811-45.22 10.667-91.092 20.273-137.553 28.809" style="fill:rgba(255,255,255,0.5);fill-rule:nonzero"/>
    <path d="M6297.51 1251.75c-164.992 30.316-336.815 47.973-512.776 52.635-230.452 6.105-460.191-10.301-682.838-48.763-229.109-39.578-444.001-101.434-638.703-183.852-163.291-69.071-314.882-150.673-492.257-251.946-30.004-17.143-60.429-34.648-89.848-51.576-263.455-151.583-535.878-308.326-846.577-400.735-89.671-26.677-180.261-47.32-269.252-61.353-453.553-71.522-865.997 30.404-1132.13 128.504-60.78 22.374-121.432 47.299-180.27 74.085-222.628 101.434-422.118 225.48-615.041 345.441-87.124 54.174-177.213 110.192-268.684 163.701-44.131 25.814-85.126 49.057-125.33 71.06-117.05 64.064-217.801 106.606-317.07 133.88-61.184 16.813-121.707 27.421-179.879 31.533-64.626 4.567-128.592 1.287-190.124-9.749-115.317-20.683-222.182-68.553-317.627-142.275-79.346-61.289-149.685-140.285-203.41-228.447-34.371-56.383-63.204-114.806-91.089-171.307-50.727-102.783-103.179-209.066-190.008-303.836-56.13-61.27-127.392-116.897-211.807-165.333-190.457-109.327-428.274-169.695-652.469-165.623-288.586 5.27-552.539 113.089-688.851 281.382-140.532 173.378-139.684 407.809 2.16 597.241l-6.213 1.913c-70.765-94.507-108.33-200.786-108.633-307.344-.302-106.358 36.506-208.185 106.446-294.473 67.103-82.846 167.503-153.12 290.347-203.22 122.571-49.991 262.242-77.78 403.914-80.367 225.968-4.104 465.623 56.716 657.514 166.867 85.063 48.808 156.883 104.873 213.464 166.635 87.324 95.311 139.928 201.899 190.802 304.977 27.841 56.415 56.631 114.749 90.896 170.959 56.58 92.845 220.094 314.515 515.744 367.544 268.843 48.222 517.53-65.296 681.203-154.878 40.152-21.973 81.096-45.189 125.176-70.972 91.4-53.467 181.454-109.463 268.543-163.617 193.091-120.065 392.756-244.219 615.773-345.831 58.999-26.86 119.818-51.853 180.767-74.291 178.922-65.952 361.859-111.239 543.753-134.604 203.658-26.162 403.204-24.244 593.096 5.701 89.439 14.104 180.471 34.846 270.568 61.651 139.899 41.608 283.993 99.713 440.516 177.631 139.528 69.456 276.012 147.985 408.003 223.928 29.417 16.926 59.836 34.427 89.827 51.563 177.109 101.123 328.443 182.591 491.333 251.492 547.089 231.582 1230.4 289.539 1828.42 179.665 266.837-49.025 516.635-131.434 729.889-246.76l4.663 3.937c-169.678 91.759-365.18 164.271-581.079 215.522-49.563 11.767-99.9 22.343-150.855 31.705" style="fill:rgba(255,255,255,0.5);fill-rule:nonzero"/>
    <path d="M6244.49 1235.68c-157.113 28.867-319.854 47.044-485.825 54.199-225.898 9.74-450.912-1.235-668.798-32.624-224.107-32.285-434.84-85.395-626.346-157.855-161.13-60.873-310.547-133.346-485.322-223.437-29.528-15.243-59.493-30.817-88.47-45.877-261.102-135.705-531.091-276.03-839.837-361.655-90.761-25.186-178.046-44.103-266.85-57.835-449.107-69.44-856.052 16.234-1118.35 100.334-59.906 19.149-119.843 40.61-178.15 63.789-222.215 88.502-422.361 198.162-615.913 304.214-85.129 46.642-173.156 94.874-262.684 141.163-44.209 22.851-85.193 43.415-125.295 62.866-118.18 57.332-218.436 94.959-315.509 118.414-60.754 14.68-120.693 23.649-178.158 26.657-63.968 3.35-127.198-.547-187.937-11.585-113.627-20.647-220.249-66.659-316.9-136.753-79.583-57.718-152.258-132.357-210.167-215.849-36.383-52.426-67.727-106.525-98.039-158.845-55.975-96.608-113.853-196.508-203.859-284.751-57.96-56.836-129.954-107.995-213.984-152.058-190.45-99.949-424.744-152.498-642.81-144.175-282.015 10.818-540.51 120.284-674.608 285.679-146.867 180.91-148.664 416.117-4.69 613.829l-5.945 1.767c-70.927-97.403-107.886-206.685-106.883-316.034.997-108.938 39.584-213.401 111.588-302.095 66.328-81.81 164.832-151.838 284.861-202.517 119.495-50.45 255.979-79.931 394.698-85.251 111.834-4.269 226.268 6.8 340.124 32.899 110.047 25.224 213.473 63.01 307.409 112.308 84.656 44.391 157.198 95.943 215.612 153.224 90.514 88.739 148.558 188.923 204.691 285.806 30.266 52.243 61.564 106.263 97.842 158.537 75.555 108.933 243.863 299.231 522.202 349.808 259.438 47.146 497.692-46.249 676.275-132.881 40.054-19.428 80.991-39.969 125.151-62.796 89.462-46.254 177.457-94.466 262.555-141.093 193.719-106.142 394.037-215.898 616.635-304.552 58.459-23.239 118.553-44.758 178.617-63.958 176.373-56.549 356.945-94.614 536.695-113.144 200.971-20.715 398.064-16.5 585.811 12.529 89.186 13.79 176.834 32.787 267.961 58.074 309.662 85.879 580.059 226.415 841.555 362.324 28.973 15.06 58.934 30.63 88.447 45.867 174.517 89.956 323.683 162.313 484.426 223.039 528.473 199.956 1193.74 241.361 1782.07 133.266 268.258-49.287 520.464-129.624 736.533-240.202l4.307 3.807c-170.637 87.329-365.073 157.39-577.906 208.239-54.802 13.092-110.458 24.828-166.827 35.184" style="fill:rgba(255,255,255,0.5);fill-rule:nonzero"/>
    <path d="M6187.93 1220.39c-148.047 27.201-300.511 45.631-455.335 54.983-221.397 13.375-441.689 7.827-654.758-16.491-219.14-25.011-425.713-69.376-613.979-131.86-168.446-55.76-329.469-126.636-478.387-194.923-29.613-13.613-59.692-27.533-88.779-40.995-258.244-119.509-525.282-243.09-831.418-321.759-90.725-23.334-177.224-41.098-264.444-54.312-444.824-67.376-846.19 2.051-1104.57 72.157-59.017 15.931-118.24 33.929-176.027 53.495-223.27 75.824-416.369 167.266-620.805 264.077-81.85 38.759-166.483 78.839-252.671 117.531-44.382 19.921-85.353 37.804-125.253 54.675-75.224 31.81-189.608 77.092-313.944 102.948-9.049 1.881-18.067 3.649-27.017 5.292-118.445 21.765-228.342 22.746-335.171 3.076-111.921-20.607-218.299-64.762-316.177-131.239-80.847-54.91-153.825-123.294-216.91-203.25-38.096-48.238-71.68-97.789-104.157-145.708-64.287-94.851-125.008-184.442-218.546-266.343-59.812-52.388-132.542-99.081-216.168-138.784-190.416-90.517-421.191-135.247-633.153-122.72-275.437 16.351-528.471 127.466-660.361 289.977-151.06 185.796-155.483 427.356-11.544 630.413l-5.67 1.628c-71.091-100.29-107.447-212.578-105.139-324.724 2.293-111.514 42.66-218.614 116.731-309.721 65.555-80.775 162.163-150.56 279.38-201.813 116.425-50.905 249.724-82.073 385.488-90.134 109.095-6.447 221.244 1.595 333.331 23.902 107.954 21.484 210.306 55.011 304.211 99.65 84.226 39.988 157.489 87.028 217.755 139.811 94.05 82.351 154.94 172.192 219.408 267.308 32.432 47.852 65.969 97.333 103.959 145.441 80.925 102.566 257.213 282.09 528.667 332.071 252.646 46.518 491.494-34.823 671.352-110.881 39.857-16.853 80.787-34.718 125.126-54.618 86.128-38.668 170.734-78.733 252.555-117.479 204.608-96.893 397.871-188.412 621.506-264.361 57.935-19.615 117.303-37.657 176.463-53.626 173.782-47.153 351.977-78.003 529.633-91.689 198.259-15.274 392.904-8.762 578.532 19.355 87.532 13.259 174.33 31.086 265.36 54.498 306.913 78.868 574.303 202.611 832.889 322.281 29.082 13.46 59.157 27.378 88.758 40.984 148.696 68.186 309.467 138.953 477.523 194.584 514.163 170.648 1147.86 198.006 1720.87 92.727 272.925-50.145 532.019-130.345 758.011-239.507l3.962 3.67c-171.655 82.915-365.026 150.528-574.742 200.959-61.208 14.719-123.378 27.875-186.345 39.444" style="fill:rgba(255,255,255,0.5);fill-rule:nonzero"/>
    <path d="M6126.48 1206.18c-137.339 25.234-277.864 43.55-419.964 54.693-216.972 17.015-432.541 16.894-640.721-.361-214.226-17.756-416.637-53.376-601.61-105.869-166.445-47.053-324.946-107.786-471.437-166.409-30.633-12.303-61.77-24.898-91.886-37.076-254.558-102.958-517.784-209.421-820.217-280.894-90.921-21.513-176.63-38.124-262.029-50.787-440.773-65.342-836.462-12.155-1090.79 43.972-58.133 12.727-116.646 27.259-173.914 43.198-226.629 63.371-423.59 141.92-632.117 225.083-76.515 30.514-155.635 62.069-236.232 92.761-44.743 17.03-85.7 32.234-125.213 46.481-92.351 33.307-193.259 65.564-300.195 85.214-117.285 21.553-241.829 27.941-370.459 3.939-253.155-47.233-432.897-198.119-539.103-316.379-39.364-43.78-74.784-88.524-109.037-131.795-70.41-88.944-136.914-172.954-234.469-248.712-61.693-47.927-135.16-90.154-218.362-125.511-193.151-82.226-414.581-118.188-623.502-101.261-268.839 21.876-516.415 134.638-646.107 294.278-155.265 190.701-162.315 438.614-18.401 646.994l-5.389 1.495c-71.256-103.174-107.009-218.467-103.398-333.415 3.587-114.086 45.73-223.822 121.877-317.347 64.783-79.745 159.5-149.289 273.903-201.112 113.362-51.352 243.476-84.208 376.278-95.013 106.366-8.619 216.231-3.603 326.54 14.908 105.859 17.764 207.131 47.032 301.007 86.997 83.767 35.597 157.749 78.123 219.888 126.396 98.071 76.159 164.755 160.396 235.354 249.579 34.209 43.216 69.584 87.903 108.849 131.575 105.561 117.54 284.091 267.484 535.135 314.324 243.918 45.513 473.766-19.384 666.434-88.87 39.477-14.233 80.399-29.425 125.105-46.44 80.552-30.676 159.65-62.221 236.142-92.725 208.692-83.229 405.812-161.842 632.792-225.311 57.401-15.975 116.046-30.541 174.304-43.294 171.127-37.767 346.945-61.397 522.563-70.237 195.51-9.842 387.709-1.035 571.258 26.176 85.649 12.698 171.601 29.357 262.763 50.926 303.058 71.622 566.579 178.202 821.423 281.275 30.11 12.179 61.244 24.771 91.86 37.067 146.281 58.539 304.544 119.182 470.621 166.132 746.993 211.988 1727.22 136.987 2439.16-186.631l3.62 3.528c-172.746 78.521-365.051 143.685-571.579 193.681-69.215 16.756-139.567 31.699-210.748 44.777" style="fill:rgba(255,255,255,0.5);fill-rule:nonzero"/>
    <path d="M6058.1 1193.49c-124.243 22.828-250.544 40.523-377.667 52.876-212.645 20.665-423.493 25.969-626.685 15.763-209.384-10.515-407.63-37.391-589.233-79.881-164.647-38.307-320.545-88.915-464.489-137.896-33.341-11.404-67.273-23.102-100.088-34.415-249.365-85.966-507.221-174.857-803.924-238.764-91.513-19.74-176.433-35.199-259.615-47.258-437.091-63.354-826.935-26.387-1077.01 15.778-57.262 9.535-115.057 20.603-171.802 32.9-233.888 51.046-438.154 117.206-654.413 187.25-67.666 21.917-137.637 44.58-208.817 66.827-45.329 14.163-86.271 26.687-125.166 38.289-89.467 26.697-196.351 56.133-310.784 72.028-127.173 17.666-243.095 16.023-354.39-5.024-108.436-20.506-214.331-60.956-314.744-120.229-80.603-47.58-158.113-107.485-230.372-178.052-39.981-38.995-76.633-78.63-112.078-116.96-77.116-83.397-149.955-162.169-252.231-232.003-63.598-43.447-137.805-81.208-220.562-112.237-193.038-72.55-411.043-100.888-613.859-79.794-266.198 27.796-502.404 139.417-631.842 298.58-159.488 195.624-169.168 449.888-25.262 663.569l-5.102 1.371c-144.677-214.827-134.96-470.439 25.361-667.083 64.019-78.718 156.839-148.021 268.429-200.412 110.308-51.791 237.236-86.332 367.075-99.891 103.655-10.781 211.234-8.789 319.751 5.92 103.763 14.064 203.955 39.077 297.796 74.346 83.284 31.226 157.981 69.239 222.011 112.982 102.79 70.185 175.817 149.16 253.134 232.772 35.402 38.287 72.013 77.877 111.906 116.786 163.601 159.766 345.823 259.547 541.612 296.57 235.339 44.505 457.016-5.829 661.513-66.85 38.868-11.593 79.784-24.11 125.086-38.263 71.147-22.239 141.103-44.897 208.754-66.807 216.418-70.096 420.833-136.303 655.051-187.423 56.864-12.322 114.782-23.413 172.142-32.964 168.386-28.394 341.822-44.81 515.487-48.791 192.707-4.42 382.465 6.681 563.994 32.994 83.372 12.085 168.475 27.576 260.173 47.358 297.177 64.008 555.259 152.979 804.843 239.02 32.812 11.311 66.741 23.008 100.065 34.406 143.746 48.914 299.419 99.451 463.727 137.679 473.295 110.739 1051.22 109.652 1594.19 9.893 284.72-52.313 559.741-131.711 805.25-236.38l3.288 3.378c-173.946 74.158-365.191 136.874-568.421 186.406-79.55 19.391-160.379 36.624-242.084 51.636" style="fill:rgba(255,255,255,0.5);fill-rule:nonzero"/>
    <path d="M5979.45 1183.07c-107.612 19.772-216.253 36.085-325.103 48.791-426.286 49.765-837.611 42.153-1189.5-22.017-163.126-29.502-316.303-70.007-457.533-109.384-39.638-11.129-80.058-22.596-119.147-33.684-240.964-68.356-490.135-139.039-776.783-194.693-92.932-18.078-177.062-32.381-257.193-43.728-434.046-61.445-817.756-40.672-1063.22-12.424-56.378 6.352-113.468 13.956-169.697 22.597-248.619 38.649-466.943 93.075-698.083 150.695-51.949 12.95-105.669 26.341-160.024 39.62-47.946 11.701-87.702 21.264-125.121 30.095-96.211 22.72-200.261 45.3-309.193 56.576-126.448 13.09-241.098 9.259-350.502-11.714-106.635-20.441-212.291-59.041-314.034-114.731-80.108-43.849-159.876-99.516-237.09-165.46-39.653-33.814-76.635-67.991-112.397-101.044-84.708-78.288-164.718-152.234-272.716-216.375-65.525-38.941-140.478-72.237-222.772-98.963-192.858-62.819-407.439-83.529-604.218-58.318-259.467 33.377-490.34 146.602-617.57 302.883-163.725 200.565-176.034 461.18-32.124 680.144l-4.812 1.253c-71.59-108.929-106.141-230.234-99.919-350.801 6.152-119.216 51.853-234.23 132.163-332.608 127.9-157.104 359.983-270.932 620.835-304.478 197.868-25.353 413.628-4.529 607.541 58.633 82.78 26.884 158.19 60.383 224.128 99.57 108.502 64.442 188.707 138.567 273.622 217.044 35.727 33.021 72.67 67.165 112.252 100.918 174.065 148.655 358.469 242.459 548.089 278.805 237.739 45.574 463.579.763 656.594-44.816 37.402-8.827 77.145-18.387 125.073-30.084 54.341-13.274 108.051-26.663 159.993-39.611 231.289-57.658 449.748-112.121 698.681-150.815 56.325-8.658 113.51-16.273 169.973-22.636 165.491-19.044 336.546-28.248 508.406-27.353 189.809.986 377.123 14.38 556.745 39.808 80.263 11.366 164.52 25.691 257.584 43.793 286.969 55.715 536.296 126.444 777.413 194.843 39.083 11.087 79.496 22.553 119.118 33.678 141.048 39.326 294.017 79.776 456.838 109.224 450.345 82.121 991.238 69.062 1513.15-26.829 294.802-54.165 583.5-134.73 846.549-239.522l2.965 3.219c-175.323 69.844-365.506 130.114-565.268 179.14-93.346 22.909-188.114 43.198-283.696 60.759" style="fill:rgba(255,255,255,0.5);fill-rule:nonzero"/>
    <path d="M5885.53 1176.07c-85.448 15.699-171.336 29.491-257.288 41.28-204.482 28.045-405.89 44.195-598.627 48.001-200.042 3.949-389.957-5.447-564.465-27.928-162.378-20.652-318.889-52.472-450.572-80.877-55.756-12.144-112.854-24.797-168.072-37.032-223.728-49.577-455.073-100.84-719.779-146.532-97.832-16.927-178.785-29.697-254.76-40.193-432.25-59.694-809.262-55.05-1049.42-40.641-55.54 3.188-111.921 7.326-167.59 12.295-280.315 25.557-517.223 67.34-791.54 115.721-20.326 3.584-40.799 7.195-61.45 10.828l-19.857 3.488c-34.227 6.015-69.62 12.233-105.214 18.419-100.9 17.541-200.351 33.888-307.601 41.13-125.824 8.498-239.205 2.481-346.622-18.395-104.775-20.361-210.195-57.116-313.333-109.245-80.315-40.591-160.062-90.597-243.801-152.872-37.92-28.156-73.875-56.462-108.646-83.834-93.647-73.725-182.099-143.359-297.271-202.045-67.48-34.408-143.178-63.236-224.992-85.682-192.59-53.04-403.746-66.121-594.576-36.832-252.723 38.92-478.246 153.761-603.288 307.186-167.974 205.522-182.915 472.486-38.989 696.715l-4.515 1.141c-71.76-111.801-105.713-236.113-98.185-359.495 7.429-121.776 54.909-239.431 137.304-340.243 62.495-76.681 151.535-145.499 257.492-199.015 104.231-52.644 224.805-90.56 348.685-109.638 191.786-29.436 403.994-16.29 597.538 37.012 82.25 22.566 158.367 51.555 226.235 86.161 115.663 58.936 204.312 128.725 298.168 202.613 34.741 27.352 70.669 55.636 108.538 83.752 187.725 139.609 369.125 224.991 554.569 261.028 245.859 47.781 480.408 7.004 651.669-22.771 35.589-6.184 70.978-12.403 105.204-18.416l19.855-3.49c20.649-3.63 41.124-7.242 61.446-10.826 263.044-46.392 511.496-90.211 792.094-115.794 55.748-4.976 112.202-9.119 167.804-12.312 162.309-9.737 330.981-11.729 501.324-5.923 186.708 6.366 371.589 22.052 549.504 46.622 76.061 10.507 157.09 23.291 255.007 40.23 264.872 45.721 496.302 97.004 720.111 146.599 55.213 12.234 112.306 24.884 168.038 37.025 131.527 28.371 287.847 60.153 449.956 80.769 421.676 54.323 921.508 30.507 1417.89-60.693 308.517-56.683 615.642-139.367 902.056-245.53l2.653 3.054c-280.551 103.989-588.486 187.456-902.685 245.185" style="fill:rgba(255,255,255,0.5);fill-rule:nonzero"/>
    <path d="M5763.75 1175.18c-54.013 9.925-107.879 19.147-161.613 27.663-200.834 31.828-397.523 53.399-584.608 64.113-195.659 11.206-381.406 10.544-552.085-1.964-161.67-11.564-314.971-32.964-443.608-52.37-120.836-18.503-241.692-37.946-369.646-58.529-160.662-25.844-326.795-52.571-510.116-80.21-88.87-13.436-169.197-25.467-252.326-36.656-338.171-45.5-705.958-69.959-1035.61-68.868-54.665.031-110.339.699-165.486 1.988-286.942 7.274-537.16 29.417-847.874 62.784-43.95 4.707-87.863 9.575-125.02 13.717l-10.273 1.148c-91.137 10.179-194.435 21.716-301.673 24.722-122.94 3.447-233.112-4.811-336.814-25.247-104.273-20.546-206.54-54.488-312.64-103.763-79.808-37.064-159.407-81.643-250.502-140.293-34.102-21.917-66.965-43.851-98.744-65.062-104.654-69.854-203.506-135.833-327.984-189.277-69.455-29.844-145.9-54.202-227.217-72.398-192.208-43.218-399.939-48.665-584.935-15.336-249.574 45.123-464.293 158.651-588.996 311.49-172.24 210.496-189.81 483.81-45.856 713.285l-4.215 1.033c-71.933-114.669-105.285-241.986-96.452-368.19 8.704-124.332 57.962-244.626 142.448-347.879 61.739-75.67 148.891-144.248 252.029-198.319 100.217-52.539 216.312-91.88 335.945-113.86 1.187-.219 2.366-.434 3.554-.648 95.645-17.231 196.371-24.303 299.389-21.02 97.549 3.111 194.496 15.365 288.146 36.421 81.703 18.283 158.528 42.763 228.334 72.758 124.952 53.647 223.999 119.757 328.861 189.75 31.763 21.2 64.608 43.123 98.673 65.015 138.271 89.022 326.996 197.118 561.047 243.234 231.653 45.651 446.717 21.629 636.464.437l10.273-1.148c37.165-4.143 81.087-9.011 125.046-13.72 310.874-33.384 561.235-55.539 848.404-62.818 55.203-1.291 110.926-1.962 165.632-1.99 158.474-.525 324.764 4.689 494.246 15.497 183.108 11.678 365.556 29.653 542.274 53.431 83.182 11.195 163.537 23.233 252.436 36.672 183.352 27.643 349.501 54.372 510.181 80.22 127.94 20.581 248.785 40.021 369.59 58.521 128.495 19.385 281.633 40.761 443.076 52.31 656.203 48.09 1508.6-81.296 2280.17-346.106l2.352 2.881c-312.921 107.397-650.167 195.192-984.278 256.581" style="fill:rgba(255,255,255,0.5);fill-rule:nonzero"/>
    <path d="M5598.28 1184.28c-7.433 1.366-14.84 2.715-22.256 4.056-410.677 74.242-784.236 109.304-1110.3 104.214-161.57-2.228-311.392-13.316-436.64-23.868-295.463-25.583-572.44-55.42-871.67-93.901-45.579-5.879-92.712-12.188-138.296-18.289-36.403-4.873-74.046-9.911-111.587-14.828-341.361-44.686-704.235-79.172-1021.78-97.104-60.943-3.441-114.383-6.164-163.373-8.324-292.057-12.283-544.101-12.576-842.764-.984-38.683 1.491-79.561 3.301-124.97 5.533-13.865.683-27.907 1.403-42.121 2.13-180.231 9.232-384.51 19.695-601.19-23.605-221.391-44.238-411.952-139.077-569.161-226.014-27.105-14.962-53.674-29.91-79.367-44.366-118.895-66.895-231.197-130.081-368.174-178.435-71.43-25.24-148.627-45.127-229.448-59.107-194.45-33.847-393.39-31.711-575.288 6.173-242.703 50.697-452.171 165.801-574.692 315.795-176.516 215.482-196.72 495.143-52.726 729.85l-3.912.931c-72.107-117.533-104.859-247.857-94.719-376.886 9.971-126.884 61.006-249.819 147.59-355.515 122.988-150.567 333.256-266.11 576.889-317.002 93.031-19.375 191.48-29.467 292.608-29.99 95.534-.495 191.399 7.509 284.928 23.791 81.156 14.038 158.686 34.012 230.433 59.362 137.429 48.515 249.923 111.808 369.021 178.818 25.687 14.451 52.246 29.396 79.336 44.348 156.841 86.733 346.918 181.342 567.517 225.422 215.913 43.148 419.783 32.705 599.654 23.492 14.218-.729 28.264-1.447 42.132-2.131 45.432-2.232 86.331-4.044 125.032-5.536 298.839-11.598 551.03-11.304 843.266.986 49.023 2.161 102.488 4.885 163.459 8.326 317.69 17.942 680.728 52.443 1022.24 97.151 37.55 4.917 75.197 9.955 111.606 14.827 45.575 6.101 92.701 12.408 138.266 18.287 299.137 38.469 576.032 68.297 871.401 93.872 125.129 10.542 274.816 21.62 436.198 23.845 617.016 9.633 1433.6-131.056 2240.37-385.992l2.063 2.699c-366.954 115.956-750.088 211.919-1109.57 277.969" style="fill:rgba(255,255,255,0.5);fill-rule:nonzero"/>
    <path d="M5358.03 1211.07c-331.037 60.824-630.363 97.431-892.059 109.028-127.401 5.878-259.917 7.305-429.675 4.627-251.369-4.554-529.958-13.648-863.56-49.049-84.875-9.041-172.223-20.007-247.429-29.574l-85.176-10.835c-334.69-42.587-650.818-82.813-922.743-114.516l-13.333-1.556c-51.381-5.99-99.909-11.65-147.931-17.082-293.633-32.627-548.456-56.125-837.655-64.755-39.426-1.185-81.454-2.076-124.923-2.649-25.898-.339-51.886-.518-79.4-.71-168.463-1.172-359.401-2.499-558.483-42.852-215.291-43.633-402.199-126.675-575.189-207.99-15.224-7.142-30.254-14.227-45.136-21.243-138.287-65.192-268.904-126.768-423.226-170.019-73.396-20.595-151.345-36.006-231.681-45.806-193.709-23.839-389.301-14.263-565.632 27.691-235.762 56.244-440.014 172.915-560.378 320.099-183.545 223.825-205.823 502.856-59.597 746.414l-3.605.833c-72.282-120.393-104.436-253.725-92.99-385.582 11.235-129.433 64.05-255.01 152.733-363.154 61.107-74.725 142.233-140.982 241.118-196.933 96.578-54.646 204.626-96.447 321.145-124.245 176.932-42.096 373.184-51.705 567.544-27.786 80.623 9.835 158.856 25.304 232.526 45.975 154.754 43.373 285.56 105.038 424.047 170.324 14.881 7.014 29.907 14.099 45.129 21.239 172.703 81.181 359.281 164.08 573.974 207.592 198.535 40.242 389.179 41.568 557.381 42.738 27.522.192 53.52.371 79.437.711 43.499.572 85.561 1.465 125.015 2.65 289.393 8.636 544.347 32.146 838.126 64.786 48.036 5.437 96.571 11.096 147.954 17.087l13.336 1.556c271.955 31.707 588.097 71.934 922.801 114.522l85.175 10.838c75.181 9.563 162.491 20.523 247.314 29.558 333.377 35.379 611.819 44.466 863.049 49.018 169.63 2.677 302.043 1.252 429.328-4.623 261.13-11.572 558.189-47.952 889.009-108.734 390.999-71.838 829.199-177.752 1311.52-317.156l1.789 2.51c-403.624 116.66-779.699 210.802-1117.78 279.811-65.052 13.279-129.053 25.701-191.868 37.242" style="fill:rgba(255,255,255,0.5);fill-rule:nonzero"/>
    <path d="M5000.23 1268.21c-195.466 35.914-372.35 62.19-534.041 79.431-127.138 13.785-261.461 24.309-422.712 33.117-239.206 12.525-522.303 23.564-855.427-4.183-72.124-6.035-149.963-14.306-244.97-26.028-370.219-45.666-725.693-106.079-994.021-153.606-51.3-9.229-103.359-18.7-159.153-28.957-15.772-2.868-31.442-5.723-47.02-8.561-273.004-49.731-508.778-92.679-785.53-119.964-39.916-3.943-81.93-7.587-124.877-10.828-40.378-3.047-81.439-5.611-124.914-8.325-154.051-9.621-328.656-20.526-507.57-57.314C-8.486 920.128-193.14 847.243-356.056 782.94c-8.469-3.342-16.864-6.656-25.187-9.935-159.529-62.729-310.213-121.98-489.189-159.724-75.324-15.906-154.023-26.84-233.912-32.498-192.724-13.841-384.97 3.181-555.965 49.221-232.146 62.657-426.072 177.865-546.054 324.402-187.91 228.917-212.758 514.141-66.468 762.976l-3.296.742c-72.457-123.249-104.017-259.59-91.263-394.281 12.499-131.976 67.089-260.196 157.877-370.794 60.361-73.723 139.652-139.75 235.668-196.243 93.565-55.051 198.529-98.489 311.978-129.11 171.492-46.175 364.294-63.244 557.567-49.364 80.123 5.674 159.064 16.641 234.622 32.597 179.389 37.83 330.257 97.154 489.984 159.962 8.326 3.281 16.722 6.595 25.19 9.936C-191.772 845.058-7.328 917.86 200.721 960.634c178.553 36.714 352.963 47.605 506.842 57.216 43.489 2.717 84.568 5.282 124.98 8.329 42.987 3.246 85.043 6.894 124.998 10.841 276.966 27.304 512.84 70.271 785.956 120.023 15.577 2.838 31.247 5.692 47.022 8.561 55.795 10.257 107.845 19.727 159.13 28.953 268.26 47.515 623.647 107.913 993.744 153.564 94.934 11.712 172.712 19.977 244.764 26.006 332.797 27.722 615.689 16.69 854.721 4.174 161.159-8.804 295.394-19.32 422.451-33.097 648.965-69.199 1397.99-265.705 2122.35-455.744l38.303-10.048 1.531 2.315-38.303 10.048c-356.081 93.418-724.284 190.018-1084.88 271.984-180.927 41.126-348.411 75.846-504.095 104.451" style="fill:rgba(255,255,255,0.5);fill-rule:nonzero"/>
    <path d="M4552.93 1359.79c-29.017 5.331-57.843 10.458-86.551 15.382-128.091 22.182-264.085 42.334-415.756 61.602-250.561 31.302-522.37 60.228-847.259 40.689-74.019-4.478-153.343-11.832-242.504-22.482-296.572-35.416-626.326-96.603-980.1-181.863-51.124-12.453-102.487-25.3-157.029-39.276-52.13-13.261-103.676-26.624-153.526-39.544-223.717-57.989-435.026-112.761-673.921-152.754-40.159-6.731-82.163-13.128-124.837-19.01-58.779-8.098-119.396-15.037-183.571-22.383-142.091-16.266-289.019-33.085-443.544-65.322-179.634-37.473-348.08-93.138-496.697-142.248-31.427-10.386-61.109-20.196-90.61-29.753C-530.962 702.04-681.855 659.393-853 634.642c-77.19-11.182-156.638-17.635-236.139-19.18-191.434-3.895-380.334 20.573-546.285 70.761-225.015 68.189-413.851 184.925-531.716 328.703-192.285 234.023-219.704 525.438-73.341 779.535l-2.984.654c-36.809-63.903-63.058-131.151-78.022-199.873-14.575-66.951-18.449-135.284-11.514-203.104 13.754-134.519 70.123-265.38 163.018-378.437 118.162-144.142 307.467-261.17 533.043-329.529 166.351-50.309 355.709-74.837 547.6-70.933 79.692 1.548 159.338 8.016 236.72 19.227 171.473 24.799 322.573 67.501 510.791 128.363 29.511 9.562 59.2 19.373 90.634 29.761 148.502 49.073 316.818 104.694 496.196 142.113 154.312 32.195 301.131 49 443.116 65.254 64.203 7.349 124.845 14.292 183.678 22.397 42.722 5.888 84.769 12.292 124.974 19.031 239.096 40.027 450.501 94.823 674.32 152.838 49.846 12.921 101.388 26.28 153.512 39.542 54.527 13.971 105.872 26.815 156.974 39.262 353.59 85.214 683.16 146.37 979.551 181.762 89.069 10.641 168.3 17.986 242.225 22.458 324.495 19.516 596.068-9.387 846.418-40.662 151.6-19.261 287.533-39.402 415.564-61.577 420.562-72.109 874.349-189.376 1354.78-313.518 251.487-64.983 511.536-132.18 765.957-192.178l1.287 2.113c-254.381 59.987-514.41 127.179-765.876 192.158-447.726 115.692-872.35 225.411-1268.55 298.207" style="fill:rgba(255,255,255,0.5);fill-rule:nonzero"/>
    <path d="M3925.85 1518.21c-212.484 39.041-442.693 69.827-707.191 60.136-75.201-2.779-153.712-8.972-240.024-18.934-299.271-34.53-624.329-105.225-966.138-210.12-50.288-15.548-100.956-31.77-154.9-49.595-68.759-22.607-136.402-45.624-201.818-67.88-205.605-69.957-399.809-136.035-620.529-188.196-40.291-9.529-82.281-18.677-124.804-27.191-83.989-16.81-171.968-31.007-265.112-46.037-115.029-18.562-233.977-37.758-356.668-63.731-144.402-30.569-280.653-68.351-412.418-104.89-63.084-17.493-122.667-34.015-180.983-49.143-211.145-54.661-369.908-83.563-530.87-96.644-78.946-6.432-159.141-8.401-238.357-5.854-189.791 5.954-375.338 37.872-536.593 92.309-217.83 73.658-401.568 191.922-517.368 333.004-196.673 239.139-226.66 536.744-80.215 796.092l-2.669.568c-36.922-65.389-63.073-134.14-77.73-204.344-14.268-68.354-17.659-138.11-10.079-207.331 15.006-137.057 73.156-270.561 168.16-386.079 58.898-71.76 134.528-137.322 224.782-194.87 87.612-55.859 186.417-102.571 293.669-138.84 161.577-54.544 347.493-86.526 537.649-92.491 79.37-2.553 159.724-.58 238.828 5.866 161.215 13.101 320.192 42.04 531.582 96.764 58.349 15.137 117.95 31.664 181.049 49.162 131.707 36.52 267.895 74.285 412.173 104.827 122.591 25.954 241.485 45.14 356.466 63.694 93.184 15.037 181.2 29.24 265.267 46.067 42.57 8.521 84.608 17.68 124.946 27.221 220.91 52.206 415.2 118.313 620.9 188.302 65.406 22.254 133.039 45.266 201.781 67.869 53.925 17.817 104.569 34.031 154.827 49.571 341.566 104.821 666.373 175.464 965.391 209.964 86.202 9.948 164.605 16.133 239.694 18.908 319.689 11.714 589.349-35.808 838.149-85.493 142.448-28.715 276.129-58.173 408.674-90.059 265.724-63.512 542.513-141.753 835.55-224.587 403.867-114.163 821.485-232.212 1245.23-321.012l1.061 1.904c-423.624 88.775-841.185 206.807-1245 320.953-293.073 82.845-569.892 161.095-835.682 224.624-132.587 31.895-266.308 61.363-408.805 90.088-43.271 8.64-87.188 17.217-131.877 25.428" style="fill:rgba(255,255,255,0.5);fill-rule:nonzero"/>
    <path d="M3688.12 1638.89c-140.839 25.879-290.88 42.437-454.175 40.35-75.679-.989-153.376-6.021-237.538-15.386-159.058-17.693-327.201-49.442-499.759-94.367-148.19-38.58-300.394-87.032-452.378-144.007-49.356-18.595-99.324-38.193-152.766-59.913-77.046-31.209-152.805-63.308-226.067-94.347-195.554-82.854-380.263-161.112-591.177-225.511-40.366-12.331-82.348-24.231-124.777-35.371-122.476-32.153-253.25-58.228-391.703-85.833-73.041-14.565-148.57-29.625-224.776-45.998-94.648-20.336-187.897-42.422-278.074-63.781-112.378-26.615-218.526-51.757-321.452-72.298-205.254-40.881-380.566-61.566-551.723-65.1-80.558-1.675-161.497.841-240.57 7.479-190.4 15.861-367.666 54.171-526.88 113.863-213.625 80.196-387.563 196.832-503.006 337.302-201.072 244.269-233.629 548.062-87.094 812.646l-2.35.49c-37.037-66.873-63.092-137.129-77.44-208.818-13.964-69.756-16.873-140.934-8.648-211.557 16.258-139.592 76.185-275.74 173.305-393.723 58.186-70.8 131.986-136.134 219.347-194.184 84.679-56.27 180.408-104.62 284.526-143.705 80.805-30.297 167.883-55.457 258.807-74.782 86.577-18.401 177.051-31.611 268.906-39.264 79.193-6.648 160.259-9.168 240.941-7.49 171.379 3.539 346.9 24.247 552.369 65.172 102.993 20.553 209.17 45.701 321.582 72.326 90.16 21.354 183.389 43.434 278 63.762 76.179 16.369 151.694 31.426 224.721 45.986 138.509 27.618 269.336 53.704 391.917 85.883 42.475 11.153 84.501 23.067 124.911 35.413 211.087 64.448 395.876 142.741 591.513 225.629 73.252 31.036 148.997 63.128 226.02 94.329 53.417 21.709 103.36 41.297 152.684 59.881 333.127 124.877 653.18 205.01 951.269 238.167 84.04 9.351 161.619 14.377 237.174 15.362 316.616 4.05 583.592-62.16 829.908-130.323 130.754-36.391 262.177-75.166 401.777-118.544 151.9-47.003 305.052-97.109 467.199-150.157 246.516-80.65 501.424-164.047 764.044-240.035 296.737-85.858 561.203-149.684 808.418-195.105.378-.07.735-.135 1.113-.204l.854 1.687c-.373.069-.788.145-1.159.213-552.722 101.552-1070.87 271.075-1572.02 435.032-162.159 53.053-315.323 103.161-467.243 150.171-139.626 43.385-271.077 82.169-401.86 118.567-119.57 33.088-244.041 65.725-376.67 90.093" style="fill:rgba(255,255,255,0.5);fill-rule:nonzero"/>
    <path d="M3570.93 1748.33c-101.6 18.667-208.357 30.502-321.724 31.797-74.719.84-153.797-3.142-235.035-11.834-157.224-16.819-322.99-50.864-492.69-101.193-146.613-43.481-296.473-99.139-445.415-165.427-48.442-21.629-97.71-44.601-150.625-70.23-81.074-39.187-160.91-79.823-238.119-119.12-189.553-96.478-368.595-187.607-574.028-264.524-40.398-15.128-82.37-29.783-124.75-43.555-192.659-62.599-405.438-109.011-611.209-153.894l-16.08-3.508c-206.139-44.973-400.844-87.45-589.605-114.63-204.221-29.351-391.514-40.327-572.581-33.551-82.001 3.06-163.682 10.064-242.774 20.816-187.807 25.448-361.805 71.009-517.155 135.424-206.175 85.564-375.142 203.688-488.632 341.596-205.477 249.411-240.604 559.393-93.969 829.202l-2.033.411c-37.151-68.356-63.108-140.117-77.152-213.29-13.655-71.158-16.082-143.758-7.21-215.783 17.503-142.125 79.21-280.917 178.445-401.37 113.65-138.105 282.851-256.391 489.307-342.074 155.546-64.496 329.759-110.114 517.793-135.592 79.188-10.764 160.967-17.777 243.065-20.841 181.258-6.783 368.737 4.202 573.148 33.581 188.876 27.198 383.638 69.687 589.833 114.671l16.079 3.507c205.847 44.9 418.702 91.33 611.506 153.975 42.421 13.786 84.435 28.455 124.874 43.599 205.582 76.972 384.69 168.134 574.315 264.649 77.197 39.292 157.021 79.92 238.07 119.096 52.892 25.618 102.134 48.577 150.547 70.194 321.444 143.063 645.516 235.175 937.183 266.376 81.117 8.681 160.067 12.655 234.663 11.816 314.53-3.596 578.388-88.502 821.693-175.158 116.883-41.766 242.357-88.486 394.875-147.029 69.752-26.707 141.67-54.579 211.221-81.534 274.748-106.481 558.849-216.586 856.222-313.127 336.69-109.306 641.959-184.774 933.284-230.733l.665 1.466c-651.005 102.691-1229.52 326.899-1788.98 543.721-69.554 26.956-141.472 54.828-211.227 81.536-152.535 58.551-278.024 105.276-394.926 147.047-155.87 55.517-320.193 110.319-500.872 143.517" style="fill:rgba(255,255,255,0.5);fill-rule:nonzero"/>
    <path d="M3496.32 1855.41c-78.254 14.378-155.098 22.835-231.844 25.599-74.626 2.68-152.859-.106-232.53-8.281-155.273-15.933-318.654-52.274-485.601-108.019-144.794-48.345-292.307-111.21-438.436-186.844-47.453-24.598-96.022-50.943-148.48-80.542-82.65-46.59-164.249-95.217-243.162-142.243-177.686-105.886-361.419-215.378-563.883-305.188-40.403-17.925-82.366-35.333-124.726-51.74-169.426-65.624-367.642-123.183-605.975-175.967-227.9-50.47-428.045-83.247-611.876-100.203-207.978-19.156-402.095-19.81-593.441-1.996-83.27 7.746-165.689 19.243-244.972 34.156-184.689 34.703-355.408 87.521-507.414 156.987-198.616 90.808-362.609 210.414-474.245 345.886-209.894 254.563-247.592 570.734-100.846 845.755l-1.713.338c-146.93-275.369-109.193-591.926 100.947-846.789 56.819-68.952 126.966-133.828 208.491-192.826 78.938-57.127 168.521-108.749 266.262-153.437 152.152-69.531 323.03-122.399 507.889-157.135 79.353-14.932 161.849-26.434 245.194-34.187 191.507-17.828 385.783-17.175 593.926 1.996 183.944 16.968 384.199 49.761 612.209 100.257 238.461 52.811 436.798 110.407 606.345 176.077 42.395 16.421 84.395 33.844 124.833 51.783 202.587 89.865 386.378 199.392 564.118 305.31 78.9 47.019 160.49 95.64 243.119 142.218 52.435 29.587 100.981 55.92 148.41 80.506 219.735 113.73 558.261 257.16 923.133 294.598 79.549 8.163 157.66 10.944 232.162 8.27 313.043-11.278 573.532-114.865 813.504-220.002 129.711-56.913 257.531-115.499 387.964-175.516l42.871-19.71c290.179-133.438 590.238-271.418 906.739-387.424 170.897-62.64 330.844-113.243 488.975-154.701 178.256-46.733 349.019-80.571 522.055-103.442l.502 1.241c-68.637 9.072-136.35 19.833-203.022 32.082-633.559 116.404-1182 368.612-1714.14 613.316l-42.872 19.709c-130.44 60.021-258.267 118.609-387.992 175.528-117.225 51.359-244.567 104.55-381.417 145.65-68.524 20.579-135.29 36.845-201.061 48.93" style="fill:rgba(255,255,255,0.5);fill-rule:nonzero"/>
    <path d="M3446.02 1961.52c-55.798 10.253-111.057 17.007-166.304 20.376-439.665 26.808-862.585-163.473-1139.95-327.82-135.631-80.367-265.014-168.923-390.137-254.565-175.532-120.145-357.04-244.38-558.137-347.514-639.913-328.178-1505.43-431.483-2205.04-263.184-419.352 100.882-759.402 288.654-957.504 528.728-214.32 259.724-254.59 582.082-107.727 862.304l-1.387.268c-37.381-71.323-63.145-146.095-76.576-222.236-13.048-73.962-14.51-149.406-4.346-224.238 19.989-147.181 85.252-291.261 188.731-416.664 100.88-122.252 237.816-230.815 407.006-322.67 162.098-88.006 347.549-157.468 551.204-206.461 345.254-83.056 734.535-102.28 1125.74-55.587 391.202 46.693 764.907 156.981 1080.71 318.941 201.195 103.182 382.747 227.448 558.321 347.621 125.1 85.626 254.46 174.168 390.046 254.507 277.129 164.207 699.656 354.327 1138.79 327.552 311.939-19.024 579.26-146.684 805.331-264.853 107.494-56.188 216.483-115.084 321.887-172.041 296.647-160.303 603.395-326.063 927.303-459.519 174.556-71.918 339.343-128.662 503.777-173.473 184.844-50.374 364.292-84.431 548.6-104.12l.356 1.01c-766.968 81.934-1383.16 414.913-1979.06 736.929-105.407 56.959-214.403 115.858-321.904 172.05-115.132 60.179-240.458 122.687-376.734 172.15-90.082 32.695-177.163 56.738-262.992 72.509" style="fill:rgba(255,255,255,0.5);fill-rule:nonzero"/>
    <path d="m-2764.88 1105.12-1.388-.448 401.874-704.019c28.235-49.464 63.769-106.179 113.24-151.79 54.875-50.595 117.394-79.074 191.131-87.064 117.221-12.704 214.597 32.259 275.643 72.214 75.428 49.371 139.213 119.718 174.999 193.005 21.686 44.411 38.183 91 54.137 136.055 33.928 95.811 69.01 194.886 155.85 276.895 177.484 167.612 519.73 206.891 766.075 159.058 267.97-52.03 478.405-187.146 654.614-309.707 18.342-12.758 36.972-25.82 54.988-38.451 167.526-117.46 340.757-238.921 559.71-311.467 45.111-14.946 99.252-30.301 158.792-30.857 72.982-.677 147.633 21.125 215.877 63.063 58.212 35.77 111.29 85.982 149.46 141.387 24.548 35.635 45.296 73.197 65.362 109.522 37.795 68.426 76.878 139.183 142.686 199.022 179.266 163.008 502.551 197.698 724.929 177.876 190.609-16.992 369.121-66.829 541.757-115.024 60.397-16.861 122.848-34.296 184.9-50.067 139.278-35.398 262.355-56.979 376.256-65.976 142.668-11.269 269.821-3.162 388.731 24.78 107.49 25.26 212.873 68.11 322.168 131.003 97.517 56.114 189.409 122.843 278.273 187.375 91.414 66.383 185.94 135.026 287.62 193.035 233.48 133.201 521.086 212.441 809.416 232.755 257.545 18.148 515.653-10.68 736.554-90.005l.776.915c-114.649 41.171-241.422 69.35-376.795 83.757-131.919 14.039-268.781 14.7-406.806 1.951-138.02-12.743-273.24-38.524-401.911-76.626-132.042-39.098-253.874-90.233-362.115-151.985-101.757-58.054-196.318-126.722-287.766-193.13-177.301-128.751-360.64-261.887-599.774-318.08-213.372-50.141-456.144-37.051-764.006 41.196-62.032 15.764-124.475 33.197-184.86 50.056-172.717 48.216-351.311 98.076-542.098 115.084-133.457 11.897-274.584 3.44-397.382-23.807-137.676-30.55-251.451-83.981-329.019-154.514-65.951-59.97-105.076-130.804-142.914-199.304-20.053-36.305-40.79-73.848-65.311-109.441-65.424-94.969-199.978-205.329-363.853-203.795-59.265.553-113.234 15.862-158.21 30.763-218.746 72.478-391.897 193.882-559.346 311.288-18.016 12.632-36.646 25.695-54.99 38.453-176.326 122.643-386.912 257.851-655.194 309.942-133.096 25.841-281.4 25.956-417.6.321-147.834-27.826-268.919-83.089-350.164-159.814-87.033-82.191-122.152-181.374-156.118-277.292-15.946-45.033-32.436-91.598-54.1-135.966-35.703-73.117-99.33-143.294-174.566-192.539-60.779-39.781-157.71-84.551-274.318-71.914-156.746 16.987-238.424 124.566-303.341 238.292l-401.873 704.019Z" style="fill:rgba(255,255,255,0.5);fill-rule:nonzero"/>
    <path d="m-2732.75 1038.11-1.772-.555c149.048-271.835 275.943-489.006 399.347-683.451 27.622-43.523 66.271-99.124 120.434-143.13 57.144-46.427 121.038-71.876 195.333-77.803 117.366-9.402 215.063 36.479 276.358 76.625 75.663 49.556 140.804 119.899 178.716 192.992 23.592 45.464 41.891 93.196 59.589 139.355 36.318 94.736 73.875 192.7 158.984 274.855 180.348 173.243 512.577 211.707 744.933 174.126 264.078-42.706 473.598-166.09 649.256-278.385 26.308-16.723 53.067-34.003 78.945-50.716C291.556 555.987 461.33 446.341 670.462 377.31c37.008-12.216 66.112-19.934 94.366-25.025 22.206-4 43.034-6.177 63.674-6.656 37.813-.88 76.03 3.94 113.585 14.325 34.404 9.513 68.418 23.726 101.097 42.244 57.667 32.678 111.195 79.165 150.728 130.901 25.252 33.052 46.864 67.894 67.766 101.59 39.299 63.352 79.935 128.862 145.976 183.96 76.389 63.824 186.615 111.709 318.766 138.476 122.914 24.833 264.58 30.988 398.889 17.333 182.581-18.569 355.056-65.911 521.855-111.692 66.249-18.186 134.753-36.988 202.906-53.715 68.026-16.688 130.67-29.765 191.516-39.978 217.489-36.511 404.813-34.749 572.686 5.388 107.55 25.705 213.329 68.762 323.382 131.633 98.174 56.085 190.906 122.582 280.583 186.889 83.104 59.593 169.037 121.214 259.755 174.979 8.555 5.07 17.148 10.067 25.543 14.852 442.082 252.052 1075.67 316.629 1540.77 157.033l.959 1.176c-115.153 39.514-242.051 65.979-377.17 78.661-131.427 12.336-267.754 11.4-405.187-2.781-137.025-14.14-271.51-41.066-399.718-80.029-131.107-39.845-252.488-91.351-360.769-153.089-8.406-4.791-17.012-9.794-25.575-14.869-90.796-53.811-176.766-115.459-259.905-175.078-178.933-128.309-363.956-260.989-603.132-318.151-167.51-40.052-354.487-41.8-571.619-5.347-60.786 10.203-123.376 23.268-191.343 39.941-68.123 16.719-136.613 35.519-202.847 53.699-166.89 45.808-339.463 93.176-522.247 111.764-134.571 13.684-276.526 7.511-399.706-17.373-64.118-12.987-123.252-30.891-175.755-53.209-55.958-23.788-104.42-52.636-144.041-85.741-66.237-55.261-106.935-120.869-146.293-184.316-20.886-33.67-42.482-68.485-67.693-101.484-70.829-92.692-203.524-190.41-363.524-186.692-20.504.476-41.202 2.64-63.28 6.618-28.143 5.07-57.152 12.764-94.058 24.947-208.899 68.955-378.58 178.539-542.673 284.517-25.88 16.713-52.64 33.996-78.952 50.719-175.811 112.396-385.534 235.89-650.015 278.663-130.296 21.071-274.454 17.227-405.925-10.831-143.399-30.602-261.348-87.269-341.095-163.873-85.333-82.372-122.939-180.462-159.306-275.323-17.685-46.132-35.973-93.834-59.535-139.241-37.807-72.887-102.752-143.024-178.179-192.425-60.972-39.935-158.135-85.578-274.743-76.237-162.089 12.929-249.896 118.595-314.411 220.251-123.391 194.428-250.276 411.579-399.315 683.396" style="fill:rgba(255,255,255,0.5);fill-rule:nonzero"/>
    <path d="m-2700.62 971.097-2.161-.655c139.762-266.275 265.858-476.915 396.829-662.896 41.979-59.613 82.552-102.352 127.688-134.505 59.316-42.257 124.568-64.661 199.486-68.496 93.007-4.82 188.809 23.201 277.056 81.034 75.904 49.747 142.399 120.083 182.432 192.977 25.625 46.628 45.792 95.651 65.294 143.059 38.497 93.588 78.307 190.362 161.865 272.412 174.353 171.207 497.424 218.09 723.811 189.197 258.483-32.99 467.898-144.833 643.894-247.075 33.562-19.5 67.821-39.907 100.951-59.642 161.257-96.06 328.005-195.389 528.403-261.287 37.066-12.191 66.075-19.966 94.057-25.215 22.081-4.142 42.761-6.526 63.223-7.29 72.378-2.707 144.199 14.138 213.474 50.066 57.075 29.603 111.058 72.366 152.004 120.411 25.941 30.449 48.41 62.55 70.139 93.595 40.806 58.301 83.004 118.586 149.294 168.963 76.755 58.507 186.067 101.514 316.117 124.378 123.252 21.544 259.592 24.787 394.276 9.376 174.223-19.942 340.21-64.805 500.73-108.191 72.493-19.594 147.455-39.855 222.141-57.538 67.922-16.062 130.662-28.552 191.811-38.18 216.318-34.075 403.291-30.737 571.605 10.202 107.641 26.162 213.854 69.442 324.704 132.312 98.865 56.072 192.47 122.355 282.991 186.453 82.455 58.387 167.718 118.761 257.262 171.717 8.517 5.039 17.099 10.022 25.505 14.811 245.434 139.849 549.188 223.808 849.785 244.988 241.145 16.991 480.226-6.385 685.786-73.676l1.132 1.44c-115.651 37.858-242.674 62.608-377.549 73.566-130.921 10.636-266.702 8.109-403.565-7.518-136.018-15.527-269.766-43.596-397.524-83.429-130.155-40.58-251.083-92.458-359.425-154.191-8.417-4.796-17.011-9.787-25.542-14.832-89.633-53.008-174.937-113.412-257.432-171.828-180.631-127.906-367.413-260.166-606.709-318.327-167.879-40.835-354.435-44.155-570.324-10.146-61.072 9.616-123.745 22.091-191.593 38.139-74.644 17.671-149.585 37.927-222.06 57.515-160.621 43.413-326.711 88.306-501.158 108.271-134.985 15.445-271.647 12.196-395.217-9.405-63.227-11.116-121.712-26.928-173.836-47-55.435-21.349-103.732-47.56-143.545-77.906-66.54-50.569-108.819-110.971-149.706-169.386-21.706-31.013-44.153-63.081-70.041-93.47-73.143-85.821-206.97-175.449-363.199-169.602-20.305.758-40.837 3.126-62.769 7.239-27.855 5.225-56.757 12.975-93.707 25.126-200.152 65.817-366.797 165.086-527.954 261.085-33.133 19.737-67.396 40.148-100.97 59.652-176.194 102.358-385.861 214.33-644.847 247.383-127.583 16.282-267.666 8.505-394.444-21.9-139.108-33.363-253.848-91.466-331.813-168.025-83.807-82.296-123.675-179.213-162.231-272.938-19.488-47.375-39.64-96.361-65.229-142.921-78.696-143.293-260.939-283.029-456.977-272.874-168.327 8.614-262.359 112.595-325.473 202.22-130.939 185.933-257.007 396.53-396.745 662.757" style="fill:rgba(255,255,255,0.5);fill-rule:nonzero"/>
    <path d="M5435.22 1494.47c-39.328-2.77-78.832-6.637-118.431-11.595-134.996-16.907-268.002-46.123-395.327-86.834-129.185-41.307-249.659-93.553-358.074-155.29-8.369-4.767-16.951-9.743-25.51-14.793-88.393-52.167-172.946-111.288-254.716-168.461-182.409-127.545-371.03-259.433-610.533-318.623-168.305-41.641-354.436-46.53-569.033-14.943-61.334 9.021-124.089 20.907-191.84 36.337-81.637 18.619-163.469 40.437-242.609 61.538-153.87 41.024-312.976 83.447-478.721 104.569-133.46 17.003-268.565 16.505-390.718-1.433-62.333-9.248-120.171-22.971-171.91-40.788-54.915-18.912-103.043-42.486-143.051-70.066-66.877-45.89-110.752-101.114-153.183-154.519-22.511-28.335-45.789-57.631-72.329-85.385-36.647-38.296-171.125-162.469-362.885-152.533-20.105 1.039-40.472 3.611-62.263 7.862-35.317 6.89-68.445 17.142-93.361 25.305-188.355 61.704-349.246 149.895-504.84 235.185-45.169 24.758-87.831 48.145-131.398 71.061-85.951 45.211-189.036 96.988-301.921 138.22-115.357 42.134-225.841 67.608-337.765 77.876-124.772 11.446-260.733-.284-382.842-33.03-134.704-36.124-246.267-95.641-322.632-172.117-82.029-82.148-124.065-177.738-164.715-270.178-21.432-48.738-43.594-99.135-71.355-146.97-41.987-72.416-109.569-142.476-185.414-192.215-87.993-57.703-183.312-87.058-275.642-84.878-175.913 3.981-276.311 107.031-336.526 184.196-136.59 175.042-265.523 385.077-394.163 642.108l-2.557-.746c128.686-257.117 257.669-467.232 394.321-642.353 42.898-54.977 87.062-96.164 135.012-125.919 60.524-37.557 129.018-57.456 203.576-59.144 93.111-2.195 189.151 27.353 277.739 85.446 76.154 49.941 144 120.271 186.143 192.955 27.807 47.916 49.988 98.355 71.439 147.133 40.585 92.293 82.552 187.727 164.316 269.61 169.807 170.055 475.291 225.123 702.708 204.258 229.526-21.054 421.258-101.482 638.522-215.766 43.549-22.909 86.205-46.29 131.362-71.043 155.699-85.345 316.697-173.598 505.302-235.382 25-8.191 58.249-18.481 93.742-25.404 21.957-4.282 42.488-6.873 62.767-7.923 71.534-3.705 142.946 10.948 212.255 43.555 72.321 34.026 123.274 78.549 153.285 109.909 26.607 27.826 49.915 57.162 72.456 85.533 42.327 53.274 86.093 108.361 152.659 154.038 77.127 53.171 185.524 91.31 313.477 110.293 121.796 17.887 256.545 18.379 389.666 1.421 165.516-21.093 324.515-63.486 478.277-104.484 79.167-21.106 161.03-42.934 242.723-61.566 67.842-15.449 130.679-27.351 192.106-36.386 100.153-14.741 196.065-21.56 285.07-20.265 100.692 1.461 196.733 13.334 285.447 35.284 107.768 26.633 214.452 70.152 326.144 133.042 99.602 56.082 194.117 122.169 285.524 186.083 81.723 57.143 166.229 116.229 254.524 168.337 8.544 5.044 17.115 10.012 25.471 14.77 449.798 256.136 1064.81 330.719 1530.38 185.592l1.29 1.705c-116.133 36.202-243.286 59.238-377.925 68.469-92.521 6.342-187.476 6.109-283.513-.658" style="fill:rgba(255,255,255,0.5);fill-rule:nonzero"/>
    <path d="M5486.64 1480.67c-47.404-3.339-95.085-8.276-142.919-14.801-133.955-18.279-266.221-48.639-393.123-90.238-128.195-42.021-248.211-94.636-356.718-156.388-8.346-4.748-16.92-9.712-25.485-14.755-87.067-51.276-170.773-109.068-251.718-164.958-184.278-127.234-374.832-258.8-614.638-319.057-168.789-42.467-354.497-48.925-567.745-19.736-61.594 8.421-124.428 19.718-192.087 34.534-89.152 19.561-178.363 43.073-264.635 65.812-146.585 38.635-298.161 78.584-454.797 100.615-131.951 18.551-265.502 20.812-386.208 6.54-126.483-15.2-234.553-48.668-312.531-96.787-67.25-41.228-112.743-91.293-156.738-139.711-23.291-25.634-47.377-52.14-74.544-77.24-37.831-34.923-175.785-147.903-362.586-135.48-19.902 1.32-40.103 4.096-61.76 8.484-34.917 7.077-68.053 17.338-93.019 25.485-174.841 57.058-328.059 134.353-476.234 209.106-57.625 29.07-112.058 56.531-167.338 82.656-80.549 38.066-187.742 86.411-302.643 122.675-113.735 35.897-222.297 56.217-331.888 62.127-121.913 6.57-253.747-9.115-371.22-44.172-130.266-38.876-238.654-99.805-313.446-176.2-80.119-81.839-124.154-175.94-166.737-266.947-23.518-50.257-47.835-102.226-77.94-151.482-44.708-73.235-111.842-141.464-189.036-192.117-88.269-57.922-183.742-88.764-276.117-89.202-136.58-.803-250.27 53.556-347.572 166.188-142.024 164.399-273.768 373.482-391.572 621.442l-2.952-.83c55.256-116.306 113.874-224.769 174.228-322.376 68.664-111.049 141.875-211.798 217.597-299.451 97.842-113.258 212.334-167.92 350.011-167.111 93.218.44 189.488 31.511 278.402 89.857 77.538 50.88 144.962 119.396 189.851 192.928 30.162 49.349 54.501 101.366 78.04 151.671 42.512 90.849 86.472 184.792 166.315 266.35 164.496 168.024 460.874 231.218 681.628 219.321 240.869-12.986 446.65-96.333 633.146-184.47 55.246-26.108 109.661-53.559 167.271-82.622 148.275-74.804 301.601-152.153 476.678-209.289 25.059-8.177 58.323-18.478 93.428-25.591 21.836-4.426 42.215-7.225 62.304-8.558 70.678-4.698 141.673 7.761 211.022 37.035 71.404 30.144 123.465 70.691 154.561 99.397 27.251 25.18 51.375 51.73 74.707 77.403 43.862 48.274 89.219 98.189 156.093 139.186 77.499 47.823 184.985 81.095 310.843 96.22 120.328 14.225 253.489 11.968 385.075-6.53 156.405-21.999 307.869-61.919 454.347-100.525 86.311-22.749 175.559-46.272 264.789-65.85 67.762-14.838 130.697-26.152 192.397-34.59 99.803-13.659 195.637-19.506 284.837-17.378 100.207 2.393 195.954 14.911 284.594 37.214 107.938 27.121 215.136 70.898 327.723 133.834 100.381 56.113 195.853 122.032 288.185 185.782 80.9 55.856 164.551 113.614 251.512 164.826 8.551 5.035 17.109 9.991 25.437 14.728 450.463 256.356 1063.39 336.676 1525.19 199.87l1.437 1.976c-116.611 34.545-243.889 55.865-378.302 63.368-84.117 4.696-170.271 3.95-257.404-2.188" style="fill:rgba(255,255,255,0.5);fill-rule:nonzero"/>
    <path d="M5538.85 1467.24c-55.553-3.914-111.68-10.039-168.2-18.391-132.896-19.64-264.421-51.144-390.919-93.639-127.176-42.723-246.738-95.709-355.361-157.487-8.305-4.723-16.868-9.675-25.449-14.717-85.649-50.33-168.397-106.744-248.417-161.303-186.248-126.979-378.834-258.28-619.054-319.64-169.325-43.321-354.616-51.344-566.458-24.531-61.873 7.821-124.785 18.528-192.333 32.733-97.245 20.497-194.362 45.862-288.28 70.389-138.718 36.229-282.159 73.69-429.244 96.356-130.457 20.091-262.444 25.113-381.685 14.514-124.037-11.315-231.263-39.915-310.088-82.708-67.559-36.677-114.735-81.569-160.356-124.985-24.062-22.898-48.944-46.577-76.696-69.005-50.061-40.409-185.578-132.849-362.31-118.448-19.698 1.6-39.738 4.579-61.263 9.108-34.483 7.25-67.643 17.523-92.68 25.663C650.41 583.051 506.933 649.763 368.181 714.28c-72.145 33.547-140.292 65.234-209.05 94.152-184.827 77.738-388.997 150.136-629.384 153.5-118.995 1.664-246.695-17.982-359.578-55.324-125.797-41.614-231.007-103.952-304.256-180.273-78.061-81.334-123.894-173.772-168.22-263.165-25.766-51.96-52.407-105.689-85.056-156.537-88.066-137.336-267.367-278.894-469.273-285.551-139.369-4.79-260.022 45.068-358.611 148.189-149.343 156.212-280.212 358.337-388.966 600.762l-3.355-.902c108.842-242.622 239.836-444.933 389.343-601.315 45.367-47.452 95.804-84.067 149.911-108.828 64.183-29.371 135.351-42.937 211.529-40.32 93.306 3.081 189.815 35.675 279.049 94.264 77.812 51.09 146.551 119.596 193.555 192.898 32.716 50.953 59.386 104.738 85.177 156.751 44.248 89.234 90.003 181.508 167.786 262.554 170.295 177.438 462.282 237.158 660.575 234.382 239.603-3.353 443.312-75.604 627.758-153.179 68.697-28.894 136.815-60.568 208.932-94.099 138.848-64.562 282.424-131.323 442.287-183.292 25.133-8.171 58.429-18.487 93.108-25.779 21.713-4.569 41.94-7.574 61.837-9.191 69.804-5.684 140.377 4.58 209.768 30.506 70.379 26.296 123.592 62.845 155.837 88.874 27.856 22.513 52.785 46.236 76.893 69.177 45.462 43.263 92.47 87.998 159.589 124.437 78.278 42.494 184.859 70.905 308.22 82.157 118.841 10.565 250.416 5.554 380.494-14.479 146.859-22.63 290.19-60.063 428.804-96.264 93.967-24.541 191.132-49.917 288.477-70.437 67.669-14.231 130.702-24.957 192.697-32.794 99.44-12.587 195.192-17.462 284.6-14.49 99.706 3.311 195.163 16.48 283.737 39.143 108.152 27.624 215.918 71.684 329.457 134.696 101.208 56.169 197.69 121.948 290.994 185.56 79.972 54.523 162.664 110.903 248.2 161.166 8.564 5.033 17.11 9.975 25.4 14.689 451.353 256.697 1062.2 342.755 1520.02 214.144l1.57 2.249c-184.004 51.692-391.979 70.23-609.182 54.929" style="fill:rgba(255,255,255,0.5);fill-rule:nonzero"/>
    <path d="M5590.32 1454.03c-63.561-4.478-127.934-11.872-192.754-22.194-131.819-20.99-262.602-53.64-388.712-97.041-126.136-43.412-245.238-96.767-353.998-158.583-8.385-4.767-16.938-9.706-25.419-14.677-84.12-49.327-165.789-104.31-244.772-157.482-188.326-126.786-383.064-257.887-623.811-320.395-167.569-43.581-357.724-53.447-565.182-29.325-61.262 7.114-126.053 17.522-192.575 30.933-105.992 21.43-211.605 48.836-313.74 75.343-130.203 33.787-264.835 68.727-401.863 91.716-128.994 21.628-259.411 29.405-377.151 22.489-121.897-7.472-228.268-31.216-307.626-68.613-68.052-32.067-116.932-71.846-164.203-110.315-24.753-20.147-50.348-40.977-78.619-60.706-64.216-44.747-196.639-117.428-362.062-101.441-19.505 1.883-39.384 5.064-60.771 9.731-34.018 7.419-67.218 17.71-92.345 25.848C701.861 615.58 570.305 672.133 443.08 726.824c-88.793 38.172-172.662 74.224-256.665 105.304-116.077 42.947-212.695 72.049-304.063 91.589-110.16 23.559-214.895 33.566-320.184 30.597-15.091-.424-30.24-1.175-45.39-2.241-102.995-7.256-206.699-29.219-302.521-64.245-121.291-44.334-223.321-108.076-295.06-184.333-75.825-80.603-123.227-171.156-169.068-258.729-28.206-53.883-57.372-109.599-92.803-162.241C-1433.022 148.1-1612.776 7.04-1811.833-6.986c-1.419-.1-2.832-.192-4.253-.28-144.272-9.062-268.637 34.745-369.647 130.203-195.111 184.388-317.79 417.216-386.346 580.068l-3.76-.966c68.636-163.037 191.469-396.148 386.878-580.816 47.001-44.419 99.993-78.167 157.502-100.308 65.777-25.325 138.237-35.709 215.366-30.864 93.391 5.71 190.141 39.841 279.681 98.667 78.1 51.311 148.154 119.804 197.256 192.863 35.511 52.76 64.709 108.538 92.946 162.481 45.759 87.414 93.076 177.805 168.629 258.117 164.88 175.269 438.493 243.777 639.551 249.444 239.819 6.761 449.186-57.825 622.362-121.896 83.903-31.043 167.726-67.076 256.472-105.227C568.112 669.772 699.757 613.18 842.8 566.859c25.224-8.169 58.565-18.503 92.782-25.966 21.584-4.708 41.656-7.921 61.367-9.823 68.907-6.661 139.055 1.404 208.493 23.97 69.213 22.492 123.636 55.014 157.103 78.335 28.392 19.815 54.046 40.691 78.853 60.881 49.245 40.078 95.759 77.932 163.314 109.764 78.752 37.111 184.411 60.63 305.614 68.111 117.322 6.889 247.317-.865 375.923-22.429 136.815-22.953 271.346-57.864 401.447-91.627 102.195-26.521 207.873-53.945 313.995-75.401 66.66-13.439 131.592-23.868 192.995-30.997 99.062-11.522 194.736-15.424 284.366-11.602 99.178 4.225 194.349 18.047 282.876 41.071 108.416 28.15 216.804 72.517 331.362 135.637 102.095 56.255 199.639 121.922 293.97 185.427 78.927 53.136 160.54 108.081 244.544 157.34 8.463 4.961 16.999 9.89 25.368 14.646 459.536 261.191 1054.15 350.85 1514.84 228.418l1.687 2.527c-177.091 47.064-375.892 63.508-583.383 48.889" style="fill:rgba(255,255,255,0.5);fill-rule:nonzero"/>
    <path d="M5641.94 1441.13c-71.601-5.046-144.262-13.814-217.459-26.317-130.723-22.331-260.76-56.125-386.501-100.446-125.065-44.081-243.708-97.804-352.634-159.676-8.329-4.732-16.87-9.657-25.385-14.64-82.471-48.253-162.926-101.739-240.731-153.462-190.533-126.663-387.552-257.637-628.972-321.344-168.223-44.474-357.946-55.953-563.902-34.116-61.522 6.512-126.396 16.312-192.818 29.13-115.46 22.353-230.215 52.039-341.19 80.748-120.972 31.294-246.065 63.654-372.482 86.623-128.404 23.315-257.249 33.85-372.606 30.467-119.24-3.503-224.757-22.346-305.141-54.507-68.658-27.472-119.32-62.165-168.314-95.715-25.358-17.367-51.581-35.323-80.271-52.331-81.047-47.951-209.613-101.529-361.855-84.453-19.297 2.16-39.015 5.548-60.282 10.354-33.328 7.532-65.218 17.386-92.015 26.032-124.595 40.191-242.013 87.083-355.565 132.43-107.563 42.956-209.162 83.53-310.136 115.911C98.817 892.655 1.974 916.82-91.085 931.867c-107.115 17.322-208.967 22.243-311.242 15.039-1.04-.073-2.071-.147-3.112-.224-114.569-8.346-230.831-35.199-336.217-77.655-56.479-22.754-108.863-49.691-155.696-80.064-49.995-32.423-93.787-68.868-130.162-108.321-73.385-79.593-122.073-168.006-169.159-253.509-30.876-56.067-62.803-114.042-101.303-168.722-86.972-123.703-264.23-274.934-477.572-294.035-147.24-13.438-278.884 25.373-380.68 112.229-159.293 135.912-295.565 334.562-383.708 559.356l-4.169-1.016c41.88-106.805 94.461-207.81 156.284-300.209 67.734-101.234 144.493-188.752 228.144-260.125 48.737-41.585 104.319-72.467 165.2-91.793 67.191-21.328 140.895-28.53 219.103-21.39 93.532 8.374 190.458 44.015 280.291 103.069 78.402 51.539 149.767 120.017 200.954 192.821 38.592 54.81 70.557 112.855 101.47 168.988 47 85.349 95.602 173.603 168.723 252.911 159.914 173.445 424.381 250.36 618.558 264.508 1.073.079 2.165.156 3.237.233 189.832 13.375 373.604-13.855 613.721-90.857 100.817-32.331 202.343-72.876 309.83-115.802 113.622-45.376 231.114-92.296 355.861-132.538 26.903-8.679 58.928-18.574 92.453-26.15 21.466-4.852 41.383-8.272 60.891-10.455 67.991-7.626 137.704-1.764 207.197 17.426 54.485 15.046 107.762 37.852 158.352 67.783 28.828 17.086 55.114 35.088 80.534 52.497 51.017 34.937 99.206 67.937 167.319 95.19 79.733 31.899 184.521 50.599 303.031 54.074 114.943 3.372 243.359-7.133 371.37-30.376 126.225-22.934 251.22-55.269 372.099-86.54 111.054-28.729 225.889-58.437 341.512-80.82 66.581-12.848 131.614-22.672 193.298-29.201 98.674-10.462 194.269-13.395 284.129-8.713 98.644 5.141 193.523 19.608 282.014 43.004 108.739 28.695 217.817 73.397 333.464 136.662 103.05 56.373 201.717 121.966 297.136 185.398 77.751 51.688 158.149 105.135 240.499 153.318 8.496 4.972 17.019 9.887 25.33 14.609 460.916 261.808 1053.5 357.072 1509.68 242.689l1.791 2.807c-170.018 42.629-359.656 57.101-557.434 43.167" style="fill:rgba(255,255,255,0.5);fill-rule:nonzero"/>
    <path d="M5694.54 1428.69c-80.056-5.641-161.382-15.961-243.154-30.888-129.604-23.658-258.899-58.597-384.291-103.849-123.957-44.735-242.139-98.825-351.263-160.77-8.287-4.705-16.818-9.618-25.352-14.6-80.674-47.101-159.753-99.014-236.228-149.217-192.889-126.623-392.343-257.558-634.596-322.523-168.932-45.393-358.23-58.483-562.628-38.907-61.758 5.903-126.713 15.098-193.058 27.329-125.757 23.269-250.379 55.523-370.896 86.716-110.943 28.716-225.664 58.408-340.835 80.965-127.16 24.892-254.426 38.185-368.043 38.444-116.986.264-221.627-13.702-302.627-40.392-69.436-22.88-119.661-51.194-172.833-81.173-25.834-14.564-52.547-29.624-81.513-43.886-121.907-59.891-243.599-82.598-361.692-67.484-19.1 2.44-38.663 6.031-59.8 10.978-32.778 7.67-64.742 17.556-91.69 26.215-105.023 33.748-206.111 71.504-303.871 108.018-128.383 47.953-249.645 93.245-369.252 125.86-112.081 30.561-212 50.356-305.466 60.512-106.146 11.537-207.068 11.216-308.536-.983-111.347-13.387-223.555-44.103-324.496-88.833-54.355-24.085-104.867-52.027-150.131-83.05-48.287-33.096-90.856-69.895-126.522-109.372-70.696-78.248-120.332-164.206-168.334-247.336-33.823-58.572-68.796-119.138-110.71-176.147-89.542-121.972-269.437-273.28-481.751-298.292-152.401-18.231-287.851 14.366-391.717 94.269-163.907 126.092-302.795 322.415-381.053 538.631l-4.581-1.053c36.984-102.184 89.121-203.415 150.776-292.753 67.591-97.941 145.385-181.083 231.22-247.115 104.891-80.692 241.736-113.606 395.735-95.182 93.646 11.031 190.778 48.193 280.892 107.466 78.719 51.778 151.397 120.241 204.646 192.778 42.021 57.152 77.039 117.794 110.903 176.44 47.917 82.982 97.465 168.789 167.913 246.763 131.845 145.93 355.247 250.446 597.6 279.584 189.017 22.716 377.628 4.414 611.541-59.368 119.37-32.549 240.525-77.8 368.796-125.711 97.813-36.535 198.958-74.313 304.096-108.097 27.05-8.692 59.148-18.62 92.119-26.334 21.338-4.995 41.099-8.621 60.411-11.088 67.05-8.58 136.315-4.919 205.873 10.88 53.214 12.086 106.904 31.337 159.579 57.214 29.11 14.334 55.891 29.433 81.79 44.034 52.918 29.834 102.902 58.013 171.764 80.704 80.316 26.465 184.215 40.314 300.476 40.05 113.204-.257 240.05-13.509 366.826-38.325 114.999-22.524 229.635-52.195 340.497-80.889 120.614-31.218 245.335-63.498 371.296-86.806 66.522-12.263 131.658-21.483 193.596-27.403 98.279-9.414 193.794-11.371 283.895-5.82 98.088 6.033 192.673 21.159 281.147 44.932 109.134 29.266 218.975 74.339 335.805 137.795 104.078 56.532 203.944 122.089 300.522 185.488 76.421 50.167 155.439 102.042 235.994 149.073 8.515 4.972 17.025 9.873 25.295 14.567 469.664 266.611 1046.17 365.073 1504.53 256.962l1.88 3.089c-118.428 27.933-246.219 42.384-379.819 42.953-49.562.212-99.865-1.484-150.673-5.063" style="fill:rgba(255,255,255,0.5);fill-rule:nonzero"/>
    <path d="M5746.77 1416.53c-88.169-6.212-178.04-18.168-268.487-35.749-256.354-49.832-509.461-142.89-731.961-269.113-8.323-4.721-16.843-9.62-25.322-14.56-78.716-45.859-156.239-96.113-231.206-144.714-195.411-126.68-397.475-257.673-640.736-323.959-169.722-46.344-358.593-61.047-561.362-43.698-61.996 5.292-127.032 13.88-193.297 25.527-136.991 24.177-272.285 59.359-403.124 93.381-100.023 26.011-203.45 52.906-306.652 74.609-125.998 26.482-251.683 42.532-363.471 46.417-114.703 3.987-218.47-5.096-300.083-26.267-70.469-18.284-122.695-41.786-177.99-66.672-26.101-11.745-53.089-23.893-82.098-35.393-128.007-50.611-246.284-67.138-361.588-50.53-18.884 2.717-38.289 6.51-59.323 11.604-32.137 7.779-64.22 17.711-91.368 26.401-84.294 26.98-166.953 56.108-246.892 84.277-151.119 53.253-293.858 103.552-433.68 135.136-110.952 25.062-211.098 39.776-306.165 44.981-104.006 5.699-203.029.202-302.731-16.802-107.995-18.417-216.139-53-312.745-100.01-109.043-53.064-199.023-119.158-267.442-196.447-67.709-76.488-117.881-159.611-166.398-239.996-37.102-61.471-75.468-125.034-121.223-184.734-96.449-126.037-274.757-271.703-485.949-302.556-157.642-23.326-296.911 3.063-402.756 76.322C-2265.55 100.453-2407 294.057-2475.655 501.874l-4.996-1.078c32.734-99.087 83.048-197.719 145.505-285.233 67.536-94.63 146.292-173.42 234.08-234.182 107.012-74.067 247.802-100.75 407.165-77.169 93.76 13.698 191.094 52.379 281.471 111.861 80.202 52.783 152.243 119.428 208.336 192.727 45.877 59.858 84.293 123.505 121.443 185.057 48.436 80.248 98.522 163.23 166.003 239.46 128.17 144.789 343.749 254.942 576.674 294.665 189.789 32.368 376.725 23.695 606.119-28.122 139.478-31.506 282.061-81.75 433.015-134.945 79.976-28.182 162.676-57.324 247.049-84.328 27.247-8.723 59.459-18.693 91.781-26.52 21.234-5.14 40.836-8.972 59.925-11.716 116.587-16.799 236.077-.127 365.299 50.965 29.151 11.558 56.208 23.734 82.376 35.51 55.026 24.765 106.997 48.155 176.886 66.285 80.928 20.995 183.96 29.997 297.954 26.033 111.392-3.871 236.676-19.873 362.3-46.275 103.056-21.674 206.413-48.55 306.367-74.542 130.958-34.054 266.374-69.267 403.618-93.489 66.465-11.682 131.7-20.298 193.901-25.607 203.634-17.42 393.368-2.639 563.936 43.935 109.603 29.866 220.297 75.348 338.402 139.043 105.197 56.735 206.343 122.305 304.158 185.717 74.915 48.565 152.378 98.783 230.976 144.573 8.461 4.928 16.959 9.815 25.263 14.525 471.591 267.535 1046.12 371.464 1499.38 271.232l1.957 3.374c-118.862 26.284-246.781 39.017-380.203 37.845-40.77-.357-82.056-2.011-123.712-4.945" style="fill:rgba(255,255,255,0.5);fill-rule:nonzero"/>
    <path d="M5798.95 1404.7c-96.193-6.777-194.612-20.483-293.77-40.947-252.801-52.169-504.665-146.781-728.368-273.606-8.283-4.696-16.792-9.581-25.289-14.519-76.568-44.509-152.319-93.008-225.578-139.909-198.128-126.847-402.999-258.011-647.49-325.699-170.573-47.324-359.015-63.638-560.093-48.488-62.235 4.677-127.35 12.66-193.536 23.729-149.299 25.075-296.167 63.628-438.199 100.912-88.104 23.126-179.203 47.041-269.611 67.383-124.936 28.092-249.035 46.899-358.883 54.388-112.429 7.662-215.304 3.462-297.505-12.145-71.926-13.654-126.475-32.365-184.228-52.174-26.019-8.923-52.922-18.152-81.587-26.887-84.719-25.727-214.377-57.199-361.549-33.579-18.68 2.991-37.928 6.991-58.848 12.226-31.311 7.838-62.264 17.411-91.05 26.589-62.555 19.944-124.85 40.874-185.096 61.118-175.572 58.989-341.407 114.707-502.953 143.83-145.593 26.247-277.963 34.917-404.923 25.975-67.424-4.75-133.307-14.467-198.872-29.16-104.495-23.415-208.566-61.865-300.965-111.189-104.27-55.665-191.15-123.107-258.227-200.456-64.354-74.211-114.544-154.013-163.081-231.188-40.798-64.867-82.984-131.944-133.112-194.785-98.982-124.271-279.726-270.134-490.168-306.827-162.921-28.727-306.008-8.536-413.798 58.387-174.999 108.648-315.44 294.491-375.678 497.133l-5.416-1.087c28.547-96.033 77.12-192.037 140.469-277.635 66.615-90.013 148.476-166.553 236.728-221.345 54.722-33.975 118.304-56.223 188.982-66.126 70.243-9.842 147.494-7.491 229.604 6.985 48.794 8.508 98.379 23.278 147.369 43.898 45.611 19.196 90.921 43.54 134.672 72.35 80.565 53.053 153.88 119.679 212.02 192.675 50.267 63.014 92.511 130.181 133.364 195.139 48.46 77.05 98.569 156.725 162.718 230.697 126.695 146.099 329.268 259.001 555.782 309.761 187.941 42.116 378.814 43.105 600.686 3.106 161.063-29.035 326.682-84.681 502.023-143.596 60.268-20.248 122.589-41.186 185.189-61.145 28.885-9.21 59.954-18.818 91.439-26.699 21.113-5.284 40.553-9.323 59.434-12.348 148.759-23.874 279.606 7.874 365.086 33.832 28.796 8.775 55.761 18.024 81.843 26.97 57.482 19.716 111.776 38.34 183.146 51.89 81.534 15.477 183.705 19.634 295.464 12.018 109.48-7.463 233.2-26.215 357.784-54.23 90.291-20.316 181.335-44.214 269.381-67.327 142.179-37.321 289.198-75.913 438.807-101.041 66.406-11.107 131.747-19.117 194.204-23.81 201.998-15.22 391.362 1.184 562.827 48.758 110.171 30.501 221.814 76.436 341.313 140.431 106.414 56.989 208.938 122.628 308.088 186.106 73.204 46.866 148.899 95.329 225.352 139.77 8.476 4.928 16.963 9.8 25.228 14.485 473.797 268.615 1046.36 378.013 1494.24 285.502l2.018 3.66c-119.286 24.638-247.332 35.653-380.584 32.737-31.965-.7-64.261-2.2-96.799-4.493" style="fill:rgba(255,255,255,0.5);fill-rule:nonzero"/>
    <path d="M5850.99 1393.21c-104.083-7.332-211.048-22.912-318.925-46.482-249.092-54.421-499.712-150.585-724.765-278.095-8.365-4.74-16.862-9.612-25.255-14.481-74.196-43.036-147.93-89.66-219.239-134.749-201.075-127.142-408.992-258.614-654.957-327.795-171.5-48.339-359.518-66.261-558.831-53.275-62.457 4.055-127.653 11.432-193.772 21.927-162.858 25.97-322.331 68.456-476.555 109.543-75.039 19.99-152.633 40.662-229.279 59.055-124.043 29.748-246.552 51.31-354.284 62.356-110.153 11.294-212.128 11.982-294.894 1.979-74.099-8.952-131.531-22.859-192.337-37.581-25.335-6.135-51.533-12.479-79.188-18.478-101.516-21.913-223.862-41.028-361.567-16.628-18.475 3.27-37.569 7.475-58.381 12.856-31.936 8.259-63.58 18.153-90.735 26.777-39.888 12.667-80.078 25.701-118.946 38.306-201.516 65.358-391.859 127.09-576.61 152.177-218.89 29.723-409.131 18.738-598.694-34.567-100.817-28.349-200.807-70.664-289.158-122.37-99.421-58.183-183.2-126.969-249.011-204.45-60.534-71.27-110.095-147.136-158.026-220.505-45.011-68.899-91.553-140.143-146.732-206.701-131.372-158.695-316.196-274.997-494.405-311.11-170.567-34.901-313.508-21.287-424.85 40.464-178.958 99.254-321.867 281.786-372.958 476.362l-5.835-1.079c24.427-93.03 71.333-186.373 135.648-269.941 66.733-86.707 149.439-158.847 239.183-208.619 57.021-31.624 123.348-50.961 197.138-57.472 70.862-6.254 149.209-.745 232.862 16.371 95.36 19.324 190.443 59.911 282.598 120.632 80.951 53.337 155.539 119.942 215.7 192.615 55.336 66.748 101.945 138.095 147.019 207.091 47.86 73.26 97.349 149.014 157.704 220.074C-685.629 733.073-490.66 851.485-274.43 912.288c188.396 52.976 377.54 63.883 595.252 34.319C504.91 921.61 694.96 859.973 896.17 794.715c38.875-12.607 79.075-25.646 118.983-38.318 27.239-8.653 58.99-18.577 91.093-26.88 20.997-5.43 40.275-9.674 58.939-12.977 139.109-24.649 262.479-5.389 364.814 16.701 27.76 6.022 54.007 12.378 79.392 18.525 60.555 14.662 117.749 28.512 191.338 37.401 82.149 9.928 183.469 9.232 293.01-1.999 107.393-11.01 229.555-32.513 353.28-62.185 76.561-18.373 154.111-39.033 229.109-59.013 154.4-41.135 314.056-83.669 477.293-109.697 66.362-10.534 131.804-17.94 194.51-22.012 200.284-13.05 389.274 4.978 561.713 53.581 247.064 69.489 455.432 201.245 656.945 328.664 71.254 45.056 144.935 91.646 219.02 134.619 8.374 4.856 16.853 9.717 25.196 14.444 331.088 187.587 696.554 299.287 1038.16 323.357 157.27 11.081 309.423 3.601 450.94-23.585l2.065 3.946c-119.703 22.996-247.877 32.291-380.966 27.627-23.176-.813-46.522-2.049-70.015-3.704" style="fill:rgba(255,255,255,0.5);fill-rule:nonzero"/>
    <path d="M98.713 977.975c-19.236-1.356-38.337-3.103-57.378-5.246-97.474-10.967-190.807-32.025-285.33-64.374-98.317-33.647-191.626-78.578-277.326-133.545-94.476-60.593-175.156-130.72-239.793-208.431-56.115-67.466-104.217-138.59-150.735-207.373-49.885-73.764-101.472-150.04-162.585-221.061-134.411-156.428-320.825-274.335-498.654-315.401-175.799-40.938-322.455-33.349-435.913 22.553-182.667 90.005-327.984 268.829-370.213 455.576l-6.257-1.054c20.37-90.09 65.678-180.737 131.021-262.14 66.927-83.375 150.424-151.155 241.466-196.013 115.081-56.703 263.594-64.458 441.406-23.05 95.508 22.055 190.772 64.115 283.138 125.008 81.368 53.642 157.228 120.227 219.377 192.556 61.29 71.229 112.952 147.616 162.911 221.488 46.456 68.691 94.493 139.72 150.46 207.007 123.019 147.902 305.59 268.65 514.08 340.003 188.38 64.468 375.798 85.286 589.817 65.513 208.57-19.272 424.221-87.718 652.534-160.184 16.274-5.166 32.571-10.338 48.888-15.499 29.016-9.179 59.925-18.829 90.745-27.058 20.894-5.58 40.009-10.031 58.438-13.605 148.591-28.863 283.742-11.054 364.491-.414 25.452 3.379 49.786 6.959 73.317 10.421 64.79 9.533 125.982 18.535 203.169 22.57 82.729 4.321 183.211-1.219 290.581-16.026 106.568-14.696 223.916-38.296 348.787-70.147 61.713-15.75 124.445-32.815 185.113-49.319 167.736-45.63 341.186-92.813 519.514-119.735 66.319-9.965 131.865-16.765 194.818-20.212 198.505-10.915 387.118 8.735 560.596 58.403 248.866 71.104 460.578 203.334 665.318 331.21 69.024 43.111 140.399 87.689 211.856 129.047 8.443 4.884 16.907 9.731 25.165 14.405 486.353 275.382 1041.11 392.781 1483.97 314.038l2.096 4.236c-120.113 21.358-248.418 28.932-381.349 22.514-125.221-6.041-255.538-24.526-387.311-54.931-245.209-56.579-494.579-154.295-721.153-282.585-8.275-4.685-16.762-9.544-25.222-14.44-71.563-41.416-142.988-86.028-212.062-129.17-204.289-127.593-415.531-259.529-663.265-330.31-172.494-49.386-360.083-68.921-557.572-58.064-62.684 3.433-127.956 10.205-194.007 20.13-177.867 26.851-351.097 73.974-518.621 119.548-60.696 16.511-123.456 33.585-185.227 49.348-125.156 31.924-242.802 55.583-349.672 70.32-107.907 14.88-208.969 20.444-292.258 16.094-77.609-4.059-139.022-13.09-204.036-22.656-23.5-3.457-47.802-7.032-73.184-10.402-80.201-10.569-214.429-28.257-361.636.34-18.249 3.54-37.194 7.95-57.916 13.483-30.672 8.19-61.489 17.814-90.426 26.967-16.315 5.16-32.609 10.331-48.881 15.497-228.72 72.594-444.755 141.164-654.205 160.515-87.722 8.104-170.355 9.328-250.889 3.655" style="fill:rgba(255,255,255,0.5);fill-rule:nonzero"/>
    <path d="M198.273 996.543c-44.12-3.108-87.47-8.313-130.543-15.644-95.423-16.242-186.856-42.497-279.523-80.269-198.1-80.747-374.267-207.572-496.047-357.112-50.902-62.506-96.448-127.802-140.497-190.95-55.628-79.752-113.152-162.219-181.375-238.706-139.365-156.453-322.674-272.98-502.925-319.703-183.388-47.883-329.596-46.36-446.988 4.653-186.128 80.887-333.792 255.609-367.442 434.775l-6.683-1.006c16.385-87.227 60.149-175.137 126.562-254.222 67.195-80.016 151.434-143.484 243.612-183.541 62.108-26.991 134.026-40.417 213.758-39.91 71.617.458 152.042 12.206 239.039 34.921 95.672 24.8 191.116 68.33 283.667 129.379 81.82 53.969 158.949 120.532 223.05 192.492 68.427 76.715 126.035 159.305 181.747 239.175 43.996 63.075 89.493 128.296 140.278 190.659 121.13 148.741 296.308 274.87 493.264 355.151 185.169 75.476 376.321 107.103 584.385 96.693 234.115-11.717 486.134-91.114 708.487-161.162 26.251-8.272 58.921-18.567 90.391-27.236 20.784-5.729 39.736-10.383 57.936-14.231 137.693-29.143 258.946-22.913 356.374-17.905l7.753.397c20.412 1.062 40.218 2.209 59.374 3.317 71.582 4.143 139.193 8.057 222.878 6.732 83.244-1.315 182.893-11.711 288.171-30.062 103.765-18.088 219.608-44.369 344.307-78.114 45.515-12.323 91.883-25.293 136.73-37.835 182.375-51.008 370.957-103.752 566.135-131.565 66.269-9.398 131.916-15.593 195.124-18.414 196.646-8.814 384.882 12.459 559.477 63.23 251.014 72.844 466.393 205.736 674.682 334.252 66.459 41.006 135.18 83.409 203.699 122.975 8.436 4.87 16.89 9.704 25.129 14.365 496.834 281.134 1035.86 400.798 1478.86 328.308l2.11 4.526c-120.512 19.72-248.947 25.574-381.734 17.4-124.578-7.678-254.348-27.75-385.675-59.679-241.128-58.627-489.25-157.895-717.538-287.071-8.26-4.674-16.734-9.519-25.189-14.4-68.614-39.623-137.384-82.055-203.888-123.088-207.822-128.229-422.717-260.822-672.571-333.33-173.57-50.473-360.739-71.617-556.317-62.851-62.912 2.807-128.263 8.974-194.239 18.331-194.618 27.733-382.938 80.404-565.056 131.341-44.861 12.546-91.25 25.52-136.796 37.852-124.938 33.81-241.029 60.147-345.047 78.278-105.738 18.43-205.88 28.872-289.605 30.196-84.04 1.33-151.829-2.594-223.595-6.747-19.142-1.108-38.934-2.253-59.311-3.314l-7.755-.398c-96.875-4.977-217.44-11.174-353.988 17.726-18.035 3.812-36.828 8.431-57.455 14.115-29.027 7.998-56.813 16.661-90.12 27.157-128.073 40.348-243.576 76.094-360.175 104.961-132.969 32.922-247.609 51.428-350.469 56.576-61.477 3.076-120.611 2.606-178.432-1.468" style="fill:rgba(255,255,255,0.5);fill-rule:nonzero"/>
    <path d="M292.502 1018.33c-165.138-11.636-320.513-53.01-472.108-125.445-89.683-42.85-175.009-95.296-253.605-155.88-84.152-64.869-158.629-137.658-221.356-216.347-44.601-55.951-86.121-113.914-126.271-169.969-62.531-87.3-127.192-177.573-204.15-260.903-142.155-154.113-327.024-272.212-507.208-324.014-188.244-54.46-338.08-58.789-458.078-13.236-189.353 71.883-339.301 242.108-364.647 413.957l-7.104-.938c12.278-83.239 55.686-170.667 122.227-246.177 66.566-75.538 153.808-136.34 245.657-171.208 64.885-24.633 139.643-35.05 222.194-30.962 72.867 3.611 152.008 18.017 241.977 44.045 181.659 52.227 367.878 171.111 510.904 326.168 77.19 83.582 141.949 173.99 204.575 261.423 40.113 56.002 81.591 113.91 126.109 169.754 153.858 193.007 341.852 307.914 472.466 370.323 183.81 87.825 373.19 129.646 578.958 127.854 235.534-2.054 492.84-76.774 715.53-146.648l4.46-1.399c28.015-8.795 56.984-17.888 85.573-26.012 20.744-5.896 39.528-10.755 57.427-14.855 126.708-29.068 242.221-31.737 335.035-33.882 9.799-.228 19.371-.45 28.712-.694 8.213-.209 16.314-.411 24.331-.612 89.042-2.218 165.941-4.135 263.689-12.287 84.813-7.071 180.964-21.914 285.772-44.115 100.121-21.208 214.457-50.171 339.833-86.085 27.697-7.937 55.933-16.12 83.238-24.034 198.498-57.527 403.754-117.011 617.874-145.717 66.239-8.836 131.995-14.425 195.434-16.612 194.707-6.754 382.561 16.142 558.355 68.054 253.579 74.741 473.028 208.525 685.248 337.906 63.488 38.704 129.138 78.728 194.336 116.293 8.376 4.825 16.817 9.645 25.097 14.328 500.395 282.964 1037.56 407.827 1473.75 342.572l2.112 4.819c-235.349 35.209-493.119 17.665-766.161-52.145-122.334-31.279-247.141-73.087-370.953-124.264-116.227-48.042-231.613-104.326-342.961-167.29-8.298-4.693-16.759-9.526-25.153-14.361-65.286-37.615-130.978-77.664-194.508-116.396-211.742-129.086-430.691-262.568-683.088-336.959-174.725-51.597-361.473-74.354-555.067-67.64-63.117 2.177-128.547 7.741-194.473 16.534-213.444 28.614-418.384 88.008-616.574 145.444-27.313 7.916-55.556 16.102-83.265 24.042-125.567 35.97-240.1 64.982-340.419 86.231-105.185 22.281-201.725 37.181-286.937 44.285-98.036 8.176-175.07 10.095-264.267 12.319-8.016.2-16.115.401-24.323.61-9.348.247-18.931.469-28.74.695-92.375 2.135-207.336 4.794-333.128 33.65-17.754 4.065-36.399 8.89-57.002 14.746-28.482 8.094-57.396 17.17-85.358 25.947l-4.461 1.4c-109.08 34.228-237.472 73.008-362.678 101.127-133.515 29.984-249.814 45.007-355.545 45.927-37.617.329-74.69-.789-111.282-3.367" style="fill:rgba(255,255,255,0.5);fill-rule:nonzero"/>
    <path d="M378.828 1042.72c-186.032-13.108-358.684-64.879-526.26-157.613-174.631-96.638-331.574-230.571-453.863-387.323-36.748-47.101-72.177-95.538-106.44-142.38-71.039-97.118-144.497-197.544-232.523-289.702-144.762-151.722-331.199-271.395-511.506-328.334-195.442-62.049-344.528-71.936-469.189-31.118-192.351 62.982-344.52 228.316-361.821 393.127l-7.523-.844c8.458-80.587 50.357-165.114 117.977-238.009 66.952-72.175 154.898-128.647 247.639-159.014 68.767-22.516 144.217-29.667 230.691-21.879 73.076 6.586 153.161 23.936 244.838 53.041 96.083 30.341 191.871 76.807 284.698 138.102 82.85 54.708 162.514 121.223 230.382 192.354 88.295 92.437 161.865 193.017 233.012 290.284 34.237 46.807 69.641 95.208 106.336 142.243 121.751 156.06 277.937 289.368 451.675 385.512C38.608 981.694 226.216 1033.7 430.495 1040.17c239.825 7.589 499.836-62.539 722.551-132.141 4.982-1.558 9.962-3.118 14.941-4.68 24.502-7.676 49.836-15.615 74.728-22.907 20.691-6.063 39.31-11.125 56.916-15.478 115.579-28.606 219.716-38.22 311.595-46.701 18.073-1.669 35.143-3.244 51.765-4.917 102.009-10.191 186.733-19.744 293.786-35.852 84.91-12.776 180.251-32.35 283.375-58.181 95.751-23.983 205.452-54.752 335.367-94.062l23.676-7.171c216.344-65.549 440.055-133.328 675.694-162.933 66.202-8.277 132.06-13.26 195.746-14.813 192.685-4.733 380.162 19.788 557.227 72.881 256.658 76.823 480.655 211.781 697.275 342.299 60.026 36.166 122.094 73.563 183.512 108.869 8.39 4.825 16.824 9.632 25.063 14.288 237.796 134.383 661.434 334.194 1122.98 366.714 113.685 8.01 229.579 5.881 345.665-9.874l2.097 5.111c-235.262 31.925-492.618 11.06-764.907-62.012-121.012-32.474-245.067-75.427-368.723-127.664-114.652-48.435-229.568-105.084-341.561-168.373-8.259-4.666-16.713-9.483-25.122-14.319-61.492-35.351-123.6-72.771-183.663-108.959-216.129-130.22-439.614-264.873-695.072-341.336-175.963-52.765-362.29-77.132-553.816-72.424-63.336 1.544-128.845 6.501-194.704 14.735-234.825 29.502-458.16 97.168-674.144 162.606l-23.675 7.171c-130.054 39.353-239.887 70.159-335.782 94.177-103.413 25.903-199.053 45.537-284.267 58.361-107.258 16.138-192.121 25.705-294.281 35.911-16.659 1.678-33.75 3.255-51.845 4.925-91.53 8.45-195.271 18.026-310.154 46.461-17.481 4.323-35.98 9.352-56.549 15.379-24.814 7.268-50.111 15.196-74.575 22.862-4.982 1.561-9.965 3.122-14.947 4.68-147.129 45.98-259.76 75.989-365.196 97.304-134.33 27.155-252.294 38.688-360.63 35.261-17.454-.553-34.793-1.436-52.012-2.648" style="fill:rgba(255,255,255,0.5);fill-rule:nonzero"/>
    <path d="M470.271 1069.98c-4.163-.293-8.307-.61-12.462-.954-108.252-8.946-212.888-30.691-311.004-64.628-90.268-31.224-178.442-73.982-262.068-127.082-79.867-50.715-157.191-110.669-229.824-178.198-72.681-67.574-140.959-143.006-202.939-224.202-26.545-34.777-52.897-70.323-78.378-104.699-81.853-110.419-166.492-224.598-269.121-328.589-149.321-151.45-332.507-269.592-515.818-332.664-199.602-68.987-352.225-84.555-480.316-48.994-195.146 54.177-349.472 214.225-358.972 372.285l-7.94-.725c4.689-78.025 45.095-159.606 113.774-229.717 67.381-68.786 156.027-120.977 249.607-146.956 71.858-19.952 150.109-24.088 239.221-12.651 73.371 9.415 154.375 29.662 247.643 61.898 96.342 33.148 192.3 81.078 285.201 142.454 84.638 55.918 163.38 120.61 234.041 192.28C-786.139 143.147-701.372 257.5-619.393 368.087c25.471 34.361 51.808 69.89 78.329 104.634 123.182 161.377 272.182 299.943 430.886 400.72 174.431 110.762 360.296 172.958 568.214 190.142 244.78 20.254 506.1-48.121 729.485-117.648 9.464-2.946 18.921-5.914 28.365-8.879 19.999-6.277 40.681-12.767 60.938-18.882 20.696-6.247 39.144-11.512 56.398-16.098 103.498-27.527 199.495-42.594 284.187-55.888 27.639-4.338 53.745-8.436 78.797-12.748 96.847-16.609 183.629-33.648 299.542-58.81 84.354-18.309 178.886-42.622 280.972-72.259 107.992-31.353 222.862-67.576 330.909-102.048 107.654-34.362 222.632-70.475 340.616-101.137 129.567-33.672 246.349-56.348 357.023-69.322 66.17-7.72 132.132-12.098 196.058-13.012 190.57-2.757 377.669 23.387 556.096 77.707 260.381 79.141 489.524 215.63 711.123 347.625 55.952 33.326 113.808 67.787 170.86 100.512 8.469 4.857 16.891 9.652 25.033 14.249 365.101 206.191 915.39 437.949 1463.55 371.108l2.068 5.402c-103.707 12.645-211.681 15.007-323.253 7.147-141.4-9.962-288.601-36.341-440.404-79.029-230.652-64.859-468.402-165.966-706.648-300.515-8.158-4.607-16.598-9.412-25.082-14.278-57.12-32.763-115.009-67.244-170.99-100.589-221.098-131.696-449.724-267.875-708.889-346.648-177.285-53.972-363.198-79.951-552.572-77.21-63.548.909-129.133 5.261-194.932 12.939-237.876 27.886-464.86 96.357-695.79 170.064-108.107 34.492-223.044 70.736-331.139 102.118-102.292 29.698-197.037 54.063-281.603 72.421-116.066 25.194-202.974 42.257-299.974 58.892-25.124 4.326-51.268 8.428-78.944 12.773-84.452 13.256-180.171 28.278-283.179 55.676-17.155 4.559-35.505 9.798-56.103 16.015-20.209 6.099-40.865 12.583-60.843 18.853-9.45 2.966-18.913 5.936-28.385 8.884-220.538 68.642-478.06 136.13-721.053 119.012" style="fill:rgba(255,255,255,0.5);fill-rule:nonzero"/>
    <path d="M528.004 1096.57c-14.517-1.023-28.871-2.314-43.109-3.875-107.9-11.824-212.815-38.463-311.829-79.18C85.287 977.419-.898 928.969-83.092 869.514c-74.499-53.888-147.821-117.596-217.925-189.35-65.91-67.462-131.094-144.21-193.74-228.11-12.542-16.798-25.033-33.617-37.522-50.436-96.134-129.466-195.538-263.339-318.51-384.051-151.488-148.833-336.208-268.516-520.137-337.002-138.728-51.847-319.952-106.299-491.466-66.867-197.763 45.464-354.179 199.83-356.097 351.429l-8.352-.578c.957-75.554 39.868-154.148 109.565-221.304 67.848-65.373 157.204-113.328 251.607-135.031 75.049-17.254 156.094-18.323 247.758-3.265 73.839 12.127 155.752 35.222 250.421 70.603 185.192 68.957 371.072 189.351 523.391 339.002 123.347 121.082 222.904 255.159 319.185 384.821 12.485 16.814 24.97 33.629 37.51 50.423 130.333 174.551 264.477 310.609 410.101 415.945 174.965 126.564 359.047 198.939 562.763 221.266 203.508 22.308 437.547-10.476 736.535-103.159 15.514-4.809 31.215-9.77 46.401-14.566 13.965-4.412 28.405-8.973 42.532-13.365 20.865-6.485 39.142-11.954 55.879-16.716 89.081-25.372 174.103-43.839 249.114-60.132 39.974-8.683 77.73-16.884 113.509-25.505 101.657-24.437 190.657-49.304 305.293-81.769 79.611-22.546 170.731-50.792 278.563-86.351 60.051-20.002 121.372-40.755 186.289-62.727 45.749-15.482 93.053-31.491 140.158-47.311 98.341-33.037 215.503-71.137 338.832-103.207 127.928-33.265 244.73-55.38 357.084-67.61 66.142-7.167 132.209-10.939 196.372-11.211 188.376-.826 375.089 26.943 554.96 82.533 264.918 81.758 499.962 220.224 727.269 354.132 51.107 30.106 103.955 61.239 155.916 90.975 8.273 4.735 16.683 9.516 24.998 14.21 535.951 302.478 1026.64 432.134 1458.46 385.376l2.02 5.692c-96.039 10.401-195.706 11.953-298.449 4.716-148.646-10.471-303.764-39.345-463.952-86.471-225.373-66.3-461.898-168.914-703.005-304.991-8.333-4.702-16.762-9.492-25.051-14.236-52.013-29.768-104.885-60.915-156.015-91.037-226.8-133.607-461.319-271.763-725.007-353.142-178.704-55.228-364.2-82.817-551.33-81.996-63.759.271-129.42 4.019-195.161 11.143-229.197 24.948-443.097 86.143-693.749 170.349-47.096 15.816-94.396 31.824-140.138 47.305-64.931 21.975-126.259 42.73-186.346 62.744-107.973 35.607-199.22 63.891-278.961 86.475-114.747 32.497-203.84 57.389-305.675 81.868-35.889 8.648-73.7 16.861-113.731 25.557-74.866 16.259-159.72 34.691-248.496 59.978-16.665 4.74-34.869 10.186-55.658 16.649-14.108 4.384-28.537 8.944-42.494 13.352-15.195 4.802-30.909 9.765-46.448 14.583-137.4 42.592-258.523 71.932-370.292 89.699-119.33 18.967-227.026 24.819-327.685 17.727" style="fill:rgba(255,255,255,0.5);fill-rule:nonzero"/>
    <path d="M594.533 1125.27c-28.153-1.982-55.675-4.959-82.634-8.929-108.595-15.989-213.751-47.85-312.544-94.694-86.709-41.118-170.914-94.935-250.273-159.96-128.708-105.459-249.166-238.851-390.575-432.509-111.89-153.234-223.967-301.861-364.555-435.68-153.333-146.053-339.592-267.28-524.47-341.35-140.854-56.597-325.275-117.374-502.639-84.736-200.219 36.843-358.661 185.133-353.196 330.562l-8.753-.397c-2.75-73.179 34.648-148.749 105.307-212.788 67.345-61.037 159.807-105.95 253.678-123.224 78.318-14.41 162.146-12.358 256.273 6.28 75.609 14.97 156.065 40.121 253.198 79.151 97.041 38.879 193.329 89.73 286.184 151.14 86.068 56.923 167.27 121.562 241.347 192.123 141.02 134.229 253.298 283.118 365.377 436.609 141.049 193.167 261.117 326.149 389.306 431.184 168.139 137.77 355.677 222.685 557.4 252.387 207.869 30.603 451.071 1.597 743.506-88.682 24.217-7.477 48.567-15.283 72.113-22.832l16.446-5.271c21.667-6.932 39.256-12.439 55.357-17.333 69.265-21.06 134.524-38.825 197.633-56.005 58.233-15.85 113.238-30.824 164.651-46.617 99.681-30.573 192.621-63.183 291.017-97.706l20.011-7.021c86.759-30.11 180.126-64.696 276.138-100.45 101.902-38.243 211.446-79.016 321.994-118.034 198.563-70.105 436.322-145.266 694.209-171.182 66.122-6.616 132.296-9.781 196.685-9.406 186.083 1.057 372.412 30.449 553.819 87.359 270.503 84.757 512.413 225.783 746.36 362.164 45.277 26.395 92.095 53.689 138.018 79.909 8.43 4.814 16.832 9.581 24.97 14.171 541.275 305.286 1030.26 439.744 1453.38 399.643l1.961 5.985c-122.424 11.603-251.512 8.843-383.662-8.2-121.222-15.635-248.225-43.705-377.485-83.429-116.779-35.89-238.575-82.273-362.005-137.862-109.004-49.093-222.505-106.829-337.35-171.603-8.154-4.598-16.57-9.375-25.017-14.197-45.961-26.243-92.799-53.549-138.098-79.955-233.427-136.081-474.804-276.795-744.07-361.165-180.21-56.534-365.289-85.73-550.094-86.781-63.956-.372-129.694 2.773-195.387 9.346-256.71 25.797-493.715 100.732-691.698 170.632-110.47 38.993-219.964 79.745-321.832 117.976-96.078 35.777-189.497 70.384-276.335 100.521l-19.992 7.014c-98.492 34.557-191.521 67.197-291.386 97.829-51.567 15.839-106.645 30.833-164.962 46.707-63.039 17.16-128.224 34.904-197.349 55.923-16.053 4.878-33.599 10.373-55.218 17.29l-16.438 5.267c-23.574 7.557-47.948 15.373-72.217 22.865-256.287 79.121-475.247 111.406-666.105 97.961" style="fill:rgba(255,255,255,0.5);fill-rule:nonzero"/>
    <path d="M659.192 1155.04c-41.45-2.921-81.584-7.943-120.3-15.069-205.48-37.817-393.092-134.083-557.628-286.129-136.09-125.756-243.377-270.886-369.49-447.545-90.022-126.102-213.781-289.718-373.076-436.87-157.015-145.121-339.875-264.664-528.813-345.706-142.572-61.286-329.817-128.332-513.836-102.605-180.455 25.23-364.266 155.688-350.273 309.682l-9.141-.181c-6.443-70.895 29.412-143.406 100.957-204.18 67.836-57.622 161.095-98.268 255.863-111.519 187.206-26.174 376.631 41.575 520.742 103.523 190.027 81.511 373.874 201.679 531.661 347.514 159.802 147.618 283.847 311.607 374.064 437.981C-254.2 580.265-147.137 725.101-11.576 850.369c163.103 150.722 348.842 246.107 552.057 283.506 211.311 38.888 463.803 13.918 750.465-74.216 30.657-9.426 60.499-19.158 88.18-28.271l.283-.092c17.913-5.898 36.436-11.996 54.547-17.854 34.798-11.266 68.968-22.141 102.013-32.656 92.578-29.461 180.02-57.287 259.958-86.945 93.12-34.512 179.848-70.651 271.665-108.913 14.889-6.204 29.904-12.462 45.1-18.774 49.439-20.4 99.585-41.492 152.675-63.823 39.302-16.529 79.941-33.623 121.011-50.727 116.921-48.97 220.793-90.199 317.544-126.039 122.58-45.416 232.252-80.533 335.282-107.355 125.114-32.573 241.965-53.569 357.227-64.19 66.102-6.069 132.382-8.628 197.003-7.605 183.687 2.891 369.63 33.906 552.678 92.187 277.472 88.262 527.515 232.621 769.326 372.227 38.156 22.027 77.608 44.805 116.24 66.812 8.282 4.719 16.595 9.43 24.936 14.132 554.765 312.687 1028.51 448.08 1448.31 413.911l1.886 6.276c-122.79 9.996-252 5.513-384.049-13.326-120.514-17.191-246.965-46.86-375.842-88.18-216.502-69.415-444.068-172.105-695.701-313.936-8.357-4.709-16.683-9.429-24.98-14.156-38.66-22.023-78.124-44.808-116.292-66.843-241.29-139.304-490.795-283.351-767.028-371.221-181.817-57.89-366.482-88.7-548.858-91.566-64.157-1.016-129.971 1.525-195.616 7.552-210.202 19.369-422.893 72.08-689.636 170.91-96.624 35.793-200.372 76.975-317.18 125.896-41.065 17.102-81.697 34.192-120.988 50.72-53.109 22.335-103.27 43.434-152.727 63.84-15.179 6.308-30.192 12.563-45.077 18.767-91.912 38.299-178.724 74.474-272.019 109.053-80.158 29.738-167.711 57.599-260.404 87.098-33.033 10.512-67.191 21.382-101.967 32.639-18.086 5.852-36.595 11.945-54.498 17.839l-.281.092c-27.733 9.129-57.632 18.88-88.375 28.333-132.601 40.769-258.932 68.402-375.483 82.13-91.272 10.752-178.503 13.223-260.62 7.439" style="fill:rgba(255,255,255,0.5);fill-rule:nonzero"/>
    <path d="M723.142 1185.94c-54.542-3.844-107.055-11.295-157.266-22.343-110.363-24.281-215.999-66.578-313.974-125.714-85.078-51.354-165.304-115.914-238.447-191.89-108.867-113.079-194.009-237.518-284.15-369.262-20.876-30.509-42.461-62.058-64.268-93.312-120.12-172.158-244.94-315.446-381.591-438.053-157.926-141.746-342.291-262.799-533.162-350.072-143.853-65.867-333.53-139.086-525.052-120.475-181.825 17.667-369.187 140.616-347.333 288.793l-9.515.068c-10.13-68.696 24.132-138.125 96.481-195.496 68.324-54.182 162.433-90.594 258.192-99.899 84.963-8.256 174.298.194 273.108 25.83 78.232 20.298 160.495 50.734 258.883 95.783 191.859 87.724 377.129 209.36 535.782 351.758 137.112 123.019 262.314 266.735 382.758 439.358 21.823 31.279 43.417 62.84 64.302 93.363 89.971 131.495 174.952 255.696 283.385 368.328 157.505 163.601 341.453 269.457 546.731 314.624 217.086 47.764 471.916 27.655 757.416-59.763 26.788-8.203 55.508-17.504 87.798-28.436 18.374-6.222 36.9-12.581 54.302-18.561 156.899-53.938 265.066-94.782 361.68-136.57 93.263-40.312 180.328-82.228 272.504-126.606 16.551-7.969 33.199-15.984 49.991-24.04 18.227-8.71 36.587-17.506 55.087-26.369 69.802-33.44 141.976-68.021 216.132-102.281 111.326-51.628 213.742-95.477 313.095-134.051 118.754-46.114 227.847-81.91 333.512-109.436 123.895-32.273 240.771-52.71 357.306-62.478 66.084-5.524 132.47-7.476 197.319-5.801 92.837 2.395 187.4 12.129 281.057 28.937 89.245 16.017 180.246 38.922 270.476 68.078 286.362 92.469 546.258 241.23 797.599 385.093 29.269 16.754 59.537 34.077 89.154 50.911 8.273 4.702 16.577 9.402 24.908 14.094 309.137 174.127 753.416 394.612 1220.63 427.532 73.8 5.2 148.102 5.722 222.612.646l1.794 6.567c-123.15 8.388-252.494 2.182-384.435-18.455-119.793-18.734-245.69-50.001-374.195-92.932-115.303-38.52-232.248-85.838-357.514-144.657-105.407-49.493-214.832-106.327-334.527-173.745-8.342-4.7-16.656-9.406-24.944-14.115-29.634-16.842-59.905-34.171-89.184-50.929-250.813-143.562-510.167-292.012-795.287-384.08-183.53-59.302-367.779-91.722-547.629-96.352-64.351-1.663-130.241.275-195.837 5.758-214.662 17.994-433.142 72.389-687.566 171.186-99.157 38.497-201.387 82.268-312.533 133.81-74.102 34.237-146.248 68.803-216.02 102.23-18.502 8.866-36.866 17.662-55.086 26.37-16.785 8.052-33.431 16.065-49.978 24.033-92.262 44.418-179.412 86.374-272.848 126.763-96.859 41.894-205.242 82.82-362.403 136.849-17.412 5.984-35.954 12.347-54.348 18.577-32.388 10.966-61.205 20.299-88.096 28.533-131.671 40.315-258.889 66.677-378.116 78.354-79.391 7.774-155.849 9.08-228.693 3.947" style="fill:rgba(255,255,255,0.5);fill-rule:nonzero"/>
    <path d="M785.481 1217.81c-67.212-4.734-131.575-14.945-192.636-30.597-111.371-28.3-217.263-75.781-314.717-141.129-84.349-56.559-162.564-126.524-232.472-207.948-85.719-99.842-151.914-204.528-221.995-315.36-33.652-53.218-68.449-108.248-105.359-162.234C-391.392 199.165-522.641 51.388-671.802-78.693c-158.105-137.911-343.978-260.474-537.521-354.444-144.681-70.297-336.387-149.547-536.289-138.349-186.664 10.457-373.599 127.245-344.377 267.892l-9.867.357c-13.833-66.581 18.784-132.908 91.842-186.758 68.805-50.718 163.827-82.918 260.699-88.344 88.278-4.945 180.316 6.767 281.365 35.809 80.206 23.05 163.412 56.062 261.852 103.89 98.979 48.057 195.748 103.277 287.618 164.128 89.095 59.012 173.973 123.565 252.278 191.866 149.699 130.551 281.404 278.839 391.457 440.742 36.976 54.08 71.805 109.161 105.489 162.432 69.94 110.609 136.003 215.085 221.371 314.518 149.552 174.188 336.769 293.745 541.415 345.741 276.489 70.878 568.276 14.479 764.369-45.312 28.041-8.551 57.45-18.174 87.41-28.603 17.278-6.014 34.867-12.285 53.768-19.169 127.779-46.547 246.002-96.77 361.419-153.54 97.772-48.078 189.259-97.918 286.118-150.686 13.992-7.623 28.022-15.265 42.101-22.92l2.004-1.085c86.161-46.749 175.255-95.087 266.733-141.663 107.881-55.032 208.839-101.503 308.641-142.066 244.47-99.373 469.89-155.729 689.139-172.285 66.069-4.983 132.563-6.328 197.636-3.998 92.348 3.304 186.831 14.016 280.818 31.84 88.229 16.73 178.924 40.283 269.563 70.001 297.949 97.658 570.077 252.329 833.248 401.908 18.283 10.391 36.512 20.752 54.694 31.061 8.265 4.686 16.557 9.373 24.877 14.055 362.457 204.026 785.244 409.1 1233.08 440.656 67.861 4.781 136.213 5.58 205.106 1.791l1.689 6.855c-123.509 6.792-252.982-1.142-384.823-23.581-119.065-20.266-244.409-53.133-372.548-97.687-269.13-93.576-521.761-229.082-688.373-322.868-8.328-4.688-16.631-9.38-24.906-14.071-18.185-10.312-36.419-20.676-54.706-31.069-262.64-149.277-534.222-303.639-830.923-400.888-187.953-61.625-366.683-94.708-546.404-101.136-64.544-2.311-130.509-.978-196.061 3.965-217.912 16.457-442.137 72.542-685.484 171.457-99.534 40.456-200.245 86.813-307.883 141.722-91.371 46.522-180.412 94.832-266.52 141.551l-2.002 1.086c-14.076 7.651-28.101 15.291-42.092 22.913-96.944 52.815-188.513 102.701-286.459 150.864-115.74 56.927-234.287 107.289-362.417 153.964-18.953 6.901-36.589 13.189-53.914 19.221-30.095 10.476-59.642 20.144-87.825 28.737-131.105 39.975-259.228 65.101-380.812 74.676-68.357 5.383-134.616 5.815-198.312 1.327" style="fill:rgba(255,255,255,0.5);fill-rule:nonzero"/>
    <path d="M845.616 1250.17c-79.053-5.57-154.511-18.701-225.79-39.347C354.07 1133.85 178.422 961.393 77.87 830.275 6.207 736.831-50.573 637.58-105.482 541.599c-38.514-67.322-78.34-136.936-122.958-203.942-209.24-314.232-534.456-590.601-940.492-799.229-133.744-68.722-336.01-159.685-547.545-156.228-109.43 1.788-218.29 38.518-284.094 95.857-51.315 44.709-71.672 98.379-57.321 151.124l-10.191.688c-7.722-28.38-6.053-56.688 4.958-84.132 10.32-25.719 28.553-50.086 54.195-72.428 67.457-58.777 179.063-96.429 291.263-98.262 214.878-3.511 419.332 88.368 554.426 157.783 201.59 103.58 385.191 225.262 545.705 361.666 160.514 136.406 294.575 284.672 398.458 440.681 44.747 67.202 84.63 136.917 123.201 204.338C-41.081 635.298 15.58 734.34 86.944 827.397c99.655 129.948 273.564 300.815 536.13 376.866 332.528 96.315 680.501 3.972 858.323-59.644 270.789-96.876 502.897-237.811 727.36-374.105 93.118-56.54 189.409-115.006 287.227-169.588 192.717-107.537 372.835-186.074 550.645-240.102 103.858-31.558 207.973-54.77 309.449-68.988 110.416-15.47 221.283-20.802 329.515-15.849 126.091 5.772 256.65 25.691 388.05 59.208 117.866 30.065 237.456 70.822 365.601 124.603 236.744 99.358 459.741 225.517 675.397 347.525l9.303 5.262c454.633 257.192 945.917 492.228 1457.99 470.735l1.567 7.141c-60.367 2.535-121.433 1.638-183.383-2.726-185.491-13.067-379.074-57.234-586.85-133.574-254.226-93.405-494.216-222.374-695.447-336.212l-9.304-5.264c-407.453-230.516-867.892-490.992-1380.3-527.096-14.105-.994-28.173-1.814-42.361-2.463-375.073-17.167-762.008 88.659-1182.91 323.524-97.671 54.5-193.89 112.922-286.939 169.42-224.873 136.542-457.404 277.735-729.185 374.965-141.959 50.788-283.903 83.08-421.887 95.983-75.649 7.075-148.908 8.112-219.313 3.152" style="fill:rgba(255,255,255,0.5);fill-rule:nonzero"/>
  </g>
</svg>
