<svg xmlns="http://www.w3.org/2000/svg" xml:space="preserve" fill-rule="evenodd" stroke-linejoin="round" stroke-miterlimit="2" clip-rule="evenodd" viewBox="0 0 1979 229">
  <path fill="none" d="M0 0h1978.53v228.27H0z"/>
  <clipPath id="a">
    <path d="M0 0h1978.53v228.27H0z"/>
  </clipPath>
  <g clip-path="url(#a)">
    <path fill="#003c6c" d="M-24.184.154h1097.98v231.595H-24.184z"/>
    <path fill="#006aad" d="M1707.06-17.75v-6.536h314.587v316.869H1707.06v-38.868h-91.881V236.54H844.761v-3.497l-167.311.242-.143-2.041 1.865-26.34s.019-10.73.607-14.082c.588-3.353 1.792-11.323 2.374-13.766.583-2.443 3.28-12.454 3.28-12.454l5.07-13.4 5.719-11.933 7.107-12.307 7.058-11.892 9.854-13.788 12.9-15.079 10.587-11.339 13.457-13.428 14.366-13.446 14.991-12.943L800.67 22.95l14.363-11.424 12.92-9.583 3.694-2.728 13.114-.732v-7.277h770.418v-8.956h91.881Z"/>
    <path fill="none" d="M718.082 83.089c-3.7 2.53-7.41 5.07-11.14 7.61-.32 1.84-.67 3.7-1.04 5.56 3.46-2.56 6.91-5.11 10.34-7.66.64-1.85 1.25-3.69 1.84-5.51Zm-42.14 4.44c-5.34 2.98-10.7 5.97-16.07 8.97.78 1.83 1.54 3.67 2.27 5.52 5.04-2.99 10.06-5.96 15.06-8.92-.39-1.86-.82-3.72-1.26-5.57Zm79.01-44.05c.06-.11.12-.23.18-.34-4.43 2.53-8.86 5.04-13.29 7.55-.3.77-.59 1.53-.9 2.3-.39.98-.79 1.96-1.19 2.94 4.23-2.54 8.43-5.08 12.63-7.63.86-1.61 1.72-3.21 2.57-4.82Zm-80.83 36.98c-5.76 3.04-11.54 6.09-17.33 9.16.84 1.8 1.67 3.61 2.46 5.44 5.45-3.05 10.89-6.09 16.31-9.11-.45-1.84-.94-3.67-1.44-5.49Zm88.56-52.6c-5.16 2.64-10.31 5.26-15.47 7.87-.57 1.72-1.16 3.44-1.76 5.16 4.94-2.64 9.88-5.29 14.82-7.96.82-1.69 1.62-3.38 2.41-5.07Zm-36.36 25.07c-5.26 2.79-10.51 5.56-15.75 8.33-.12 1.8-.26 3.61-.42 5.42 4.98-2.78 9.96-5.57 14.94-8.36.43-1.8.84-3.6 1.23-5.39Zm-2.49 10.45c.26-1 .5-1.99.75-2.98-4.87 2.73-9.74 5.45-14.6 8.17-.14 1.42-.28 2.84-.45 4.27-.05.4-.1.81-.15 1.22 4.61-2.74 9.21-5.47 13.79-8.2.23-.83.45-1.66.66-2.48Zm-1.21 4.54c-4.47 2.66-8.95 5.33-13.46 8-.23 1.83-.47 3.67-.73 5.52 4.23-2.68 8.44-5.36 12.63-8.03.54-1.84 1.06-3.67 1.56-5.49Zm36.41-32.45c-4.8 2.59-9.6 5.16-14.4 7.72-.62 1.73-1.26 3.46-1.91 5.2 4.58-2.59 9.15-5.19 13.73-7.81.88-1.71 1.74-3.41 2.58-5.11Zm-31.2 10.04c-5.64 2.84-11.28 5.66-16.91 8.48-.06 1.78-.14 3.56-.24 5.35 5.36-2.83 10.73-5.66 16.1-8.51.37-1.78.72-3.55 1.05-5.32Zm-7.38 29.97c-4.08 2.6-8.18 5.2-12.3 7.81-.28 1.84-.57 3.69-.89 5.55 3.85-2.62 7.68-5.24 11.5-7.86.58-1.84 1.14-3.67 1.69-5.5Zm30.49-24.57c-4.03 2.44-8.07 4.88-12.13 7.32-.72 1.74-1.46 3.48-2.21 5.22 3.84-2.47 7.67-4.94 11.48-7.42.97-1.7 1.92-3.41 2.86-5.12Zm-38.21 47.6c-2.91 2.36-5.84 4.73-8.78 7.1-.41 1.8-.83 3.62-1.27 5.44 2.69-2.39 5.36-4.78 8.02-7.17.69-1.81 1.37-3.6 2.03-5.37Zm-13.94 33.39c-1 1.33-2.01 2.67-3.02 4-.34 1.09-.69 2.19-1.05 3.3.92-1.47 1.83-2.93 2.72-4.39.46-.98.91-1.94 1.35-2.91Zm40.6-78.47c.23-.58.45-1.17.68-1.75-4.66 2.63-9.32 5.26-13.98 7.87-.28 1.12-.55 2.23-.84 3.35-.18.68-.35 1.36-.54 2.04 4.43-2.64 8.84-5.28 13.23-7.92.48-1.19.97-2.39 1.45-3.59Zm6.13-16.84c-5.41 2.74-10.82 5.47-16.23 8.19-.33 1.75-.67 3.51-1.04 5.27 5.16-2.73 10.32-5.48 15.48-8.24.61-1.74 1.21-3.48 1.79-5.22Zm-63.78 131.86c-1.08 2.01-2.17 4.04-3.29 6.09.13 1.65.24 3.31.34 4.98.87-2.12 1.73-4.23 2.57-6.32.13-1.59.26-3.17.38-4.75Zm61.18-124.34c-5.04 2.69-10.08 5.37-15.12 8.04-.38 1.77-.79 3.55-1.21 5.33 4.79-2.69 9.58-5.39 14.37-8.1.67-1.76 1.32-3.52 1.96-5.27Zm-12.73 30.65c-3.49 2.41-6.99 4.81-10.5 7.22-.57 1.78-1.16 3.56-1.77 5.36 3.27-2.44 6.53-4.87 9.78-7.3.85-1.76 1.68-3.52 2.49-5.28Zm6.8-15.43c-4.26 2.56-8.54 5.12-12.84 7.68-.49 1.8-1 3.6-1.52 5.4 4.05-2.58 8.08-5.16 12.09-7.74.77-1.78 1.53-3.56 2.27-5.34Zm-3.29 7.68c-3.88 2.49-7.77 4.98-11.68 7.47-.53 1.79-1.08 3.59-1.65 5.4 3.67-2.52 7.32-5.03 10.95-7.55.81-1.77 1.6-3.55 2.38-5.32Zm-61.65 6.42c-6.19 3.1-12.4 6.21-18.62 9.35.91 1.77 1.8 3.56 2.66 5.36 5.88-3.11 11.74-6.21 17.58-9.29-.51-1.82-1.06-3.63-1.62-5.42Zm36.48 42.8c-1.06 1.22-2.12 2.45-3.18 3.67-.45 1.04-.91 2.09-1.37 3.14.96-1.31 1.92-2.62 2.87-3.93.56-.95 1.13-1.91 1.68-2.88Zm-.89-4.69c.71-1.74 1.4-3.46 2.07-5.17-2.5 2.24-5.01 4.48-7.54 6.73-.43 1.75-.89 3.51-1.35 5.28 2.29-2.29 4.57-4.57 6.82-6.84Zm18.84-28.96c-3.09 2.31-6.18 4.62-9.3 6.93-.6 1.75-1.22 3.51-1.86 5.27 2.88-2.34 5.74-4.68 8.6-7.03.87-1.72 1.72-3.45 2.56-5.17Zm-10.97 8.18c-3.31 2.46-6.63 4.91-9.97 7.37-.37 1.83-.75 3.67-1.15 5.51 3.07-2.48 6.14-4.96 9.18-7.43.66-1.82 1.31-3.64 1.94-5.45Zm2.77 7.89c-2.21 2-4.43 4-6.66 6.01-.62 1.58-1.25 3.18-1.9 4.78 2.04-2.06 4.06-4.11 6.08-6.17.83-1.54 1.66-3.08 2.48-4.62Zm-15.34 24.02c-1.6 1.83-3.21 3.66-4.83 5.5-.45 1.53-.9 3.07-1.37 4.61 1.42-1.88 2.83-3.76 4.23-5.65.66-1.5 1.32-2.98 1.97-4.46Zm3.54-8.29c-2.08 2.08-4.16 4.17-6.25 6.25-.45 1.65-.91 3.31-1.38 4.98 1.88-2.14 3.74-4.27 5.6-6.4.68-1.62 1.36-3.23 2.03-4.83Zm7.23-7.3c-1.71 1.73-3.42 3.47-5.14 5.2-.57 1.38-1.15 2.77-1.74 4.17 1.57-1.82 3.14-3.64 4.69-5.46.74-1.31 1.47-2.61 2.19-3.91Zm8.8-16.55c-2.66 2.18-5.34 4.36-8.02 6.54-.62 1.69-1.26 3.39-1.91 5.1 2.47-2.22 4.92-4.45 7.37-6.67.86-1.65 1.72-3.31 2.56-4.97Zm-39.94 55.02c-2.21 2.45-4.43 4.89-6.66 7.35.3 1.9.58 3.82.84 5.74 1.94-2.46 3.86-4.91 5.78-7.36.04-1.93.05-3.83.04-5.73Zm8.08-15.44c-2.42 2.38-4.85 4.76-7.29 7.15.06 1.86.09 3.73.11 5.61 2.15-2.39 4.29-4.78 6.42-7.16.27-1.88.52-3.75.76-5.6Zm1.53-15.06c-3.21 2.57-6.42 5.14-9.65 7.72.16 1.9.31 3.8.43 5.72 2.92-2.57 5.83-5.13 8.73-7.69.17-1.93.34-3.84.49-5.75Zm.46-7.43c-3.6 2.64-7.21 5.29-10.83 7.94.22 1.9.41 3.81.58 5.72 3.32-2.65 6.62-5.29 9.91-7.92.13-1.92.24-3.83.34-5.74Zm-1.13 14.93c-2.81 2.48-5.64 4.97-8.47 7.46.11 1.89.2 3.78.27 5.69 2.54-2.49 5.07-4.97 7.58-7.45.22-1.92.43-3.82.62-5.7Zm-1.91 15.18c-2.03 2.27-4.07 4.54-6.12 6.81.01 1.84 0 3.69-.03 5.55 1.77-2.27 3.53-4.53 5.27-6.8.31-1.85.61-3.71.88-5.56Zm-4.52 24.4c-.76 1.45-1.53 2.92-2.32 4.39-.09 1.27-.19 2.55-.29 3.83.61-1.55 1.21-3.09 1.79-4.62.28-1.2.56-2.4.82-3.6Zm3.24-16.51c-1.62 2.1-3.25 4.19-4.89 6.29-.04 1.72-.09 3.45-.16 5.19 1.4-2.13 2.77-4.25 4.13-6.36.32-1.71.63-3.42.92-5.12Zm-6.15 28.22c-.03.33-.06.65-.09.98.17-.67.34-1.35.51-2.02-.14.35-.28.7-.42 1.04Zm4.68-20.26c-1.21 1.87-2.44 3.74-3.68 5.63-.07 1.59-.16 3.19-.25 4.79 1.01-1.93 2.01-3.84 2.99-5.73.32-1.57.64-3.14.94-4.69Zm4.85-84.24c-.19-1.82-.4-3.63-.64-5.42l-18.12 9.06c.56 1.79 1.1 3.58 1.61 5.39 5.43-2.86 10.84-5.71 16.23-8.55.31-.16.62-.32.92-.48Zm-12.5 119.75c.02.78.04 1.55.06 2.33.23-1.61.45-3.21.65-4.81-.23.82-.47 1.65-.71 2.48Zm30.47-134.47-16.48 8.24c-.35.17-.7.35-1.05.53.24 1.79.45 3.59.64 5.39 5.54-2.92 11.09-5.84 16.65-8.77.09-1.81.18-3.6.24-5.39Zm-28.63 122.02c-.7 1.71-1.41 3.43-2.13 5.16.07 1.4.14 2.81.19 4.23.53-1.9 1.04-3.79 1.54-5.66.14-1.25.28-2.5.4-3.73Zm11.32-100.04c-.13-1.84-.29-3.68-.47-5.5-.12.06-.24.13-.36.19-5.48 2.89-10.99 5.79-16.52 8.7.5 1.81.98 3.64 1.44 5.47 4.05-2.26 8.09-4.51 12.12-6.75 1.26-.7 2.52-1.41 3.79-2.11Zm-5.6 82.3c-.03.16-.07.31-.1.47.12-.32.24-.65.36-.98-.08.17-.17.34-.26.51Zm6.22-66.01c-3.08 1.94-6.16 3.89-9.26 5.84-1.32.83-2.64 1.67-3.97 2.5.33 1.88.63 3.77.91 5.66 4.11-2.78 8.2-5.56 12.28-8.32.03-1.9.05-3.8.04-5.68Zm-10.48 60.22c-1.83 2.34-3.68 4.68-5.54 7.03.24 1.83.46 3.66.66 5.51 1.58-2.38 3.15-4.74 4.69-7.08.08-1.83.14-3.65.19-5.46Zm10.41-52.88c-4 2.71-8.01 5.43-12.03 8.16.27 1.89.53 3.79.75 5.7 3.71-2.72 7.41-5.43 11.09-8.13.09-1.92.15-3.83.19-5.73Zm.05-9.01c-.02-1.89-.07-3.77-.13-5.63-1.98 1.17-3.97 2.35-5.96 3.52-2.82 1.67-5.65 3.34-8.48 5.01.38 1.86.74 3.73 1.08 5.61l3.09-1.95c3.48-2.19 6.95-4.38 10.4-6.56Zm-.19-7.32c-.01-.22-.01-.44-.02-.66-.07-1.64-.17-3.28-.27-4.91l-3.03 1.68c-4.19 2.33-8.4 4.68-12.63 7.03.44 1.84.86 3.69 1.26 5.54 2.6-1.54 5.19-3.07 7.77-4.6 2.31-1.36 4.62-2.72 6.92-4.08Zm-10.55 76.75c-1.46 2.21-2.93 4.43-4.43 6.66.18 1.78.35 3.56.5 5.35 1.23-2.28 2.44-4.54 3.63-6.78.12-1.74.21-3.49.3-5.23Zm16.46-38.5c-2.28 2.26-4.57 4.53-6.87 6.79-.22 1.79-.46 3.59-.72 5.4 2.04-2.29 4.07-4.58 6.09-6.87.53-1.78 1.02-3.55 1.5-5.32Zm3.87-15.42c-3.07 2.47-6.16 4.95-9.26 7.43-.14 1.87-.3 3.75-.48 5.63 2.82-2.49 5.62-4.98 8.42-7.46.46-1.88.9-3.75 1.32-5.6Zm-21.79 8c-.23-1.92-.49-3.84-.76-5.74-.04.03-.09.06-.13.09-4.07 2.76-8.17 5.54-12.28 8.32.6 1.89 1.18 3.79 1.73 5.7 1.5-1.1 3.01-2.2 4.5-3.29 2.32-1.7 4.63-3.39 6.94-5.08Zm19.96-.34c-2.68 2.38-5.37 4.76-8.08 7.15-.18 1.84-.38 3.69-.6 5.55 2.43-2.4 4.84-4.79 7.25-7.19.49-1.84.97-3.68 1.43-5.51Zm45.84-55.67c-3.64 2.36-7.3 4.72-10.97 7.08-.75 1.72-1.52 3.45-2.3 5.18 3.46-2.39 6.9-4.79 10.33-7.19.98-1.69 1.97-3.38 2.94-5.07Zm-66.77 48.78c-.28-1.91-.58-3.81-.91-5.71-4.52 2.85-9.06 5.72-13.61 8.6.66 1.87 1.29 3.76 1.9 5.66 3.82-2.59 7.64-5.18 11.43-7.75.4-.27.79-.53 1.19-.8Zm-2.27-12.85c-4.92 2.91-9.86 5.84-14.82 8.78.72 1.85 1.41 3.72 2.08 5.6 4.63-2.93 9.23-5.84 13.82-8.73-.34-1.9-.7-3.78-1.08-5.65Zm13.48 52.49c-.9 1.41-1.81 2.82-2.72 4.23-.23 1.22-.48 2.44-.72 3.67.77-1.5 1.52-3 2.26-4.48.4-1.14.8-2.28 1.18-3.42Zm5.43-17.08c-1.86 2.1-3.73 4.21-5.62 6.31-.26 1.74-.52 3.49-.81 5.25 1.63-2.12 3.25-4.25 4.86-6.37.54-1.74 1.06-3.47 1.57-5.19Zm-2.55 8.33c-1.41 1.85-2.83 3.7-4.26 5.56-.26 1.53-.53 3.07-.81 4.61 1.23-1.92 2.44-3.82 3.64-5.72.48-1.49.96-2.97 1.43-4.45Zm14-61.71c-4.64 2.75-9.3 5.51-13.98 8.28.06 1.85.11 3.72.14 5.59 4.38-2.77 8.74-5.53 13.09-8.28.27-1.88.52-3.74.75-5.59Zm-25.41 61.45c-2.59 2.53-5.19 5.07-7.8 7.61.36 1.9.7 3.82 1.01 5.74 2.31-2.54 4.6-5.07 6.88-7.6-.01-1.93-.04-3.85-.09-5.75Zm-1.54-21.92c-1.9 1.39-3.81 2.79-5.72 4.19-1.83 1.34-3.67 2.69-5.51 4.03.54 1.9 1.05 3.82 1.54 5.75 3.44-2.74 6.86-5.47 10.27-8.19-.17-1.94-.37-3.87-.58-5.78Zm25.92-32.09c-4.25 2.69-8.51 5.39-12.79 8.09.01 1.87 0 3.75-.03 5.64 3.99-2.71 7.96-5.41 11.91-8.1.32-1.89.62-3.77.91-5.63Zm1.44-10.81c.15-1.35.29-2.7.42-4.04-5.06 2.83-10.12 5.64-15.17 8.45.11 1.68.21 3.36.28 5.05.01.16.01.33.02.49 4.77-2.82 9.53-5.64 14.26-8.45.07-.5.13-1 .19-1.5Zm1.01-11.39c-5.46 2.88-10.91 5.75-16.35 8.61.18 1.81.33 3.64.47 5.47 5.14-2.86 10.29-5.73 15.45-8.61.17-1.83.32-3.65.43-5.47Zm-5.12 37.21c-3.47 2.56-6.95 5.12-10.45 7.68-.09 1.88-.2 3.76-.33 5.66 3.21-2.57 6.4-5.14 9.59-7.7.42-1.89.82-3.77 1.19-5.64Zm-22.54 24.34c-3.34 2.67-6.7 5.34-10.07 8.03.48 1.91.92 3.84 1.36 5.78 3.06-2.68 6.1-5.35 9.13-8.01-.11-1.95-.26-3.88-.42-5.8Zm23.98-31.87c-3.86 2.63-7.73 5.26-11.62 7.9-.04 1.88-.1 3.76-.18 5.65 3.59-2.64 7.17-5.27 10.74-7.9.37-1.9.73-3.78 1.06-5.65Zm-23.47 39.18c-2.96 2.6-5.94 5.21-8.92 7.82.42 1.91.81 3.84 1.19 5.77 2.68-2.61 5.34-5.21 7.99-7.81-.06-1.93-.15-3.86-.26-5.78Zm-49.9-81.53c7.76 10.11 14.56 20.78 20.4 32 6.31-3.18 12.6-6.33 18.88-9.48-3.93-12.19-8.92-23.83-14.93-34.79-7.36-13.44-16.2-25.94-26.48-37.5h-49.63c20.17 14.54 37.47 31.15 51.76 49.77Zm123.84 10.81c-1.83 1.42-3.67 2.84-5.51 4.26-.79 1.06-1.57 2.11-2.37 3.17 1.81-1.54 3.62-3.08 5.41-4.62.83-.94 1.65-1.87 2.47-2.81Zm57.27-60.58h-8.41c-1.55 2.33-3.14 4.66-4.76 6.99 4.4-2.32 8.79-4.65 13.17-6.99Zm-66.09 70.47c-.87.74-1.74 1.47-2.61 2.2-.39.51-.8 1.03-1.19 1.54.98-.93 1.96-1.86 2.94-2.8.28-.31.57-.62.86-.94Zm16.46-18.71c-2.47 1.76-4.94 3.52-7.43 5.28-.95 1.31-1.91 2.63-2.87 3.94 2.4-1.86 4.8-3.72 7.18-5.59 1.05-1.21 2.09-2.42 3.12-3.63Zm33.46-32.55c-3.46 2.06-6.93 4.11-10.41 6.15-1.1 1.44-2.22 2.88-3.34 4.32 3.37-2.11 6.73-4.23 10.08-6.36 1.23-1.37 2.46-2.74 3.67-4.11Zm-26.41 24.15c-2.98 1.98-5.97 3.95-8.97 5.93-1.01 1.45-2.03 2.89-3.05 4.33 2.88-2.05 5.74-4.1 8.6-6.15l3.42-4.11Zm11.08-7.41c-2.46 1.66-4.93 3.31-7.4 4.97-.97 1.18-1.94 2.36-2.92 3.54 2.44-1.76 4.86-3.53 7.28-5.3 1.01-1.08 2.03-2.14 3.04-3.21Zm19.87-21.89c.83-.95 1.65-1.91 2.47-2.86-3.88 2.17-7.76 4.34-11.64 6.49-1.08 1.46-2.17 2.92-3.27 4.39 3.77-2.22 7.53-4.45 11.28-6.69.38-.45.77-.89 1.16-1.33Zm-12.01 13.43c-2.99 1.89-6 3.77-9.01 5.65-1.06 1.33-2.12 2.66-3.19 3.99 2.94-1.97 5.86-3.95 8.78-5.93 1.15-1.23 2.29-2.47 3.42-3.71Zm-123.4 89.66c-.61-1.91-1.24-3.81-1.89-5.7-25.37 16.05-51.19 32.55-76.59 49.53-31.52 21.07-66.33 45.84-99.61 72.61h18.84c25.67-21.32 54.45-43.35 86.06-65.85 24.38-17.38 49.06-34.22 73.19-50.59Z"/>
    <path fill="none" d="M663.942 109.549c-.67-1.89-1.35-3.77-2.07-5.64-26.82 15.92-54.04 32.27-80.73 49.1-31.71 19.99-73.61 47.99-114.4 80.05h19.09c33.63-27.1 68.83-52.16 100.69-73.45 25.7-17.18 51.8-33.84 77.42-50.06Zm131.42-98.59c-4.59 2.41-9.18 4.8-13.77 7.18-.93 1.58-1.88 3.17-2.84 4.76 4.44-2.43 8.87-4.87 13.3-7.33 1.11-1.54 2.22-3.08 3.31-4.61Zm-62.71 74.55c-.94.87-1.88 1.73-2.82 2.6-.44.67-.88 1.34-1.33 2.02.96-1.01 1.91-2.01 2.87-3.02.42-.54.85-1.07 1.28-1.6Zm-74.2 10c-.79-1.84-1.61-3.66-2.45-5.47-29.47 15.61-59.23 31.62-88.26 48.1-33.86 19.21-91.47 53.74-145.79 94.93h19.75c37.86-29.22 82.77-59.48 131.64-88.66 28.08-16.77 56.77-33.04 85.11-48.9Zm118.95-60.82c-3.42 2.13-6.86 4.25-10.31 6.37-1.03 1.52-2.06 3.05-3.11 4.57 3.31-2.19 6.61-4.38 9.89-6.57 1.19-1.46 2.37-2.92 3.53-4.37Z"/>
    <path fill="none" d="M655.302 88.549c-.86-1.81-1.74-3.6-2.65-5.38-30.65 15.44-61.55 31.26-91.63 47.53-37.59 20.34-102.88 57.78-162.38 102.37h20.22c41.87-31.86 92.51-64.84 147.88-96.26 29.16-16.54 59.01-32.6 88.56-48.26Zm6.02 13.96c-.73-1.86-1.48-3.72-2.26-5.56-28.19 15.78-56.72 31.96-84.63 48.62-35.98 21.48-84.29 52.23-130.1 87.49h19.68c33.75-26.58 72.58-53.74 115.91-81.06 26.94-16.97 54.38-33.44 81.4-49.49Zm122.42-75.89c-3.84 2.25-7.68 4.48-11.53 6.71-1.02 1.58-2.06 3.16-3.11 4.74 3.7-2.28 7.39-4.57 11.06-6.86 1.21-1.53 2.4-3.06 3.58-4.59Zm5.98-7.89c-4.23 2.34-8.47 4.66-12.7 6.98-.98 1.58-1.97 3.16-2.98 4.75 4.09-2.37 8.16-4.75 12.24-7.14 1.16-1.53 2.31-3.06 3.44-4.59Zm-16.45 25.64c-1.77 1.28-3.54 2.56-5.32 3.84-.75.89-1.51 1.79-2.27 2.68 1.8-1.42 3.59-2.84 5.38-4.26.74-.76 1.48-1.51 2.21-2.26Zm-43.59-1.72c5.52-2.78 11.05-5.57 16.58-8.37 3.81-11.83 6.7-23.46 8.66-34.8h-21.73c.32 13.82-.85 28.27-3.51 43.17Zm34.17-17.32c3.96-8.7 7.43-17.32 10.41-25.85h-17.85c-1.94 11.07-4.77 22.41-8.46 33.95 5.3-2.69 10.6-5.39 15.9-8.1Z"/>
    <path fill="none" d="M710.982 52.029c5.74-2.87 11.49-5.75 17.24-8.65 2.71-15.16 3.9-29.86 3.54-43.9h-26.31c.95 3.8 1.79 7.66 2.5 11.57 2.38 13.02 3.39 26.74 3.03 40.98Zm115.95-51c.77-.52 1.54-1.04 2.32-1.55h-.36c-.27.17-.53.33-.8.5-.39.35-.77.7-1.16 1.05Zm-15.73 12.2c-1.46.95-2.92 1.9-4.38 2.84-.54.53-1.08 1.05-1.62 1.58 1.63-1.14 3.25-2.29 4.87-3.43.38-.33.75-.66 1.13-.99Zm-13.67-5.36c1.95-2.8 3.86-5.59 5.72-8.39h-11.39c-2.71 5.27-5.59 10.57-8.65 15.87 4.78-2.48 9.55-4.97 14.32-7.48Zm13.14-2.74c3.31-1.88 6.62-3.76 9.92-5.65h-3.59c-.99.53-1.99 1.07-2.98 1.6-1.1 1.35-2.22 2.7-3.35 4.05Zm8.56-1.55c2.22-1.36 4.44-2.73 6.66-4.1h-1.98c-.54.31-1.08.62-1.63.93-1.01 1.06-2.03 2.11-3.05 3.17Zm-38.3 12.95c3.31-5.7 6.41-11.39 9.31-17.05h-14.44c-2.88 8.2-6.22 16.49-10.01 24.85 5.06-2.58 10.1-5.18 15.14-7.8Z"/>
    <path fill="none" d="M691.882 61.579c.24-.12.47-.24.71-.35l17.14-8.57c.36-14.26-.65-28-3.03-41.03-.74-4.12-1.62-8.17-2.63-12.15h-31.96c4.08 7.77 7.62 15.86 10.6 24.3 4.25 11.95 7.31 24.61 9.17 37.8Zm125.46-58.04c.22-.22.43-.45.65-.67-3.44 1.96-6.89 3.91-10.34 5.86-1.1 1.3-2.21 2.59-3.33 3.88 3.39-2.03 6.77-4.07 10.14-6.12.96-.98 1.93-1.96 2.88-2.95Zm-54.05 50.91c-.68.53-1.37 1.07-2.05 1.6l-.78.9c.88-.76 1.75-1.53 2.63-2.3.07-.06.14-.13.2-.2Zm37.87-34.74c-2.4 1.54-4.81 3.08-7.23 4.61-.93 1.03-1.87 2.05-2.81 3.08 2.41-1.65 4.82-3.31 7.21-4.97.95-.91 1.89-1.82 2.83-2.72Zm8.75-8.63c-2.98 1.8-5.96 3.59-8.95 5.37-1.09 1.24-2.18 2.47-3.28 3.7 2.94-1.88 5.87-3.77 8.8-5.66 1.15-1.13 2.29-2.27 3.43-3.41Zm11.73-7.13c-2.3 1.41-4.6 2.81-6.9 4.21-.9.91-1.8 1.82-2.71 2.72 2.36-1.54 4.71-3.08 7.05-4.63.86-.77 1.71-1.53 2.56-2.3Zm-29.92 24.78c-1.65 1.13-3.31 2.26-4.96 3.38-.67.72-1.34 1.43-2.01 2.15 1.74-1.28 3.47-2.57 5.19-3.86.59-.56 1.19-1.11 1.78-1.67Zm-12.41 11.24c-.04.05-.09.09-.13.14.18-.15.36-.29.54-.44-.14.1-.27.2-.41.3Z"/>
    <path fill="none" d="M672.422 71.319c6.15-3.08 12.29-6.15 18.39-9.2-1.86-13.2-4.92-25.86-9.16-37.81-3.05-8.63-6.69-16.9-10.89-24.83h-39.33c10.1 11.43 18.8 23.77 26.06 37.03 6 10.96 11 22.61 14.93 34.81Zm138.4-68.53c-4.25 2.26-8.51 4.52-12.77 6.76-1.05 1.48-2.11 2.97-3.18 4.45 4.14-2.3 8.27-4.62 12.4-6.94 1.19-1.43 2.38-2.85 3.55-4.27Zm-41.13 31.99c-4.16 2.4-8.32 4.79-12.48 7.17-.2.38-.39.76-.59 1.14-.68 1.3-1.38 2.6-2.08 3.9 3.99-2.42 7.95-4.85 11.91-7.28 1.09-1.65 2.18-3.29 3.24-4.93Zm-92.29 141.68c-8.67 15.84-18.54 32.78-29.75 51.13-1.11 1.82-2.24 3.64-3.37 5.48h9.92c8.98-17.95 16.81-34.89 23.52-50.99-.08-1.88-.19-3.75-.32-5.62Zm81.54-125.81c-3.35 2.2-6.71 4.39-10.08 6.58-.92 1.62-1.86 3.23-2.8 4.84 3.2-2.24 6.38-4.49 9.55-6.73 1.12-1.56 2.23-3.12 3.33-4.69Zm-21.91 24c-2.8 2.12-5.62 4.24-8.45 6.36-.79 1.63-1.59 3.26-2.4 4.89 2.63-2.17 5.26-4.34 7.86-6.51 1.01-1.58 2-3.16 2.99-4.74Zm27.42-31.97c-3.76 2.3-7.53 4.6-11.32 6.9-.9 1.65-1.82 3.3-2.74 4.95 3.6-2.34 7.19-4.69 10.76-7.04 1.11-1.6 2.21-3.2 3.3-4.81Zm-131.49 170.06c14.64-17.88 29.03-35.44 42.81-52.86-.26-1.98-.53-3.96-.82-5.92-10.21 11.21-20.65 22.51-31.21 33.95-5.25 5.69-10.56 11.43-15.91 17.25-8.51 9.23-17.05 18.55-25.54 27.92h13.98c3.08-3.76 6.14-7.49 9.18-11.19 2.53-3.08 5.04-6.13 7.51-9.15Zm43.66-45.58c-.2-1.93-.42-3.85-.65-5.76-13.38 16.88-27.33 33.91-41.51 51.23-2.48 3.02-4.98 6.07-7.51 9.14-3.07 3.74-6.16 7.51-9.28 11.3h12.78c3.11-4.3 6.17-8.54 9.2-12.77 13.45-18.79 25.76-36.38 36.97-53.14Zm.64 7.41c-.14-1.92-.31-3.83-.49-5.73-10.87 16.2-22.76 33.17-35.71 51.26-3.08 4.29-6.19 8.6-9.34 12.97h11.42c1.08-1.75 2.15-3.49 3.21-5.22 11.72-19.19 21.96-36.83 30.91-53.28Zm.58 9.81c-6.5 15.41-14.02 31.6-22.58 48.69h8.31c5.63-14.93 10.44-29.32 14.44-43.2-.04-1.84-.1-3.67-.17-5.49Zm.22 8.63c-3.82 12.91-8.35 26.25-13.56 40.06h6.6c2.87-11.64 5.19-22.96 6.98-33.98.02-2.03.01-4.06-.02-6.08Zm53.75-110.13c-2.33 1.93-4.67 3.86-7.02 5.79-.77 1.51-1.54 3.03-2.33 4.55 2.19-2 4.36-3.99 6.53-5.99.95-1.45 1.89-2.9 2.82-4.35Zm-11.95 17.92c-1.05 1.08-2.11 2.16-3.17 3.25-.44.81-.88 1.62-1.33 2.43 1.07-1.27 2.14-2.53 3.2-3.8.43-.62.86-1.25 1.3-1.88Zm6.35-9.37c-1.78 1.63-3.58 3.27-5.38 4.9-.68 1.3-1.38 2.6-2.08 3.9 1.68-1.73 3.36-3.46 5.03-5.19.82-1.2 1.63-2.4 2.43-3.61Zm48.43-64.42c-4.53 2.47-9.05 4.92-13.59 7.37-.82 1.67-1.66 3.34-2.52 5.01 4.35-2.49 8.69-4.98 13.02-7.49 1.05-1.64 2.08-3.26 3.09-4.89Zm-34.35 48.81c-1.8 1.51-3.6 3.01-5.41 4.51-.76 1.19-1.53 2.38-2.3 3.57 1.72-1.6 3.44-3.2 5.14-4.8.86-1.09 1.72-2.18 2.57-3.28Zm39.02-56.51c-4.89 2.53-9.78 5.05-14.68 7.55-.77 1.66-1.55 3.32-2.36 4.99 4.71-2.54 9.41-5.1 14.11-7.67 1-1.62 1.97-3.25 2.93-4.87Zm-107.39 213.76h4.19c1.03-9.66 1.66-19.16 1.88-28.49-1.65 9.29-3.67 18.78-6.07 28.49Zm-10.81-85.45c3.65-3.19 7.29-6.37 10.91-9.54-.43-1.96-.87-3.92-1.34-5.86-.38.3-.76.61-1.14.91-20.12 16.03-40.93 32.61-61.65 49.66-21.16 17.4-40.67 34.15-58.57 50.29h16.83c14.22-13.53 29.73-27.79 46.84-43.06 16.22-14.51 32.44-28.69 48.12-42.4Z"/>
    <path fill="none" d="M668.072 132.699c.76-.61 1.52-1.21 2.27-1.81-.49-1.95-.99-3.89-1.52-5.82-22.2 16.26-45 33.01-67.61 50.27-26.07 19.88-49.9 39.13-71.48 57.73h17.57c17.88-16.11 37.49-32.93 59.06-50.66 20.75-17.07 41.57-33.66 61.71-49.71Zm85.06-73.94c-2.9 2.05-5.82 4.09-8.74 6.14-.92 1.55-1.84 3.09-2.78 4.63 2.76-2.1 5.51-4.21 8.25-6.32 1.1-1.48 2.19-2.96 3.27-4.45Z"/>
    <path fill="none" d="M668.452 123.739c-.55-1.93-1.12-3.85-1.71-5.76-23.83 16.17-48.17 32.79-72.21 49.92-31.56 22.47-60.01 44.21-85.32 65.17h18.39c21.77-18.76 45.88-38.22 72.14-58.25 22.99-17.55 46.17-34.57 68.71-51.08Zm78.53-56.66c-2.41 1.85-4.83 3.69-7.26 5.53-.88 1.42-1.76 2.85-2.66 4.27 2.29-1.91 4.57-3.83 6.84-5.75 1.03-1.35 2.06-2.7 3.08-4.05Zm-127.35 130.51c11.13-10.91 22.25-21.68 33-32.09 7.01-6.79 13.97-13.53 20.85-20.23-.37-1.97-.77-3.92-1.18-5.87-3.21 2.81-6.44 5.63-9.68 8.46-15.67 13.7-31.88 27.87-48.08 42.36-15.03 13.42-30.81 27.79-46.65 42.84h16.14c11.9-12.11 23.85-23.97 35.6-35.47Zm122.28-130.96c-3.23 2.25-6.48 4.51-9.73 6.76-.78 1.69-1.57 3.38-2.38 5.08 3.05-2.29 6.09-4.59 9.12-6.89 1.01-1.65 2.01-3.3 2.99-4.95Zm-99.71 121.29c11.02-11.93 21.89-23.71 32.52-35.39-.31-1.97-.64-3.93-1-5.88-6.46 6.28-12.98 12.6-19.55 18.96-10.75 10.41-21.86 21.17-32.99 32.07-11.72 11.47-23.64 23.3-35.51 35.38h15.09c8.48-9.37 17.01-18.67 25.52-27.9 5.36-5.8 10.67-11.55 15.92-17.24Z"/>
    <path fill="#fff" fill-rule="nonzero" d="M798.052 9.549c4.26-2.24 8.52-4.5 12.77-6.76.91-1.1 1.81-2.2 2.7-3.31h-.17c-4.38 2.34-8.77 4.67-13.16 6.99-.7 1.02-1.42 2.05-2.14 3.08Zm18.96-10.07h-1.68c-.43.53-.86 1.07-1.3 1.6.99-.53 1.99-1.07 2.98-1.6Zm-36.08 17.05c-5.04 2.61-10.09 5.21-15.14 7.8-.38.84-.77 1.69-1.16 2.53 4.89-2.51 9.79-5.02 14.68-7.55.55-.93 1.09-1.85 1.62-2.78Zm-109.41 55.24c-6.28 3.14-12.57 6.3-18.88 9.48.27.51.53 1.02.79 1.53 6.22-3.13 12.43-6.25 18.62-9.35-.17-.56-.35-1.11-.53-1.66Zm74.75-37.49c-5.53 2.8-11.06 5.59-16.58 8.37l-.39 2.13c5.4-2.72 10.81-5.45 16.23-8.19.24-.77.49-1.54.74-2.31Zm-18.05 9.1c-5.75 2.89-11.5 5.77-17.24 8.65-.02.65-.04 1.3-.06 1.96 5.63-2.82 11.26-5.64 16.91-8.48.14-.71.27-1.42.39-2.13Zm35.63-18.05c-5.3 2.71-10.6 5.41-15.9 8.1-.25.77-.49 1.54-.74 2.31 5.16-2.61 10.31-5.24 15.47-7.87.39-.85.79-1.7 1.17-2.54Zm-111.19 57.84c-.26-.51-.52-1.03-.78-1.54-30.67 15.44-61.58 31.28-91.72 47.58-62.12 33.61-118.68 69.33-164.52 103.86h3.01c59.5-44.59 124.79-82.04 162.38-102.37 30.08-16.28 60.97-32.1 91.63-47.53Zm38.15-21.05c-6.11 3.05-12.24 6.12-18.39 9.2.18.55.35 1.11.53 1.67 6.06-3.04 12.1-6.06 18.12-9.06-.08-.61-.17-1.21-.26-1.81Zm18.86-7.5c.02-.65.05-1.31.06-1.96l-17.14 8.57c-.24.12-.47.24-.71.35.08.6.17 1.2.25 1.8.35-.17.7-.35 1.05-.53 5.49-2.73 10.98-5.48 16.49-8.23Zm87.86-46.75c-4.77 2.51-9.54 5-14.32 7.48-.54.93-1.08 1.86-1.62 2.78 4.6-2.38 9.19-4.77 13.77-7.18.73-1.02 1.46-2.05 2.17-3.08Zm-105.64 63.23c-.06-.59-.12-1.17-.18-1.76-.3.16-.61.32-.92.48-5.39 2.84-10.8 5.69-16.23 8.55l.45 1.62c5.53-2.91 11.04-5.82 16.52-8.7.12-.06.24-.13.36-.19Zm-35.89 18.94c-.23-.5-.46-1-.69-1.49-29.55 15.66-59.4 31.72-88.56 48.26-55.37 31.42-106 64.4-147.88 96.26h3.08c54.32-41.2 111.92-75.72 145.79-94.93 29.03-16.48 58.79-32.49 88.26-48.1Zm136.04-74.47c-4.43 2.45-8.86 4.9-13.3 7.33-.57.94-1.15 1.88-1.73 2.82 4.24-2.32 8.48-4.64 12.7-6.98.8-1.06 1.56-2.12 2.33-3.17Zm-48.31 26.24c-5.16 2.76-10.32 5.5-15.48 8.24l-.45 2.1c5.04-2.67 10.08-5.35 15.12-8.04.27-.77.54-1.53.81-2.3Zm-70.06 37.03c-5.84 3.08-11.71 6.18-17.58 9.29.24.49.46.99.7 1.49 5.79-3.07 11.57-6.12 17.33-9.16l-.45-1.62Zm133.98-70.11c3.45-1.95 6.9-3.9 10.34-5.86 1.09-1.13 2.18-2.26 3.26-3.39h-.65c-3.3 1.89-6.61 3.78-9.92 5.65-1.01 1.2-2.01 2.4-3.03 3.6Zm-47.38 24.21c-4.94 2.66-9.88 5.32-14.82 7.96-.27.76-.54 1.53-.81 2.3 4.8-2.56 9.6-5.14 14.4-7.72.41-.86.82-1.7 1.23-2.54Zm63.64-33.46h-.74c-.3.31-.59.62-.89.93.54-.31 1.09-.62 1.63-.93Zm-47.52 24.7c-4.7 2.57-9.4 5.12-14.11 7.67-.41.84-.81 1.68-1.22 2.53 4.53-2.45 9.06-4.9 13.59-7.37.58-.94 1.17-1.89 1.74-2.83Zm30.88-17.12c-4.13 2.33-8.26 4.64-12.4 6.94-.76 1.06-1.54 2.11-2.32 3.17 3.89-2.15 7.77-4.32 11.64-6.49 1.04-1.21 2.06-2.42 3.08-3.62Zm-97.85 52.95c-5.56 2.93-11.11 5.86-16.65 8.77.06.59.13 1.17.18 1.76 5.44-2.86 10.89-5.73 16.35-8.61.05-.65.08-1.28.12-1.92Zm17.36-9.18c-5.37 2.85-10.74 5.68-16.1 8.51-.04.64-.07 1.28-.11 1.92 5.24-2.77 10.5-5.54 15.75-8.33.16-.7.32-1.4.46-2.1Zm14.18-1.45c-4.79 2.71-9.58 5.41-14.37 8.1-.16.69-.33 1.38-.5 2.07 4.66-2.61 9.32-5.24 13.98-7.87.3-.76.6-1.53.89-2.3Zm73.5-42.89c-3.37 2.05-6.75 4.09-10.14 6.12-.24.28-.48.55-.72.83-.87 1-1.75 2.01-2.64 3.01 2.99-1.78 5.97-3.57 8.95-5.37 1.53-1.52 3.04-3.05 4.55-4.59Zm-121.98 71.83c-.04-.57-.08-1.15-.12-1.72-1.26.7-2.53 1.41-3.79 2.11-4.03 2.24-8.07 4.49-12.12 6.75.13.52.25 1.05.38 1.58 4.22-2.35 8.43-4.7 12.63-7.03 1-.56 2.01-1.13 3.02-1.69Zm32.61-20c-4.99 2.8-9.97 5.58-14.94 8.36-.06.63-.11 1.25-.17 1.88 4.86-2.71 9.73-5.44 14.6-8.17.18-.69.35-1.38.51-2.07Zm75.47-43.46c-3.75 2.24-7.52 4.47-11.28 6.69-.44.59-.88 1.18-1.33 1.76-.39.51-.78 1.01-1.17 1.52 3.48-2.04 6.95-4.09 10.41-6.15 1.13-1.26 2.26-2.54 3.37-3.82Zm-14.44 8.67c.05-.07.1-.14.16-.21-4.07 2.39-8.15 4.77-12.24 7.14-.58.91-1.16 1.82-1.75 2.74-.03.04-.06.09-.09.13 3.85-2.23 7.69-4.46 11.53-6.71.81-1.03 1.6-2.06 2.39-3.09Zm-77.24 43.86c-5.16 2.88-10.31 5.75-15.45 8.61.04.57.08 1.15.12 1.72 5.05-2.81 10.1-5.63 15.17-8.45.05-.63.1-1.25.16-1.88Zm110.35-63.81c-1.49 1.53-2.98 3.06-4.49 4.58 2.3-1.4 4.6-2.8 6.9-4.21 1.64-1.48 3.28-2.97 4.91-4.47h-.66c-2.21 1.37-4.43 2.74-6.66 4.1Zm9.66-4.1h-.26c-.18.17-.36.33-.54.5.26-.17.53-.34.8-.5Zm-169.82 97.48c-.2-.48-.41-.96-.62-1.44-28.34 15.86-57.03 32.13-85.11 48.9-48.87 29.17-93.77 59.44-131.64 88.66h2.64c45.81-35.26 94.12-66.01 130.1-87.49 27.9-16.67 56.43-32.86 84.63-48.63Zm16.49-11c-5.42 3.02-10.86 6.06-16.31 9.11.21.48.41.96.62 1.44 5.37-3.01 10.73-6 16.07-8.97-.13-.53-.25-1.06-.38-1.58Zm80.89-45.38c-4.57 2.61-9.15 5.21-13.73 7.81-.29.77-.59 1.53-.89 2.3 4.43-2.51 8.86-5.02 13.29-7.55.45-.86.89-1.71 1.33-2.56Zm14.08-7.07c.35-.54.68-1.08 1.03-1.61-4.34 2.51-8.68 5.01-13.02 7.49-.44.85-.88 1.71-1.32 2.56 4.16-2.38 8.33-4.77 12.48-7.17.27-.42.55-.85.83-1.27Zm9.63-2.3c-3.67 2.29-7.36 4.58-11.06 6.86-.66 1-1.34 1.99-2.01 2.99 3.45-2.12 6.88-4.24 10.31-6.37.93-1.16 1.85-2.32 2.76-3.48Zm-13.71 8.49c-3.95 2.43-7.92 4.86-11.91 7.28-.47.87-.94 1.73-1.41 2.6 3.79-2.3 7.56-4.6 11.32-6.9.67-.99 1.34-1.98 2-2.98Zm-14.08 8.6c-4.19 2.55-8.4 5.09-12.63 7.63-.31.77-.62 1.53-.94 2.3 4.06-2.44 8.1-4.88 12.13-7.32.49-.87.97-1.74 1.44-2.61Zm-59.54 37.29c-.02-.56-.04-1.13-.06-1.69-2.3 1.36-4.61 2.73-6.92 4.09-2.58 1.53-5.18 3.06-7.77 4.6.01.05.02.09.03.14.1.47.19.94.28 1.4 2.83-1.68 5.66-3.35 8.48-5.01 1.99-1.19 3.98-2.36 5.96-3.53Zm100.69-62.79c-3.35 2.12-6.71 4.24-10.08 6.36-.91 1.16-1.81 2.32-2.73 3.47 3.01-1.88 6.01-3.76 9.01-5.65 1.28-1.4 2.54-2.79 3.8-4.18Zm-131.65 81.12c-.18-.47-.37-.93-.55-1.4-27.03 16.04-54.47 32.52-81.4 49.5-43.33 27.32-82.16 54.47-115.91 81.06h2.72c40.79-32.06 82.7-60.06 114.4-80.05 26.7-16.84 53.92-33.19 80.74-49.11Zm144.61-89.43c-2.92 1.89-5.85 3.78-8.8 5.66-1.24 1.39-2.49 2.78-3.75 4.17 2.42-1.53 4.82-3.07 7.23-4.61 1.79-1.74 3.56-3.48 5.32-5.22Zm-129.27 78.65c0-.01-.01-.03-.01-.04-5 2.96-10.02 5.93-15.06 8.92.18.47.37.93.55 1.4 4.96-2.94 9.9-5.87 14.82-8.78-.1-.49-.19-1-.3-1.5Zm143.78-86.73c.12-.09.24-.17.36-.26 2.77-2.21 5.52-4.43 8.26-6.67h-.36c-.77.52-1.54 1.04-2.32 1.55-1.97 1.8-3.95 3.59-5.94 5.38Zm-83.05 50.61c-4.39 2.64-8.8 5.28-13.23 7.92-.18.69-.37 1.37-.56 2.06 4.3-2.56 8.57-5.12 12.84-7.68.32-.76.63-1.53.95-2.3Zm-14.76 8.83c-4.58 2.73-9.18 5.46-13.79 8.2-.07.62-.15 1.24-.23 1.86 4.5-2.67 8.99-5.34 13.46-8 .19-.68.38-1.37.56-2.06Zm-15.07 8.96c-4.74 2.81-9.49 5.62-14.26 8.45.02.56.04 1.13.06 1.69 4.68-2.77 9.34-5.53 13.98-8.28.07-.62.14-1.24.22-1.86Zm110.98-68.56c-2.35 1.55-4.7 3.09-7.05 4.63-1.73 1.73-3.47 3.46-5.22 5.19 1.46-.95 2.93-1.89 4.38-2.84 2.64-2.32 5.28-4.64 7.89-6.98Zm-45.21 32.8c-3.29 2.2-6.58 4.39-9.89 6.57-.72 1.05-1.44 2.1-2.18 3.14 3-1.97 5.99-3.95 8.97-5.93 1.04-1.25 2.07-2.51 3.1-3.78Zm-66.75 43.21c-4.35 2.75-8.71 5.51-13.09 8.28.01.55.01 1.11.02 1.66 4.28-2.7 8.54-5.4 12.79-8.09.09-.61.19-1.23.28-1.85Zm91.21-59.83c-2.4 1.66-4.8 3.31-7.21 4.97-1.45 1.58-2.91 3.15-4.37 4.72 1.66-1.13 3.31-2.25 4.96-3.38 2.22-2.1 4.43-4.21 6.62-6.31Zm23.27-14.68c3.8-2.74 7.58-5.5 11.34-8.27h-1.09c-3.39 2.78-6.81 5.53-10.25 8.27Zm-100.55 65.66c-4.19 2.67-8.41 5.35-12.63 8.03-.09.62-.19 1.24-.28 1.86 4.12-2.61 8.22-5.21 12.3-7.81.21-.7.41-1.39.61-2.08Zm27.02-17.37c-3.81 2.47-7.64 4.95-11.48 7.42l-1.02 2.34c3.67-2.36 7.33-4.72 10.97-7.08.52-.89 1.03-1.79 1.53-2.68Zm-83.66 54.89c-.16-.46-.32-.92-.48-1.37-25.62 16.21-51.72 32.88-77.42 50.06-31.86 21.3-67.06 46.35-100.69 73.45h2.4c33.28-26.78 68.09-51.54 99.61-72.61 25.4-16.99 51.22-33.48 76.58-49.53Zm145.65-96.71c-1.62 1.15-3.25 2.29-4.87 3.43-1.92 1.88-3.86 3.76-5.81 5.63.48-.36.96-.73 1.43-1.1 3.1-2.64 6.19-5.29 9.25-7.96Zm-131.47 86.07c-4.59 2.9-9.2 5.81-13.82 8.73.16.46.33.91.49 1.37 4.55-2.88 9.09-5.75 13.61-8.6-.09-.5-.19-1-.28-1.5Zm56.12-35.62c-4.01 2.58-8.05 5.16-12.09 7.74-.2.69-.4 1.38-.61 2.07 3.91-2.49 7.8-4.98 11.68-7.47l1.02-2.34Zm-41.74 28.22c0-.56-.01-1.11-.01-1.67-3.46 2.18-6.92 4.37-10.39 6.56l-3.09 1.95c.09.5.19 1 .27 1.5 1.32-.84 2.65-1.67 3.97-2.5 3.08-1.95 6.17-3.9 9.25-5.84Zm68.17-45.4c-3.57 2.35-7.16 4.7-10.76 7.04-.51.9-1.02 1.8-1.53 2.69 3.37-2.19 6.73-4.38 10.08-6.58.74-1.04 1.48-2.09 2.21-3.15Zm25.15-16.81c-2.92 1.98-5.84 3.96-8.78 5.93-1.02 1.26-2.04 2.52-3.07 3.78 2.48-1.65 4.94-3.31 7.4-4.97 1.5-1.57 2.98-3.15 4.45-4.74Z"/>
    <path fill="#fff" fill-rule="nonzero" d="M820.992 6.409c-.11.1-.21.19-.32.29.23-.18.45-.36.68-.54-.12.08-.24.16-.36.25Zm-65.39 48.93c-3.17 2.25-6.35 4.49-9.55 6.73-.55.94-1.1 1.88-1.66 2.82 2.92-2.04 5.84-4.09 8.74-6.14.83-1.13 1.66-2.27 2.47-3.41Zm-11.99 8.45c-3.43 2.4-6.87 4.79-10.33 7.19-.36.8-.73 1.61-1.1 2.41 3.26-2.25 6.5-4.5 9.73-6.76.57-.95 1.14-1.89 1.7-2.84Zm23.75-16.84c-2.85 2.05-5.72 4.1-8.6 6.15-.81 1.14-1.63 2.28-2.45 3.42 2.48-1.76 4.96-3.52 7.43-5.28 1.21-1.43 2.42-2.86 3.62-4.29Zm13.86-8.49c2.93-2.68 5.83-5.36 8.71-8.06-1.73 1.29-3.46 2.58-5.19 3.86-1.8 1.91-3.61 3.81-5.43 5.71.14-.1.27-.2.41-.3.5-.4 1-.81 1.5-1.21Zm-114.48 79.52-.42-1.35c-24.13 16.37-48.81 33.22-73.19 50.59-31.61 22.51-60.39 44.53-86.06 65.85h2.14c25.31-20.96 53.76-42.7 85.32-65.17 24.03-17.13 48.38-33.75 72.21-49.92Zm52.02-37c-3.82 2.62-7.65 5.24-11.5 7.86-.1.62-.21 1.23-.31 1.85 3.73-2.54 7.44-5.07 11.14-7.61.22-.7.44-1.4.67-2.1Zm-25.82 17.6c-4.08 2.77-8.17 5.54-12.28 8.32.07.49.14.99.22 1.49 4.03-2.73 8.04-5.45 12.03-8.16.02-.55.02-1.1.03-1.65Zm38.38-26.25c-3.64 2.51-7.29 5.03-10.95 7.55-.22.7-.44 1.4-.67 2.1 3.51-2.41 7.01-4.82 10.5-7.22.37-.81.75-1.62 1.12-2.43Zm-25.38 17.41c-3.96 2.69-7.93 5.39-11.91 8.1l-.03 1.65c3.89-2.64 7.76-5.27 11.62-7.9.11-.61.21-1.23.32-1.85Zm-25.94 19.24c-.07-.5-.14-.99-.22-1.49-.4.27-.79.54-1.19.8-3.79 2.57-7.61 5.16-11.43 7.75.14.45.29.9.43 1.34 4.11-2.79 8.2-5.56 12.28-8.32.05-.02.09-.05.13-.08Zm98.81-70.35c-2.42 1.77-4.84 3.54-7.28 5.3-1.18 1.43-2.38 2.85-3.58 4.27 1.78-1.28 3.55-2.56 5.32-3.84 1.86-1.9 3.71-3.81 5.54-5.73Zm22.01-16.45c-.48.37-.96.73-1.43 1.1-.34.32-.67.64-1 .97.8-.69 1.62-1.38 2.43-2.07Z"/>
    <path fill="#fff" fill-rule="nonzero" d="M820.672 6.689c-6.43 5.75-12.97 11.43-19.6 17.05 6.93-5.27 13.78-10.6 20.54-15.99 3.44-2.74 6.85-5.5 10.25-8.27h-2.25c-2.74 2.24-5.49 4.46-8.26 6.67-.23.18-.45.36-.68.54Zm-151.85 118.38c-.12-.44-.24-.89-.37-1.33-22.54 16.51-45.72 33.52-68.71 51.08-26.26 20.03-50.36 39.5-72.14 58.25h2.13c21.58-18.6 45.41-37.85 71.48-57.73 22.61-17.26 45.41-34.01 67.61-50.27Zm12.11-8.86c-.06-.49-.11-.99-.17-1.48-2.31 1.69-4.62 3.38-6.93 5.08-1.49 1.09-3 2.2-4.5 3.29.13.44.25.89.37 1.33 1.84-1.35 3.68-2.69 5.51-4.03 1.9-1.4 3.81-2.8 5.72-4.19Zm57.99-44.63c-3.03 2.3-6.07 4.59-9.12 6.89-.4.85-.81 1.7-1.22 2.55 2.83-2.12 5.64-4.24 8.45-6.36.63-1.03 1.26-2.06 1.89-3.08Zm-22.67 17.01c-3.43 2.55-6.88 5.1-10.34 7.66-.12.63-.25 1.25-.37 1.88 3.34-2.46 6.66-4.92 9.97-7.37.25-.73.5-1.45.74-2.17Zm44.37-33.72c-2.39 1.87-4.78 3.73-7.18 5.59-.95 1.29-1.9 2.58-2.86 3.86 1.84-1.42 3.68-2.84 5.51-4.26 1.52-1.72 3.03-3.46 4.53-5.19Zm-56.06 42.38c-3.56 2.63-7.14 5.26-10.74 7.9-.02.55-.06 1.11-.08 1.67 3.5-2.57 6.98-5.13 10.45-7.68.12-.64.24-1.27.37-1.89Zm45.3-34.04c-2.74 2.11-5.49 4.21-8.25 6.32-.62 1.03-1.26 2.05-1.9 3.08 2.43-1.84 4.85-3.69 7.26-5.53.98-1.29 1.94-2.58 2.89-3.87Zm-57.14 42.75c-3.68 2.7-7.38 5.41-11.09 8.13.06.49.12.98.17 1.48 3.62-2.65 7.24-5.3 10.83-7.94.04-.56.07-1.12.09-1.67Zm78.35-59.33c-1.79 1.42-3.58 2.84-5.38 4.26-1.47 1.72-2.95 3.45-4.44 5.17.68-.53 1.37-1.07 2.05-1.6 2.61-2.61 5.2-5.22 7.77-7.83Zm-43.37 33.41c-3.24 2.43-6.5 4.87-9.78 7.3-.24.72-.49 1.45-.74 2.17 3.11-2.31 6.21-4.62 9.3-6.93.42-.85.82-1.69 1.22-2.54Z"/>
    <path fill="#fff" fill-rule="nonzero" d="M819.092 6.249c-2.61 2.34-5.24 4.66-7.89 6.98-.38.33-.75.66-1.13.99-3.06 2.67-6.14 5.32-9.25 7.97-.81.69-1.63 1.37-2.44 2.06-5.45 5.21-11 10.38-16.64 15.51 6.53-5.29 12.97-10.63 19.33-16.01 6.63-5.62 13.17-11.3 19.6-17.05.11-.1.21-.19.32-.29 1.99-1.78 3.97-3.58 5.94-5.37.39-.35.77-.71 1.15-1.06.18-.17.36-.33.54-.5h-2.07c-1.63 1.49-3.27 2.98-4.91 4.47-.85.77-1.7 1.53-2.55 2.3Zm-37.87 32.21c-.5.41-1 .81-1.5 1.22-.18.15-.36.29-.54.44-.54.56-1.07 1.12-1.61 1.67 1.22-1.11 2.44-2.22 3.65-3.33Zm-78.23 66.31c-3.18 2.56-6.38 5.13-9.59 7.7-.04.56-.07 1.12-.11 1.68 3.1-2.48 6.18-4.96 9.26-7.43.15-.64.3-1.3.44-1.95Zm40.91-33.64c-2.27 1.92-4.55 3.83-6.84 5.75-.72 1.15-1.45 2.31-2.18 3.46 1.81-1.5 3.61-3.01 5.41-4.51 1.21-1.57 2.42-3.13 3.61-4.7Zm-74.37 61.99c.38-.3.76-.61 1.14-.91l-.33-1.32c-.76.6-1.51 1.21-2.27 1.81-20.14 16.05-40.96 32.64-61.71 49.71-21.57 17.73-41.18 34.55-59.06 50.66h2.01c17.9-16.14 37.41-32.89 58.57-50.29 20.72-17.04 41.53-33.62 61.65-49.66Zm22.77-19.76c-3.29 2.63-6.59 5.28-9.91 7.92.04.49.09.99.13 1.48 3.23-2.58 6.45-5.15 9.65-7.72.05-.55.09-1.11.13-1.68Zm68.16-56.4c-.63.72-1.25 1.44-1.88 2.16 1.51-1.49 3.01-2.97 4.51-4.46-.88.77-1.75 1.53-2.63 2.3Zm-6.84 5.9c-1.8 1.54-3.6 3.08-5.41 4.62-1.17 1.56-2.36 3.11-3.55 4.67.87-.73 1.74-1.47 2.61-2.2 2.13-2.36 4.25-4.72 6.35-7.09Zm-40.05 33.35c-3.05 2.48-6.11 4.95-9.18 7.43-.14.65-.29 1.3-.44 1.95 2.94-2.37 5.86-4.73 8.78-7.1.28-.75.56-1.51.84-2.28Zm-32.06 25.78c-3.41 2.72-6.83 5.45-10.27 8.19.11.44.23.88.34 1.32 3.37-2.68 6.72-5.36 10.07-8.03-.05-.5-.1-.99-.14-1.48Zm52.54-42.6c-2.61 2.17-5.23 4.34-7.86 6.51-.46.92-.93 1.85-1.39 2.77 2.35-1.93 4.69-3.86 7.02-5.79.74-1.16 1.49-2.33 2.23-3.49Z"/>
    <path fill="#fff" fill-rule="nonzero" d="M817.342 3.539c-.96.99-1.92 1.97-2.89 2.95-1.51 1.53-3.02 3.06-4.54 4.59-1.14 1.14-2.28 2.28-3.43 3.41-1.76 1.74-3.54 3.48-5.32 5.22-.94.91-1.88 1.81-2.82 2.72-2.19 2.11-4.4 4.21-6.62 6.3-.59.56-1.19 1.11-1.79 1.67-2.88 2.7-5.78 5.38-8.71 8.06-1.22 1.11-2.43 2.22-3.66 3.33-4.53 4.7-9.14 9.37-13.83 14.02 6.09-5.32 12.1-10.66 18.01-16.05 5.63-5.13 11.18-10.3 16.64-15.51.34-.32.67-.64 1-.97 1.95-1.87 3.89-3.75 5.81-5.63.54-.53 1.08-1.05 1.62-1.58 1.75-1.72 3.49-3.45 5.22-5.19.9-.91 1.81-1.81 2.71-2.72 1.5-1.52 3-3.05 4.49-4.58 1.02-1.05 2.04-2.11 3.05-3.17.3-.31.59-.62.89-.93h-1.92c-1.08 1.13-2.16 2.26-3.26 3.39-.21.22-.43.45-.65.67Zm-93.42 84.22c-2.85 2.34-5.72 4.68-8.6 7.03-.28.76-.55 1.53-.84 2.29 2.69-2.18 5.36-4.36 8.02-6.54.48-.93.96-1.86 1.42-2.78Zm-3.98 7.75c-2.44 2.22-4.9 4.44-7.37 6.67l-.96 2.49c2.23-2 4.45-4.01 6.66-6.01.57-1.06 1.12-2.11 1.67-3.15Zm-37.87 33.75c-3.03 2.66-6.08 5.33-9.13 8.01.1.44.2.89.3 1.33 2.98-2.61 5.96-5.22 8.92-7.82-.04-.51-.06-1.01-.09-1.52Zm55.65-50.15c-1.71 1.6-3.42 3.2-5.14 4.8-.91 1.4-1.83 2.8-2.75 4.21.94-.87 1.88-1.73 2.82-2.6 1.71-2.14 3.4-4.28 5.07-6.41Zm-75.09 68.76c3.24-2.83 6.46-5.65 9.68-8.46-.09-.45-.19-.89-.29-1.34-3.62 3.17-7.26 6.35-10.91 9.54-15.68 13.71-31.9 27.89-48.12 42.39-17.11 15.28-32.62 29.53-46.84 43.06h1.74c15.84-15.05 31.62-29.42 46.65-42.84 16.21-14.47 32.41-28.64 48.09-42.35Zm80.83-74.17c-.69.9-1.38 1.79-2.08 2.69 1.69-1.83 3.36-3.66 5.02-5.49-.97.93-1.95 1.87-2.94 2.8Zm-32.77 30.17c-2.66 2.39-5.33 4.78-8.02 7.17-.17.68-.32 1.36-.5 2.05 2.52-2.24 5.04-4.49 7.54-6.73.34-.83.66-1.66.98-2.49Z"/>
    <path fill="#fff" fill-rule="nonzero" d="M807.272 7.059c-1.02 1.21-2.04 2.41-3.07 3.62-.82.95-1.64 1.91-2.47 2.86-.38.44-.77.88-1.16 1.32-1.12 1.28-2.24 2.56-3.37 3.83-1.22 1.37-2.44 2.74-3.67 4.11-1.26 1.39-2.52 2.79-3.8 4.18-1.13 1.24-2.27 2.48-3.42 3.71-1.47 1.58-2.96 3.17-4.45 4.74-1.01 1.07-2.03 2.14-3.05 3.21-1.83 1.92-3.68 3.83-5.54 5.74-.73.75-1.47 1.5-2.21 2.26-2.57 2.62-5.16 5.22-7.77 7.83l-.21.21c-1.5 1.49-3 2.98-4.51 4.46-3.74 4.27-7.55 8.53-11.43 12.78 5.62-5.35 11.15-10.71 16.58-16.1 4.69-4.65 9.3-9.32 13.83-14.02.54-.56 1.08-1.11 1.61-1.67.04-.05.09-.09.13-.14 1.82-1.9 3.63-3.8 5.43-5.71.67-.72 1.34-1.43 2.01-2.15 1.47-1.57 2.92-3.14 4.37-4.72.94-1.02 1.87-2.05 2.81-3.08 1.26-1.39 2.51-2.77 3.75-4.17 1.1-1.23 2.19-2.46 3.28-3.7.88-1 1.76-2 2.64-3.01.24-.28.48-.55.72-.83 1.12-1.29 2.23-2.59 3.33-3.88 1.02-1.2 2.02-2.4 3.02-3.59 1.13-1.35 2.25-2.7 3.35-4.05.44-.53.87-1.07 1.3-1.6h-1.8c-.89 1.1-1.8 2.21-2.7 3.31-1.15 1.4-2.34 2.82-3.53 4.25Zm-115.59 113.73c-2.9 2.56-5.81 5.12-8.73 7.69.03.5.05 1.01.08 1.52 2.84-2.49 5.66-4.98 8.47-7.46.07-.58.12-1.16.18-1.75Zm9.55-8.46c-2.79 2.48-5.6 4.97-8.42 7.46-.05.58-.11 1.17-.17 1.75 2.7-2.39 5.4-4.77 8.08-7.15.17-.69.34-1.37.51-2.06Zm27.76-25.11c-2.17 2-4.34 3.99-6.53 5.99-.54 1.04-1.08 2.08-1.63 3.12 1.8-1.63 3.59-3.27 5.38-4.9.94-1.4 1.86-2.8 2.78-4.21Zm-13.2 16.05c-2.01 2.06-4.04 4.11-6.08 6.17-.38.94-.77 1.89-1.16 2.84 1.72-1.73 3.44-3.47 5.14-5.2.72-1.27 1.41-2.54 2.1-3.81Zm-9.31 11.11c.39-.95.78-1.89 1.17-2.84-2.26 2.28-4.53 4.55-6.81 6.83-.2.75-.4 1.5-.61 2.26l6.25-6.25Zm22.02-24.25c-.64.97-1.29 1.93-1.94 2.89 1.61-1.97 3.22-3.94 4.81-5.92-.96 1.01-1.91 2.02-2.87 3.03Zm-46.09 46.43c-2.65 2.6-5.32 5.2-7.99 7.81.09.45.17.91.26 1.37 2.61-2.54 5.21-5.08 7.8-7.61-.03-.52-.05-1.04-.07-1.57Zm-61.22 61.13c11.13-10.9 22.24-21.67 32.99-32.07 6.57-6.36 13.09-12.68 19.55-18.96-.08-.46-.16-.92-.25-1.37-6.88 6.7-13.84 13.44-20.85 20.23-10.75 10.41-21.87 21.18-33 32.09-11.75 11.5-23.7 23.36-35.61 35.48h1.65c11.88-12.11 23.8-23.93 35.52-35.4Zm102.59-102.64c-1.67 1.73-3.34 3.46-5.03 5.19-.68 1.27-1.37 2.54-2.07 3.81 1.06-1.08 2.12-2.16 3.17-3.25 1.33-1.91 2.64-3.83 3.93-5.75Zm-32.9 33.19c-2.52 2.48-5.04 4.97-7.58 7.45.02.52.04 1.04.06 1.57 2.44-2.39 4.87-4.77 7.29-7.15.07-.63.16-1.25.23-1.87Zm8.41-8.33c-2.4 2.39-4.82 4.79-7.25 7.19-.07.62-.15 1.24-.22 1.86 2.3-2.27 4.59-4.53 6.87-6.79.2-.77.4-1.52.6-2.26Z"/>
    <path fill="#fff" fill-rule="nonzero" d="M795.362 10.959c-1.09 1.54-2.2 3.07-3.32 4.61-.77 1.05-1.54 2.11-2.32 3.16-1.13 1.53-2.28 3.06-3.44 4.58-.05.07-.1.14-.16.21-.79 1.03-1.58 2.06-2.38 3.09-1.18 1.53-2.38 3.06-3.58 4.59-.91 1.16-1.84 2.32-2.76 3.48-1.17 1.46-2.34 2.91-3.52 4.37-1.03 1.26-2.06 2.53-3.1 3.79-1.13 1.37-2.27 2.74-3.42 4.11-1.2 1.43-2.41 2.86-3.62 4.29-1.03 1.21-2.07 2.42-3.11 3.63-1.5 1.73-3.01 3.46-4.53 5.19-.82.93-1.64 1.87-2.47 2.8-2.1 2.37-4.22 4.73-6.35 7.09-.29.32-.57.63-.86.95-1.66 1.83-3.33 3.66-5.02 5.49-3.01 3.87-6.09 7.74-9.21 11.61 5.08-5.36 10.08-10.72 14.98-16.1 3.87-4.25 7.68-8.51 11.43-12.78.63-.72 1.26-1.44 1.88-2.16l.78-.9c1.49-1.72 2.97-3.44 4.44-5.17.76-.89 1.51-1.79 2.27-2.68 1.2-1.42 2.39-2.85 3.58-4.27.98-1.18 1.95-2.36 2.92-3.54 1.03-1.26 2.06-2.52 3.07-3.78 1.07-1.33 2.13-2.66 3.19-3.99.92-1.16 1.82-2.31 2.73-3.47 1.12-1.44 2.23-2.88 3.34-4.32.39-.51.78-1.01 1.17-1.52.45-.59.88-1.18 1.33-1.76 1.1-1.46 2.19-2.92 3.27-4.39.78-1.06 1.56-2.11 2.32-3.17 1.07-1.48 2.13-2.97 3.18-4.45.73-1.03 1.44-2.05 2.15-3.08 1.61-2.33 3.21-4.66 4.76-6.99h-1.7c-1.86 2.8-3.77 5.59-5.72 8.39-.74 1.03-1.47 2.06-2.2 3.09Zm-105.47 124.75c-2.13 2.38-4.27 4.77-6.42 7.16.01.56 0 1.12.01 1.68 2.05-2.27 4.09-4.55 6.12-6.81.1-.68.19-1.36.29-2.03Zm-46.15 52.2c10.56-11.44 21-22.74 31.21-33.95-.07-.48-.15-.95-.23-1.42-10.63 11.68-21.5 23.46-32.52 35.39-5.25 5.69-10.56 11.44-15.91 17.25-8.5 9.23-17.04 18.53-25.52 27.9h1.52c8.49-9.38 17.03-18.69 25.54-27.92 5.35-5.82 10.66-11.57 15.91-17.25Zm71.62-81.43c-.68 1.24-1.38 2.48-2.08 3.72 1.78-2.51 3.54-5.01 5.28-7.52-1.07 1.27-2.13 2.54-3.2 3.8Zm-10.92 12.72c-1.85 2.13-3.72 4.27-5.6 6.4-.24.85-.48 1.7-.73 2.56 1.62-1.83 3.23-3.67 4.83-5.5.51-1.15 1.01-2.31 1.5-3.46Zm-21.87 24.67c-2.28 2.53-4.58 5.06-6.88 7.6.08.47.16.94.23 1.42 2.23-2.45 4.45-4.9 6.66-7.35-.01-.55-.01-1.11-.01-1.67Zm28.95-32.88c-1.55 1.82-3.12 3.64-4.69 5.46-.49 1.15-.98 2.3-1.48 3.46 1.07-1.23 2.13-2.45 3.18-3.67 1.01-1.76 2.01-3.51 2.99-5.25Zm-14.33 16.49c-2.02 2.29-4.04 4.58-6.09 6.87-.09.67-.19 1.35-.29 2.02 1.88-2.11 3.76-4.21 5.62-6.31.26-.86.51-1.72.76-2.58Z"/>
    <path fill="#fff" fill-rule="nonzero" d="M779.312 19.309c-.96 1.62-1.93 3.25-2.92 4.87-.57.94-1.16 1.88-1.75 2.83-1.01 1.63-2.04 3.26-3.08 4.88-.34.54-.68 1.08-1.03 1.61-.27.42-.56.85-.83 1.27-1.07 1.64-2.15 3.28-3.25 4.92-.66.99-1.33 1.99-2 2.98-1.09 1.61-2.19 3.21-3.3 4.81-.73 1.05-1.47 2.11-2.21 3.16-1.1 1.56-2.21 3.13-3.33 4.69-.82 1.14-1.64 2.28-2.47 3.42-1.08 1.48-2.17 2.97-3.27 4.45-.96 1.29-1.92 2.58-2.89 3.87-1.02 1.35-2.05 2.7-3.08 4.05-1.19 1.56-2.4 3.13-3.61 4.69-.85 1.09-1.71 2.19-2.57 3.28-1.68 2.13-3.37 4.27-5.08 6.4-.43.53-.85 1.06-1.28 1.59-1.59 1.97-3.19 3.94-4.81 5.92-2.34 3.48-4.72 6.96-7.14 10.44 4.33-5.16 8.59-10.31 12.75-15.46 3.12-3.87 6.2-7.74 9.21-11.61.7-.9 1.39-1.79 2.08-2.69.4-.51.8-1.03 1.19-1.54 1.19-1.56 2.38-3.11 3.55-4.67.8-1.05 1.58-2.11 2.37-3.17.96-1.29 1.91-2.57 2.86-3.86.96-1.31 1.92-2.63 2.87-3.94.82-1.14 1.64-2.28 2.45-3.42 1.03-1.44 2.04-2.89 3.05-4.33.73-1.05 1.45-2.09 2.18-3.14 1.05-1.52 2.08-3.04 3.11-4.57.67-1 1.34-1.99 2.01-2.99 1.05-1.58 2.08-3.16 3.11-4.74.03-.04.06-.09.09-.13.59-.91 1.17-1.82 1.75-2.74 1.01-1.58 2-3.16 2.98-4.75.58-.94 1.16-1.88 1.73-2.82.96-1.59 1.91-3.17 2.84-4.76.55-.93 1.09-1.86 1.62-2.78 3.06-5.31 5.94-10.6 8.65-15.87h-1.62c-2.9 5.67-6 11.35-9.31 17.05-.53.95-1.07 1.87-1.62 2.8Zm-75.33 103.74c-.55 1.25-1.11 2.51-1.67 3.77 1.55-2.58 3.06-5.14 4.55-7.7-.96 1.32-1.92 2.62-2.88 3.93Zm-21.45 28.22c-1.91 2.45-3.84 4.91-5.78 7.36.07.5.14 1 .2 1.51 1.86-2.35 3.7-4.69 5.54-7.03.02-.61.03-1.23.04-1.84Zm18.43-24.14c-1.4 1.88-2.81 3.76-4.23 5.65-.32 1.04-.64 2.08-.97 3.12 1.01-1.33 2.02-2.67 3.02-4 .75-1.6 1.47-3.19 2.18-4.77Zm-66.51 85.49c14.18-17.32 28.13-34.34 41.51-51.23-.06-.51-.13-1.01-.19-1.52-13.78 17.42-28.17 34.99-42.81 52.86-2.48 3.02-4.98 6.07-7.51 9.14-3.04 3.7-6.1 7.43-9.18 11.19h1.39c3.11-3.8 6.21-7.57 9.28-11.3 2.53-3.07 5.03-6.12 7.51-9.14Zm54.27-69.32c-1.74 2.26-3.5 4.53-5.27 6.8-.01.61-.01 1.21-.02 1.82 1.64-2.1 3.27-4.2 4.89-6.29.13-.78.27-1.56.4-2.33Zm6.14-8.05c-1.61 2.12-3.23 4.24-4.86 6.37-.13.77-.26 1.55-.39 2.33 1.43-1.85 2.85-3.71 4.26-5.56.34-1.05.67-2.09.99-3.14Z"/>
    <path fill="#fff" fill-rule="nonzero" d="M762.682 27.859c-.78 1.69-1.59 3.38-2.41 5.07-.41.84-.82 1.69-1.24 2.53-.84 1.7-1.71 3.41-2.58 5.11-.44.85-.88 1.7-1.32 2.56-.06.11-.12.23-.18.34-.85 1.61-1.71 3.22-2.58 4.82-.47.87-.95 1.74-1.43 2.61-.94 1.71-1.89 3.42-2.86 5.12-.51.89-1.01 1.79-1.52 2.68-.97 1.69-1.96 3.38-2.95 5.07-.56.95-1.13 1.9-1.69 2.84-.99 1.65-1.99 3.3-2.99 4.95-.63 1.02-1.26 2.05-1.89 3.07-.98 1.58-1.98 3.16-2.98 4.74-.74 1.16-1.49 2.33-2.23 3.49-.93 1.45-1.87 2.9-2.82 4.34-.92 1.4-1.84 2.81-2.78 4.21-.8 1.21-1.62 2.41-2.43 3.62-1.3 1.92-2.6 3.84-3.93 5.76-.43.63-.87 1.25-1.3 1.88-1.74 2.51-3.5 5.01-5.28 7.52-1.79 3.18-3.63 6.39-5.52 9.61 3.98-5.45 7.87-10.9 11.67-16.35 2.42-3.48 4.8-6.96 7.14-10.44.65-.96 1.3-1.93 1.94-2.89.45-.67.88-1.34 1.33-2.02.92-1.4 1.84-2.8 2.75-4.21.77-1.19 1.54-2.38 2.3-3.57.73-1.15 1.46-2.3 2.18-3.46.89-1.42 1.78-2.84 2.66-4.27.63-1.03 1.27-2.05 1.9-3.08.94-1.54 1.86-3.09 2.78-4.63.56-.94 1.11-1.88 1.66-2.82.95-1.61 1.88-3.23 2.8-4.84.51-.9 1.03-1.8 1.53-2.69.93-1.65 1.84-3.3 2.74-4.95.47-.87.94-1.73 1.41-2.6.7-1.3 1.4-2.6 2.08-3.9.2-.38.39-.76.59-1.14.45-.85.89-1.71 1.32-2.56.86-1.67 1.7-3.34 2.52-5.01.42-.84.82-1.69 1.22-2.53.8-1.66 1.59-3.33 2.36-4.99.39-.84.78-1.69 1.16-2.53 3.78-8.36 7.12-16.65 10.01-24.85h-1.54c-2.98 8.52-6.45 17.15-10.41 25.85-.4.85-.8 1.7-1.19 2.54Zm-85.91 140.98c-.05-.56-.1-1.12-.16-1.68-11.2 16.76-23.51 34.35-36.97 53.14-3.03 4.22-6.09 8.47-9.2 12.77h1.27c3.16-4.37 6.27-8.68 9.34-12.97 12.96-18.09 24.86-35.07 35.72-51.26Zm17.95-29.64c-.45 1.39-.9 2.79-1.37 4.19 1.41-2.9 2.77-5.76 4.09-8.59-.89 1.46-1.8 2.93-2.72 4.4Zm-7.33 11.55c-1.36 2.11-2.73 4.22-4.13 6.36l-.09 2.1c1.24-1.89 2.47-3.76 3.68-5.63.19-.95.37-1.89.54-2.83Zm5.05-7.91c-1.2 1.9-2.41 3.8-3.64 5.72-.17.94-.34 1.87-.52 2.82.91-1.42 1.82-2.83 2.72-4.23.49-1.45.97-2.88 1.44-4.31Zm-10.13 15.73c-1.54 2.34-3.11 4.71-4.69 7.08.06.55.11 1.11.17 1.67 1.5-2.24 2.97-4.46 4.43-6.66.03-.7.06-1.4.09-2.09Z"/>
    <path fill="#fff" fill-rule="nonzero" d="M745.522 36.589c-.57 1.74-1.17 3.48-1.79 5.22-.27.76-.54 1.53-.81 2.3-.63 1.75-1.28 3.51-1.96 5.28-.29.77-.59 1.53-.89 2.3-.23.58-.45 1.17-.68 1.75-.47 1.2-.96 2.39-1.45 3.59-.31.77-.63 1.54-.95 2.31-.74 1.78-1.5 3.56-2.27 5.34l-1.02 2.34c-.78 1.77-1.57 3.55-2.38 5.32-.37.81-.75 1.62-1.12 2.43-.82 1.76-1.65 3.52-2.49 5.28-.41.85-.81 1.69-1.22 2.54-.84 1.72-1.69 3.45-2.56 5.18-.46.92-.94 1.85-1.41 2.77-.84 1.66-1.7 3.31-2.57 4.98-.55 1.05-1.1 2.1-1.66 3.15-.82 1.54-1.65 3.08-2.49 4.62-.69 1.27-1.38 2.54-2.09 3.81-.72 1.3-1.45 2.6-2.19 3.91-.98 1.74-1.98 3.49-2.99 5.25-.55.96-1.12 1.93-1.68 2.89-1.49 2.55-3 5.12-4.55 7.7-1.28 2.84-2.6 5.72-3.96 8.63 3.26-5.28 6.4-10.49 9.42-15.65 1.89-3.22 3.72-6.42 5.52-9.61.7-1.24 1.4-2.48 2.08-3.72.45-.81.89-1.62 1.33-2.43.7-1.27 1.39-2.55 2.07-3.81.7-1.3 1.4-2.6 2.08-3.9.55-1.04 1.09-2.08 1.63-3.12.79-1.52 1.56-3.03 2.33-4.55.47-.92.93-1.85 1.39-2.77.81-1.63 1.61-3.26 2.4-4.89.41-.85.82-1.7 1.22-2.55.81-1.69 1.6-3.39 2.38-5.08.37-.8.74-1.61 1.1-2.41.78-1.73 1.55-3.45 2.3-5.18l1.02-2.34c.75-1.74 1.49-3.48 2.21-5.22.32-.77.63-1.53.94-2.3.4-.98.8-1.96 1.19-2.94.31-.77.6-1.54.9-2.3.3-.77.6-1.53.89-2.3.66-1.74 1.29-3.47 1.91-5.2.28-.77.55-1.53.81-2.3.6-1.72 1.19-3.44 1.76-5.16.25-.77.5-1.54.74-2.31 3.69-11.54 6.52-22.88 8.46-33.95h-1.49c-1.96 11.34-4.85 22.97-8.66 34.8-.25.76-.5 1.53-.75 2.3Zm-55.7 113.97c-.74 1.48-1.5 2.98-2.26 4.48-.26 1.28-.52 2.57-.8 3.85.09-.17.17-.34.26-.51.97-2.62 1.9-5.23 2.8-7.82Z"/>
    <path fill="#fff" fill-rule="nonzero" d="m728.222 43.379-.39 2.13c-.33 1.77-.68 3.54-1.05 5.32-.15.7-.31 1.4-.46 2.1-.39 1.79-.8 3.59-1.23 5.39-.17.69-.34 1.38-.51 2.08-.25.99-.49 1.99-.75 2.98-.21.82-.43 1.65-.65 2.47-.18.69-.37 1.38-.56 2.06-.5 1.82-1.02 3.65-1.56 5.49-.2.69-.41 1.38-.61 2.07-.55 1.83-1.11 3.66-1.69 5.51-.22.7-.45 1.4-.67 2.1-.59 1.82-1.2 3.66-1.83 5.5-.25.72-.49 1.44-.75 2.17-.63 1.81-1.27 3.63-1.94 5.46-.28.76-.56 1.53-.84 2.29-.66 1.78-1.34 3.56-2.03 5.36-.32.83-.65 1.66-.98 2.5-.67 1.71-1.37 3.44-2.07 5.17-.38.94-.77 1.89-1.17 2.84-.67 1.6-1.34 3.21-2.04 4.83-.49 1.15-.99 2.3-1.5 3.46-.65 1.48-1.31 2.97-1.98 4.47-.71 1.58-1.43 3.17-2.17 4.77-.44.96-.89 1.93-1.35 2.9-1.32 2.83-2.68 5.69-4.09 8.59-.85 2.57-1.74 5.16-2.65 7.78 2.69-5.35 5.23-10.58 7.64-15.71 1.37-2.91 2.69-5.79 3.96-8.63.57-1.26 1.12-2.52 1.67-3.77.46-1.05.92-2.1 1.37-3.14.5-1.16.99-2.31 1.48-3.46.59-1.4 1.17-2.78 1.74-4.17.39-.95.78-1.9 1.16-2.84.65-1.6 1.28-3.2 1.9-4.78l.96-2.49c.65-1.71 1.29-3.41 1.91-5.1.28-.77.56-1.53.84-2.29.64-1.77 1.26-3.52 1.86-5.27.25-.72.5-1.45.74-2.17.61-1.8 1.2-3.58 1.77-5.36.23-.7.45-1.4.67-2.1.57-1.81 1.12-3.61 1.65-5.4.21-.69.41-1.38.61-2.07.53-1.81 1.03-3.61 1.52-5.4.19-.69.37-1.38.56-2.06l.54-2.04c.29-1.12.57-2.24.84-3.35.17-.69.34-1.38.5-2.07.43-1.78.83-3.56 1.21-5.33.15-.7.31-1.4.45-2.1.37-1.76.71-3.52 1.04-5.27.13-.71.27-1.42.39-2.13 2.65-14.9 3.83-29.35 3.52-43.17h-1.44c.37 14.02-.82 28.72-3.54 43.88Zm-42.31 114.89c-.98 1.89-1.97 3.8-2.99 5.73-.05.84-.1 1.68-.16 2.53.78-1.47 1.56-2.94 2.32-4.39.28-1.3.56-2.59.83-3.87Zm-8.51 18.19c-.04-.63-.09-1.27-.14-1.9-8.95 16.45-19.2 34.09-30.92 53.29-1.06 1.73-2.13 3.48-3.21 5.22h1.15c1.13-1.83 2.25-3.66 3.37-5.48 11.22-18.35 21.08-35.29 29.75-51.13Zm4.52-10.57c-1.18 2.24-2.39 4.49-3.63 6.78.05.63.11 1.25.16 1.88 1.12-2.05 2.21-4.08 3.29-6.09.06-.87.13-1.72.18-2.57Zm-.57 7.31c-.83 2.09-1.69 4.2-2.57 6.32.05.76.09 1.52.12 2.28.72-1.73 1.43-3.45 2.13-5.16.12-1.15.22-2.29.32-3.44Zm-3.62 8.88c-6.71 16.1-14.53 33.04-23.52 50.99h1.04c8.56-17.1 16.08-33.28 22.58-48.69-.03-.77-.07-1.54-.1-2.3Z"/>
    <path fill="#fff" fill-rule="nonzero" d="M709.732 52.659c-.02.65-.04 1.31-.06 1.96-.06 1.79-.14 3.58-.25 5.39-.04.64-.07 1.28-.12 1.92-.12 1.81-.26 3.64-.43 5.47-.06.63-.11 1.25-.17 1.88-.13 1.34-.27 2.69-.42 4.04l-.18 1.5c-.07.62-.15 1.24-.23 1.86-.23 1.85-.48 3.71-.75 5.59-.09.62-.19 1.24-.28 1.86-.28 1.87-.58 3.74-.91 5.62-.11.62-.21 1.24-.32 1.86-.33 1.87-.69 3.76-1.06 5.65-.12.63-.24 1.25-.37 1.88-.38 1.87-.78 3.75-1.19 5.64-.14.65-.3 1.3-.44 1.95-.42 1.86-.86 3.72-1.32 5.6-.17.69-.34 1.37-.51 2.06-.46 1.83-.94 3.67-1.43 5.51-.2.75-.4 1.5-.61 2.25-.48 1.77-.98 3.54-1.49 5.32-.25.86-.51 1.72-.76 2.58-.51 1.72-1.03 3.45-1.57 5.19-.32 1.04-.65 2.09-.98 3.14-.47 1.48-.95 2.96-1.44 4.45-.47 1.43-.95 2.86-1.44 4.3-.39 1.14-.79 2.28-1.18 3.42-.9 2.59-1.83 5.2-2.8 7.83-.12.32-.24.65-.36.98-.49 2.31-1.01 4.64-1.55 6.99 1.98-5.15 3.85-10.21 5.59-15.19.92-2.61 1.8-5.2 2.65-7.78.47-1.4.92-2.8 1.37-4.19l1.05-3.3c.33-1.04.65-2.09.97-3.12.47-1.55.93-3.08 1.37-4.61.25-.86.49-1.71.73-2.56.47-1.67.93-3.33 1.38-4.98.2-.75.41-1.51.61-2.26.47-1.77.92-3.53 1.35-5.28.17-.69.33-1.37.5-2.05.44-1.82.86-3.64 1.27-5.44.15-.65.3-1.3.44-1.95.4-1.85.79-3.69 1.15-5.51.13-.63.25-1.26.37-1.88.36-1.86.71-3.71 1.04-5.56.11-.62.21-1.23.31-1.85.32-1.86.61-3.71.89-5.55.09-.62.19-1.24.28-1.86.27-1.85.51-3.69.73-5.52.08-.62.15-1.24.23-1.86.05-.41.1-.81.15-1.22.16-1.43.31-2.85.45-4.27.06-.63.11-1.25.17-1.88.16-1.81.3-3.62.42-5.42.04-.64.08-1.28.11-1.92.1-1.79.18-3.58.24-5.35.02-.65.04-1.31.06-1.96.35-14.24-.66-27.96-3.04-40.98-.71-3.91-1.54-7.77-2.5-11.57h-1.38c1 3.98 1.88 8.02 2.63 12.15 2.38 13.03 3.39 26.77 3.03 41.03Zm-25.46 113.07c-.59 1.53-1.19 3.07-1.79 4.62-.09 1.16-.2 2.32-.3 3.49.14-.35.28-.7.42-1.04.58-2.37 1.13-4.72 1.67-7.07Z"/>
    <path fill="#fff" fill-rule="nonzero" d="M690.812 62.119c.08.6.17 1.2.25 1.8.24 1.8.45 3.61.64 5.42.06.59.13 1.17.18 1.76.18 1.82.33 3.66.47 5.5.04.57.08 1.15.12 1.72.11 1.63.2 3.27.27 4.91.01.22.01.44.02.66.02.56.04 1.13.06 1.69.06 1.87.11 3.75.13 5.63.01.55.01 1.11.01 1.67.01 1.89 0 3.78-.04 5.69-.01.55-.01 1.1-.03 1.65-.04 1.9-.11 3.81-.19 5.73-.02.55-.06 1.11-.08 1.67-.09 1.9-.21 3.82-.34 5.74-.04.56-.08 1.12-.12 1.69-.14 1.9-.31 3.82-.5 5.74-.06.58-.11 1.17-.17 1.75-.19 1.89-.4 3.78-.62 5.69-.07.62-.16 1.25-.24 1.87-.23 1.86-.49 3.73-.76 5.6-.1.67-.19 1.35-.29 2.02-.28 1.85-.57 3.7-.88 5.57-.13.77-.26 1.55-.4 2.32-.29 1.7-.6 3.41-.93 5.13-.18.94-.36 1.88-.54 2.83-.3 1.56-.62 3.12-.95 4.69-.27 1.28-.54 2.57-.82 3.86-.26 1.2-.54 2.4-.81 3.6-.54 2.34-1.09 4.7-1.68 7.07-.17.67-.34 1.35-.51 2.02-.19 2.06-.4 4.12-.64 6.19 1.33-4.95 2.55-9.84 3.67-14.66.54-2.34 1.06-4.67 1.55-6.99.03-.16.07-.31.1-.47.27-1.29.54-2.57.8-3.85.25-1.23.49-2.45.72-3.67.18-.94.35-1.88.52-2.82.28-1.54.55-3.08.81-4.61.13-.78.26-1.55.39-2.33.29-1.76.55-3.51.81-5.25.1-.68.19-1.35.29-2.02.25-1.81.49-3.61.72-5.4.08-.62.15-1.24.22-1.86.22-1.86.42-3.71.6-5.55.06-.58.12-1.17.17-1.75.18-1.89.34-3.77.48-5.63.04-.56.07-1.12.11-1.68.13-1.9.24-3.78.33-5.66.03-.55.06-1.11.08-1.67.08-1.9.14-3.78.18-5.65l.03-1.65c.03-1.89.04-3.77.03-5.64 0-.56-.01-1.11-.02-1.66-.02-1.87-.07-3.74-.14-5.59-.02-.56-.04-1.13-.06-1.69-.01-.16-.01-.33-.02-.49-.07-1.69-.17-3.37-.28-5.05-.04-.57-.08-1.15-.12-1.72-.13-1.83-.29-3.65-.47-5.47-.06-.59-.12-1.17-.18-1.76-.19-1.81-.4-3.61-.64-5.39-.08-.6-.17-1.2-.25-1.8-1.87-13.2-4.93-25.85-9.17-37.81-2.98-8.43-6.52-16.53-10.6-24.3h-1.35c4.2 7.93 7.84 16.2 10.89 24.83 4.27 11.97 7.33 24.63 9.19 37.83Zm-12.8 127.75c-4 13.88-8.81 28.27-14.44 43.2h.93c5.22-13.81 9.74-27.15 13.56-40.06-.01-1.05-.03-2.09-.05-3.14Zm2.63-9.51c-.5 1.88-1.01 3.77-1.54 5.66.04 1.02.07 2.04.1 3.06.24-.83.47-1.65.71-2.48.27-2.08.51-4.16.73-6.24Z"/>
    <path fill="#fff" fill-rule="nonzero" d="M671.522 71.769c.18.55.35 1.11.53 1.67.56 1.79 1.1 3.6 1.62 5.41l.45 1.62c.5 1.82.99 3.65 1.44 5.49.13.52.25 1.05.38 1.58.44 1.85.87 3.7 1.26 5.57 0 .01.01.03.01.04.11.5.2 1 .3 1.5.38 1.87.75 3.75 1.09 5.64.09.5.19 1 .27 1.5.33 1.89.63 3.8.91 5.71.07.49.14.99.22 1.49.27 1.91.53 3.82.76 5.74.06.49.11.99.17 1.48.22 1.92.41 3.85.58 5.78.04.49.09.99.13 1.48.16 1.92.3 3.85.42 5.79.03.51.06 1.01.08 1.52.11 1.92.2 3.85.26 5.78.02.52.04 1.04.06 1.57.05 1.9.08 3.82.1 5.74 0 .56.01 1.12.01 1.67 0 1.9-.01 3.81-.04 5.72-.01.61-.02 1.22-.04 1.84-.04 1.81-.11 3.63-.18 5.46-.03.7-.06 1.39-.09 2.09-.08 1.74-.18 3.48-.3 5.24-.06.85-.12 1.7-.18 2.56-.12 1.58-.24 3.16-.39 4.75-.1 1.14-.2 2.29-.31 3.44-.12 1.24-.26 2.48-.39 3.73-.23 2.07-.47 4.15-.74 6.25-.2 1.6-.42 3.2-.65 4.81.03 1.76.06 3.53.06 5.3.83-5.3 1.54-10.54 2.13-15.71.23-2.08.44-4.14.64-6.19.03-.33.06-.65.09-.98.11-1.17.21-2.33.3-3.49.1-1.28.2-2.56.29-3.83.06-.85.1-1.68.16-2.53.1-1.6.18-3.2.25-4.79.03-.7.07-1.4.09-2.1.07-1.74.12-3.47.16-5.19.01-.61.02-1.21.02-1.82.03-1.86.04-3.71.03-5.55 0-.56 0-1.12-.01-1.68-.02-1.88-.06-3.75-.11-5.61-.02-.52-.04-1.04-.06-1.57-.07-1.91-.16-3.8-.27-5.69-.03-.51-.05-1.02-.08-1.52-.12-1.92-.27-3.82-.43-5.72-.04-.49-.09-.99-.13-1.48-.17-1.92-.37-3.83-.58-5.72-.06-.49-.11-.99-.17-1.48-.23-1.91-.48-3.81-.75-5.7-.07-.5-.14-.99-.22-1.49-.28-1.9-.58-3.79-.91-5.66l-.27-1.5c-.34-1.88-.7-3.75-1.08-5.61-.1-.47-.18-.94-.28-1.4-.01-.05-.02-.09-.03-.14-.39-1.86-.82-3.71-1.26-5.54-.13-.53-.25-1.05-.38-1.58-.45-1.84-.94-3.66-1.44-5.47l-.45-1.62c-.51-1.81-1.05-3.6-1.61-5.39-.17-.56-.35-1.11-.53-1.67-3.93-12.2-8.93-23.85-14.94-34.81-7.25-13.25-15.96-25.6-26.06-37.03h-1.31c10.28 11.56 19.12 24.06 26.48 37.5 6 10.97 10.99 22.61 14.92 34.8Zm6.56 127.32c-1.79 11.02-4.12 22.34-6.98 33.98h.82c2.4-9.72 4.42-19.2 6.07-28.49.05-1.83.08-3.66.09-5.49Z"/>
    <path fill="#fff" fill-rule="nonzero" d="M679.322 196.719c0-1.77-.03-3.54-.06-5.3-.02-.78-.03-1.56-.06-2.33-.03-1.02-.06-2.04-.1-3.06-.05-1.41-.12-2.82-.19-4.23l-.12-2.28c-.1-1.67-.21-3.33-.34-4.98-.05-.63-.1-1.25-.16-1.88-.15-1.79-.32-3.57-.5-5.35-.06-.56-.11-1.11-.17-1.67-.2-1.85-.43-3.68-.66-5.51-.07-.5-.14-1-.2-1.51-.26-1.92-.54-3.84-.84-5.74-.08-.47-.15-.95-.23-1.42-.32-1.92-.66-3.84-1.01-5.74-.09-.45-.17-.91-.26-1.37-.37-1.93-.77-3.86-1.19-5.77-.1-.44-.2-.89-.3-1.33-.43-1.94-.88-3.86-1.36-5.78-.11-.44-.22-.88-.34-1.32-.49-1.93-1.01-3.84-1.54-5.75-.12-.44-.24-.89-.37-1.33-.55-1.91-1.13-3.81-1.73-5.7-.14-.45-.28-.9-.43-1.34-.61-1.9-1.24-3.78-1.9-5.66-.16-.46-.33-.91-.49-1.37-.67-1.88-1.36-3.75-2.08-5.6-.18-.47-.37-.93-.55-1.4-.73-1.85-1.49-3.69-2.27-5.52-.21-.48-.41-.96-.62-1.44-.8-1.83-1.62-3.64-2.46-5.44-.23-.5-.46-.99-.7-1.49-.86-1.8-1.75-3.58-2.66-5.36-.26-.51-.52-1.02-.79-1.53-5.84-11.21-12.64-21.89-20.4-32-14.29-18.61-31.59-35.22-51.76-49.77h-1.25c20.34 14.6 37.86 31.35 52.31 50.17 7.76 10.11 14.53 20.79 20.33 31.98.26.51.52 1.03.78 1.54.9 1.78 1.79 3.57 2.65 5.38.23.5.46.99.69 1.49.84 1.81 1.66 3.64 2.45 5.47.21.48.42.96.62 1.44.78 1.84 1.53 3.69 2.26 5.56.18.47.37.93.55 1.4.72 1.87 1.4 3.75 2.07 5.64.16.46.32.91.48 1.37.65 1.89 1.29 3.79 1.89 5.7l.42 1.35c.59 1.91 1.17 3.83 1.71 5.76.13.44.25.89.37 1.33.53 1.93 1.04 3.87 1.52 5.82l.33 1.32c.47 1.94.92 3.9 1.34 5.86.1.45.19.89.29 1.34.41 1.95.81 3.9 1.18 5.87.09.46.16.92.25 1.37.35 1.95.69 3.91 1 5.88.07.47.15.95.23 1.42.3 1.96.57 3.94.82 5.92.07.5.13 1.01.19 1.52.24 1.91.46 3.83.65 5.76.06.56.11 1.12.16 1.68.18 1.9.35 3.81.49 5.73.05.63.1 1.26.14 1.9.13 1.86.23 3.73.32 5.61.04.77.08 1.53.11 2.3.07 1.82.13 3.66.18 5.5.02 1.04.04 2.09.05 3.14.03 2.02.03 4.04.02 6.08-.01 1.82-.04 3.66-.09 5.49-.22 9.33-.85 18.83-1.88 28.49h1.27c1.32-12.37 1.97-24.49 1.94-36.31Z"/>
  </g>
</svg>
