<svg viewBox="0 0 7762 1057" xmlns="http://www.w3.org/2000/svg" xml:space="preserve" style="fill-rule:evenodd;clip-rule:evenodd;stroke-linejoin:round;stroke-miterlimit:2">
  <path style="fill:none" d="M0 0h7761.33v1056.47H0z"/>
  <clipPath id="a">
    <path d="M0 0h7761.33v1056.47H0z"/>
  </clipPath>
  <g clip-path="url(#a)">
    <path d="M8399.36 576.443c-164.51 59.214-339.38 105.297-521.641 137.389-231.501 40.763-466.389 57.454-698.132 49.605-238.655-8.08-466.282-42.019-676.56-100.872-221.929-62.115-433.847-151.256-638.79-237.464-369.215-155.308-751.006-315.905-1191.02-313.94-237.489 1.061-456.876 50.041-648.555 119.035-272.337 98.026-488.853 236.436-622.663 335.398-202.337 149.643-376.727 319.181-545.374 483.14-111.396 108.297-226.583 220.279-348.918 325.682-101.59 87.529-196.449 152.725-290.001 199.307-57.712 28.739-115.997 50.789-173.231 65.536-63.473 16.356-127.744 24.28-191.031 23.557-118.807-1.361-232.592-32.955-338.195-93.909-88.538-51.101-169.22-122.248-233.324-205.749-41.527-54.096-77.525-111.546-112.337-167.106-62.822-100.259-127.781-203.931-227.099-290.352-213.776-186.02-583.39-273.876-919.737-218.623-286.824 47.118-541.372 199.43-648.488 388.031-107.116 188.601-66.461 412.891 103.575 571.409l-6.052 3.094c-84.597-78.867-139.098-174.532-157.608-276.656-18.512-102.121-.126-205.699 53.167-299.534 53.293-93.834 142.723-180.088 258.621-249.437 115.901-69.349 252.588-118.396 395.294-141.839 83.901-13.784 171.184-18.892 259.425-15.182 85.735 3.604 170.865 15.446 253.027 35.198 81.674 19.633 158.581 46.637 228.586 80.261 71.283 34.236 133.895 74.629 186.1 120.056 99.89 86.919 165.036 190.89 228.039 291.438 34.757 55.473 70.699 112.834 112.097 166.759 67.672 88.147 258.221 293.55 565.3 297.064 279.282 3.195 503.642-161.913 648.112-286.388 122.194-105.282 237.315-217.2 348.646-325.435 168.797-164.1 343.337-333.788 546.029-483.693 86.995-64.339 178.789-123.541 272.833-175.958 100.688-56.119 204.551-104.771 308.707-144.603 232.552-88.94 466.49-134.554 695.272-135.577 106.331-.475 211.079 8.031 320.234 26.005 97.27 16.016 195.884 39.251 301.475 71.034 196.108 59.027 387.785 139.655 573.151 217.629 204.699 86.105 416.365 175.142 637.757 237.105 849.506 237.762 1949.56 44.062 2558.8-450.558l5.62 3.185c-150.809 122.434-332.522 228.449-540.098 315.104-42.874 17.898-86.566 34.856-131.013 50.854" style="fill:#003c6c;fill-rule:nonzero"/>
    <path d="M8346.97 568.224c-157.84 56.815-324.483 102.255-497.329 135.55-226.371 43.603-455.711 64.88-681.649 63.241-232.496-1.687-454.599-27.672-660.135-77.237-172.369-41.517-335.237-97.307-526.753-168.3-32.397-12.02-65.27-24.33-97.056-36.233-284.647-106.593-578.984-216.813-900.594-257.318-92.82-11.697-185.564-17.291-275.652-16.625-459.146 3.398-849.447 171.217-1096.02 311.403-56.318 31.986-112.093 66.467-165.776 102.49-203.107 136.381-379.698 291.298-550.476 441.113-77.124 67.657-156.872 137.616-238.393 205.325-39.331 32.664-75.987 62.282-112.064 90.546-105.036 82.295-197.502 140.696-290.994 183.794-57.624 26.565-115.606 46.901-172.329 60.444-63.016 15.044-126.661 22.239-189.169 21.385-117.146-1.602-230.387-31.403-336.576-88.575-88.279-47.529-170.558-113.998-237.941-192.218-43.105-50.023-81.079-102.963-117.805-154.16-66.809-93.135-135.891-189.442-237.012-268.783-65.369-51.298-144.749-94.559-235.932-128.581-205.736-76.806-450.214-97.584-670.744-57.007-283.864 52.26-526.701 201.679-633.744 389.949-110.378 193.973-71.313 425.127 99.524 588.893l-5.819 2.901c-85.228-81.702-139.622-180.432-157.298-285.515-17.642-104.885 2.068-211.352 57.001-307.89 52.696-92.679 140.292-178.385 253.322-247.846 112.778-69.31 246.048-119.504 385.401-145.159 222.274-40.898 468.64-19.973 675.924 57.411 91.884 34.284 171.885 77.886 237.78 129.595 101.698 79.794 170.979 176.378 237.981 269.78 36.668 51.119 74.586 103.978 117.559 153.848 70.962 82.376 268.436 274.414 568.776 278.521 273.108 3.735 499.954-148.817 646.828-263.89 36.031-28.226 72.642-57.809 111.927-90.435 81.457-67.656 161.175-137.588 238.267-205.219 170.927-149.946 347.673-304.997 551.135-441.617 53.829-36.121 109.758-70.698 166.233-102.774 165.771-94.247 338.875-168.76 514.524-221.473 196.665-59.023 393.853-89.671 586.086-91.093 90.542-.67 183.738 4.95 277 16.703 144.811 18.238 296.452 52.067 463.586 103.418 148.987 45.773 296.45 100.994 439.058 154.397 31.783 11.902 64.65 24.209 97.033 36.224 191.228 70.888 353.823 126.587 525.768 168.003 577.529 139.267 1261.15 85.019 1833.25-120.904 255.271-91.883 488.286-213.924 679.879-362.482l5.242 3.124c-152.442 118.201-333.503 221.623-538.155 307.395-46.98 19.691-94.919 38.334-143.665 55.881" style="fill:#003c6c;fill-rule:nonzero"/>
    <path d="M8292.05 561.016c-150.303 54.102-307.902 98.574-470.484 132.699-221.286 46.447-445.078 72.312-665.165 76.875-226.372 4.693-442.946-13.342-643.704-53.603-168.9-33.782-328.135-80.919-515.262-141.303-31.618-10.224-63.722-20.703-94.767-30.837-279.736-91.31-568.995-185.729-887.571-219.86-93.653-10.047-182.854-14.478-272.709-13.545-454.42 4.727-841.946 155.616-1087.02 281.363-55.981 28.662-111.616 59.609-165.363 91.986-204.808 123.554-384.392 264.385-558.059 400.58-76.384 59.9-155.367 121.841-236.149 182.11-39.89 29.754-76.972 56.726-113.365 82.457-107.25 75.835-200.028 129.308-291.976 168.279-57.547 24.391-115.222 43.014-171.426 55.353-62.566 13.737-125.585 20.202-187.311 19.217-115.473-1.841-228.17-29.85-334.959-83.245-87.929-43.967-171.803-105.756-242.552-178.687-44.445-45.791-84.192-94.055-122.63-140.731-70.979-86.188-144.374-175.311-247.565-247.696-66.452-46.624-145.826-85.358-235.916-115.128-204.199-67.554-443.926-81.193-657.716-37.421-276.476 56.662-513.661 206.816-618.992 391.865-115.4 202.438-78.817 434.789 95.471 606.377l-5.577 2.713c-85.862-84.533-140.146-186.325-156.989-294.374-16.781-107.642 4.255-217 60.831-316.248 52.099-91.531 137.865-176.685 248.023-246.259 109.669-69.261 239.518-120.604 375.513-148.475 109.641-22.448 224.348-30.189 340.936-23.006 112.688 6.941 220.891 27.355 321.608 60.675 90.762 29.992 170.74 69.025 237.712 116.013 103.774 72.792 177.378 162.169 248.559 248.601 38.38 46.608 78.068 94.802 122.385 140.46 92.308 95.154 289.395 255.458 572.256 259.969 263.653 4.207 483.488-126.79 645.553-241.384 36.349-25.7 73.389-52.641 113.235-82.364 80.723-60.224 159.677-122.14 236.033-182.02 173.817-136.311 353.555-277.264 558.717-401.031 53.887-32.461 109.667-63.491 165.796-92.229 164.79-84.554 336.738-151.556 511.061-199.15 194.902-53.21 390.044-81.191 580.012-83.168 90.241-.938 179.813 3.512 273.845 13.6 319.521 34.232 609.216 128.793 889.374 220.24 31.042 10.133 63.14 20.609 94.743 30.83 186.85 60.293 345.818 107.357 514.313 141.057 554.006 111.1 1217.12 43.465 1779.94-159.123 256.63-92.372 492.359-212.762 687.504-357.094l4.871 3.053c-154.113 113.986-334.521 214.817-536.213 299.692-51.934 21.854-104.931 42.508-158.856 61.917" style="fill:#003c6c;fill-rule:nonzero"/>
    <path d="M8233.75 555.157c-141.63 50.979-289.048 94.025-440.274 128.5-216.253 49.3-434.501 79.749-648.683 90.502-220.285 11.059-431.327.975-627.263-29.972-175.284-27.545-345.71-71.214-503.77-114.302-31.437-8.603-63.383-17.431-94.275-25.969-274.277-75.798-557.892-154.178-872.759-181.872-93.316-8.226-181.554-11.647-269.761-10.461-449.857 6.064-834.529 140.014-1078.02 251.316-55.63 25.341-111.126 52.756-164.948 81.483-207.917 111.219-383.519 232.925-569.432 361.778-74.434 51.588-151.398 104.932-230.122 157.162-40.54 26.891-78.046 51.217-114.661 74.368-69.03 43.651-174.498 106.98-292.953 152.765-8.621 3.332-17.231 6.547-25.793 9.628-113.31 40.788-221.576 59.677-330.182 57.692-113.784-2.081-225.938-28.298-333.347-77.924-88.718-40.991-171.871-96.558-247.151-165.156-45.452-41.381-86.666-84.792-126.523-126.773-78.894-83.098-153.412-161.588-259.054-227.139-67.555-41.933-146.925-76.142-235.906-101.675-202.628-58.255-437.608-64.753-644.69-17.829-269.084 61.048-500.611 211.939-604.235 393.782-118.739 207.943-83.711 446.991 91.413 623.857l-5.328 2.531c-86.493-87.354-140.674-192.211-156.685-303.232-15.922-110.396 6.439-222.645 64.662-324.611 51.505-90.384 135.44-174.989 242.73-244.67 106.565-69.21 232.998-121.697 365.63-151.79 106.583-24.152 218.542-34.505 332.767-30.775 110.012 3.592 216.461 19.98 316.388 48.708 89.62 25.718 169.573 60.181 237.64 102.43 106.22 65.912 180.945 144.621 260.061 227.95 39.802 41.923 80.959 85.273 126.285 126.541 96.568 87.997 299.771 236.371 575.742 241.416 256.85 4.696 479.237-114.506 644.284-218.876 36.575-23.127 74.044-47.427 114.544-74.292 78.67-52.195 155.61-105.52 230.017-157.091 186.069-128.961 361.821-250.77 570.077-362.172 53.96-28.799 109.592-56.281 165.355-81.684 163.767-74.861 334.546-134.356 507.592-176.83 193.114-47.4 386.216-72.716 573.944-75.247 88.523-1.192 177.067 2.242 270.695 10.496 315.666 27.764 599.657 106.247 874.296 182.147 30.888 8.536 62.83 17.364 94.253 25.961 157.825 43.025 327.984 86.627 502.862 114.109 535.109 84.518 1164.79 8.171 1712.96-189.14 261.095-93.981 503.642-215.358 708.807-359.912l4.508 2.975c-155.836 109.797-335.593 208.038-534.278 291.993-57.988 24.504-117.18 47.622-177.418 69.304" style="fill:#003c6c;fill-rule:nonzero"/>
    <path d="M8170.81 551.153c-131.386 47.292-267.043 88.279-405.424 122.445-211.292 52.169-423.996 87.203-632.203 104.127-214.254 17.416-419.764 15.281-610.821-6.346-171.89-19.28-338.173-53.354-492.263-87.304-32.229-7.142-65.004-14.491-96.702-21.595-267.94-60.069-545.004-122.181-855.044-143.379-93.212-6.398-180.482-8.811-266.803-7.378-445.529 7.41-827.247 124.412-1069.02 221.261-55.28 22.036-110.639 45.916-164.542 70.98-213.261 99.48-394.777 209.096-586.951 325.151-70.515 42.583-143.43 86.618-217.944 130.042-41.366 24.099-79.295 45.778-115.956 66.278-85.683 47.92-179.981 96.201-282.281 133.027-112.2 40.39-234.035 67.001-364.858 64.297-257.468-5.318-459.41-124.873-583.479-224.232-45.976-36.775-88.219-75.143-129.07-112.25-83.971-76.27-163.285-148.312-271.888-207.147-68.682-37.225-148.052-66.906-235.907-88.222-203.973-49.628-428.304-49-631.668 1.771-261.673 65.422-487.547 217.047-589.47 395.7-122.088 213.468-88.617 459.212 87.352 641.335l-5.073 2.353c-87.127-90.173-141.203-198.093-156.384-312.091-15.066-113.143 8.618-228.283 68.495-332.974 50.911-89.241 133.02-173.3 237.441-243.085 103.47-69.151 226.485-122.785 355.747-155.102 103.537-25.849 212.749-38.816 324.6-38.541 107.338.263 212.028 12.626 311.164 36.746 88.451 21.461 168.377 51.353 237.557 88.848 109.177 59.146 188.706 131.381 272.902 207.858 40.799 37.059 82.988 75.379 128.849 112.063 123.316 98.753 323.907 217.576 579.229 222.851 248.074 5.128 464.263-96.382 643.021-196.356 36.628-20.481 74.524-42.143 115.858-66.221 74.471-43.401 147.366-87.421 217.859-129.992 192.327-116.146 373.988-225.852 587.58-325.485 54.028-25.122 109.512-49.056 164.911-71.138 162.677-65.168 332.288-117.153 504.115-154.513 191.287-41.592 382.349-64.245 567.879-67.33 86.573-1.439 174.091.98 267.551 7.395 310.68 21.243 588.054 83.423 856.295 143.558 31.693 7.107 64.464 14.453 96.675 21.592 153.869 33.901 319.902 67.924 491.412 87.163 771.564 87.336 1726.44-146.508 2376.08-581.893l4.146 2.891c-157.629 105.64-336.734 201.291-532.344 284.297-65.556 27.819-132.53 54.034-200.625 78.545" style="fill:#003c6c;fill-rule:nonzero"/>
    <path d="M8101.27 549.785c-118.857 42.783-240.582 80.837-363.989 113.754-206.429 55.066-413.59 94.682-615.726 117.748-208.296 23.77-408.271 29.582-594.371 17.275-168.691-10.945-330.754-35.453-480.76-60.305-34.753-5.815-70.139-11.823-104.359-17.633-260.046-44.15-528.946-89.803-832.098-104.47-93.508-4.553-179.812-5.957-263.847-4.29-441.572 8.772-820.17 108.816-1060.02 191.196-54.94 18.745-110.157 39.091-164.137 60.477-222.432 88.502-413.175 187.087-615.118 291.459-63.186 32.658-128.524 66.428-195.124 99.985-42.413 21.365-80.765 40.398-117.247 58.188-83.915 40.928-184.568 87.401-294.878 121.743-122.59 38.168-237.228 55.451-350.465 52.834-110.328-2.548-221.403-25.188-330.137-67.293-87.283-33.799-173.524-80.262-256.324-138.101-45.804-31.953-88.429-65.082-129.65-97.118-89.684-69.706-174.393-135.545-286.688-187.766-69.832-32.494-149.203-57.648-235.912-74.767-202.285-40.099-421.994-32.508-618.655 21.378-258.102 70.833-472.943 219.478-574.694 397.619-125.452 219.013-93.539 471.452 83.285 658.805l-4.81 2.186c-177.772-188.36-209.868-442.135-83.76-662.29 50.325-88.104 130.601-171.616 232.154-241.503 100.385-69.085 219.982-123.863 345.872-158.413 100.509-27.54 206.973-43.118 316.436-46.302 104.668-3.045 207.598 5.295 305.933 24.789 87.262 17.227 167.158 42.55 237.464 75.266 112.859 52.483 197.788 118.492 287.704 188.377 41.172 32.001 83.748 65.091 129.453 96.974 187.464 130.949 383.519 199.678 582.724 204.278 239.447 5.532 449.948-80.277 641.757-173.829 36.457-17.776 74.785-36.798 117.172-58.149 66.568-33.543 131.892-67.306 195.065-99.955 202.09-104.449 392.972-203.104 615.719-291.734 54.094-21.43 109.428-41.817 164.463-60.595 161.501-55.472 329.939-99.951 500.63-132.199 189.406-35.786 378.435-55.777 561.825-59.42 84.226-1.671 170.717-.266 264.413 4.298 303.636 14.69 572.773 60.384 833.047 104.573 34.218 5.809 69.6 11.816 104.336 17.628 149.798 24.819 311.628 49.293 479.971 60.215 485.018 32.075 1055.03-63.241 1574.46-250.207 272.378-98.043 530.77-221.226 755.924-364.529l3.795 2.796c-159.524 101.531-337.982 194.595-530.415 276.605-75.323 32.103-152.259 62.287-230.423 90.422" style="fill:#003c6c;fill-rule:nonzero"/>
    <path d="M8021.97 552.329c-102.947 37.055-207.473 70.866-312.795 101.153-412.464 118.613-819.524 178.179-1177.17 172.252-165.753-2.506-323.486-17.49-469.247-33.309-40.921-4.517-82.67-9.238-123.045-13.804-248.885-28.147-506.247-57.251-798.133-65.415-94.637-2.681-179.972-3.074-260.882-1.202-438.256 10.158-813.442 93.226-1051.01 161.123-54.588 15.461-109.674 32.273-163.741 49.968-238.988 78.674-445.515 167.974-664.164 262.515-49.143 21.249-99.959 43.221-151.421 65.185-45.396 19.363-83.061 35.281-118.538 50.096-91.219 38.105-190.194 77.351-295.829 106.24-122.621 33.534-236.361 48.451-347.72 45.6-108.542-2.778-219.078-23.632-328.54-61.986-86.187-30.198-173.965-72.113-260.899-124.582-44.636-26.895-86.696-54.584-127.37-81.362-96.341-63.427-187.337-123.336-304.35-169.007-70.998-27.734-150.377-48.362-235.927-61.31-200.522-30.529-415.607-15.97-605.641 40.993-250.551 75.242-459.87 224.6-559.911 399.537-128.827 224.579-98.473 483.713 79.218 676.279l-4.543 2.021c-88.395-95.797-142.266-209.844-155.788-329.812-13.371-118.624 12.963-239.551 76.156-349.708 100.568-175.858 310.982-326.008 562.872-401.643 191.085-57.281 407.353-71.919 608.97-41.225 86.056 13.025 165.919 33.779 237.365 61.689 117.558 45.886 208.777 105.939 305.353 169.518 40.634 26.753 82.65 54.415 127.206 81.262 195.977 118.281 393.209 180.757 586.218 185.695 241.989 6.195 457.498-74.844 640.497-151.288 35.462-14.809 73.113-30.721 118.492-50.077 51.449-21.958 102.257-43.927 151.392-65.172 218.791-94.602 425.444-183.961 664.735-262.73 54.159-17.728 109.337-34.567 164.007-50.052 160.17-45.775 327.435-82.751 497.14-109.893 187.429-29.98 374.42-47.311 555.784-51.515 81.043-1.875 166.508-1.482 261.278 1.202 292.212 8.173 549.737 37.297 798.78 65.461 40.367 4.565 82.109 9.287 123.016 13.802 145.572 15.799 303.09 30.763 468.533 33.265 457.709 7.583 989.232-93.506 1488.52-273.223 282.023-101.513 553.72-228.079 796.159-374.364l3.45 2.692c-161.586 97.5-339.396 187.977-528.489 268.922-88.361 37.824-178.552 73.296-269.991 106.209" style="fill:#003c6c;fill-rule:nonzero"/>
    <path d="M7928.18 560.741c-81.745 29.423-164.233 57.037-247.112 82.684-197.172 61.016-393.251 109.794-582.786 144.978-196.721 36.517-385.626 58.217-561.464 64.495-163.572 6.103-323.178.232-457.73-6.319-56.989-2.89-115.387-6.062-171.86-9.129-228.818-12.429-465.426-25.28-734.04-27.195-99.283-.746-181.234-.144-257.904 1.89-436.198 11.592-807.407 77.655-1042 131.034-54.277 12.202-109.229 25.479-163.342 39.46-272.395 70.926-499.318 150.783-762.074 243.249-19.469 6.851-39.08 13.752-58.861 20.704l-19.023 6.68c-32.788 11.515-66.693 23.422-100.802 35.329-96.689 33.76-192.143 66.106-296.776 90.741-122.754 28.903-235.599 41.455-344.982 38.375-106.693-3.002-216.696-22.074-326.954-56.686-85.859-26.951-172.693-63.283-265.466-111.068-42.005-21.596-82.094-43.66-120.863-64.995-104.416-57.467-203.04-111.745-326.239-150.864-72.189-22.944-151.574-39.041-235.953-47.846-198.662-20.924-409.125.604-592.624 60.621-242.993 79.61-446.77 229.691-545.119 401.452-132.211 230.163-103.417 495.99 75.148 693.747l-4.269 1.863c-89.031-98.603-142.801-215.714-155.494-338.672-12.528-121.358 15.13-245.18 79.982-358.079 49.154-85.846 125.78-168.262 221.592-238.341 94.25-68.936 207.028-126.007 326.138-165.031 184.419-60.317 395.93-81.952 595.575-60.925 84.829 8.851 164.655 25.04 237.258 48.115 123.725 39.286 222.568 93.684 327.216 151.278 38.737 21.321 78.796 43.367 120.743 64.931 207.979 107.127 400.874 161.785 589.712 167.099 250.36 7.05 475.12-71.43 639.233-128.735 34.104-11.904 68.005-23.811 100.793-35.325l19.02-6.681c19.78-6.949 39.392-13.851 58.858-20.701 251.957-88.666 489.938-172.415 762.608-243.412 54.191-14.001 109.213-27.294 163.55-39.512 158.549-36.074 324.638-65.545 493.648-87.595 185.247-24.167 370.211-38.84 549.75-43.611 76.757-2.038 158.786-2.638 258.154-1.893 268.783 1.916 505.478 14.772 734.378 27.206 56.469 3.067 114.861 6.237 171.827 9.128 134.393 6.542 293.803 12.407 457.104 6.312 424.89-15.167 914.148-120.173 1389.01-291.098 295.144-106.235 584.674-237.895 849.943-389.343l3.115 2.58c-259.838 148.347-550.04 280.912-850.619 389.105" style="fill:#003c6c;fill-rule:nonzero"/>
    <path d="M7807.88 579.723c-51.672 18.599-103.313 36.482-154.939 53.646-192.955 64.153-383.494 117.51-566.327 158.589-191.213 42.962-374.581 72.599-545.016 88.092-161.392 14.954-316.129 18.84-446.21 20.671-122.235 1.449-244.645 1.974-374.242 2.533-162.725.701-330.993 1.424-516.367 4.05-89.872 1.236-171.085 2.464-254.927 4.982-341.064 10.255-707.916 46.098-1032.97 100.932-53.928 8.944-108.748 18.682-162.946 28.947-281.915 53.969-525.173 116.619-826.286 200.208-42.594 11.811-85.125 23.775-121.11 33.921l-9.949 2.807c-88.256 24.906-188.291 53.133-293.603 73.586-120.732 23.449-230.776 33.267-336.423 30.016-106.227-3.267-212.659-20.078-325.375-51.391-84.783-23.553-170.587-54.556-270.026-97.565-37.22-16.063-73.22-32.344-108.033-48.089-114.644-51.853-222.932-100.829-354.459-133.258-73.392-18.119-152.786-29.684-235.982-34.377-196.682-11.295-402.521 17.206-579.605 80.256-238.876 85.218-432.207 232.241-530.318 403.37-135.608 235.765-108.373 508.285 71.075 711.214l-3.99 1.707c-89.669-101.404-143.337-221.578-155.202-347.533-11.688-124.087 17.294-250.804 83.812-366.452 48.573-84.724 123.375-166.597 216.315-236.763 90.308-68.179 198.433-125.925 312.88-167.119 1.136-.41 2.264-.814 3.401-1.219 91.555-32.597 189.779-56.001 291.954-69.56 96.751-12.839 194.398-16.558 290.228-11.055 83.591 4.714 163.38 16.339 237.143 34.548 132.027 32.554 240.53 81.626 355.401 133.582 34.796 15.737 70.776 32.01 107.955 48.055 150.937 65.282 354.763 141.155 593.201 148.487 235.997 7.263 444.265-51.507 628.016-103.359l9.948-2.808c35.992-10.147 78.532-22.113 121.135-33.928 301.268-83.631 544.665-146.317 826.803-200.327 54.254-10.276 109.122-20.025 163.091-28.974 156.266-26.361 321.181-48.333 490.157-65.307 182.561-18.339 365.499-30.357 543.728-35.715 83.894-2.519 165.137-3.746 255.038-4.984 185.405-2.626 353.689-3.35 516.433-4.05 129.583-.557 251.981-1.084 374.185-2.532 129.937-1.828 284.511-5.711 445.676-20.644 655.262-59.562 1475.15-326.218 2193.21-713.304l2.791 2.458c-291.22 156.989-609.635 298.604-929.262 413.656" style="fill:#003c6c;fill-rule:nonzero"/>
    <path d="M7646.11 615.684c-7.111 2.56-14.199 5.099-21.296 7.631-393.074 140.218-755.914 235.728-1078.44 283.879-159.771 24.149-309.396 37.641-434.688 47.655-295.679 22.941-573.815 38.671-875.314 49.501-45.927 1.632-93.459 3.094-139.427 4.507-36.71 1.129-74.671 2.298-112.512 3.568-344.078 11.578-707.718 36.729-1023.93 70.819-60.688 6.543-113.857 12.571-162.544 18.429-290.15 35.508-538.868 76.32-831.644 136.46-37.921 7.78-77.957 16.231-122.394 25.839-13.568 2.934-27.305 5.934-41.21 8.969-176.313 38.5-376.151 82.135-596.992 74.748-225.641-7.543-429.117-70.037-598.399-130.174-29.182-10.341-57.832-20.757-85.539-30.829-128.212-46.612-249.315-90.638-392.343-116.007-74.591-13.254-153.997-20.286-236.016-20.9-197.367-1.684-393.295 32.864-566.581 99.903C95.655 1239.279-92.24 1387-188.661 1554.967c-139.014 241.382-113.342 520.594 66.998 728.678l-3.708 1.556c-90.308-104.2-143.874-227.439-154.91-356.395-10.854-126.811 19.451-256.423 87.64-374.823 96.788-168.608 285.4-316.894 517.472-406.833 88.626-34.287 184.112-60.298 283.801-77.306 94.175-16.066 190.061-23.802 284.994-22.991 82.359.617 162.108 7.68 237.028 20.991 143.501 25.454 264.811 69.556 393.243 116.247 27.699 10.069 56.339 20.482 85.505 30.817 168.886 59.996 371.846 122.342 596.68 129.859 220.059 7.361 419.498-36.188 595.459-74.61 13.908-3.037 27.649-6.037 41.22-8.972 44.459-9.612 84.515-18.069 122.456-25.852 292.947-60.175 541.81-101.01 832.139-136.54 48.718-5.862 101.912-11.893 162.628-18.441 316.364-34.105 680.168-59.267 1024.4-70.848 37.849-1.272 75.814-2.441 112.531-3.571 45.959-1.413 93.483-2.875 139.396-4.505 301.407-10.827 579.459-26.552 875.045-49.486 125.173-10.004 274.663-23.484 434.248-47.605 610.327-91.114 1393.03-363.081 2147.43-746.167l2.477 2.326c-343.134 174.244-705.49 331.401-1049.39 455.188" style="fill:#003c6c;fill-rule:nonzero"/>
    <path d="M7413.44 681.294c-316.687 113.992-606.037 198.921-862.339 253.038-124.737 26.575-255.247 49.592-423.169 74.633-248.747 36.498-525.089 72.956-859.999 92.43-85.213 4.921-173.18 8.346-248.94 11.171l-85.803 3.2c-337.154 12.561-655.61 24.426-929.065 37.49l-13.409.639c-51.67 2.469-100.471 4.798-148.736 7.27-295.023 15.693-550.267 34.064-837.002 72.71-39.091 5.261-80.702 11.235-123.682 17.758-25.607 3.889-51.277 7.95-78.454 12.248-166.398 26.315-354.997 56.142-557.994 48.794-219.525-7.941-417.473-59.392-601.408-111.409-16.184-4.564-32.169-9.103-47.996-13.598-147.067-41.768-285.976-81.22-445.286-98.727-75.771-8.35-155.191-10.844-236.049-7.412-195.004 8.069-386.416 49.412-553.545 119.559-223.435 93.938-405.926 242.354-500.678 407.196-144.588 250.76-121.066 529.689 62.92 746.141l-3.421 1.41c-90.947-106.994-144.414-233.298-154.623-365.256-10.022-129.533 21.608-262.041 91.468-383.2 48.105-83.689 117.339-162.289 205.777-233.617 86.374-69.663 186.158-128.524 296.585-174.951 167.7-70.385 359.757-111.869 555.416-119.965 81.147-3.443 160.856-.94 236.911 7.441 159.756 17.557 298.866 57.065 446.145 98.894 15.826 4.494 31.806 9.034 47.989 13.596 183.63 51.932 381.228 103.295 600.143 111.214 202.44 7.328 390.749-22.452 556.889-48.728 27.186-4.298 52.864-8.361 78.49-12.252 43.011-6.528 84.654-12.507 123.774-17.772 286.928-38.671 542.302-57.052 837.472-72.756 48.279-2.469 97.088-4.801 148.759-7.268l13.412-.64c273.485-13.066 591.955-24.932 929.124-37.494l85.802-3.197c75.734-2.825 163.663-6.25 248.823-11.167 334.684-19.46 610.881-55.901 859.491-92.378 167.795-25.021 298.203-48.019 422.826-74.572 255.748-54 542.898-138.336 859.378-252.251 374.05-134.637 789.113-310.592 1242.24-526.782l2.175 2.185c-379.198 180.918-734.886 335.127-1057.19 458.343-62.016 23.71-123.135 46.402-183.226 68.032" style="fill:#003c6c;fill-rule:nonzero"/>
    <path d="M7069.75 796.01c-186.993 67.308-357.223 122.077-513.939 165.455-123.187 34.333-253.997 66.62-411.653 101.606-233.961 51.365-511.469 108.422-844.658 135.369-72.143 5.807-150.289 10.34-245.935 14.268-372.711 15.318-733.278 13.682-1005.76 10.548-52.119-.741-105.025-1.595-161.746-2.617-16.028-.257-31.953-.519-47.786-.778-277.459-4.546-517.081-8.472-794.577 9.74-40.026 2.619-82.071 5.875-124.972 9.68-40.335 3.579-81.264 7.745-124.599 12.156-153.559 15.63-327.604 33.344-510.123 26.224-212.68-8.293-406.748-50.09-577.969-86.965-8.9-1.916-17.724-3.817-26.47-5.695-167.623-35.875-325.952-69.761-508.687-77.812-76.91-3.411-156.338-1.364-236.08 6.081-192.402 17.772-379.299 65.915-540.497 139.224C175.478 1352.169 2.935 1497.458-91.544 1661.6c-148.065 256.495-126.068 541.954 58.841 763.602l-3.131 1.269c-91.585-109.783-144.956-239.153-154.337-374.12-9.191-132.248 23.76-267.654 95.297-391.576 47.531-82.58 114.994-160.653 200.512-232.047 83.335-69.572 179.811-129.546 286.748-178.257 161.667-73.523 349.104-121.804 542.053-139.626 79.977-7.468 159.649-9.521 236.798-6.1 183.156 8.07 341.679 41.997 509.51 77.918 8.749 1.879 17.574 3.779 26.473 5.695 171.028 36.835 364.875 78.583 577.114 86.858 182.15 7.106 356.002-10.59 509.388-26.201 43.35-4.412 84.298-8.58 124.665-12.163 42.941-3.808 85.029-7.067 125.093-9.688 277.711-18.227 517.434-14.3 795.008-9.751 15.832.26 31.757.52 47.788.778 56.721 1.021 109.619 1.877 161.722 2.616 272.417 3.134 632.896 4.769 1005.48-10.543 95.573-3.926 173.658-8.456 245.728-14.256 332.863-26.92 610.169-83.936 843.96-135.264 157.566-34.966 288.29-67.232 411.399-101.543 628.994-174.101 1335.94-490.122 2019.62-795.739l36.151-16.16 1.888 2.035-36.152 16.16c-336.08 150.234-683.603 305.584-1026.01 445.256-171.799 70.08-331.378 131.647-480.315 185.257" style="fill:#003c6c;fill-rule:nonzero"/>
    <path d="M6643.37 959.309c-27.759 9.991-55.363 19.75-82.885 29.29-122.758 42.773-253.646 84.832-400.144 128.576-242.103 71.742-505.557 144.606-829.283 178.308-73.758 7.652-153.22 13.333-242.924 17.364-298.378 13.421-633.696 6.827-996.637-19.602-52.47-3.948-105.242-8.247-161.332-13.143-53.595-4.582-106.63-9.36-157.919-13.978-230.179-20.731-447.591-40.311-689.811-40.812-40.719-.092-83.203.447-126.266 1.602-59.313 1.595-120.249 4.634-184.764 7.852-142.841 7.122-290.545 14.489-448.258 7.882-183.341-7.679-358.609-35.129-513.245-59.347-32.701-5.122-63.585-9.96-94.249-14.578-195.384-29.319-351.211-46.789-524.102-43.3-77.98 1.556-157.416 8.144-236.105 19.585-189.507 27.375-371.889 82.319-527.434 158.897-210.883 103.97-378.155 249.937-470.996 411.012-151.549 262.246-131.079 554.232 54.761 781.059l-2.838 1.132c-46.737-57.045-83.601-119.112-109.57-184.474-25.298-63.679-40.264-130.465-44.481-198.507-8.366-134.962 25.909-273.264 99.123-399.956 93.075-161.481 260.762-307.814 472.171-412.042 155.92-76.763 338.744-131.841 528.703-159.282 78.878-11.468 158.512-18.075 236.687-19.632 173.221-3.496 329.262 13.994 524.885 43.349 30.676 4.621 61.568 9.459 94.274 14.582 154.517 24.2 329.65 51.629 512.729 59.295 157.497 6.6 305.091-.761 447.825-7.879 64.543-3.219 125.506-6.258 184.873-7.856 43.109-1.157 85.638-1.696 126.404-1.603 242.423.502 459.934 20.089 690.218 40.829 51.285 4.619 104.316 9.395 157.904 13.979 56.076 4.892 108.828 9.191 161.276 13.139 362.753 26.413 697.884 33.006 996.079 19.591 89.611-4.026 168.98-9.699 242.645-17.342 323.334-33.662 586.559-106.463 828.457-178.145 146.43-43.724 277.259-85.763 399.959-128.519 403.175-139.727 831.764-329.424 1285.52-530.248 237.524-105.124 483.134-213.828 724.366-314.512l1.614 1.875c-241.194 100.666-486.786 209.362-724.289 314.478-422.866 187.155-823.915 364.65-1202.94 501.081" style="fill:#003c6c;fill-rule:nonzero"/>
    <path d="M6050.52 1217.87c-203.273 73.169-425.381 141.084-687.919 174.655-74.647 9.52-153.117 16.214-239.898 20.46-300.896 14.735-633.131-2.006-987.471-49.758-52.149-7.138-104.784-14.881-160.914-23.671-71.525-11.091-142.016-22.769-210.185-34.06-214.261-35.492-416.641-69.016-642.912-84.486-41.306-2.831-84.226-5.01-127.568-6.475-85.606-2.888-174.723-2.549-269.07-2.189-116.517.445-237.003.904-362.287-4.715-147.454-6.612-288.042-21.669-424.002-36.232-65.092-6.972-126.572-13.556-186.575-18.972-217.232-19.497-378.583-22.122-539.523-8.78-78.938 6.528-158.381 17.663-236.121 33.093-186.28 36.824-364.138 98.573-514.357 178.577-202.903 108.194-364.896 254.837-456.139 412.915-155.043 268.01-136.098 566.521 50.679 798.516l-2.54.996c-47.092-58.492-84.105-122.059-110.013-188.933-25.224-65.112-39.945-133.381-43.755-202.912-7.544-137.67 28.056-278.869 102.951-408.333 46.408-80.404 110.334-157.422 189.995-228.917 77.331-69.399 167.196-131.598 267.098-184.871 150.519-80.163 328.731-142.035 515.369-178.928 77.891-15.462 157.491-26.619 236.588-33.159 161.193-13.365 322.761-10.737 540.246 8.782 60.036 5.419 121.534 12.006 186.642 18.98 135.899 14.553 276.423 29.605 423.75 36.21 125.183 5.616 245.613 5.157 362.081 4.712 94.389-.36 183.542-.7 269.229 2.193 43.39 1.465 86.358 3.646 127.712 6.481 226.466 15.483 428.936 49.022 643.296 84.53 68.159 11.29 138.639 22.965 210.147 34.056 56.109 8.785 108.719 16.523 160.839 23.659 354.087 47.719 686.066 64.448 986.707 49.726 86.671-4.242 165.032-10.926 239.569-20.432 317.32-40.576 575.621-131.436 812.988-221.028 135.859-51.56 262.946-102.423 388.518-155.497 251.81-105.994 512.134-228.324 787.741-357.835 379.845-178.494 772.622-363.065 1176.21-519.778l1.357 1.706c-403.477 156.668-796.2 341.213-1175.99 519.682-275.641 129.527-535.994 251.871-787.866 357.892-125.611 53.09-252.737 103.97-388.642 155.547-41.283 15.581-83.214 31.205-125.965 46.593" style="fill:#003c6c;fill-rule:nonzero"/>
    <path d="M5835.64 1375.7c-134.733 48.5-280.065 89.303-441.515 113.873-74.827 11.366-152.305 19.071-236.867 23.556-159.815 8.482-330.885 4.577-508.459-11.607-152.497-13.898-310.565-36.881-469.806-68.309-51.727-10.297-104.222-21.484-160.491-34.199-81.104-18.228-161.083-37.542-238.426-56.219-206.448-49.855-401.445-96.945-620.038-126.088-41.837-5.583-85.197-10.478-128.875-14.55-126.08-11.751-259.356-16.15-400.456-20.809-74.439-2.458-151.412-5-229.268-8.727-96.698-4.629-192.3-11.213-284.753-17.581-115.215-7.933-224.041-15.428-328.939-18.91-209.173-6.862-385.511 1.317-554.954 25.741-79.752 11.485-159.198 27.166-236.13 46.609-185.265 46.699-353.911 113.403-501.259 198.259-197.688 113.958-350.278 257.397-441.269 414.813-158.547 273.789-141.128 578.825 46.592 815.971l-2.239.866c-47.447-59.938-84.609-125.004-110.456-193.394-25.152-66.545-39.629-136.296-43.031-207.315-6.723-140.375 30.2-284.472 106.78-416.714 45.861-79.341 108.02-155.835 184.745-227.354 74.369-69.326 160.932-132.638 257.283-188.18 74.783-43.068 156.592-82.091 243.148-115.984 82.418-32.274 169.526-60.061 258.903-82.59 77.05-19.473 156.619-35.18 236.495-46.68 169.662-24.456 346.21-32.648 555.603-25.777 104.966 3.483 213.822 10.98 329.072 18.917 92.435 6.365 188.017 12.947 284.676 17.575 77.828 3.727 154.788 6.268 229.212 8.724 141.158 4.662 274.489 9.064 400.676 20.823 43.725 4.077 87.131 8.978 129.014 14.569 218.771 29.163 413.853 76.274 620.389 126.15 77.332 18.675 157.296 37.986 238.377 56.209 56.242 12.707 108.71 23.889 160.405 34.18 349.032 68.883 677.868 95.751 977.373 79.854 84.441-4.478 161.8-12.171 236.505-23.52 313.038-47.635 565.643-156.495 797.547-263.913 123.069-57.226 246.41-116.913 377.068-182.476 142.201-71.144 285.133-145.554 436.458-224.334 230.065-119.77 467.96-243.619 714.674-361.416 278.764-133.098 529.281-239.197 765.781-324.323.361-.131.703-.254 1.064-.383l1.118 1.525c-.356.128-.754.272-1.109.399-528.762 190.326-1012.34 442.076-1480.04 685.561-151.337 78.786-294.28 153.201-436.5 224.355-130.682 65.574-254.049 125.274-377.146 182.512-112.574 52.144-230.057 104.641-356.937 150.311" style="fill:#003c6c;fill-rule:nonzero"/>
    <path d="M5737.88 1502.78c-97.195 34.985-200.594 64.07-312.232 83.835-73.582 13.014-152.251 21.981-233.819 26.653-157.862 9.044-326.961 2.486-502.597-19.496-151.741-18.989-308.671-49.465-466.429-90.577-51.321-13.441-103.675-28.071-160.061-44.727-86.379-25.442-171.773-52.515-254.357-78.695-202.749-64.276-394.254-124.988-609.48-167.375-42.324-8.338-86.124-15.952-130.183-22.63-200.288-30.343-417.787-41.435-628.123-52.163l-16.437-.838c-210.713-10.755-409.739-20.913-600.406-16.948-206.274 4.345-392.849 24.059-570.387 60.27-80.405 16.392-159.85 36.622-236.13 60.128-181.143 55.733-345.383 129.058-488.149 217.944-189.462 118.041-336.905 262.137-426.386 416.706-162.055 279.58-146.163 591.14 42.508 833.426l-1.938.737c-47.801-61.383-85.113-127.95-110.901-197.853-25.077-67.98-39.31-139.212-42.302-211.719-5.908-143.077 32.34-290.074 110.604-425.097 89.608-154.79 237.254-299.085 426.975-417.287 142.946-88.998 307.388-162.415 488.75-218.215 76.373-23.534 155.914-43.788 236.413-60.199 177.725-36.25 364.487-55.985 570.953-60.333 190.782-3.966 389.866 6.194 600.636 16.951l16.435.838c210.415 10.731 427.992 21.828 628.431 52.194 44.101 6.684 87.944 14.305 130.311 22.652 215.383 42.417 406.959 103.152 609.785 167.452 82.571 26.177 167.951 53.244 254.304 78.68 56.362 16.649 108.689 31.271 159.978 44.704 340.471 88.73 675.227 126.761 968.077 109.982 81.447-4.663 159.988-13.618 233.449-26.61 309.733-54.838 556.214-181.636 782.13-306.808 108.508-60.267 224.684-126.823 365.614-209.454 64.463-37.724 130.873-76.951 195.097-114.887 253.706-149.859 516.049-304.819 793.699-448.561 314.358-162.747 603.234-286.986 883.165-379.837l.895 1.338c-625.545 207.477-1159.75 523.023-1676.36 828.175-64.227 37.938-130.638 77.165-195.104 114.89-140.945 82.641-257.135 149.204-365.66 209.48-144.73 80.192-297.917 161.056-470.764 223.274" style="fill:#003c6c;fill-rule:nonzero"/>
    <path d="M5681.72 1620.6c-74.862 26.947-149.298 47.822-224.566 63.065-73.19 14.813-150.83 24.821-230.768 29.748-155.792 9.601-322.912.389-496.715-27.385-150.74-24.086-306.53-62.054-463.037-112.846-50.829-16.531-103.044-34.603-159.626-55.251-89.141-32.488-177.578-67.158-263.103-100.686-192.574-75.494-391.704-153.558-606.102-209.15-42.785-11.096-87.026-21.428-131.494-30.708-177.86-37.117-382.809-61.582-626.559-74.794-233.08-12.63-435.891-12.33-620.026.918-208.318 15.016-399.943 46.026-585.823 94.804-80.892 21.222-160.333 46.006-236.123 73.647-176.558 64.357-336.378 144.307-475.021 237.631-181.15 121.982-323.443 266.729-411.493 418.593-165.572 285.383-151.207 603.469 38.423 850.879l-1.635.612c-189.868-247.722-204.258-566.196-38.492-851.916 44.815-77.294 103.443-152.741 174.256-224.243 68.565-69.235 148.531-134.775 237.676-194.803 138.777-93.412 298.747-173.438 475.466-237.854 75.856-27.673 155.372-52.473 236.338-73.714 186.036-48.819 377.817-79.856 586.3-94.883 184.25-13.256 387.171-13.558 620.364-.92 243.881 13.218 448.956 37.7 626.941 74.842 44.506 9.289 88.785 19.629 131.607 30.734 214.529 55.625 413.722 133.715 606.354 209.231 85.512 33.523 173.938 68.188 263.056 100.668 56.559 20.641 108.749 38.705 159.553 55.227 235.339 76.375 592.723 162.681 958.817 140.117 79.815-4.918 157.334-14.911 230.403-29.699 307.012-62.175 547.123-206.855 766.738-349.717 118.694-77.303 235.248-155.949 354.149-236.432l39.083-26.438c264.534-178.972 538.076-364.036 831.423-530.101 158.395-89.671 307.949-165.679 457.202-232.368 168.25-75.177 331.209-136.409 498.199-187.191l.697 1.143c-66.238 20.143-131.29 41.802-195.072 64.76-606.096 218.161-1106.07 556.429-1591.18 884.634l-39.085 26.437c-118.906 80.488-235.468 159.137-354.174 236.449-107.281 69.787-224.244 143.032-352.56 205.898-64.251 31.478-127.471 58.414-190.391 81.062" style="fill:#003c6c;fill-rule:nonzero"/>
    <path d="M5649.4 1733.49c-53.379 19.215-106.796 34.89-160.754 47.223-429.408 98.147-877.697-20.621-1178.15-137.537-146.922-57.174-289.014-123.446-426.427-187.537-192.775-89.912-392.113-182.886-607.336-251.846-684.864-219.433-1555.64-180.214-2218.44 99.919-397.288 167.916-702.165 408.627-858.466 677.793-169.098 291.196-156.261 615.807 34.333 868.328l-1.326.491c-48.511-64.273-86.123-133.842-111.791-206.774-24.934-70.844-38.679-145.04-40.855-220.527-4.28-148.471 36.615-301.265 118.259-441.864 79.594-137.066 196.993-266.506 348.939-384.722 145.577-113.261 317.219-212.036 510.159-293.583 327.088-138.246 708.023-220.693 1101.6-238.42 393.58-17.726 780.268 30.145 1118.26 138.439 215.328 68.991 414.713 161.987 607.534 251.92 137.389 64.081 279.456 130.342 426.328 187.495 300.197 116.817 748.071 235.49 1176.96 137.463 304.661-69.637 547.586-239.181 751.361-392.633 96.892-72.966 194.819-148.846 289.523-222.23 266.535-206.532 542.147-420.095 839.956-604.585 160.491-99.421 313.819-182.277 468.744-253.302 174.156-79.843 345.648-142.707 524.278-192.189l.516.94c-743.34 205.907-1296.98 634.913-1832.39 1049.79-94.708 73.386-192.64 149.271-289.538 222.241-103.778 78.148-217.233 160.256-343.619 231.28-83.545 46.948-165.539 84.869-247.648 114.425" style="fill:#003c6c;fill-rule:nonzero"/>
    <path d="m-618.014 1901.38-1.442-.216 281.689-760.129c19.791-53.407 45.6-115.157 86.971-168.225 45.89-58.866 102.928-97.159 174.375-117.067 113.58-31.649 216.985-3.167 283.729 26.299 82.47 36.409 156.873 95.413 204.131 161.883 28.638 40.281 52.511 83.556 75.599 125.406 49.098 88.996 99.867 181.024 198.918 247.774 202.441 136.426 546.51 119.368 781.757 32.003 255.899-95.032 441.484-262.655 595.348-412.31 16.015-15.579 32.266-31.503 47.981-46.903 146.129-143.208 297.235-291.292 501.426-398.572 42.07-22.102 92.983-46.08 151.635-56.338 71.894-12.569 149.101-3.233 223.272 27.015 63.265 25.799 123.821 66.683 170.515 115.123 30.03 31.154 56.626 64.83 82.347 97.397 48.448 61.346 98.546 124.783 173.23 173.089 203.449 131.593 528.064 113.1 744.233 57.28 185.286-47.848 353.282-126.128 515.748-201.83 56.838-26.485 115.611-53.87 174.26-79.549 131.641-57.636 249.552-98.999 360.461-126.449 138.92-34.383 265.694-47.12 387.568-38.943 110.171 7.393 221.13 32.485 339.219 76.713 105.362 39.46 206.905 90.311 305.103 139.488 101.016 50.588 205.47 102.897 315.249 143.548 252.075 93.344 548.754 124.622 836.537 97.647 257.057-24.094 507.009-94.626 712.017-208.912l.915.776c-106.4 59.316-226.881 107.791-358.093 144.081-127.864 35.363-262.785 58.333-401.042 68.263-138.251 9.935-275.865 6.549-409.027-10.059-136.65-17.043-265.19-47.626-382.052-90.9-109.862-40.684-214.355-93.012-315.409-143.619-195.922-98.115-398.519-199.571-643.615-216.016-218.692-14.674-456.08 37.83-747.061 165.233-58.631 25.669-117.396 53.051-174.223 79.531-162.542 75.736-330.615 154.053-516.074 201.945-129.731 33.5-270.347 48.171-395.945 41.314-140.815-7.691-261.781-41.853-349.812-98.793-74.848-48.412-124.999-111.917-173.502-173.331-25.705-32.548-52.287-66.207-82.283-97.325-80.036-83.029-230.785-169.969-392.217-141.732-58.381 10.209-109.131 34.114-151.075 56.15-203.999 107.179-355.034 255.194-501.096 398.335-15.715 15.401-31.965 31.327-47.984 46.906-153.965 149.754-339.684 317.494-595.88 412.636-127.101 47.2-273.401 71.498-411.958 68.416-150.392-3.346-278.869-38.123-371.538-100.573-99.271-66.898-150.094-159.026-199.247-248.122-23.076-41.829-46.938-85.082-75.548-125.323-47.148-66.316-121.367-125.179-203.627-161.495-66.452-29.338-169.387-57.701-282.373-26.218-151.878 42.32-214.919 161.779-260.422 284.569l-281.688 760.129Z" style="fill:#003c6c;fill-rule:nonzero"/>
    <path d="m-597.244 1830.03-1.839-.259c102.724-292.502 192.507-527.458 282.55-739.425 20.155-47.444 49.219-108.603 95.481-160.853 48.809-55.124 107.697-90.651 180.031-108.615 114.262-28.415 218.133.921 285.155 30.534 82.731 36.553 158.47 95.332 207.795 161.265 30.69 41.007 56.528 85.117 81.515 127.772 51.282 87.545 104.311 178.074 201.678 245.249 206.185 141.515 540.239 125.287 763.357 50.318 253.578-85.198 440.173-241.097 595.168-380.534 23.228-20.789 46.811-42.201 69.618-62.911 144.694-131.39 294.315-267.253 489.391-369.464 34.52-18.088 61.975-30.448 89.021-40.078 21.257-7.568 41.451-13.112 61.736-16.951 37.164-7.034 75.656-8.511 114.401-4.389 35.494 3.775 71.371 12.251 106.632 25.193 62.224 22.836 122.617 59.972 170.057 104.568 30.304 28.492 57.309 59.344 83.426 89.179 49.103 56.097 99.878 114.102 174.021 157.693 85.774 50.514 202.333 79.783 337.08 84.641 125.318 4.457 266.091-12.572 396.376-47.947 177.109-48.093 339.555-122.927 496.655-195.296 62.397-28.746 126.918-58.467 191.431-86.085 64.394-27.557 124.067-50.674 182.433-70.673 208.624-71.488 393.728-100.298 565.899-88.073 110.302 7.822 221.687 33.054 340.519 77.136 106.006 39.325 208.34 89.81 307.303 138.632 91.71 45.244 186.542 92.027 284.813 130.278 9.267 3.607 18.56 7.136 27.623 10.488 477.266 176.587 1112.9 136.979 1545.75-96.325l1.138 1.004c-107.168 57.763-228.052 104.567-359.294 139.114-127.655 33.603-262.311 54.91-400.217 63.331-137.496 8.394-274.572 3.759-407.417-13.775-135.85-17.932-264.006-48.955-380.905-92.209-9.075-3.355-18.381-6.889-27.658-10.499-98.355-38.284-193.228-85.088-284.975-130.351-197.462-97.413-401.645-198.144-646.941-215.539-171.799-12.199-356.558 16.567-564.839 87.94-58.309 19.979-117.931 43.076-182.268 70.609-64.485 27.604-128.993 57.321-191.376 86.059-157.186 72.41-319.724 147.286-497.03 195.432-130.539 35.445-271.6 52.504-397.189 48.04-65.377-2.358-126.64-10.378-182.08-23.836-59.088-14.344-111.605-34.903-156.094-61.104-74.362-43.72-125.214-101.813-174.391-157.993-26.097-29.813-53.082-60.64-83.337-89.086-84.996-79.901-231.849-154.673-389.101-124.913-20.153 3.813-40.221 9.324-61.355 16.849-26.939 9.591-54.305 21.913-88.73 39.951-194.858 102.097-344.398 237.885-489.013 369.204-22.808 20.709-46.391 42.124-69.623 62.915-155.13 139.561-341.907 295.601-595.873 380.932-125.115 42.036-267.97 61.752-402.257 55.508-146.47-6.808-272.081-43.482-363.252-106.056-97.624-67.354-150.723-157.999-202.071-245.659-24.972-42.631-50.794-86.712-81.445-127.668-49.186-65.747-124.699-124.355-207.173-160.794-66.668-29.458-169.974-58.645-283.497-30.414-157.812 39.188-227.212 157.759-274.286 268.574-90.034 211.947-179.808 446.884-282.527 739.366" style="fill:#003c6c;fill-rule:nonzero"/>
    <path d="m-576.471 1758.67-2.239-.294c94.469-285.501 184.528-513.885 283.417-718.733 31.696-65.662 64.757-114.444 104.045-153.528 51.631-51.364 112.357-84.109 185.646-100.109 90.976-19.923 190.065-7.899 286.562 34.769 83.001 36.703 160.075 95.255 211.459 160.644 32.886 41.825 60.777 86.904 87.749 130.497 53.244 86.057 108.302 175.043 204.121 242.369 199.938 140.484 526.33 134.055 744.975 68.632 249.644-74.7 438.016-219.195 594.983-348.769 29.934-24.712 60.406-50.432 89.875-75.306 143.433-121.071 291.752-246.262 478.721-343.957 34.582-18.072 61.934-30.474 88.686-40.216 21.11-7.687 41.124-13.411 61.188-17.502 70.967-14.474 144.574-9.567 218.781 14.584 61.138 19.899 121.372 53.286 169.604 94.011 30.56 25.812 57.963 53.819 84.464 80.905 49.767 50.866 101.231 103.463 174.849 142.356 85.268 45.206 200.13 69.812 332.168 71.163 125.115 1.156 260.159-17.877 390.526-55.045 168.64-48.086 325.089-119.416 476.385-188.397 68.328-31.155 138.982-63.368 209.785-92.993 64.394-26.924 124.256-49.477 183.017-68.949 207.866-68.894 392.88-96.091 565.618-83.147 110.466 8.259 222.315 33.639 341.933 77.591 106.686 39.199 209.847 89.331 309.609 137.809 90.872 44.16 184.839 89.821 281.82 127.467 9.225 3.582 18.504 7.099 27.579 10.454 264.954 97.953 578.333 131.254 878.361 103.132 240.688-22.561 472.756-84.611 664.591-184.523l1.352 1.237c-107.929 56.21-229.216 101.343-360.499 134.148-127.434 31.844-261.81 51.493-399.389 58.393-136.729 6.862-273.264.979-405.808-17.487-135.029-18.812-262.799-50.276-379.757-93.514-9.087-3.36-18.38-6.883-27.62-10.469-97.077-37.682-191.089-83.367-282.006-127.548-199.071-96.738-404.92-196.769-650.497-215.129-172.291-12.911-356.891 14.235-564.345 82.994-58.686 19.447-118.486 41.974-182.809 68.872-70.763 29.607-141.398 61.813-209.708 92.957-151.392 69.024-307.938 140.401-476.794 188.546-130.66 37.25-266.022 56.331-391.46 55.17-64.194-.656-124.474-6.72-179.174-18.023-58.174-12.024-110.099-30.008-154.327-53.455-73.896-39.041-125.459-91.741-175.324-142.706-26.474-27.058-53.849-55.037-84.346-80.797-86.159-72.745-232.811-139.349-385.995-108.104-19.909 4.058-39.781 9.743-60.749 17.378-26.63 9.697-53.881 22.056-88.355 40.07-186.739 97.575-334.966 222.691-478.311 343.685-29.471 24.876-59.947 50.601-89.891 75.319-157.144 129.72-345.745 274.384-595.874 349.228-123.22 36.869-262.696 52.04-392.735 42.716-142.687-10.232-265.365-48.846-354.772-111.666-96.105-67.528-151.244-156.647-204.567-242.829-26.953-43.563-54.824-88.608-87.662-130.372C389.374 853.658 186.784 745.51-4.974 787.498c-164.669 35.948-240.486 153.871-288.14 252.588-98.866 204.798-188.904 433.133-283.357 718.584" style="fill:#003c6c;fill-rule:nonzero"/>
    <path d="M7535.81 948.315c-39.253 3.68-78.859 6.307-118.736 7.872-135.946 5.334-271.936-1.801-404.195-21.204-134.192-19.688-261.573-51.589-378.605-94.819-9.034-3.339-18.313-6.849-27.581-10.436-95.717-37.053-188.779-81.595-278.778-124.669-200.766-96.091-408.369-195.455-654.319-214.797-172.842-13.637-357.278 11.892-563.853 78.051-59.041 18.902-119.018 40.862-183.346 67.134-77.508 31.682-154.687 66.553-229.326 100.277-145.12 65.567-295.179 133.368-455.261 181.235-128.901 38.539-262.279 60.08-385.722 62.301-63.006 1.041-122.308-3.067-176.26-12.208-57.263-9.704-108.592-25.113-152.562-45.8-73.465-34.371-125.758-81.7-176.33-127.471-26.83-24.284-54.574-49.393-85.285-72.448-42.401-31.807-195.328-132.388-382.901-91.314-19.667 4.304-39.341 10.163-60.148 17.91-33.72 12.557-64.733 28.074-87.984 40.191-175.772 91.593-320.128 204.841-459.731 314.362-40.526 31.792-78.803 61.823-118.051 91.537-77.427 58.622-170.689 126.516-275.339 185.605-106.943 60.381-211.793 103.531-320.545 131.913-121.235 31.639-257.289 42.238-383.104 29.843-138.791-13.674-258.566-54.201-346.38-117.2-94.327-67.673-151.388-155.128-206.568-239.702-29.094-44.59-59.177-90.698-94.367-133.366-53.234-64.6-131.336-122.701-214.277-159.407-96.225-42.581-195.055-55.999-285.794-38.792-172.909 32.615-255.159 150.657-301.983 236.609-106.218 194.972-199.174 423.221-284.178 697.789l-2.645-.319c85.036-274.66 178.028-502.997 284.294-698.057 33.358-61.237 70.215-109.074 112.671-146.251 53.589-46.924 117.921-77.726 191.206-91.55 91.507-17.348 191.08-3.858 287.955 39.012 83.278 36.853 161.686 95.179 215.117 160.017 35.249 42.74 65.358 88.887 94.476 133.514 55.092 84.439 112.06 171.752 206.082 239.205 195.265 140.088 505.64 144.603 726.61 86.933 223.021-58.202 399.071-168.819 594.79-317.004 39.231-29.703 77.502-59.728 118.019-91.513 139.697-109.593 284.149-222.918 460.153-314.632 23.33-12.157 54.456-27.732 88.345-40.35 20.964-7.806 40.798-13.71 60.634-18.053 69.973-15.321 142.819-12.509 216.517 8.359 76.901 21.778 134.433 57.396 169.156 83.442 30.789 23.114 58.569 48.256 85.435 72.572 50.447 45.659 102.611 92.872 175.735 127.082 84.765 39.882 197.93 59.834 327.266 57.697 123.082-2.214 256.108-23.702 384.682-62.142 159.86-47.801 309.818-115.555 454.836-181.078 74.666-33.734 151.873-68.619 229.434-100.323 64.415-26.306 124.469-48.296 183.601-67.227 96.408-30.876 189.925-53.244 277.95-66.48 99.583-14.979 196.274-18.927 287.38-11.737 110.668 8.703 223.021 34.242 343.473 78.076 107.414 39.089 211.442 88.879 312.048 137.031 89.947 43.052 182.957 87.566 278.568 124.579 9.251 3.582 18.518 7.086 27.538 10.418 485.545 179.358 1104.49 152.651 1540.16-66.455l1.551 1.473c-108.674 54.655-230.369 98.118-361.7 129.181-90.249 21.344-183.971 36.599-279.826 45.584" style="fill:#003c6c;fill-rule:nonzero"/>
    <path d="M7584.29 926.308c-47.314 4.436-95.161 7.34-143.419 8.702-135.143 3.81-270.589-4.574-402.576-24.922-133.331-20.554-260.322-52.893-377.445-96.124-9.009-3.323-18.278-6.823-27.551-10.402-94.263-36.391-186.272-79.76-275.249-121.702-202.559-95.479-412.017-194.211-658.439-214.555-173.455-14.374-357.73 9.538-563.364 73.111-59.396 18.353-119.547 39.745-183.884 65.396-84.769 33.838-168.952 71.583-250.361 108.086-138.322 62.021-281.354 126.153-432.301 173.433-127.16 39.819-258.555 63.828-379.972 69.432-127.269 5.629-239.35-9.768-324.131-44.527-73.072-29.71-126.121-71.686-177.423-112.281-27.159-21.493-55.245-43.716-86.141-64.05-43.02-28.286-197.551-117.257-379.826-74.539-19.42 4.548-38.899 10.581-59.55 18.441-33.295 12.677-64.315 28.204-87.617 40.313-163.197 84.806-301.759 186.053-435.761 283.968-52.113 38.078-101.339 74.048-151.619 108.837-73.263 50.692-171.138 115.87-278.586 170.386-106.36 53.963-210.155 91.715-317.315 115.417-119.209 26.362-251.836 32.386-373.454 16.954-134.862-17.112-251.735-59.55-337.984-122.726-92.392-67.679-151.182-153.34-208.037-236.184-31.399-45.749-63.864-93.057-101.599-136.744-56.052-64.965-133.413-121.332-217.835-158.72-96.532-42.752-195.757-57.612-286.966-42.98-134.883 21.479-238.187 93.651-315.819 220.642-113.314 185.359-209.199 413.127-284.991 676.978l-3.048-.337c35.55-123.76 75.696-240.33 119.325-346.472 49.636-120.76 105.438-232.1 165.853-330.927 78.063-127.697 182.109-200.298 318.074-221.951 92.042-14.767 192.09.189 289.329 43.254 84.797 37.555 162.491 94.159 218.771 159.386 37.806 43.77 70.301 91.122 101.729 136.915 56.758 82.701 115.448 168.217 207.523 235.663 189.694 138.951 492.41 152.968 708.269 105.232 235.527-52.092 424.961-167.881 594.589-285.25 50.248-34.767 99.459-70.725 151.557-108.793 134.093-97.982 272.753-199.299 436.169-284.22 23.391-12.154 54.529-27.742 88.005-40.485 20.821-7.927 40.471-14.011 60.074-18.602 68.965-16.161 141.042-15.447 214.236 2.127 75.364 18.096 133.34 49.611 168.701 72.862 30.993 20.399 59.123 42.659 86.33 64.184 51.147 40.475 104.036 82.326 176.7 111.869 84.261 34.545 195.734 49.843 322.373 44.242 121.037-5.588 252.048-29.529 378.856-69.238 150.723-47.21 293.65-111.295 431.872-173.271 81.447-36.519 165.664-74.281 250.506-108.148 64.436-25.689 124.683-47.115 184.182-65.501 96.24-29.751 189.837-51.148 278.19-63.594 99.256-13.981 195.763-17.244 286.853-9.695 110.915 9.157 223.818 34.868 345.161 78.601 108.188 38.993 213.131 88.46 314.623 136.3 88.925 41.916 180.876 85.26 275.024 121.605 9.257 3.574 18.509 7.067 27.498 10.384 486.238 179.465 1104.06 158.759 1537.37-51.523l1.739 1.715c-109.417 53.099-231.514 94.89-362.904 124.211-82.226 18.35-167.348 31.663-254.316 39.817" style="fill:#003c6c;fill-rule:nonzero"/>
    <path d="M7633.61 904.548c-55.447 5.197-111.822 8.307-168.947 9.284-134.321 2.295-269.222-7.34-400.956-28.638-132.441-21.412-259.044-54.192-376.287-97.429-8.964-3.306-18.22-6.795-27.508-10.37-92.71-35.69-183.549-77.855-271.396-118.634-204.461-94.907-415.881-193.046-662.891-214.411-174.123-15.129-358.242 7.171-562.876 68.171-59.769 17.806-120.093 38.628-184.421 63.658-92.6 36.081-184.282 76.944-272.943 116.458-130.953 58.364-266.364 118.716-407.784 165.064-125.435 41.096-254.836 67.574-374.21 76.561-124.221 9.064-234.676-1.667-319.424-31.034-72.636-25.169-126.501-61.767-178.592-97.162-27.473-18.668-55.883-37.972-86.922-55.574-55.98-31.706-204.757-100.809-376.775-57.781-19.174 4.791-38.459 10.999-58.957 18.976-32.84 12.777-63.881 28.32-87.255 40.434-149.047 77.241-279.724 166.457-406.097 252.737-65.709 44.863-127.777 87.239-190.899 126.982-169.676 106.837-359.307 211.561-595.927 254.08-117.132 21.046-246.326 22.488-363.787 4.053-130.899-20.542-244.866-64.889-329.581-128.244-90.279-67.515-150.573-151.241-208.883-232.21-33.895-47.063-68.941-95.728-109.444-140.572-109.283-121.136-309.269-231.56-509.557-205.203-138.285 18.002-249.192 86.868-329.645 204.685-121.871 178.475-218.026 399.235-285.792 656.15l-3.457-.343c67.82-257.123 164.069-478.088 286.073-656.757 37.022-54.215 80.813-98.565 130.158-131.817 58.534-39.445 126.538-64.435 202.122-74.275 92.56-12.176 193.092 4.243 290.686 47.497 85.102 37.717 164.092 94.097 222.42 158.752 40.587 44.936 75.671 93.652 109.599 140.764 58.207 80.823 118.397 164.4 208.355 231.678 196.951 147.292 494.768 158.598 689.954 123.523 235.848-42.381 425.049-146.883 594.376-253.498 63.065-39.71 125.106-82.068 190.79-126.911 126.461-86.339 257.228-175.62 406.477-252.963 23.463-12.16 54.632-27.767 87.658-40.617 20.677-8.048 40.143-14.312 59.51-19.152 67.942-16.99 139.245-18.373 211.935-4.11 73.725 14.468 132.185 41.85 168.244 62.273 31.154 17.668 59.617 37.009 87.144 55.712 51.909 35.27 105.583 71.74 177.745 96.745 84.16 29.161 193.947 39.812 317.492 30.797 118.973-8.956 247.969-35.357 373.039-76.334 141.204-46.275 276.511-106.581 407.367-164.901 88.707-39.536 180.433-80.418 273.129-116.537 64.443-25.076 124.882-45.936 184.77-63.779 96.056-28.633 189.731-49.058 278.427-60.706 98.912-12.993 195.238-15.566 286.322-7.651 111.209 9.619 224.718 35.515 347.012 79.168 109.014 38.914 214.93 88.079 317.358 135.624 87.793 40.752 178.573 82.892 271.16 118.534 9.27 3.569 18.508 7.051 27.456 10.35 487.171 179.659 1103.87 164.952 1534.59-36.595l1.917 1.964c-173.112 81.006-375.28 133.21-592.071 153.534" style="fill:#003c6c;fill-rule:nonzero"/>
    <path d="M7682.24 883.118c-63.441 5.947-128.159 9.149-193.793 9.535-133.478.787-267.835-10.098-399.334-32.354-131.527-22.261-257.735-55.479-375.12-98.733-9.05-3.335-18.294-6.813-27.472-10.335-91.038-34.949-180.58-75.878-267.177-115.459-206.48-94.377-419.99-191.967-667.708-214.379-172.432-15.672-361.651 5.603-562.398 63.232-59.283 17.009-121.509 37.844-184.953 61.923-101.079 38.427-200.809 82.689-297.255 125.496-122.95 54.568-250.082 110.995-381.526 156.022-123.741 42.373-251.144 71.313-368.436 83.69-121.484 12.506-230.303 6.426-314.697-17.529-72.37-20.541-127.083-51.817-179.995-82.062-27.707-15.84-56.356-32.218-87.465-47.073-70.654-33.676-213.157-83.789-373.758-41.041-18.937 5.039-38.031 11.419-58.371 19.511-32.352 12.867-63.43 28.434-86.894 40.561-133.4 68.939-253.972 146.187-370.575 220.894-81.38 52.14-158.247 101.387-236.057 145.748-107.52 61.301-198.099 105.77-285.058 139.948-104.844 41.207-206.544 68.16-310.909 82.401-14.958 2.042-30.026 3.772-45.148 5.19-102.798 9.637-208.696 4.879-308.947-14.052-126.898-23.961-237.956-70.212-321.17-133.749-87.954-67.159-149.489-148.771-208.996-227.696-36.616-48.562-74.477-98.776-118.018-144.935-111.06-117.893-311.411-227.752-510.09-209.13-1.417.133-2.826.273-4.242.418-143.819 14.586-259.375 78.087-343.467 188.739-162.431 213.737-245.5 463.454-286.582 635.305l-3.867-.339c41.131-172.048 124.306-422.069 286.985-636.131 39.128-51.489 85.908-93.427 139.037-124.649 60.767-35.712 130.563-57.774 207.449-65.572 93.072-9.595 194.093 8.302 292.027 51.739 85.422 37.888 165.708 94.041 226.067 158.114 43.638 46.263 81.542 96.533 118.198 145.149 59.401 78.782 120.824 160.247 208.462 227.163 191.255 146.036 472.377 169.008 671.668 141.813 237.712-32.438 433.745-130.301 594.154-221.755 77.717-44.309 154.543-93.529 235.879-145.641 116.68-74.756 237.334-152.058 370.909-221.085 23.553-12.173 54.763-27.806 87.305-40.748 20.527-8.166 39.806-14.609 58.943-19.7 66.899-17.808 137.423-21.29 209.611-10.35 71.955 10.905 130.952 34.116 167.775 51.668 31.243 14.92 59.958 31.333 87.725 47.207 55.121 31.511 107.186 61.273 179.027 81.663 83.75 23.772 191.83 29.745 312.631 17.362 116.875-12.336 243.865-41.184 367.233-83.431 131.241-44.957 258.278-101.339 381.131-155.865 96.503-42.832 196.294-87.122 297.497-125.596 63.576-24.13 125.938-45.008 185.357-62.055 95.857-27.521 189.614-46.973 278.667-57.818 98.539-12.005 194.691-13.888 285.788-5.608 111.554 10.093 225.727 36.191 349.045 79.786 109.902 38.852 216.848 87.734 320.272 135.007 86.535 39.553 176.016 80.453 266.928 115.354 9.159 3.515 18.385 6.986 27.417 10.313 495.978 182.758 1097.25 174.253 1531.82-21.667l2.077 2.217c-167.046 75.313-360.504 123.956-567.601 143.369" style="fill:#003c6c;fill-rule:nonzero"/>
    <path d="M7731.07 861.978c-71.466 6.699-144.584 9.897-218.84 9.498-132.615-.715-266.421-12.852-397.708-36.074-130.578-23.097-256.394-56.754-373.952-100.034-8.989-3.31-18.219-6.777-27.433-10.304-89.235-34.159-177.335-73.809-262.533-112.152-208.637-93.897-424.378-190.99-672.955-214.475-173.223-16.446-362.279 3.167-561.917 58.297-59.637 16.458-122.044 36.706-185.487 60.184-110.269 40.882-218.647 88.883-323.455 135.305-114.25 50.603-232.391 102.929-353.371 146.206-122.883 43.941-248.285 75.347-362.65 90.82-118.214 15.989-225.392 14.604-309.944-4.017-72.219-15.908-127.86-41.875-181.669-66.987-27.852-13-56.651-26.439-87.731-38.54-87.782-34.093-223.363-65.989-370.783-24.314-18.686 5.278-37.588 11.835-57.787 20.045-31.653 12.866-61.51 27.788-86.538 40.688-116.373 59.972-224.572 125.383-329.21 188.641-99.118 59.921-192.741 116.52-287.082 164.934-107.32 55.075-198.926 94.709-288.286 124.729-102.856 34.558-202.542 56.022-304.623 65.593-1.038.097-2.067.192-3.107.286-114.396 10.449-233.481 2.914-344.379-21.787-59.434-13.24-115.51-31.273-166.669-53.603-54.612-23.837-103.762-52.652-146.084-85.645-85.381-66.561-147.836-145.85-208.234-222.531-39.606-50.281-80.56-102.273-127.461-149.944-105.98-107.864-305.527-228.165-519.128-212.221-147.461 10.753-271.013 70.513-357.283 172.806-134.998 160.069-237.051 378.282-287.357 614.441l-4.278-.323c23.902-112.205 59.308-220.433 105.236-321.676 50.319-110.924 111.779-209.788 182.671-293.847 41.303-48.976 91.105-88.509 148.02-117.504 62.813-31.999 134.356-51.124 212.682-56.834 93.646-6.989 195.086 12.368 293.347 55.983 85.756 38.063 167.333 93.987 229.708 157.469 47.013 47.783 88.016 99.839 127.668 150.18 60.289 76.542 122.632 155.689 207.707 222.012 186.057 145.045 459.528 177.803 653.412 160.097 1.072-.097 2.161-.199 3.232-.298 189.472-17.76 366.344-74.594 590.69-189.721 94.194-48.339 187.75-104.898 286.798-164.777 104.702-63.297 212.97-128.749 329.485-188.795 25.127-12.949 55.11-27.934 86.951-40.876 20.387-8.288 39.48-14.91 58.371-20.245 65.837-18.612 135.573-24.195 207.265-16.595 56.209 5.96 112.492 19.772 167.286 41.053 31.228 12.157 60.098 25.63 88.017 38.661 56.031 26.15 108.956 50.85 180.601 66.631 83.868 18.47 190.303 19.831 307.793 3.935 113.955-15.418 238.939-46.723 361.446-90.53 120.795-43.21 238.844-95.497 353.006-146.06 104.882-46.455 213.335-94.491 323.76-135.43 63.595-23.533 126.155-43.831 185.949-60.331 95.648-26.413 189.484-44.895 278.905-54.93 98.162-11.014 194.13-12.213 285.251-3.561 111.963 10.579 226.871 36.895 351.287 80.455 110.864 38.814 218.906 87.439 323.392 134.462 85.139 38.316 173.176 77.937 262.282 112.047 9.192 3.519 18.403 6.978 27.373 10.282 497.44 183.141 1097.63 180.496 1529.05-6.747l2.225 2.478c-160.791 69.783-345.53 114.987-542.933 133.49" style="fill:#003c6c;fill-rule:nonzero"/>
    <path d="M7780.93 841.121c-79.904 7.489-161.824 10.569-244.936 9.176-131.728-2.206-264.989-15.593-396.082-39.791-129.593-23.922-255.013-58.016-372.779-101.337-8.942-3.291-18.16-6.747-27.393-10.27-87.274-33.315-173.76-71.638-257.399-108.698-210.956-93.474-429.092-190.13-678.695-214.72-174.073-17.238-362.972.716-561.442 53.361-59.969 15.896-122.554 35.56-186.017 58.446-120.279 43.465-237.974 95.61-351.791 146.039-104.775 46.423-213.118 94.425-323.069 135.461-121.398 45.295-244.794 79.164-356.847 97.947-115.377 19.338-220.895 22.623-305.163 9.499-72.238-11.25-126.408-30.996-183.757-51.902-27.863-10.156-56.674-20.659-87.578-30.006-130.041-39.211-253.808-41.768-367.856-7.599-18.446 5.522-37.161 12.255-57.208 20.583-31.09 12.912-61.013 27.878-86.188 40.816-98.114 50.422-191.692 104.158-282.189 156.125-118.844 68.246-231.097 132.707-343.785 184.389-105.597 48.43-200.951 84.254-291.509 109.516-102.844 28.692-202.468 44.832-304.567 49.343-112.039 4.95-227.754-7.057-334.638-34.727-57.556-14.9-111.947-34.23-161.665-57.457-53.037-24.779-101.037-54.143-142.664-87.275-82.509-65.673-145.498-142.386-206.414-216.575-42.921-52.272-87.303-106.324-137.953-155.736-108.233-105.737-310.394-225.683-523.945-215.738-153.334 6.865-281.655 61.114-371.1 156.885-141.152 151.133-246.166 367.476-288.117 593.559l-4.692-.291c19.825-106.847 54.756-215.226 101.018-313.422 50.715-107.652 113.909-202.367 187.828-281.513 90.328-96.716 219.974-151.505 374.916-158.441 94.191-4.387 196.083 16.437 294.657 60.222 86.108 38.249 168.977 93.943 233.343 156.826 50.778 49.534 95.216 103.654 138.191 155.993 60.807 74.057 123.685 150.636 205.905 216.078 153.877 122.476 391.332 189.162 635.193 178.389 190.191-8.411 373.293-57.225 593.674-158.298 112.464-51.58 224.618-115.982 343.359-184.168 90.546-51.997 184.177-105.763 282.398-156.24 25.27-12.987 55.32-28.016 86.592-41.004 20.238-8.407 39.142-15.208 57.794-20.79 64.753-19.4 133.688-27.083 204.891-22.838 54.473 3.246 110.583 13.484 166.773 30.425 31.058 9.395 59.943 19.925 87.877 30.107 57.074 20.805 110.984 40.456 182.624 51.613 83.557 13.014 188.323 9.734 302.985-9.484 111.647-18.714 234.635-52.474 355.666-97.632 109.786-40.976 218.05-88.943 322.749-135.331 113.908-50.469 231.696-102.656 352.17-146.192 63.632-22.947 126.392-42.666 186.536-58.607 95.428-25.314 189.346-42.821 279.146-52.038 97.758-10.043 193.544-10.543 284.711-1.516 112.445 11.078 228.165 37.635 353.779 81.19 111.904 38.803 221.125 87.197 326.748 133.999 83.578 37.033 169.999 75.328 257.145 108.593 9.211 3.517 18.407 6.965 27.331 10.247 506.854 186.453 1091.7 189.586 1526.29 8.177l2.359 2.741c-112.287 46.871-236.011 81.967-367.731 104.315-48.863 8.291-98.77 14.822-149.481 19.576" style="fill:#003c6c;fill-rule:nonzero"/>
    <path d="M7830.48 820.606c-88.002 8.249-178.62 11.109-270.723 8.512-261.048-7.361-525.943-57.898-766.048-146.148-8.981-3.301-18.187-6.745-27.357-10.236-85.141-32.408-169.821-69.349-251.71-105.074-213.453-93.118-434.174-189.406-684.988-215.136-175.008-18.047-363.748-1.754-560.973 48.429-60.304 15.331-123.068 34.41-186.548 56.707-131.214 46.193-258.959 102.966-382.499 157.869-94.442 41.974-192.1 85.375-290.381 123.617-119.993 46.674-241.378 83.005-351.037 105.067-112.516 22.639-216.376 30.599-300.349 23.02-72.507-6.548-127.867-21.219-186.48-36.755-27.666-7.331-56.274-14.915-86.77-21.531-134.547-29.059-253.936-26.077-364.988 9.112-18.189 5.759-36.715 12.667-56.637 21.122-30.438 12.916-60.472 27.946-85.839 40.947-78.767 40.365-155.57 82.583-229.844 123.41-140.413 77.184-273.038 150.086-405.839 204.049-105.379 42.82-201.786 73.668-294.731 94.306-101.685 22.582-200.278 33.307-301.419 32.789-109.552-.56-221.888-17.044-324.867-47.672-116.237-34.571-215.791-85.107-295.897-150.204-79.276-64.423-142.331-138.252-203.307-209.649-46.63-54.598-94.848-111.054-149.725-162.493-115.712-108.621-315.387-223.261-528.783-219.261-159.336 2.693-292.437 51.439-384.919 140.978-147.026 142.35-255.011 356.429-288.858 572.66l-5.105-.249c16.138-103.099 49.694-208.616 97.044-305.143 51.2-104.377 116.054-194.955 192.758-269.22 93.501-90.525 228.055-139.81 389.131-142.532 94.739-1.775 197.077 20.515 295.945 64.463 87.736 38.998 169.68 93.002 236.975 156.173 55.023 51.576 103.305 108.106 149.995 162.776 60.874 71.276 123.822 144.979 202.83 209.184 150.066 121.95 380.722 195.474 617.006 196.682 192.528.986 375.546-38.056 593.42-126.587 132.474-53.829 264.954-126.652 405.214-203.751 74.309-40.846 151.15-83.085 229.99-123.486 25.459-13.049 55.615-28.139 86.227-41.132 20.112-8.533 38.826-15.511 57.213-21.331 112.287-35.586 232.896-38.623 368.72-9.288 30.646 6.65 59.326 14.251 87.064 21.602 58.328 15.46 113.418 30.062 185.327 36.553 83.269 7.516 186.39-.404 298.211-22.904 109.27-21.984 230.267-58.202 349.904-104.737 98.142-38.189 195.733-81.56 290.111-123.504 123.652-54.953 251.513-111.778 382.97-158.056 63.67-22.364 126.627-41.503 187.129-56.884 198.068-50.394 387.672-66.751 563.552-48.615 113.006 11.593 229.636 38.415 356.546 81.998 113.041 38.821 223.525 87.019 330.372 133.631 81.832 35.699 166.447 72.613 251.46 104.972 9.151 3.483 18.333 6.919 27.293 10.211 508.906 187.051 1092.69 195.899 1523.54 23.095l2.482 3.01c-112.986 45.315-237.115 78.738-368.943 99.339-40.282 6.296-81.285 11.397-122.862 15.295" style="fill:#003c6c;fill-rule:nonzero"/>
    <path d="M7880.03 800.431c-96.011 9-195.347 11.526-296.515 7.506-257.924-10.245-521.846-62.519-763.236-151.167-8.938-3.282-18.13-6.715-27.318-10.201-82.801-31.427-165.447-66.924-245.373-101.251-216.162-92.84-439.68-188.839-691.936-215.751-176.007-18.875-364.586-4.241-560.502 43.497-60.64 14.762-123.581 33.257-187.076 54.971-143.212 49.086-281.827 111.072-415.878 171.019-83.153 37.184-169.133 75.634-255.014 110.447-118.681 48.09-238.053 86.882-345.209 112.184-109.675 25.893-211.858 38.526-295.504 36.533-73.19-1.743-130.059-11.308-190.27-21.434-27.125-4.561-55.173-9.279-84.879-13.223-87.781-11.567-220.834-21.474-362.185 25.829-17.942 5.998-36.28 13.083-56.067 21.66-29.614 12.838-58.591 27.331-85.495 41.08-58.465 29.878-116.514 60.687-172.652 90.483-163.602 86.831-318.131 168.846-472.766 223.924-139.364 49.637-268.548 79.777-395.267 91.658-67.296 6.308-133.881 7.465-200.964 3.661-106.915-6.062-215.864-27.025-315.069-60.622-111.952-37.916-208.666-90.288-287.459-155.663-75.594-62.724-138.126-133.273-198.598-201.499-50.83-57.346-103.39-116.646-163.094-170.471C693.782 627.134 491.67 512.698 278.062 510.814c-165.425-1.775-303.304 41.479-398.738 125.084-154.939 135.731-263.194 341.988-289.58 551.741l-5.521-.19c12.504-99.402 44.772-202.042 93.314-296.825 51.045-99.671 119.328-188.536 197.464-256.986 48.449-42.444 107.552-74.762 175.669-96.057 67.698-21.165 144.298-31.443 227.67-30.551 49.528.437 100.858 6.923 152.554 19.278 48.131 11.502 96.805 28.13 144.668 49.421 88.138 39.204 171.336 92.983 240.602 155.521 59.87 53.973 112.502 113.353 163.4 170.779 60.377 68.116 122.808 138.553 198.161 201.074 148.823 123.483 367.096 201.84 598.856 214.982 192.293 10.905 380.772-19.246 593.151-94.89 154.173-54.912 308.5-136.82 471.887-223.54 56.159-29.805 114.231-60.626 172.739-90.526 26.996-13.797 56.082-28.343 85.86-41.252 19.97-8.657 38.491-15.812 56.626-21.875 142.874-47.814 277.147-37.827 365.716-26.157 29.841 3.962 57.954 8.69 85.145 13.264 59.928 10.078 116.533 19.598 189.157 21.329 82.966 1.974 184.447-10.586 293.469-36.325 106.797-25.216 225.803-63.893 344.151-111.849 85.769-34.768 171.697-73.192 254.795-110.353 134.191-60.008 272.948-122.058 416.457-171.246 63.706-21.787 126.866-40.346 187.721-55.161 196.813-47.956 386.317-62.652 563.245-43.676 113.669 12.127 231.31 39.241 359.644 82.892 114.283 38.874 226.139 86.915 334.313 133.374 79.867 34.302 162.452 69.772 245.128 101.151 9.166 3.48 18.334 6.903 27.253 10.178 511.258 187.756 1093.99 202.322 1520.79 38.012l2.588 3.282c-113.672 43.76-238.207 75.508-370.151 94.361-31.651 4.522-63.76 8.308-96.236 11.353" style="fill:#003c6c;fill-rule:nonzero"/>
    <path d="M7929.51 780.609c-103.885 9.739-211.959 11.81-322.236 6.148-254.633-13.073-517.579-67.081-760.413-156.184-9.026-3.312-18.204-6.734-27.278-10.168-80.221-30.362-160.571-64.338-238.278-97.194-219.117-92.651-445.691-188.457-699.645-216.602-177.087-19.725-365.51-6.747-560.038 38.567-60.959 14.186-124.08 32.096-187.602 53.233-156.443 52.18-306.853 120.102-452.313 185.789-70.774 31.96-143.959 65.008-216.58 95.653-117.531 49.579-234.884 90.83-339.373 119.296-106.836 29.106-207.334 46.414-290.624 50.042-74.566 3.251-133.498-1.105-195.89-5.714-25.997-1.921-52.878-3.908-81.142-5.317-103.73-5.066-227.556-3.973-359.438 42.556-17.694 6.238-35.848 13.501-55.504 22.204-30.161 13.356-59.768 28.278-85.153 41.215-37.288 19.002-74.815 38.416-111.107 57.19-188.161 97.345-365.889 189.289-544.076 244.168-211.113 65.021-400.598 85.206-596.317 63.527-104.09-11.529-209.642-36.973-305.243-73.578-107.577-41.192-201.452-95.395-279.017-161.107-71.346-60.445-132.615-127.214-191.869-191.784-55.644-60.636-113.181-123.338-178.475-180.006C696.407 567.395 495.092 482.79 313.378 476.221 139.403 469.602.596 506.343-99.185 585.424c-160.378 127.109-271.608 330.502-290.285 530.805l-5.933-.114c8.929-95.767 39.986-195.51 89.812-288.448 51.7-96.428 121.535-181.089 201.961-244.829 51.101-40.5 113.387-70.394 185.128-88.851 68.894-17.726 147.09-25.067 232.414-21.822 97.235 3.515 197.663 28.053 298.487 72.934 88.566 39.422 173.016 92.973 244.223 154.862 65.481 56.831 123.1 119.622 178.822 180.344 59.166 64.475 120.346 131.145 191.481 191.411 145.814 123.532 357.483 208.564 580.734 233.293 194.512 21.544 382.904 1.461 592.881-63.21 177.547-54.682 355.002-146.486 542.876-243.681 36.299-18.779 73.835-38.198 111.142-57.208 25.464-12.98 55.171-27.949 85.491-41.375 19.83-8.781 38.158-16.112 56.034-22.415 133.226-47.004 258.086-48.12 362.653-43.014 28.371 1.416 55.303 3.406 81.351 5.331 62.135 4.591 120.822 8.929 194.875 5.698 82.669-3.6 182.519-20.809 288.762-49.753 104.16-28.376 221.181-69.513 338.411-118.963 72.54-30.612 145.683-63.642 216.419-95.584 145.625-65.763 296.207-133.763 453.015-186.063 63.756-21.214 127.115-39.193 188.317-53.435 195.475-45.536 384.875-58.569 562.931-38.736 255.089 28.269 482.154 124.283 701.747 217.135 77.648 32.833 157.941 66.784 238.042 97.101 9.053 3.425 18.212 6.838 27.214 10.142 357.246 131.085 736.034 181.692 1077 149.733 156.971-14.714 305.868-46.905 441.057-96.805l2.681 3.557c-114.351 42.208-239.293 72.281-371.362 89.382-22.998 2.977-46.233 5.565-69.681 7.763" style="fill:#003c6c;fill-rule:nonzero"/>
    <path d="M2186.51 1308.96c-19.2 1.799-38.33 3.191-57.465 4.182-97.958 5.075-193.475-.481-292.008-16.983-102.489-17.165-201.875-46.278-295.392-86.533-103.092-44.376-194.128-100.408-270.572-166.538-66.366-57.412-125.422-119.74-182.534-180.016-61.246-64.642-124.581-131.485-196.457-191.59C733.96 539.067 530.815 453.137 348.669 441.619c-180.121-11.721-323.577 19.681-426.4 93.338-165.545 118.587-279.755 318.714-290.965 509.848l-6.346-.019c5.407-92.207 35.326-189.028 86.519-279.997 52.435-93.173 123.762-173.662 206.27-232.766 104.294-74.71 249.554-106.579 431.739-94.722 97.826 6.185 198.673 32.147 299.733 77.162 89.026 39.656 174.729 92.979 247.841 154.205 72.086 60.28 135.512 127.221 196.848 191.957 57.037 60.195 116.014 122.44 182.204 179.7 145.491 125.862 345.309 215.221 562.644 251.62 196.371 32.886 384.675 22.862 592.605-31.547 202.635-53.026 404.238-155.722 617.677-264.45 15.214-7.75 30.449-15.511 45.707-23.263 27.13-13.789 56.051-28.349 85.117-41.494 19.705-8.913 37.838-16.421 55.438-22.953 141.894-52.708 278.141-57.176 359.544-59.846 25.663-.817 50.255-1.253 74.035-1.675 65.478-1.16 127.318-2.257 204.13-10.863 82.327-9.228 180.559-31.08 284.078-63.197 102.745-31.877 214.673-74.298 332.679-126.086 58.318-25.602 117.428-52.669 174.592-78.845 158.05-72.372 321.485-147.209 493.035-202.85 63.806-20.647 127.366-38.045 188.914-51.712 194.068-43.139 383.361-54.509 562.616-33.796 257.13 29.57 487.571 125.506 710.423 218.283 75.131 31.278 152.82 63.62 230.064 92.771 9.126 3.442 18.268 6.844 27.178 10.109 524.749 192.385 1091.22 217.747 1515.32 67.839l2.759 3.838c-115.022 40.658-240.374 69.055-372.573 84.4-124.529 14.459-256.117 17.473-391.084 8.964-251.153-15.835-513.12-71.578-757.581-161.203-8.929-3.273-18.095-6.683-27.24-10.134-77.358-29.192-155.103-61.558-230.287-92.859-222.362-92.571-452.291-188.293-708.251-217.729-178.238-20.596-366.503-9.278-559.577 33.638-61.285 13.609-124.579 30.934-188.128 51.497-171.107 55.497-334.333 130.238-492.183 202.521-57.192 26.187-116.328 53.267-174.7 78.892-118.275 51.906-230.488 94.433-333.525 126.401-104.036 32.277-202.838 54.247-285.721 63.537-77.232 8.651-139.296 9.757-204.999 10.921-23.75.421-48.31.857-73.902 1.671-80.85 2.651-216.166 7.089-356.739 59.308-17.428 6.469-35.4 13.909-54.942 22.747-28.926 13.083-57.762 27.603-84.819 41.352-15.254 7.752-30.487 15.511-45.699 23.26-213.82 108.92-415.781 211.802-619.273 265.049-85.226 22.301-166.553 36.984-246.934 44.519" style="fill:#003c6c;fill-rule:nonzero"/>
    <path d="M2287.77 1311.05c-44.037 4.128-87.655 6.062-131.347 5.853-96.795-.463-191.285-11.458-288.871-33.612-208.616-47.362-403.106-143.761-547.642-271.44-60.413-53.369-115.998-110.364-169.755-165.483-67.889-69.614-138.091-141.597-217.873-205.934-163.013-131.632-362.87-216.707-548.328-233.41-188.742-17.337-332.745 8.008-440.246 77.481-170.446 110.157-287.641 306.62-291.624 488.875l-6.757.097c1.94-88.731 30.783-182.601 83.411-271.457 53.247-89.903 126.008-166.259 210.42-220.811 56.876-36.757 125.641-61.732 204.389-74.233 70.733-11.228 151.997-12.752 241.534-4.528 98.436 8.867 199.701 36.25 300.968 81.389 89.526 39.905 176.477 92.999 251.454 153.543 80.021 64.529 150.326 136.619 218.317 206.335 53.693 55.056 109.217 111.985 169.491 165.232 143.765 126.997 337.166 222.871 544.577 269.959 194.998 44.27 388.749 44.302 592.33.102 229.071-49.738 464.769-169.169 672.723-274.539 24.55-12.442 55.104-27.926 84.74-41.612 19.571-9.042 37.51-16.724 54.839-23.488 131.098-51.207 251.743-64.833 348.684-75.78l7.714-.873c20.312-2.28 40.04-4.379 59.12-6.409 71.299-7.586 138.644-14.75 220.993-29.703 81.914-14.873 178.534-41.379 279.411-76.652 99.427-34.767 209.433-79.588 326.96-133.216 42.896-19.58 86.529-39.937 128.73-59.625 171.616-80.066 349.072-162.857 537.102-222.125 63.849-20.079 127.607-36.896 189.509-49.987 192.577-40.763 381.762-50.471 562.3-28.851 259.532 30.935 493.699 126.926 720.157 219.756 72.256 29.619 146.973 60.248 221.027 88.111 9.116 3.43 18.246 6.82 27.134 10.076 536.029 196.35 1087.35 226.513 1512.6 82.752l2.819 4.121c-115.683 39.109-241.444 65.829-373.786 79.417-124.163 12.74-255.469 14.099-390.245 4.013-247.461-18.521-508.449-75.999-754.746-166.218-8.912-3.265-18.063-6.663-27.2-10.099-74.157-27.904-148.926-58.553-221.231-88.193-225.951-92.622-459.592-188.396-717.925-219.19-179.478-21.493-367.589-11.832-559.12 28.71-61.611 13.028-125.082 29.77-188.649 49.76-187.491 59.099-364.7 141.774-536.075 221.728-42.214 19.694-85.867 40.059-128.791 59.653-117.753 53.731-227.995 98.647-327.664 133.498-101.317 35.426-198.416 62.059-280.804 77.018-82.698 15.017-150.22 22.2-221.703 29.806-19.066 2.028-38.78 4.125-59.057 6.402l-7.716.872c-96.39 10.887-216.352 24.433-346.359 75.214-17.172 6.702-34.961 14.324-54.384 23.295-27.335 12.624-53.336 25.703-84.486 41.49-119.778 60.693-227.907 114.796-338.237 162.291-125.82 54.164-235.908 91.117-336.552 112.97-60.152 13.06-118.571 22.239-176.282 27.649" style="fill:#003c6c;fill-rule:nonzero"/>
    <path d="M2384.29 1317.17c-164.824 15.449-324.867-.034-486.245-46.778-95.47-27.652-188.206-65.482-275.629-112.438-93.604-50.278-178.955-109.947-253.674-177.354-53.128-47.928-103.544-98.346-152.298-147.102-75.93-75.935-154.446-154.455-243.963-224.12-165.383-128.869-367.037-215.239-553.256-236.965-194.605-23.034-343.142-2.871-454.104 61.641-175.097 101.798-295.279 294.197-292.261 467.879l-7.162.233c-1.461-84.127 27.109-177.463 80.446-262.814 53.356-85.381 129.515-159.596 214.449-208.975 60-34.884 132.058-57.353 214.17-66.781 72.482-8.32 152.912-7.013 245.921 3.995 187.744 21.904 390.858 108.83 557.255 238.488 89.786 69.875 168.421 148.513 244.467 224.563 48.707 48.711 99.074 99.08 152.103 146.917 183.272 165.333 387.488 248.046 526.53 288.32 195.672 56.676 389.337 67.054 592.058 31.73 232.046-40.434 473.723-156.113 682.038-261.367l4.172-2.108c26.206-13.245 53.304-26.941 80.185-39.618 19.506-9.2 37.246-17.057 54.237-24.021 120.272-49.341 233.802-70.812 325.024-88.063 9.631-1.823 19.04-3.603 28.215-5.367 8.07-1.546 16.029-3.065 23.906-4.571 87.488-16.71 163.045-31.141 258.155-55.123 82.525-20.807 174.968-51.131 274.753-90.126 95.323-37.252 203.405-84.472 321.247-140.35 26.031-12.347 52.555-25.026 78.204-37.286 186.46-89.126 379.268-181.286 585.841-244.525 63.911-19.519 127.875-35.756 190.108-48.259 191-38.415 380.073-46.459 561.98-23.909 262.372 32.389 500.7 128.596 731.178 221.638 68.95 27.833 140.247 56.616 210.698 83.045 9.051 3.395 18.165 6.774 27.098 10.044 539.841 197.576 1090.17 233.171 1509.88 97.66l2.87 4.41c-226.457 73.116-483.637 97.842-764.408 73.492-125.798-10.91-255.752-31.806-386.252-62.108-122.505-28.446-245.526-65.16-365.651-109.124-8.952-3.277-18.087-6.665-27.157-10.067-70.547-26.465-141.891-55.266-210.886-83.119-229.958-92.829-467.743-188.82-728.893-221.056-180.8-22.414-368.759-14.413-558.667 23.782-61.917 12.44-125.564 28.599-189.173 48.025-205.922 63.038-398.432 155.057-584.603 244.043-25.657 12.265-52.187 24.946-78.23 37.299-118.021 55.965-226.29 103.265-321.801 140.589-100.143 39.136-192.961 69.579-275.874 90.484-95.39 24.053-171.081 38.509-258.721 55.248-7.876 1.505-15.834 3.024-23.898 4.569-9.182 1.767-18.601 3.549-28.242 5.372-90.79 17.17-203.779 38.54-323.182 87.524-16.852 6.906-34.462 14.706-53.833 23.843-26.781 12.63-53.828 26.3-79.985 39.519l-4.173 2.11c-102.038 51.557-222.387 110.755-341.332 158.915-126.838 51.355-239.131 85.143-343.296 103.292-37.06 6.459-73.819 11.401-110.342 14.825" style="fill:#003c6c;fill-rule:nonzero"/>
    <path d="M2473.43 1327.17c-185.679 17.404-364.463-5.519-544.917-69.685-188.053-66.867-364.736-173.414-510.95-308.126-43.936-40.478-86.79-82.489-128.233-123.117-85.926-84.233-174.777-171.336-276.653-247.905C845.111 452.252 641.654 364.583 454.476 337.81c-202.944-29.348-351.647-14.791-467.983 45.81-179.506 93.506-302.676 281.441-292.87 446.867l-7.56.395c-4.797-80.889 22.757-171.116 77.585-254.062 54.286-82.128 131.846-152.185 218.394-197.269 64.175-33.429 137.449-52.788 224.035-59.205 73.172-5.419 155.015-1.361 250.21 12.405 99.745 14.266 201.828 44.489 303.408 89.827 90.662 40.465 180.107 93.099 258.666 152.21 102.186 76.801 191.173 164.037 277.23 248.4 41.412 40.598 84.235 82.577 128.108 122.999 145.571 134.116 321.404 240.17 508.495 306.696 195.619 69.558 389.196 90.275 591.796 63.345 237.852-31.621 482.946-143.211 691.33-248.199 4.662-2.35 9.32-4.701 13.979-7.054 22.922-11.569 46.622-23.533 69.992-34.787 19.425-9.355 36.969-17.386 53.629-24.552 109.368-47.071 210.543-73.537 299.809-96.888 17.559-4.594 34.144-8.932 50.27-13.293 98.982-26.689 181.014-49.93 284.007-83.28 81.69-26.451 172.563-61.311 270.094-103.613 90.559-39.276 193.774-87.523 315.54-147.492l22.189-10.936c202.759-99.951 412.423-203.304 640.079-270.938 63.967-18.963 128.13-34.618 190.71-46.535 189.334-36.092 378.3-42.472 561.654-18.963 265.75 33.941 508.756 130.565 743.76 224.011 65.12 25.893 132.456 52.668 198.809 77.486 9.065 3.392 18.17 6.759 27.058 10.009 256.527 93.806 707.077 221.859 1167.75 178.68 113.469-10.637 227.464-31.637 339.428-66.111l2.902 4.7c-226.907 69.863-484.22 91.244-764.781 63.554-124.687-12.306-254.086-34.454-384.606-65.827-121.015-29.09-243.631-66.241-364.446-110.42-8.909-3.257-18.035-6.631-27.121-10.03-66.433-24.851-133.811-51.642-198.972-77.551-234.471-93.232-476.922-189.639-741.43-223.42-182.212-23.364-370.019-17.02-558.213 18.857-62.236 11.851-126.06 27.425-189.695 46.288-226.871 67.402-436.182 170.582-638.603 270.364l-22.189 10.936c-121.896 60.034-225.235 108.338-315.93 147.673-97.804 42.42-188.963 77.387-270.945 103.935-103.19 33.413-185.357 56.691-284.485 83.42-16.163 4.372-32.768 8.715-50.349 13.314-88.926 23.263-189.717 49.627-298.425 96.416-16.542 7.115-33.973 15.094-53.284 24.395-23.297 11.217-46.962 23.164-69.849 34.716-4.661 2.353-9.322 4.706-13.984 7.055-137.661 69.357-243.891 117.332-344.44 155.555-128.103 48.698-242.608 79.313-350.052 93.597-17.31 2.301-34.562 4.258-51.748 5.87" style="fill:#003c6c;fill-rule:nonzero"/>
    <path d="M2568.1 1339.15c-4.155.39-8.295.753-12.451 1.092-108.262 8.826-215.043 4.435-317.38-13.048-94.152-16.085-188.118-43.892-279.284-82.645-87.068-37.012-173.133-83.554-255.806-138.334-82.728-54.817-162.393-118.105-236.784-188.108-31.861-29.982-63.656-60.755-94.402-90.515-98.764-95.594-200.889-194.442-319.103-280.305-172.019-125.073-372.019-211.761-563.161-244.096-208.18-35.514-361.298-25.985-481.876 29.988-183.699 85.275-309.86 268.347-293.457 425.84l-7.952.579c-8.098-77.745 18.464-164.823 74.79-245.195C-163.504 435.55-84.556 369.602 3.536 328.71c67.642-31.402 144.172-48.244 233.955-51.492 73.925-2.675 157.146 4.091 254.422 20.686 100.459 16.994 202.947 48.634 304.614 94.039 92.624 41.368 180.861 92.353 262.264 151.54 118.576 86.126 220.857 185.125 319.772 280.864 30.733 29.746 62.511 60.505 94.343 90.459 147.849 139.129 317.451 251.543 490.465 325.091 190.158 80.834 383.677 111.888 591.615 94.937 244.806-19.934 491.478-130.007 700.534-235.031 8.857-4.451 17.703-8.921 26.538-13.386 18.708-9.454 38.055-19.23 57.043-28.566 19.4-9.54 36.743-17.742 53.018-25.08 97.624-44.037 189.878-74.556 271.269-101.484 26.562-8.786 51.65-17.086 75.664-25.426 92.842-32.18 175.684-63.143 285.942-106.869 80.238-31.82 169.54-71.223 265.427-117.111 101.434-48.543 208.859-103.014 309.838-154.644 100.61-51.458 208.16-105.837 319.564-155.328 122.342-54.35 233.863-95.766 340.94-126.615 64.026-18.407 128.39-33.482 191.312-44.809 187.57-33.797 376.427-38.513 561.323-14.017 269.802 35.621 518.135 132.916 758.293 227.007 60.638 23.756 123.339 48.322 184.963 71.304 9.148 3.412 18.24 6.768 27.021 9.976 393.839 143.894 974.555 282.813 1504.48 127.477l2.922 4.993c-100.258 29.387-206.401 49.325-317.761 59.765-141.132 13.23-290.664 11.208-447.396-6.154-238.142-26.377-489.197-87.361-746.195-181.258-8.8-3.215-17.91-6.579-27.075-9.996-61.697-23.01-124.434-47.589-185.104-71.359-239.615-93.878-487.387-190.952-755.929-226.408-183.713-24.34-371.373-19.653-557.765 13.933-62.55 11.259-126.547 26.248-190.214 44.553-230.144 66.304-442.924 170.873-658.743 281.252-101.035 51.659-208.523 106.161-310.054 154.75-96.079 45.982-185.583 85.471-266.023 117.373-110.404 43.784-193.367 74.791-286.355 107.021-24.082 8.365-49.208 16.676-75.804 25.476-81.161 26.85-173.148 57.28-270.31 101.109-16.181 7.296-33.432 15.456-52.74 24.949-18.944 9.313-38.266 19.079-56.954 28.523-8.841 4.468-17.692 8.941-26.557 13.394-206.392 103.687-449.462 212.266-691.993 235.002" style="fill:#003c6c;fill-rule:nonzero"/>
    <path d="M2629.39 1355.96c-14.489 1.358-28.861 2.426-43.164 3.208-108.383 5.929-216.238-3.244-320.566-27.27-92.491-21.299-185.423-55.045-276.212-100.301-82.289-41.018-165.018-91.917-245.885-151.279-76.029-55.81-152.856-120.901-228.346-193.463-15.113-14.527-30.179-29.084-45.244-43.641-115.959-112.057-235.864-227.927-376.874-326.971-173.731-122.137-375.495-210.095-568.131-247.671-145.325-28.53-333.003-52.701-495.791 14.173-187.702 77.105-316.851 254.911-294.022 404.794l-8.334.792c-11.377-74.699 14.196-158.586 72.01-236.209C-144.89 376.56-64.551 314.675 25.049 277.869c71.232-29.262 151.017-43.532 243.91-43.624 74.828-.076 159.411 9.352 258.582 28.821 193.958 37.835 396.983 126.306 571.666 249.114 141.442 99.347 261.531 215.394 377.667 327.62 15.06 14.553 30.12 29.107 45.23 43.631 157.053 150.961 311.588 263.322 472.44 343.501 193.263 96.338 386.683 137.726 591.313 126.534 204.422-11.177 429.982-81.688 709.853-221.886 14.522-7.275 29.205-14.73 43.405-21.938 13.058-6.63 26.561-13.485 39.784-20.123 19.527-9.8 36.668-18.177 52.405-25.604 83.75-39.559 164.623-71.643 235.973-99.951 38.023-15.085 73.936-29.334 107.83-43.674 96.312-40.687 180.065-79.734 287.873-130.459 74.868-35.226 160.162-77.952 260.752-130.621 55.986-29.527 113.101-60.002 173.567-92.265 42.612-22.736 86.671-46.244 130.566-69.534 91.637-48.632 201.018-105.327 317.466-157.079 120.791-53.681 232.424-94.548 341.28-124.936 64.087-17.856 128.655-32.352 191.915-43.083 185.719-31.534 374.461-34.585 560.99-9.07 274.704 37.463 529.182 135.746 775.283 230.794 55.332 21.369 112.549 43.467 168.664 64.331 8.934 3.323 18.012 6.669 26.981 9.944 578.102 211.031 1083.37 258.933 1501.78 142.383l2.922 5.286c-93.059 25.923-191.138 43.708-293.685 53.322-148.365 13.909-306.115 10.717-471.844-9.656-233.167-28.661-483.26-91.331-743.33-186.268-8.988-3.28-18.085-6.632-27.037-9.961-56.17-20.887-113.414-42.995-168.772-64.376-245.551-94.834-499.461-192.897-772.889-230.186-185.319-25.348-372.83-22.318-557.321 9.008-62.862 10.664-127.033 25.069-190.732 42.819-222.061 61.99-423.118 157.246-656.683 281.199-43.887 23.285-87.944 46.792-130.548 69.524-60.479 32.27-117.601 62.748-173.62 92.292-100.722 52.739-186.135 95.523-261.126 130.809-107.912 50.774-191.753 89.861-288.233 130.618-33.998 14.385-69.963 28.655-108.041 43.762-71.212 28.25-151.924 60.273-235.389 99.698-15.669 7.394-32.741 15.735-52.198 25.502-13.204 6.626-26.697 13.478-39.748 20.103-14.208 7.215-28.902 14.675-43.447 21.962-128.616 64.428-243.333 113.127-350.708 148.883-114.64 38.172-219.94 61.508-320.409 70.925" style="fill:#003c6c;fill-rule:nonzero"/>
    <path d="M2699.71 1373.43c-28.099 2.635-55.738 4.186-82.984 4.666-109.748 1.934-218.692-12.353-323.802-42.46-92.254-26.428-184.107-65.792-273.007-117.007-144.184-83.058-284.781-195.02-455.878-363.027-135.38-132.937-270.193-261.297-430.722-370.399C958.22 366.109 754.685 276.879 560.202 233.949c-148.197-32.87-340.06-62.76-509.728-1.636-191.531 69-323.67 241.142-294.563 383.733l-8.701 1.036c-14.646-71.751 9.928-152.407 69.198-227.112 56.49-71.202 140.39-130.592 230.188-162.942 74.92-26.989 157.96-38.634 253.867-35.596 77.038 2.441 160.518 14.134 262.715 36.803 102.083 22.534 205.375 57.002 307.001 102.448 94.199 42.126 184.854 92.658 269.446 150.194 161.021 109.436 296.076 238.023 431.685 371.182 170.661 167.58 310.807 279.203 454.408 361.927 188.355 108.507 387.23 161.704 591.096 158.113 210.078-3.704 445.295-71.981 719.092-208.74 22.674-11.326 45.425-22.999 67.425-34.287l15.367-7.882c20.245-10.372 36.701-18.673 51.789-26.127 64.904-32.074 126.392-60.243 185.855-87.484 54.868-25.134 106.695-48.877 154.845-72.843 93.361-46.419 179.739-93.749 271.188-143.855l18.598-10.191c80.688-43.854 167.165-93.203 256.061-144.135 94.301-54.348 195.731-112.44 298.436-168.963 184.473-101.546 406.793-214.473 657.001-282.096 64.159-17.31 128.931-31.223 192.519-41.354 183.764-29.302 372.392-30.689 560.652-4.122 280.703 39.51 542.372 139.199 795.428 235.605 48.975 18.659 99.617 37.952 149.201 56.333 9.102 3.374 18.169 6.708 26.946 9.909 583.814 212.933 1088.18 265.851 1499.1 157.288l2.911 5.585c-118.893 31.412-246.703 49.739-379.864 54.474-122.148 4.343-252.028-2.641-386.036-20.755-121.069-16.366-248.798-42.267-379.641-76.983-115.55-30.661-236.947-69.115-360.818-114.295-8.795-3.206-17.877-6.547-26.997-9.926-49.625-18.397-100.289-37.699-149.288-56.365-252.494-96.194-513.586-195.663-793.006-234.994-187.017-26.39-374.38-25.014-556.882 4.085-63.161 10.063-127.505 23.886-191.247 41.084-249.068 67.313-470.68 179.895-654.614 281.144-102.633 56.486-204.016 114.548-298.286 168.878-88.957 50.967-175.483 100.344-256.243 144.239l-18.581 10.18c-91.538 50.155-178 97.529-271.533 144.036-48.293 24.037-100.189 47.812-155.136 72.983-59.397 27.209-120.817 55.347-185.588 87.356-15.044 7.431-31.459 15.713-51.66 26.063l-15.36 7.878c-22.025 11.3-44.798 22.985-67.521 34.335-239.954 119.855-450.718 187.414-641.214 205.273" style="fill:#003c6c;fill-rule:nonzero"/>
    <path d="M2768.36 1392.26c-41.372 3.878-81.788 5.467-121.148 4.751-208.896-3.803-409.695-68.187-596.823-191.366-154.775-101.88-284.293-227.572-437.526-381.301-109.381-109.734-258.164-250.978-439.324-370.184-178.578-117.573-378.484-205.697-578.108-254.843C444.773 162.1 249.1 126.486 71.74 181.877c-173.925 54.32-334.001 213.006-295.084 362.657l-9.048 1.311c-17.917-68.895 5.633-146.283 66.309-217.909C-108.55 260.023-23.169 204.712 68.17 176.185c180.432-56.352 378.369-20.399 530.653 17.218 200.776 49.433 401.758 138.012 581.215 256.164 181.734 119.583 330.861 261.149 440.479 371.119 152.947 153.441 282.196 278.88 436.37 380.365 185.498 122.106 384.305 185.926 590.898 189.686 214.824 3.908 459.865-61.902 728.318-195.602 28.71-14.3 56.565-28.768 82.389-42.273l.264-.137c16.712-8.74 33.993-17.777 50.906-26.51 32.494-16.789 64.434-33.091 95.322-48.854 86.534-44.164 168.268-85.877 242.3-128.173 86.245-49.235 165.919-99.034 250.268-151.756 13.678-8.549 27.472-17.172 41.435-25.877 45.45-28.189 91.485-57.177 140.223-87.866 36.08-22.717 73.388-46.209 111.119-69.781 107.371-67.382 203.129-124.997 292.74-176.135 113.534-64.797 216.01-117.329 313.288-160.593 118.127-52.539 229.99-92.31 341.977-121.585 64.227-16.767 129.203-30.1 193.126-39.629 181.699-27.101 370.211-26.824 560.313.827 288.151 41.833 558.388 143.484 819.728 241.789 41.237 15.511 83.875 31.549 125.579 46.962 8.941 3.306 17.91 6.598 26.907 9.876 598.329 218.035 1087.82 274.361 1496.42 172.192l2.884 5.884c-119.516 29.886-247.728 46.534-381.081 49.48-121.705 2.692-251.3-5.959-385.191-25.71-224.924-33.18-466.189-97.386-737.582-196.284-9.013-3.283-17.997-6.583-26.954-9.894-41.734-15.423-84.386-31.468-125.636-46.983-260.777-98.093-530.432-199.524-817.296-241.171-188.824-27.466-376.041-27.751-556.443-.838-63.464 9.46-127.983 22.7-191.766 39.351-204.23 53.387-405.478 140.077-652.535 281.083-89.493 51.07-185.137 108.619-292.403 175.934-37.727 23.569-75.028 47.056-111.098 69.77-48.755 30.697-94.805 59.693-140.272 87.891-13.947 8.699-27.739 17.318-41.413 25.867-84.436 52.774-164.187 102.621-250.595 151.951-74.236 42.412-156.073 84.178-242.714 128.397-30.877 15.758-62.805 32.053-95.28 48.831-16.89 8.722-34.158 17.752-50.859 26.486l-.263.137c-25.873 13.53-53.782 28.026-82.572 42.366-124.178 61.846-244.312 109.71-357.063 142.261-88.298 25.492-173.958 42.154-255.918 49.839" style="fill:#003c6c;fill-rule:nonzero"/>
    <path d="M2836.49 1412.32c-54.439 5.102-107.464 6.314-158.804 3.602-112.846-5.959-223.965-30.464-330.272-72.832-92.314-36.792-181.994-87.405-266.547-150.437-125.85-93.812-230.144-202.701-340.563-317.982-25.571-26.696-52.012-54.302-78.624-81.582-146.586-150.266-293.102-271.281-447.917-369.963C1034.836 309.03 833.198 219.663 630.65 164.684c-152.668-41.527-351.746-82.835-537.669-33.241-176.511 47.081-341.315 198.938-295.59 341.567l-9.376 1.62c-21.197-66.125 1.284-140.212 63.309-208.613C-90.102 201.418-3.191 150.147 89.77 125.351c82.479-22 171.996-28.231 273.663-19.052 80.496 7.268 166.621 23.882 271.038 52.284 203.596 55.263 406.222 145.059 585.972 259.679 155.337 99.013 302.299 220.388 449.281 371.059 26.632 27.302 53.084 54.919 78.666 81.628 110.211 115.063 214.307 223.744 339.656 317.185 182.076 135.727 380.823 210.169 590.719 221.256 221.969 11.724 470.109-49.671 737.531-182.476 25.093-12.461 51.911-26.321 81.986-42.373 17.114-9.134 34.355-18.43 50.548-27.167 146.003-78.803 246.063-136.739 334.569-193.722 85.44-54.982 164.504-110.534 248.21-169.349 15.03-10.561 30.149-21.184 45.401-31.87 16.563-11.566 33.243-23.239 50.05-35 63.414-44.375 128.984-90.263 196.56-136.157 101.416-69.091 195.311-129.054 287.044-183.314 109.644-64.862 211.44-117.968 311.201-162.357 116.974-52.045 228.953-91.267 342.335-119.908 64.299-16.227 129.478-28.978 193.732-37.901 91.985-12.776 186.87-18.593 282.013-17.282 90.663 1.249 184.181 9.007 277.957 23.059 297.609 44.534 578.285 148.921 849.722 249.872 31.609 11.757 64.296 23.913 96.262 35.691 8.929 3.29 17.888 6.573 26.873 9.844 333.394 121.384 807.681 266.469 1274.01 222.757 73.661-6.903 147.053-18.505 219.737-35.664l2.841 6.187c-120.134 28.358-248.758 43.327-382.298 44.482-121.245 1.052-250.555-9.266-384.341-30.667-120.041-19.201-243.137-46.816-376.318-84.42-112.067-31.641-229.295-69.87-358.382-116.867-8.996-3.277-17.967-6.564-26.912-9.859-31.983-11.784-64.675-23.944-96.295-35.704-270.866-100.739-550.956-204.908-847.274-249.249-190.744-28.58-377.813-30.52-556.011-5.759-63.761 8.853-128.452 21.509-192.277 37.616-208.854 52.758-415.539 142.053-650.446 281.017-91.552 54.152-185.275 114.007-286.529 182.985-67.527 45.862-133.071 91.73-196.458 136.088-16.808 11.764-33.492 23.437-50.048 35-15.247 10.681-30.363 21.301-45.39 31.861-83.784 58.869-162.925 114.475-248.524 169.56-88.731 57.129-188.989 115.181-335.236 194.115-16.203 8.744-33.459 18.045-50.591 27.191-30.166 16.101-57.075 30.008-82.264 42.517-123.334 61.247-244.55 108.003-360.277 138.965-77.06 20.617-152.282 34.373-224.988 41.188" style="fill:#003c6c;fill-rule:nonzero"/>
    <path d="M2903.2 1433.6c-67.084 6.289-132.25 6.711-195.047 1.226-114.495-9.76-226.712-39.338-333.518-87.918-92.443-42.048-181.02-98.321-263.271-167.256-100.853-84.526-183.233-177.017-270.449-274.937-41.881-47.018-85.185-95.637-130.405-142.882-134.542-141.328-288.132-265.724-456.509-369.74-178.478-110.282-381.85-200.894-588.126-262.045-154.208-45.762-356.271-92.689-551.671-49.043-182.46 40.757-347.848 186.465-296.082 320.464l-9.676 1.962c-24.505-63.434-3.141-134.192 60.158-199.236C-71.783 142.936 16.716 95.673 111.407 74.521c86.289-19.274 179.005-22.728 283.438-10.553 82.891 9.663 170.366 28.664 275.288 59.799 105.491 31.273 209.97 69.974 310.532 115.028 97.526 43.694 191.795 93.541 280.19 148.159 168.984 104.392 323.108 229.217 458.09 371.007 45.299 47.326 88.644 95.99 130.565 143.055 87.041 97.723 169.256 190.028 269.697 274.209 175.954 147.469 380.162 234.895 590.548 252.823 284.346 24.841 563.03-78.384 746.747-169.353 26.272-13.009 53.718-27.299 81.577-42.474 16.066-8.751 32.396-17.806 49.922-27.681 118.477-66.761 226.928-135.59 331.543-210.422 88.622-63.378 170.758-127.47 257.715-195.326 12.562-9.803 25.158-19.63 37.8-29.479l1.801-1.398c77.384-60.172 157.403-122.393 240.06-183.263 97.463-71.888 189.492-134.199 281.343-190.495 224.993-137.909 438.205-230.27 651.82-282.358 64.372-15.69 129.757-27.86 194.338-36.173 91.651-11.8 186.616-16.639 282.252-14.38 89.776 2.119 183.098 10.566 277.369 25.106 309.886 47.764 603.594 155.988 887.635 260.649 19.732 7.27 39.407 14.52 59.026 21.726 8.919 3.276 17.864 6.547 26.837 9.81 390.876 142.188 841.446 275.573 1288.43 233.676 67.732-6.349 135.3-16.707 202.653-31.68l2.784 6.488c-120.748 26.842-249.781 40.127-383.517 39.489-120.776-.579-249.802-12.566-383.491-35.627-280.787-48.437-552.134-140.931-731.809-206.292-8.982-3.268-17.938-6.543-26.868-9.822-19.623-7.208-39.303-14.46-59.04-21.732-283.467-104.45-576.586-212.457-885.174-260.021-195.486-30.15-377.219-33.645-555.582-10.679-64.057 8.245-128.922 20.318-192.79 35.884-212.312 51.772-424.39 143.671-648.349 280.945-91.604 56.146-183.407 118.305-280.65 190.032-82.562 60.799-162.533 122.982-239.87 183.118l-1.798 1.398c-12.64 9.844-25.231 19.669-37.792 29.471-87.033 67.916-169.242 132.066-258.023 195.557-104.907 75.039-213.655 144.059-332.459 211.003-17.573 9.9-33.948 18.979-50.057 27.756-27.984 15.243-55.56 29.6-81.963 42.674-122.832 60.82-245.143 106.502-363.538 135.776-66.564 16.458-131.865 27.689-195.441 33.649" style="fill:#003c6c;fill-rule:nonzero"/>
    <path d="M2967.8 1455.71c-78.903 7.396-155.492 6.746-229.183-2-274.752-32.606-476.171-174.111-596.759-287.076-85.942-80.507-158.147-169.17-227.973-254.913-48.977-60.14-99.621-122.328-154.569-181.161-257.681-275.905-623.612-495.54-1058.24-635.163C557.916 49.405 343.524-7.356 135.384 30.55c-107.673 19.609-209.086 73.6-264.66 140.901-43.337 52.479-54.669 108.75-31.909 158.449l-9.942 2.34c-12.247-26.74-15.216-54.941-8.828-83.814 5.987-27.057 20.003-54.071 41.658-80.296C-81.327 99.14 22.644 43.792 133.044 23.687c211.429-38.504 428.129 18.804 572.735 65.26 215.782 69.319 416.768 159.432 597.377 267.835 180.609 108.404 337.053 232.824 464.987 369.805 55.107 59.006 105.825 121.284 154.873 181.512 69.683 85.566 141.737 174.042 227.32 254.215 119.512 111.958 318.957 252.178 590.41 284.394 343.783 40.8 672.039-107.052 837.107-198.814 251.366-139.738 457.385-316.636 656.618-487.709 82.651-70.968 168.119-144.354 255.727-214.157 172.602-137.524 337.501-244.383 504.12-326.683 97.322-48.072 196.258-87.951 294.057-118.527 106.416-33.269 214.929-56.609 322.519-69.371 125.345-14.868 257.405-16.506 392.511-4.865 121.191 10.442 245.827 31.152 381.027 63.316 249.777 59.421 490.362 147.528 723.027 232.735l10.037 3.675c490.488 179.61 1013.52 331.385 1515.24 226.676l2.71 6.79c-59.145 12.345-119.54 21.418-181.372 27.215-185.139 17.356-383.334 5.349-600.778-36.087-266.054-50.698-523.863-138.804-740.964-218.303l-10.038-3.677C6662.705 167.936 6165.952-13.969 5654.514 33.97c-14.078 1.319-28.092 2.804-42.196 4.478-372.851 44.226-737.35 211.734-1114.32 512.093-87.476 69.698-172.88 143.029-255.47 213.944-199.597 171.385-405.991 348.607-658.278 488.856-131.777 73.257-266.555 128.264-400.587 163.496-73.483 19.316-145.593 32.286-215.864 38.873" style="fill:#003c6c;fill-rule:nonzero"/>
  </g>
</svg>
